# 3ds Max Wavefront OBJ Exporter v0.97b - (c)2007 guruware
# File Created: 25.03.2018 12:19:39

mtllib Muralla.mtl

#
# object muralla
#

v  -288.9977 -0.0000 295.7233
v  -284.1272 -0.0000 298.3607
v  -288.0905 -0.0000 302.1228
v  -292.4891 -0.0000 298.9455
v  -288.0905 4.8025 302.1228
v  -284.1272 4.3963 298.3607
v  -288.9977 4.3963 295.7232
v  -292.4891 4.8025 298.9455
v  -295.9806 -0.0000 302.1677
v  -292.0536 -0.0000 305.8849
v  -292.0536 1.0896 305.8849
v  -295.9806 1.0896 302.1677
v  -285.5063 -0.0000 292.5010
v  -285.5063 20.1323 292.5010
v  -276.2008 -0.0000 290.8366
v  -282.0148 -0.0000 289.2788
v  -270.3578 -0.0000 273.3025
v  -264.5438 -0.0000 274.8604
v  -276.2008 26.7620 290.8366
v  -264.5438 26.7620 274.8604
v  -270.3578 26.7620 273.3025
v  -282.0148 26.7620 289.2788
v  -254.3344 -0.0000 256.2851
v  -260.1485 -0.0000 254.7273
v  -255.3224 -0.0000 230.4214
v  -249.5083 -0.0000 231.9793
v  -260.1485 39.2583 254.7272
v  -254.3344 39.2583 256.2851
v  -249.5083 39.2583 231.9793
v  -255.3224 39.2583 230.4214
v  -255.1871 -0.0000 211.3234
v  -249.3731 -0.0000 212.8813
v  -249.3731 39.2583 212.8813
v  -255.1871 39.2583 211.3234
v  -252.0190 -0.0000 189.8322
v  -246.2049 -0.0000 191.3900
v  -246.2049 39.2583 191.3900
v  -252.0190 39.2583 189.8322
v  -243.1206 -0.0000 172.0809
v  -237.3065 -0.0000 173.6388
v  -237.3065 39.2583 173.6388
v  -243.1206 39.2583 172.0809
v  -237.0530 -0.0000 152.3110
v  -231.2390 -0.0000 153.8689
v  -231.2390 39.2583 153.8689
v  -237.0530 39.2583 152.3110
v  -229.0022 -0.0000 132.1931
v  -223.1881 -0.0000 133.7510
v  -223.1881 39.2583 133.7510
v  -229.0022 39.2583 132.1931
v  -222.9918 -0.0000 109.7619
v  -217.1777 -0.0000 111.3197
v  -217.1777 39.2583 111.3197
v  -222.9918 39.2583 109.7619
v  -209.7918 -0.0000 90.9454
v  -203.9777 -0.0000 92.5032
v  -203.9777 39.2583 92.5033
v  -209.7918 39.2583 90.9454
v  -192.3885 -0.0000 74.1034
v  -186.5744 -0.0000 75.6613
v  -186.5744 39.2583 75.6613
v  -192.3885 39.2583 74.1035
v  -185.3627 -0.0000 62.9564
v  -179.5486 -0.0000 64.5143
v  -179.5486 39.2583 64.5143
v  -185.3627 39.2583 62.9564
v  -174.6243 -0.0000 52.1373
v  -168.8102 -0.0000 53.6951
v  -168.8102 39.2583 53.6952
v  -174.6243 39.2583 52.1373
v  -155.3969 -0.0000 27.5680
v  -149.5828 -0.0000 29.1259
v  -149.5828 26.7620 29.1259
v  -155.3969 26.7620 27.5680
v  -146.9830 -0.0000 -3.8329
v  -141.1690 -0.0000 -2.2750
v  -141.1690 26.7620 -2.2750
v  -146.9830 26.7620 -3.8329
v  -280.1640 -0.0000 294.5987
v  -280.1640 20.1323 294.5987
# 80 vertices

vn 0.0000 -1.0000 -0.0000
vn -0.1323 0.9751 0.1777
vn -0.2983 0.7522 0.5875
vn -0.2259 0.8761 0.4259
vn -0.1979 0.9509 0.2379
vn -0.6874 0.0000 0.7262
vn 0.6885 0.0000 0.7253
vn -0.6782 0.0000 -0.7349
vn 0.0000 1.0000 -0.0000
vn 0.8078 0.0000 0.5894
vn -0.8078 0.0000 -0.5894
vn 0.9809 -0.0000 0.1948
vn -0.9809 -0.0000 -0.1948
vn 1.0000 -0.0000 0.0071
vn 1.0000 0.0000 0.0071
vn -1.0000 -0.0000 -0.0071
vn 0.9893 0.0000 0.1458
vn -0.9893 -0.0000 -0.1458
vn 0.8940 0.0000 0.4481
vn 0.8940 -0.0000 0.4481
vn -0.8940 -0.0000 -0.4481
vn -0.8940 0.0000 -0.4481
vn 0.9560 -0.0000 0.2934
vn -0.9560 0.0000 -0.2934
vn -0.9560 -0.0000 -0.2934
vn 0.9284 -0.0000 0.3715
vn 0.9284 0.0000 0.3715
vn -0.9284 -0.0000 -0.3715
vn -0.9284 0.0000 -0.3715
vn 0.9659 0.0000 0.2588
vn -0.9659 -0.0000 -0.2588
vn -0.9659 0.0000 -0.2588
vn 0.8187 0.0000 0.5743
vn 0.8187 -0.0000 0.5743
vn -0.8187 0.0000 -0.5743
vn -0.8187 -0.0000 -0.5743
vn 0.6954 -0.0000 0.7186
vn -0.6954 -0.0000 -0.7186
vn -0.6954 0.0000 -0.7186
vn 0.8460 0.0000 0.5332
vn 0.8460 -0.0000 0.5332
vn -0.8460 0.0000 -0.5332
vn -0.8460 -0.0000 -0.5332
vn 0.7098 -0.0000 0.7045
vn -0.7097 -0.0000 -0.7045
vn -0.7098 0.0000 -0.7045
vn 0.1033 0.9169 -0.3855
vn 0.7875 -0.0000 0.6163
vn -0.7875 0.0000 -0.6163
vn 0.9659 -0.0000 0.2588
vn 0.2588 0.0000 -0.9659
vn 0.2588 -0.0000 -0.9659
vn -0.1343 0.8548 0.5013
vn 0.8764 -0.0000 0.4817
vn 0.8764 0.0000 0.4817
vn -0.8764 -0.0000 -0.4817
vn -0.8764 0.0000 -0.4817
vn -0.3079 0.4483 0.8392
vn -0.2117 0.5750 0.7903
vn -0.2470 0.5636 0.7883
vn -0.3460 0.4067 0.8455
vn -0.4239 0.7872 0.4478
vn -0.3823 0.8045 0.4545
vn -0.6782 -0.0000 -0.7349
# 64 vertex normals

vt 0.0244 0.9564 0.0000
vt 0.0452 0.9614 0.0000
vt 0.0342 0.9793 0.0000
vt 0.0146 0.9719 0.0000
vt 0.0223 0.7816 0.0000
vt 0.0221 0.8039 0.0000
vt 0.0007 0.7967 0.0000
vt 0.0006 0.7773 0.0000
vt 0.4361 0.5838 0.0000
vt 0.4361 0.6042 0.0000
vt 0.4314 0.6042 0.0000
vt 0.4314 0.5838 0.0000
vt 0.6673 0.0369 0.0000
vt 0.6502 0.0369 0.0000
vt 0.6486 0.0187 0.0000
vt 0.6673 0.0187 0.0000
vt 0.5018 0.5775 0.0000
vt 0.5018 0.5931 0.0000
vt 0.4847 0.5931 0.0000
vt 0.4233 0.5775 0.0000
vt 0.0672 0.9255 0.0000
vt 0.0440 0.9255 0.0000
vt 0.0714 0.8544 0.0000
vt 0.0946 0.8544 0.0000
vt 0.0955 0.0046 0.0000
vt 0.1104 0.0806 0.0000
vt 0.0872 0.0765 0.0000
vt 0.0723 0.0005 0.0000
vt 0.6673 0.0732 0.0000
vt 0.6673 0.1452 0.0000
vt 0.5629 0.1452 0.0000
vt 0.5629 0.0732 0.0000
vt 0.3975 0.5618 0.0000
vt 0.3975 0.4899 0.0000
vt 0.5018 0.4899 0.0000
vt 0.5018 0.5618 0.0000
vt 0.1141 0.7750 0.0000
vt 0.0909 0.7750 0.0000
vt 0.0846 0.6797 0.0000
vt 0.1078 0.6797 0.0000
vt 0.0927 0.1593 0.0000
vt 0.1159 0.1634 0.0000
vt 0.0928 0.2576 0.0000
vt 0.0696 0.2535 0.0000
vt 0.5142 0.2255 0.0000
vt 0.6673 0.2255 0.0000
vt 0.6673 0.3220 0.0000
vt 0.5142 0.3220 0.0000
vt 0.5018 0.4096 0.0000
vt 0.3487 0.4096 0.0000
vt 0.3487 0.3132 0.0000
vt 0.5018 0.3132 0.0000
vt 0.0661 0.6085 0.0000
vt 0.0893 0.6085 0.0000
vt 0.0617 0.3256 0.0000
vt 0.0385 0.3215 0.0000
vt 0.6673 0.3941 0.0000
vt 0.5142 0.3941 0.0000
vt 0.3487 0.2411 0.0000
vt 0.5018 0.2411 0.0000
vt 0.0565 0.5253 0.0000
vt 0.0797 0.5253 0.0000
vt 0.0374 0.4070 0.0000
vt 0.0142 0.4030 0.0000
vt 0.6673 0.4783 0.0000
vt 0.5142 0.4783 0.0000
vt 0.3487 0.1569 0.0000
vt 0.5018 0.1569 0.0000
vt 0.0719 0.4504 0.0000
vt 0.0951 0.4504 0.0000
vt 0.0396 0.4847 0.0000
vt 0.0164 0.4807 0.0000
vt 0.6673 0.5542 0.0000
vt 0.5142 0.5542 0.0000
vt 0.3487 0.0811 0.0000
vt 0.5018 0.0811 0.0000
vt 0.0747 0.3707 0.0000
vt 0.0979 0.3707 0.0000
vt 0.0284 0.5649 0.0000
vt 0.0052 0.5608 0.0000
vt 0.6673 0.6348 0.0000
vt 0.5142 0.6348 0.0000
vt 0.3487 0.0005 0.0000
vt 0.5018 0.0005 0.0000
vt 0.0846 0.2878 0.0000
vt 0.1078 0.2878 0.0000
vt 0.0237 0.6496 0.0000
vt 0.0005 0.6455 0.0000
vt 0.6796 0.0005 0.0000
vt 0.8341 0.0005 0.0000
vt 0.8341 0.0852 0.0000
vt 0.6796 0.0852 0.0000
vt 0.9995 0.6859 0.0000
vt 0.8450 0.6859 0.0000
vt 0.8450 0.6012 0.0000
vt 0.9995 0.6012 0.0000
vt 0.1021 0.9935 0.0000
vt 0.0789 0.9935 0.0000
vt 0.0789 0.9040 0.0000
vt 0.1021 0.9040 0.0000
vt 0.2600 0.0136 0.0000
vt 0.2831 0.0176 0.0000
vt 0.2674 0.1068 0.0000
vt 0.2443 0.1027 0.0000
vt 0.8341 0.1766 0.0000
vt 0.6796 0.1766 0.0000
vt 0.8450 0.5098 0.0000
vt 0.9995 0.5098 0.0000
vt 0.1092 0.8208 0.0000
vt 0.1324 0.8208 0.0000
vt 0.2830 0.1951 0.0000
vt 0.2599 0.1910 0.0000
vt 0.8341 0.2616 0.0000
vt 0.6796 0.2616 0.0000
vt 0.8450 0.4248 0.0000
vt 0.9995 0.4248 0.0000
vt 0.1572 0.7408 0.0000
vt 0.1804 0.7408 0.0000
vt 0.3168 0.2833 0.0000
vt 0.2937 0.2792 0.0000
vt 0.8341 0.3433 0.0000
vt 0.6796 0.3433 0.0000
vt 0.8450 0.3431 0.0000
vt 0.9995 0.3430 0.0000
vt 0.1722 0.6923 0.0000
vt 0.1954 0.6923 0.0000
vt 0.3232 0.3342 0.0000
vt 0.3001 0.3302 0.0000
vt 0.8341 0.3929 0.0000
vt 0.6796 0.3929 0.0000
vt 0.8450 0.2935 0.0000
vt 0.9995 0.2935 0.0000
vt 0.2014 0.6413 0.0000
vt 0.2246 0.6413 0.0000
vt 0.3434 0.3902 0.0000
vt 0.3202 0.3861 0.0000
vt 0.8341 0.4449 0.0000
vt 0.6796 0.4449 0.0000
vt 0.8450 0.2414 0.0000
vt 0.9995 0.2414 0.0000
vt 0.2485 0.5306 0.0000
vt 0.2717 0.5306 0.0000
vt 0.3708 0.5087 0.0000
vt 0.3477 0.5046 0.0000
vt 0.8341 0.5579 0.0000
vt 0.7288 0.5579 0.0000
vt 0.8942 0.1285 0.0000
vt 0.9995 0.1285 0.0000
vt 0.2485 0.4053 0.0000
vt 0.2717 0.4053 0.0000
vt 0.3488 0.6335 0.0000
vt 0.3257 0.6295 0.0000
vt 0.8341 0.6859 0.0000
vt 0.7288 0.6859 0.0000
vt 0.8942 0.0005 0.0000
vt 0.9995 0.0005 0.0000
vt 0.0237 0.7566 0.0000
vt 0.0005 0.7566 0.0000
vt 0.0005 0.6535 0.0000
vt 0.0237 0.6535 0.0000
vt 0.0562 0.9434 0.0000
vt 0.0342 0.9410 0.0000
vt 0.0232 0.9973 0.0000
vt 0.0049 0.9874 0.0000
vt 0.1275 0.9544 0.0000
vt 0.1322 0.9833 0.0000
vt 0.1085 0.9774 0.0000
vt 0.1050 0.9488 0.0000
vt 0.1317 0.8895 0.0000
vt 0.1104 0.8842 0.0000
vt 0.0005 0.7579 0.0000
vt 0.0225 0.7593 0.0000
vt 0.5888 0.0550 0.0000
vt 0.6673 0.0550 0.0000
vt 0.6631 0.0005 0.0000
vt 0.6673 0.0005 0.0000
vt 0.5018 0.6088 0.0000
vt 0.5018 0.6244 0.0000
vt 0.4976 0.6244 0.0000
vt 0.4831 0.6088 0.0000
# 180 texture coords

o muralla
g muralla
usemtl Muralla
f 1/1/1 2/2/1 3/3/1 
f 3/3/1 4/4/1 1/1/1 
f 5/5/2 6/6/3 7/7/4 
f 7/7/4 8/8/5 5/5/2 
f 9/9/6 10/10/6 11/11/6 
f 11/11/6 12/12/6 9/9/6 
f 2/13/7 6/14/7 5/15/7 
f 5/15/7 3/16/7 2/13/7 
f 13/17/8 1/18/8 7/19/8 
f 7/19/8 14/20/8 13/17/8 
f 15/21/1 16/22/1 17/23/1 
f 17/23/1 18/24/1 15/21/1 
f 19/25/9 20/26/9 21/27/9 
f 21/27/9 22/28/9 19/25/9 
f 15/29/10 18/30/10 20/31/10 
f 20/31/10 19/32/10 15/29/10 
f 22/33/11 21/34/11 17/35/11 
f 17/35/11 16/36/11 22/33/11 
f 23/37/1 24/38/1 25/39/1 
f 25/39/1 26/40/1 23/37/1 
f 27/41/9 28/42/9 29/43/9 
f 29/43/9 30/44/9 27/41/9 
f 28/45/12 23/46/12 26/47/12 
f 26/47/12 29/48/12 28/45/12 
f 24/49/13 27/50/13 30/51/13 
f 30/51/13 25/52/13 24/49/13 
f 26/40/1 25/39/1 31/53/1 
f 31/53/1 32/54/1 26/40/1 
f 30/44/9 29/43/9 33/55/9 
f 33/55/9 34/56/9 30/44/9 
f 29/48/14 26/47/14 32/57/14 
f 32/57/15 33/58/15 29/48/15 
f 25/52/16 30/51/16 34/59/16 
f 34/59/16 31/60/16 25/52/16 
f 32/54/1 31/53/1 35/61/1 
f 35/61/1 36/62/1 32/54/1 
f 34/56/9 33/55/9 37/63/9 
f 37/63/9 38/64/9 34/56/9 
f 33/58/17 32/57/17 36/65/17 
f 36/65/17 37/66/17 33/58/17 
f 31/60/18 34/59/18 38/67/18 
f 38/67/18 35/68/18 31/60/18 
f 36/62/1 35/61/1 39/69/1 
f 39/69/1 40/70/1 36/62/1 
f 38/64/9 37/63/9 41/71/9 
f 41/71/9 42/72/9 38/64/9 
f 37/66/19 36/65/19 40/73/19 
f 40/73/20 41/74/20 37/66/20 
f 35/68/21 38/67/21 42/75/21 
f 42/75/22 39/76/22 35/68/22 
f 40/70/1 39/69/1 43/77/1 
f 43/77/1 44/78/1 40/70/1 
f 42/72/9 41/71/9 45/79/9 
f 45/79/9 46/80/9 42/72/9 
f 41/74/23 40/73/23 44/81/23 
f 44/81/23 45/82/23 41/74/23 
f 39/76/24 42/75/24 46/83/24 
f 46/83/25 43/84/25 39/76/25 
f 44/78/1 43/77/1 47/85/1 
f 47/85/1 48/86/1 44/78/1 
f 46/80/9 45/79/9 49/87/9 
f 49/87/9 50/88/9 46/80/9 
f 45/89/26 44/90/26 48/91/26 
f 48/91/27 49/92/27 45/89/27 
f 43/93/28 46/94/28 50/95/28 
f 50/95/29 47/96/29 43/93/29 
f 48/97/1 47/98/1 51/99/1 
f 51/99/1 52/100/1 48/97/1 
f 50/101/9 49/102/9 53/103/9 
f 53/103/9 54/104/9 50/101/9 
f 49/92/30 48/91/30 52/105/30 
f 52/105/30 53/106/30 49/92/30 
f 47/96/31 50/95/31 54/107/31 
f 54/107/32 51/108/32 47/96/32 
f 52/100/1 51/99/1 55/109/1 
f 55/109/1 56/110/1 52/100/1 
f 54/104/9 53/103/9 57/111/9 
f 57/111/9 58/112/9 54/104/9 
f 53/106/33 52/105/33 56/113/33 
f 56/113/34 57/114/34 53/106/34 
f 51/108/35 54/107/35 58/115/35 
f 58/115/36 55/116/36 51/108/36 
f 56/110/1 55/109/1 59/117/1 
f 59/117/1 60/118/1 56/110/1 
f 58/112/9 57/111/9 61/119/9 
f 61/119/9 62/120/9 58/112/9 
f 57/114/37 56/113/37 60/121/37 
f 60/121/37 61/122/37 57/114/37 
f 55/116/38 58/115/38 62/123/38 
f 62/123/39 59/124/39 55/116/39 
f 60/118/1 59/117/1 63/125/1 
f 63/125/1 64/126/1 60/118/1 
f 62/120/9 61/119/9 65/127/9 
f 65/127/9 66/128/9 62/120/9 
f 61/122/40 60/121/40 64/129/40 
f 64/129/41 65/130/41 61/122/41 
f 59/124/42 62/123/42 66/131/42 
f 66/131/43 63/132/43 59/124/43 
f 64/126/1 63/125/1 67/133/1 
f 67/133/1 68/134/1 64/126/1 
f 66/128/9 65/127/9 69/135/9 
f 69/135/9 70/136/9 66/128/9 
f 65/130/44 64/129/44 68/137/44 
f 68/137/44 69/138/44 65/130/44 
f 63/132/45 66/131/45 70/139/45 
f 70/139/46 67/140/46 63/132/46 
f 68/134/1 67/133/1 71/141/1 
f 71/141/1 72/142/1 68/134/1 
f 70/136/47 69/135/47 73/143/47 
f 73/143/47 74/144/47 70/136/47 
f 69/138/48 68/137/48 72/145/48 
f 72/145/48 73/146/48 69/138/48 
f 67/140/49 70/139/49 74/147/49 
f 74/147/49 71/148/49 67/140/49 
f 72/142/1 71/141/1 75/149/1 
f 75/149/1 76/150/1 72/142/1 
f 74/144/9 73/143/9 77/151/9 
f 77/151/9 78/152/9 74/144/9 
f 73/146/50 72/145/50 76/153/50 
f 76/153/30 77/154/30 73/146/30 
f 71/148/32 74/147/32 78/155/32 
f 78/155/31 75/156/31 71/148/31 
f 78/157/51 77/158/51 76/159/51 
f 76/159/52 75/160/52 78/157/52 
f 24/38/1 23/37/1 18/24/1 
f 18/24/1 17/23/1 24/38/1 
f 20/26/53 28/42/53 27/41/53 
f 27/41/53 21/27/53 20/26/53 
f 23/46/54 28/45/54 20/31/54 
f 20/31/55 18/30/55 23/46/55 
f 27/50/56 24/49/56 17/35/56 
f 17/35/57 21/34/57 27/50/57 
f 16/22/1 15/21/1 79/161/1 
f 79/161/1 13/162/1 16/22/1 
f 13/162/1 79/161/1 2/2/1 
f 2/2/1 1/1/1 13/162/1 
f 10/163/1 9/164/1 4/4/1 
f 4/4/1 3/3/1 10/163/1 
f 80/165/58 19/166/59 22/167/60 
f 22/167/60 14/168/61 80/165/58 
f 6/169/3 80/165/58 14/168/61 
f 14/168/61 7/170/4 6/169/3 
f 8/8/5 12/171/62 11/172/63 
f 11/172/63 5/5/2 8/8/5 
f 15/29/7 19/32/7 80/173/7 
f 80/173/7 79/174/7 15/29/7 
f 79/174/7 80/173/7 6/14/7 
f 6/14/7 2/13/7 79/174/7 
f 11/175/7 10/176/7 3/16/7 
f 3/16/7 5/15/7 11/175/7 
f 4/177/64 9/178/64 12/179/64 
f 12/179/64 8/180/64 4/177/64 
f 1/18/8 4/177/64 8/180/64 
f 8/180/64 7/19/8 1/18/8 
f 14/20/8 22/33/8 16/36/64 
f 16/36/64 13/17/8 14/20/8 
# 156 faces

