# 3ds Max Wavefront OBJ Exporter v0.97b - (c)2007 guruware
# File Created: 13.03.2018 20:04:38

mtllib RuinaEdificio2.mtl

#
# object Object020
#

v  -331.5332 23.9970 438.5585
v  -331.0316 23.9949 436.9551
v  -342.9115 24.3443 436.3235
v  -343.4131 24.3464 437.9269
v  -331.6707 -0.9375 436.8197
v  -332.1724 -0.9354 438.4231
v  -344.0523 -0.8362 437.7915
v  -343.5507 -0.8383 436.1881
v  -310.6448 15.4661 456.8391
v  -311.2839 -1.3325 456.7037
v  -310.7823 -1.3346 455.1003
v  -310.1432 15.4640 455.2357
v  -372.3537 24.8004 435.7157
v  -372.9929 -0.4412 435.5803
v  -373.4945 -0.4391 437.1837
v  -372.8554 24.8026 437.3192
v  -317.2695 25.0174 453.0061
v  -317.7711 25.0195 454.6095
v  -323.8348 27.9431 448.0323
v  -324.3365 27.9452 449.6357
v  -326.3976 23.8956 439.1042
v  -326.8992 23.8977 440.7076
v  -367.6556 36.1986 438.0735
v  -367.1540 36.1965 436.4700
v  -359.4509 34.5508 438.8747
v  -358.9493 34.5487 437.2712
v  -350.5395 24.4457 438.5525
v  -350.0379 24.4435 436.9491
v  -318.4103 -1.2332 454.4741
v  -317.9087 -1.2354 452.8707
v  -324.9756 -1.1340 449.5003
v  -324.4740 -1.1361 447.8969
v  -327.5384 -1.0347 440.5722
v  -327.0367 -1.0368 438.9688
v  -367.7931 -0.5405 436.3346
v  -368.2947 -0.5383 437.9380
v  -359.5884 -0.6397 437.1358
v  -360.0901 -0.6376 438.7393
v  -350.6770 -0.7390 436.8137
v  -351.1786 -0.7369 438.4171
# 40 vertices

vn 0.0225 0.9997 0.0062
vn 0.0219 0.9997 0.0060
vn 0.0214 0.9998 0.0058
vn 0.0185 0.9998 0.0048
vn -0.0130 -0.9999 -0.0030
vn -0.0124 -0.9999 -0.0028
vn -0.0109 -0.9999 -0.0023
vn -0.0097 -1.0000 -0.0019
vn -0.2293 0.0009 0.9775
vn -0.2316 0.0010 0.9770
vn 0.0090 -0.0058 1.0009
vn 0.0100 -0.0058 1.0009
vn 0.9430 -0.0416 0.3143
vn -0.0100 0.0058 -1.0009
vn -0.0089 0.0058 -1.0009
vn 0.2316 -0.0010 -0.9770
vn 0.2293 -0.0009 -0.9775
vn -0.9435 0.0277 -0.3144
vn 0.7230 0.6432 0.2401
vn 0.5225 0.8330 0.1730
vn 0.5549 0.8092 0.1838
vn -0.2822 0.9541 -0.0953
vn 0.0715 0.9972 0.0225
vn -0.1672 0.9841 -0.0570
vn -0.3558 0.9260 -0.1198
vn -0.8477 0.4394 -0.2831
vn -0.4889 0.8551 -0.1641
vn -0.3590 0.9247 -0.1209
vn 0.4213 0.8950 0.1392
vn 0.5063 0.8442 0.1676
vn 0.4720 0.8662 0.1561
vn 0.3155 0.9426 0.1039
vn -0.0120 -0.9999 -0.0027
vn -0.0138 -0.9999 -0.0033
vn -0.0167 -0.9999 -0.0042
vn -0.0186 -0.9998 -0.0049
vn -0.0181 -0.9998 -0.0047
vn -0.0170 -0.9998 -0.0043
vn -0.0135 -0.9999 -0.0032
vn -0.0144 -0.9999 -0.0035
vn -0.0106 -0.9999 -0.0022
vn -0.0107 -0.9999 -0.0022
vn -0.0114 -0.9999 -0.0025
vn -0.2827 0.0026 0.9640
vn -0.2795 0.0035 0.9649
vn -0.4982 0.0087 0.8745
vn -0.4375 0.0063 0.9059
vn -0.8022 0.0167 0.6071
vn -0.8115 0.0180 0.5944
vn -0.7846 0.0165 0.6300
vn -0.7447 0.0169 0.6771
vn -0.1369 -0.0012 0.9935
vn -0.1391 -0.0017 0.9933
vn -0.1176 -0.0018 0.9958
vn -0.1062 -0.0018 0.9969
vn -0.0352 -0.0032 1.0010
vn -0.0596 -0.0032 1.0001
vn 0.0496 -0.0062 0.9992
vn 0.0420 -0.0067 0.9996
vn 0.1388 0.0012 -0.9933
vn 0.1356 0.0018 -0.9937
vn 0.1062 0.0019 -0.9969
vn 0.1178 0.0016 -0.9957
vn 0.0597 0.0027 -1.0001
vn 0.0357 0.0040 -1.0010
vn -0.0435 0.0059 -0.9995
vn -0.0502 0.0069 -0.9991
vn 0.2814 -0.0025 -0.9644
vn 0.2835 -0.0037 -0.9638
vn 0.4375 -0.0072 -0.9059
vn 0.4987 -0.0079 -0.8742
vn 0.8107 -0.0169 -0.5956
vn 0.8017 -0.0175 -0.6078
vn 0.7454 -0.0154 -0.6763
vn 0.7857 -0.0183 -0.6285
# 75 vertex normals

vt 0.0914 0.4255 0.0000
vt 0.0707 0.4233 0.0000
vt 0.1304 0.2769 0.0000
vt 0.1511 0.2792 0.0000
vt 0.0620 0.2512 0.0000
vt 0.0805 0.2594 0.0000
vt 0.0596 0.4121 0.0000
vt 0.0410 0.4040 0.0000
vt 0.1003 0.9807 0.0000
vt 0.1026 0.6808 0.0000
vt 0.2561 0.6819 0.0000
vt 0.2537 0.9849 0.0000
vt 0.0005 0.9995 0.0000
vt 0.0029 0.7967 0.0000
vt 0.0216 0.7966 0.0000
vt 0.0192 0.9995 0.0000
vt 0.6180 0.0029 0.0000
vt 0.6099 0.3057 0.0000
vt 0.4564 0.3015 0.0000
vt 0.4646 0.0017 0.0000
vt 0.9993 0.5049 0.0000
vt 0.9907 0.8188 0.0000
vt 0.9715 0.8181 0.0000
vt 0.9800 0.5042 0.0000
vt 0.0676 0.5191 0.0000
vt 0.0879 0.5190 0.0000
vt 0.0836 0.6684 0.0000
vt 0.0634 0.6684 0.0000
vt 0.1926 0.6746 0.0000
vt 0.1720 0.6723 0.0000
vt 0.1535 0.5674 0.0000
vt 0.1742 0.5697 0.0000
vt 0.0686 0.4902 0.0000
vt 0.0892 0.4925 0.0000
vt 0.9695 0.3619 0.0000
vt 0.9888 0.3626 0.0000
vt 0.1098 0.6431 0.0000
vt 0.0898 0.6479 0.0000
vt 0.0895 0.5396 0.0000
vt 0.1095 0.5348 0.0000
vt 0.1150 0.4876 0.0000
vt 0.0948 0.4876 0.0000
vt 0.1354 0.3253 0.0000
vt 0.1556 0.3252 0.0000
vt 0.1774 0.1943 0.0000
vt 0.1981 0.1966 0.0000
vt 0.3036 0.0005 0.0000
vt 0.3222 0.0087 0.0000
vt 0.2875 0.0984 0.0000
vt 0.2690 0.0902 0.0000
vt 0.2208 0.1780 0.0000
vt 0.2022 0.1698 0.0000
vt 0.1114 0.2018 0.0000
vt 0.0928 0.1936 0.0000
vt 0.0191 0.7918 0.0000
vt 0.0005 0.7836 0.0000
vt 0.0154 0.7172 0.0000
vt 0.0339 0.7254 0.0000
vt 0.0342 0.6121 0.0000
vt 0.0528 0.6203 0.0000
vt 0.0404 0.4967 0.0000
vt 0.0590 0.5048 0.0000
vt 0.4703 0.3107 0.0000
vt 0.6789 0.3095 0.0000
vt 0.7941 0.4066 0.0000
vt 0.4683 0.4036 0.0000
vt 0.8275 0.4903 0.0000
vt 0.4667 0.4861 0.0000
vt 0.6028 0.4952 0.0000
vt 0.9530 0.4929 0.0000
vt 0.9043 0.6029 0.0000
vt 0.6040 0.6052 0.0000
vt 0.0424 0.9799 0.0000
vt 0.0447 0.6799 0.0000
vt 0.6374 0.6898 0.0000
vt 0.6349 0.9934 0.0000
vt 0.5683 0.9923 0.0000
vt 0.5755 0.5505 0.0000
vt 0.4627 0.9898 0.0000
vt 0.4693 0.5666 0.0000
vt 0.3468 0.9869 0.0000
vt 0.3492 0.6840 0.0000
vt 0.9994 0.0077 0.0000
vt 0.9912 0.3112 0.0000
vt 0.9245 0.4483 0.0000
vt 0.9327 0.0065 0.0000
vt 0.8189 0.4284 0.0000
vt 0.8271 0.0053 0.0000
vt 0.7030 0.3069 0.0000
vt 0.7111 0.0041 0.0000
vt 0.8234 0.7839 0.0000
vt 0.8150 0.9923 0.0000
vt 0.7220 0.9911 0.0000
vt 0.7304 0.6653 0.0000
vt 0.6395 0.9898 0.0000
vt 0.6479 0.6290 0.0000
vt 0.9352 0.6447 0.0000
vt 0.9328 0.9949 0.0000
vt 0.8228 0.9937 0.0000
vt 0.8252 0.6935 0.0000
vt 0.3986 0.3003 0.0000
vt 0.4067 0.0005 0.0000
# 102 texture coords

o Object020
g Object020
usemtl RuinaEdificio2
f 1/1/1 2/2/2 3/3/3 
f 3/3/3 4/4/4 1/1/1 
f 5/5/5 6/6/6 7/7/7 
f 7/7/7 8/8/8 5/5/5 
f 6/9/9 1/10/10 4/11/11 
f 4/11/11 7/12/12 6/9/9 
f 9/13/13 10/14/13 11/15/13 
f 11/15/13 12/16/13 9/13/13 
f 8/17/14 3/18/15 2/19/16 
f 2/19/16 5/20/17 8/17/14 
f 13/21/18 14/22/18 15/23/18 
f 15/23/18 16/24/18 13/21/18 
f 9/25/19 12/26/19 17/27/20 
f 17/27/20 18/28/21 9/25/19 
f 18/29/21 17/30/20 19/31/22 
f 19/31/22 20/32/23 18/29/21 
f 20/32/23 19/31/22 21/33/24 
f 21/33/24 22/34/25 20/32/23 
f 22/34/25 21/33/24 2/2/2 
f 2/2/2 1/1/1 22/34/25 
f 13/21/26 16/24/26 23/35/27 
f 23/35/27 24/36/28 13/21/26 
f 24/37/28 23/38/27 25/39/29 
f 25/39/29 26/40/30 24/37/28 
f 26/41/30 25/42/29 27/43/31 
f 27/43/31 28/44/32 26/41/30 
f 28/45/32 27/46/31 4/4/4 
f 4/4/4 3/3/3 28/45/32 
f 11/47/33 10/48/33 29/49/33 
f 29/49/33 30/50/33 11/47/33 
f 30/50/33 29/49/33 31/51/34 
f 31/51/34 32/52/35 30/50/33 
f 32/52/35 31/51/34 33/53/36 
f 33/53/36 34/54/37 32/52/35 
f 34/54/37 33/53/36 6/6/6 
f 6/6/6 5/5/5 34/54/37 
f 15/55/38 14/56/38 35/57/39 
f 35/57/39 36/58/40 15/55/38 
f 36/58/40 35/57/39 37/59/41 
f 37/59/41 38/60/42 36/58/40 
f 38/60/42 37/59/41 39/61/33 
f 39/61/33 40/62/43 38/60/42 
f 40/62/43 39/61/33 8/8/8 
f 8/8/8 7/7/7 40/62/43 
f 10/63/44 9/64/45 18/65/46 
f 18/65/46 29/66/47 10/63/44 
f 29/66/47 18/65/46 20/67/48 
f 20/67/48 31/68/49 29/66/47 
f 31/69/49 20/70/48 22/71/50 
f 22/71/50 33/72/51 31/69/49 
f 33/73/51 22/74/50 1/10/10 
f 1/10/10 6/9/9 33/73/51 
f 16/75/52 15/76/53 36/77/54 
f 36/77/54 23/78/55 16/75/52 
f 23/78/55 36/77/54 38/79/56 
f 38/79/56 25/80/57 23/78/55 
f 25/80/57 38/79/56 40/81/58 
f 40/81/58 27/82/59 25/80/57 
f 27/82/59 40/81/58 7/12/12 
f 7/12/12 4/11/11 27/82/59 
f 14/83/60 13/84/61 24/85/62 
f 24/85/62 35/86/63 14/83/60 
f 35/86/63 24/85/62 26/87/64 
f 26/87/64 37/88/65 35/86/63 
f 37/88/65 26/87/64 28/89/66 
f 28/89/66 39/90/67 37/88/65 
f 39/90/67 28/89/66 3/18/15 
f 3/18/15 8/17/14 39/90/67 
f 12/91/68 11/92/69 30/93/70 
f 30/93/70 17/94/71 12/91/68 
f 17/94/71 30/93/70 32/95/72 
f 32/95/72 19/96/73 17/94/71 
f 19/97/73 32/98/72 34/99/74 
f 34/99/74 21/100/75 19/97/73 
f 21/101/75 34/102/74 5/20/17 
f 5/20/17 2/19/16 21/101/75 
# 76 faces

