# 3ds Max Wavefront OBJ Exporter v0.97b - (c)2007 guruware
# File Created: 11.01.2018 22:35:43

mtllib Llave.mtl

#
# object Tube001
#

v  -1.6664 -1.1281 -0.2023
v  -1.2806 -1.0600 -0.2023
v  -1.2806 -1.0600 0.2023
v  -1.6664 -1.1281 0.2023
v  -1.4424 0.6155 -0.2023
v  -1.2806 1.0600 -0.2023
v  -0.9413 0.8641 -0.2023
v  -1.2454 0.5017 -0.2023
v  -1.6664 -0.6550 0.2023
v  -1.4424 -0.6155 0.2023
v  -1.4424 -0.6155 -0.2023
v  -1.6664 -0.6550 -0.2023
v  -0.9413 -0.8641 -0.2023
v  -0.9413 -0.8641 0.2023
v  -1.2454 -0.5017 0.2023
v  -1.2454 -0.5017 -0.2023
v  -1.4424 0.6155 0.2023
v  -1.2454 0.5017 0.2023
v  -0.9413 0.8641 0.2023
v  -1.2806 1.0600 0.2023
v  -0.6895 -0.5640 -0.2023
v  -0.6895 -0.5640 0.2023
v  -1.0992 -0.3275 0.2023
v  -1.0992 -0.3275 -0.2023
v  -1.0214 -0.1137 0.2023
v  -1.0214 -0.1137 -0.2023
v  -1.0214 0.1137 0.2023
v  -1.0214 0.1137 -0.2023
v  -1.0992 0.3275 0.2023
v  -1.0992 0.3275 -0.2023
v  -0.6895 0.5640 -0.2023
v  -0.6895 0.5640 0.2023
v  -1.6664 1.1281 -0.2023
v  -1.6664 1.1281 0.2023
v  -1.6664 0.6550 0.2023
v  -1.6664 0.6550 -0.2023
v  -2.0522 1.0600 -0.2023
v  -2.0522 1.0600 0.2023
v  -1.8904 0.6155 0.2023
v  -1.8904 0.6155 -0.2023
v  -2.3915 0.8641 -0.2023
v  -2.3915 0.8641 0.2023
v  -2.0874 0.5017 0.2023
v  -2.0874 0.5017 -0.2023
v  -2.6433 0.5640 -0.2023
v  -2.6433 0.5640 0.2023
v  -2.2336 0.3275 0.2023
v  -2.2336 0.3275 -0.2023
v  -2.7773 0.1959 -0.2023
v  -2.7773 0.1959 0.2023
v  -2.3114 0.1137 0.2023
v  -2.3114 0.1137 -0.2023
v  -2.7773 -0.1959 -0.2023
v  -2.7773 -0.1959 0.2023
v  -2.3114 -0.1137 0.2023
v  -2.3114 -0.1137 -0.2023
v  -2.6433 -0.5640 -0.2023
v  -2.6433 -0.5640 0.2023
v  -2.2336 -0.3275 0.2023
v  -2.2336 -0.3275 -0.2023
v  -2.3915 -0.8641 -0.2023
v  -2.3915 -0.8641 0.2023
v  -2.0874 -0.5017 0.2023
v  -2.0874 -0.5017 -0.2023
v  -2.0522 -1.0600 -0.2023
v  -2.0522 -1.0600 0.2023
v  -1.8904 -0.6155 0.2023
v  -1.8904 -0.6155 -0.2023
v  -0.5555 -0.1959 0.1316
v  -0.5555 0.1959 0.1316
v  -0.5555 0.1959 0.2023
v  -0.5555 -0.1959 0.2023
v  -0.5555 0.1959 -0.2023
v  -0.5555 0.1959 -0.1221
v  -0.5555 -0.1959 -0.1221
v  -0.5555 -0.1959 -0.2023
v  -0.6415 0.4322 -0.1221
v  -0.5649 -0.2217 -0.1221
v  2.7773 -0.2217 0.1316
v  2.7773 0.4322 0.1316
v  -0.6415 0.4322 0.1316
v  2.7773 0.4322 -0.1221
v  2.7773 -0.2217 -0.1221
v  1.8562 -0.2217 0.1281
v  -0.5649 -0.2217 0.1316
v  1.4463 -0.2217 0.1204
v  1.6451 -0.2217 0.1204
v  1.6451 -0.6644 0.1204
v  1.4463 -0.6644 0.1204
v  1.6451 -0.6644 -0.1059
v  1.6451 -0.2217 -0.1059
v  1.4463 -0.6644 -0.1059
v  1.4463 -0.2217 -0.1059
v  2.0688 -0.3666 0.1281
v  2.0688 -0.2217 0.1281
v  1.8562 -0.3666 0.1281
v  2.0688 -0.2217 -0.1095
v  2.0688 -0.3666 -0.1095
v  1.8562 -0.3666 -0.1095
v  1.8562 -0.2217 -0.1095
v  2.6538 -0.9030 0.1022
v  2.6538 -0.2217 0.1022
v  2.2369 -0.2217 0.1022
v  2.2369 -0.9030 0.1022
v  2.6538 -0.2217 -0.0761
v  2.6538 -0.9030 -0.0761
v  2.2369 -0.9030 -0.0761
v  2.2369 -0.2217 -0.0761
# 108 vertices

vn -0.0000 -0.7423 -0.6701
vn 0.2539 -0.6975 -0.6701
vn 0.2539 -0.6975 0.6701
vn -0.0000 -0.7423 0.6701
vn -0.2269 -0.6232 -0.7484
vn 0.2539 0.6975 -0.6701
vn 0.4772 0.5687 -0.6700
vn -0.4263 -0.5081 -0.7484
vn -0.0000 0.6633 0.7484
vn -0.2269 0.6233 0.7484
vn -0.2269 0.6233 -0.7484
vn -0.0000 0.6633 -0.7484
vn 0.4772 -0.5687 -0.6700
vn 0.4772 -0.5687 0.6700
vn -0.4263 0.5081 0.7484
vn -0.4263 0.5081 -0.7484
vn -0.2269 -0.6232 0.7484
vn -0.4263 -0.5081 0.7484
vn 0.4772 0.5687 0.6700
vn 0.2539 0.6975 0.6701
vn 0.6429 -0.3712 -0.6700
vn 0.6429 -0.3712 0.6700
vn -0.5744 0.3316 0.7484
vn -0.5744 0.3316 -0.7484
vn -0.6532 0.1152 0.7484
vn -0.6532 0.1152 -0.7484
vn -0.6532 -0.1152 0.7484
vn -0.6532 -0.1152 -0.7484
vn -0.5744 -0.3316 0.7484
vn -0.5744 -0.3316 -0.7484
vn 0.6429 0.3712 -0.6700
vn 0.6429 0.3712 0.6700
vn -0.0000 0.7423 -0.6701
vn -0.0000 0.7423 0.6701
vn 0.0000 -0.6633 0.7484
vn 0.0000 -0.6633 -0.7484
vn -0.2539 0.6975 -0.6701
vn -0.2539 0.6975 0.6701
vn 0.2269 -0.6233 0.7484
vn 0.2269 -0.6233 -0.7484
vn -0.4772 0.5687 -0.6700
vn -0.4772 0.5687 0.6700
vn 0.4264 -0.5081 0.7484
vn 0.4264 -0.5081 -0.7484
vn -0.6428 0.3712 -0.6701
vn -0.6428 0.3712 0.6701
vn 0.5744 -0.3316 0.7484
vn 0.5744 -0.3316 -0.7484
vn -0.7310 0.1289 -0.6701
vn -0.7310 0.1289 0.6701
vn 0.6532 -0.1152 0.7484
vn 0.6532 -0.1152 -0.7484
vn -0.7311 -0.1289 -0.6700
vn -0.7311 -0.1289 0.6700
vn 0.6532 0.1152 0.7484
vn 0.6532 0.1152 -0.7484
vn -0.6429 -0.3712 -0.6700
vn -0.6429 -0.3712 0.6700
vn 0.5744 0.3316 0.7484
vn 0.5744 0.3316 -0.7484
vn -0.4772 -0.5687 -0.6700
vn -0.4772 -0.5687 0.6700
vn 0.4264 0.5081 0.7484
vn 0.4264 0.5081 -0.7484
vn -0.2539 -0.6976 -0.6700
vn -0.2539 -0.6976 0.6700
vn 0.2269 0.6233 0.7484
vn 0.2269 0.6233 -0.7484
vn 0.7311 0.1289 0.6700
vn 0.7311 -0.1289 0.6700
vn 0.7311 0.1289 -0.6700
vn 0.7311 -0.1289 -0.6700
vn 0.7924 0.5695 -0.2186
vn 0.7924 -0.5695 -0.2186
vn 0.5774 -0.5774 0.5773
vn 0.5774 0.5774 0.5774
vn 0.7924 0.5695 0.2186
vn 0.5774 0.5774 -0.5774
vn 0.5774 -0.5774 -0.5773
vn -0.3015 -0.9045 0.3015
vn 0.7924 -0.5695 0.2186
vn 0.3015 -0.9045 0.3015
vn 0.5774 -0.5774 0.5774
vn -0.5774 -0.5774 0.5774
vn 0.5774 -0.5774 -0.5774
vn 0.3015 -0.9045 -0.3015
vn -0.5774 -0.5774 -0.5774
vn -0.3015 -0.9045 -0.3015
# 88 vertex normals

vt 0.4167 0.0000 0.0000
vt 0.4167 0.0556 0.0000
vt 0.0000 0.0556 0.0000
vt 0.0000 0.0000 0.0000
vt 0.7168 0.1162 0.0000
vt 0.7901 0.1600 0.0000
vt 0.7451 0.1962 0.0000
vt 0.6907 0.1372 0.0000
vt 0.9167 0.0000 0.0000
vt 0.9167 0.0556 0.0000
vt 0.5000 0.0556 0.0000
vt 0.5000 0.0000 0.0000
vt 0.4167 0.1111 0.0000
vt 0.0000 0.1111 0.0000
vt 0.9167 0.1111 0.0000
vt 0.5000 0.1111 0.0000
vt 0.7260 0.1162 0.0000
vt 0.7612 0.1372 0.0000
vt 0.7323 0.1962 0.0000
vt 0.6716 0.1600 0.0000
vt 0.4167 0.1667 0.0000
vt 0.0000 0.1667 0.0000
vt 0.9167 0.1667 0.0000
vt 0.5000 0.1667 0.0000
vt 0.9167 0.2222 0.0000
vt 0.5000 0.2222 0.0000
vt 0.9167 0.2778 0.0000
vt 0.5000 0.2778 0.0000
vt 0.9167 0.3333 0.0000
vt 0.5000 0.3333 0.0000
vt 0.4167 0.3333 0.0000
vt 0.4167 0.3889 0.0000
vt 0.0000 0.3889 0.0000
vt 0.0000 0.3333 0.0000
vt 0.9167 0.3889 0.0000
vt 0.5000 0.3889 0.0000
vt 0.4167 0.4444 0.0000
vt 0.0000 0.4444 0.0000
vt 0.9167 0.4444 0.0000
vt 0.5000 0.4444 0.0000
vt 0.4167 0.5000 0.0000
vt 0.0000 0.5000 0.0000
vt 0.9167 0.5000 0.0000
vt 0.5000 0.5000 0.0000
vt 0.4167 0.5556 0.0000
vt 0.0000 0.5556 0.0000
vt 0.9167 0.5556 0.0000
vt 0.5000 0.5556 0.0000
vt 0.4167 0.6111 0.0000
vt 0.0000 0.6111 0.0000
vt 0.9167 0.6111 0.0000
vt 0.5000 0.6111 0.0000
vt 0.4167 0.6667 0.0000
vt 0.0000 0.6667 0.0000
vt 0.9167 0.6667 0.0000
vt 0.5000 0.6667 0.0000
vt 0.4167 0.7222 0.0000
vt 0.0000 0.7222 0.0000
vt 0.9167 0.7222 0.0000
vt 0.5000 0.7222 0.0000
vt 0.4167 0.7778 0.0000
vt 0.0000 0.7778 0.0000
vt 0.9167 0.7778 0.0000
vt 0.5000 0.7778 0.0000
vt 0.4167 0.8333 0.0000
vt 0.0000 0.8333 0.0000
vt 0.9167 0.8333 0.0000
vt 0.5000 0.8333 0.0000
vt 0.4167 0.8889 0.0000
vt 0.0000 0.8889 0.0000
vt 0.9167 0.8889 0.0000
vt 0.5000 0.8889 0.0000
vt 0.4167 0.9444 0.0000
vt 0.0000 0.9444 0.0000
vt 0.9167 0.9444 0.0000
vt 0.5000 0.9444 0.0000
vt 0.4167 1.0000 0.0000
vt 0.0000 1.0000 0.0000
vt 0.9167 1.0000 0.0000
vt 0.5000 1.0000 0.0000
vt 0.0728 0.2222 0.0000
vt 0.0728 0.2778 0.0000
vt 0.0000 0.2778 0.0000
vt 0.0000 0.2222 0.0000
vt 0.4167 0.2778 0.0000
vt 0.3341 0.2778 0.0000
vt 0.3341 0.2222 0.0000
vt 0.4167 0.2222 0.0000
vt 0.3341 0.3134 0.0000
vt 0.3341 0.2183 0.0000
vt 0.9548 0.3614 0.0000
vt 0.9548 0.9605 0.0000
vt 0.0205 0.0000 0.0000
vt 1.0000 0.0000 0.0000
vt 1.0000 1.0000 0.0000
vt 0.0205 1.0000 0.0000
vt 0.0452 0.9605 0.0000
vt 0.0452 0.3614 0.0000
vt 0.2639 0.0140 0.0000
vt 0.9575 0.0000 0.0000
vt 0.3813 0.0443 0.0000
vt 0.3244 0.0443 0.0000
vt -0.0000 1.0000 0.0000
vt -0.0000 0.5128 0.0000
vt 1.0000 0.5128 0.0000
vt 0.5128 1.0000 0.0000
vt 0.5128 0.0000 0.0000
vt 0.0000 0.5128 0.0000
vt -0.0000 0.0000 0.0000
vt 0.4872 0.0000 0.0000
vt 0.4872 1.0000 0.0000
vt 0.0000 0.4537 0.0000
vt 1.0000 0.4537 0.0000
vt 0.4537 1.0000 0.0000
vt 0.4537 0.0000 0.0000
vt 0.5463 -0.0000 0.0000
vt 0.5463 1.0000 0.0000
vt 0.0000 0.1938 0.0000
vt 1.0000 0.1938 0.0000
vt 0.1938 1.0000 0.0000
vt 0.1938 0.0000 0.0000
vt 0.8062 -0.0000 0.0000
vt 0.8062 1.0000 0.0000
vt 0.6554 0.1484 0.0000
vt 0.6844 0.2155 0.0000
vt 0.6154 0.2155 0.0000
vt 0.6154 0.1484 0.0000
vt 0.5464 0.1962 0.0000
vt 0.5753 0.1372 0.0000
vt 0.4857 0.1600 0.0000
vt 0.5401 0.1162 0.0000
vt 0.4406 0.1111 0.0000
vt 0.5139 0.0878 0.0000
vt 0.5000 0.0233 0.0000
vt 0.4406 -0.0489 0.0000
vt 0.5139 -0.0051 0.0000
vt 0.4857 -0.0851 0.0000
vt 0.5401 -0.0261 0.0000
vt 0.5464 -0.1044 0.0000
vt 0.5753 -0.0373 0.0000
vt 0.6154 -0.1044 0.0000
vt 0.6154 -0.0373 0.0000
vt 0.6844 -0.0851 0.0000
vt 0.6554 -0.0261 0.0000
vt 0.7451 -0.0489 0.0000
vt 0.6907 -0.0051 0.0000
vt 0.7901 -0.0000 0.0000
vt 0.7168 0.0233 0.0000
vt 0.8141 0.0556 0.0000
vt 0.7307 0.0556 0.0000
vt 0.8141 0.1111 0.0000
vt 0.7307 0.0878 0.0000
vt 0.8013 0.1484 0.0000
vt 0.8013 0.2155 0.0000
vt 0.8414 0.1484 0.0000
vt 0.8703 0.2155 0.0000
vt 0.8766 0.1372 0.0000
vt 0.9310 0.1962 0.0000
vt 0.9028 0.1162 0.0000
vt 0.9760 0.1600 0.0000
vt 0.9167 0.0878 0.0000
vt 1.0000 0.1111 0.0000
vt 1.0000 0.0556 0.0000
vt 0.9028 0.0233 0.0000
vt 0.9760 0.0000 0.0000
vt 0.8766 -0.0051 0.0000
vt 0.9310 -0.0489 0.0000
vt 0.8414 -0.0261 0.0000
vt 0.8703 -0.0851 0.0000
vt 0.8013 -0.0373 0.0000
vt 0.8013 -0.1044 0.0000
vt 0.7612 -0.0373 0.0000
vt 0.7323 -0.1044 0.0000
vt 0.7260 -0.0261 0.0000
vt 0.6716 -0.0851 0.0000
vt 0.6998 -0.0051 0.0000
vt 0.6266 -0.0489 0.0000
vt 0.6859 0.0233 0.0000
vt 0.6026 -0.0000 0.0000
vt 0.6859 0.0556 0.0000
vt 0.6026 0.0556 0.0000
vt 0.6998 0.0878 0.0000
vt 0.6266 0.1111 0.0000
vt 0.0728 0.3134 0.0000
vt -0.0000 0.3333 0.0000
vt -0.0000 0.2778 0.0000
vt 0.0728 0.2183 0.0000
vt 0.9795 0.0000 0.0000
vt 0.9575 1.0000 0.0000
vt 0.0425 1.0000 0.0000
vt 0.0354 0.1160 0.0000
vt 0.0354 0.8187 0.0000
vt 0.2030 0.9504 0.0000
vt 0.1548 0.8187 0.0000
vt 0.1548 0.1160 0.0000
vt 0.2030 0.0140 0.0000
vt 0.3244 0.9362 0.0000
vt 0.2639 0.9504 0.0000
vt 0.3813 0.9362 0.0000
# 199 texture coords

o Tube001
g Tube001
usemtl Material__19
s 2
f 1/1/1 2/2/2 3/3/3 4/4/4 
s 4
f 5/5/5 6/6/6 7/7/7 8/8/8 
s 2
f 9/9/9 10/10/10 11/11/11 12/12/12 
f 2/2/2 13/13/13 14/14/14 3/3/3 
f 15/15/15 16/16/16 11/11/11 10/10/10 
s 4
f 17/17/17 18/18/18 19/19/19 20/20/20 
s 2
f 13/13/13 21/21/21 22/22/22 14/14/14 
f 15/15/15 23/23/23 24/24/24 16/16/16 
f 23/23/23 25/25/25 26/26/26 24/24/24 
f 25/25/25 27/27/27 28/28/28 26/26/26 
f 29/29/29 30/30/30 28/28/28 27/27/27 
f 31/31/31 7/32/7 19/33/19 32/34/32 
f 29/29/29 18/35/18 8/36/8 30/30/30 
f 7/32/7 6/37/6 20/38/20 19/33/19 
f 18/35/18 17/39/17 5/40/5 8/36/8 
f 6/37/6 33/41/33 34/42/34 20/38/20 
f 17/39/17 35/43/35 36/44/36 5/40/5 
f 33/41/33 37/45/37 38/46/38 34/42/34 
f 35/43/35 39/47/39 40/48/40 36/44/36 
f 37/45/37 41/49/41 42/50/42 38/46/38 
f 39/47/39 43/51/43 44/52/44 40/48/40 
f 41/49/41 45/53/45 46/54/46 42/50/42 
f 47/55/47 48/56/48 44/52/44 43/51/43 
f 45/53/45 49/57/49 50/58/50 46/54/46 
f 51/59/51 52/60/52 48/56/48 47/55/47 
f 49/57/49 53/61/53 54/62/54 50/58/50 
f 51/59/51 55/63/55 56/64/56 52/60/52 
f 53/61/53 57/65/57 58/66/58 54/62/54 
f 55/63/55 59/67/59 60/68/60 56/64/56 
f 57/65/57 61/69/61 62/70/62 58/66/58 
f 59/67/59 63/71/63 64/72/64 60/68/60 
f 61/69/61 65/73/65 66/74/66 62/70/62 
f 63/71/63 67/75/67 68/76/68 64/72/64 
f 65/73/65 1/77/1 4/78/4 66/74/66 
f 9/79/9 12/80/12 68/76/68 67/75/67 
f 69/81/51 70/82/55 71/83/69 72/84/70 
f 73/85/71 74/86/56 75/87/52 76/88/72 
f 77/89/73 74/86/56 73/85/71 31/31/31 
f 78/90/74 21/21/21 76/88/72 75/87/52 
s 1
f 79/78/75 80/4/76 70/91/55 69/92/51 
s 8
f 81/93/77 80/94/76 82/95/78 77/96/73 
s 1
f 83/95/79 75/97/52 74/98/56 82/94/78 
s 2
f 83/95/79 82/78/78 80/4/76 79/94/75 
s 8
f 84/99/80 85/100/81 86/101/80 87/102/82 
s 2
f 88/103/83 87/104/82 86/105/80 89/95/84 
s 1
f 90/95/85 91/106/86 87/107/82 88/94/83 
s 2
f 91/105/86 90/95/85 92/78/87 93/108/88 
s 4
f 92/95/87 90/103/85 88/109/83 89/94/84 
s 1
f 89/4/84 86/110/80 93/111/88 92/78/87 
s 2
f 94/78/83 95/112/82 84/113/80 96/95/84 
s 1
f 97/114/86 95/115/82 94/94/83 98/95/85 
s 2
f 97/113/86 98/95/85 99/78/87 100/112/88 
s 4
f 99/95/87 98/78/85 94/4/83 96/94/84 
s 1
f 84/116/80 100/117/88 99/78/87 96/4/84 
s 2
f 101/78/83 102/118/82 103/119/80 104/95/84 
s 1
f 105/120/86 102/121/82 101/94/83 106/95/85 
s 2
f 105/119/86 106/95/85 107/78/87 108/118/88 
s 4
f 107/95/87 106/78/85 101/4/83 104/94/84 
s 1
f 103/122/80 108/123/88 107/78/87 104/4/84 
s 4
f 30/124/30 8/8/8 7/7/7 31/125/31 
f 73/126/71 28/127/28 30/124/30 31/125/31 
f 76/128/72 26/129/26 28/127/28 73/126/71 
f 21/130/21 24/131/24 26/129/26 76/128/72 
f 13/132/13 16/133/16 24/131/24 21/130/21 
f 2/2/2 11/11/11 16/133/16 13/132/13 
f 1/1/1 12/134/12 11/11/11 2/2/2 
f 65/135/65 68/136/68 12/134/12 1/1/1 
f 61/137/61 64/138/64 68/136/68 65/135/65 
f 57/139/57 60/140/60 64/138/64 61/137/61 
f 53/141/53 56/142/56 60/140/60 57/139/57 
f 49/143/49 52/144/52 56/142/56 53/141/53 
f 45/145/45 48/146/48 52/144/52 49/143/49 
f 41/147/41 44/148/44 48/146/48 45/145/45 
f 37/149/37 40/150/40 44/148/44 41/147/41 
f 33/151/33 36/152/36 40/150/40 37/149/37 
f 6/6/6 5/5/5 36/152/36 33/151/33 
f 19/19/19 18/18/18 29/153/29 32/154/32 
f 29/153/29 27/155/27 71/156/69 32/154/32 
f 27/155/27 25/157/25 72/158/70 71/156/69 
f 25/157/25 23/159/23 22/160/22 72/158/70 
f 23/159/23 15/161/15 14/162/14 22/160/22 
f 15/161/15 10/10/10 3/163/3 14/162/14 
f 10/10/10 9/164/9 4/165/4 3/163/3 
f 9/164/9 67/166/67 66/167/66 4/165/4 
f 67/166/67 63/168/63 62/169/62 66/167/66 
f 63/168/63 59/170/59 58/171/58 62/169/62 
f 59/170/59 55/172/55 54/173/54 58/171/58 
f 55/172/55 51/174/51 50/175/50 54/173/54 
f 51/174/51 47/176/47 46/177/46 50/175/50 
f 47/176/47 43/178/43 42/179/42 46/177/46 
f 43/178/43 39/180/39 38/181/38 42/179/42 
f 39/180/39 35/182/35 34/183/34 38/181/38 
f 35/182/35 17/17/17 20/20/20 34/183/34 
s 2
f 81/184/77 32/185/32 71/186/69 70/82/55 
f 81/184/77 77/89/73 31/31/31 32/185/32 
f 72/84/70 22/22/22 85/187/81 69/81/51 
f 21/21/21 78/90/74 85/187/81 22/22/22 
s 1
f 70/91/55 80/4/76 81/188/77 
f 79/78/75 69/92/51 85/189/81 
f 82/94/78 74/98/56 77/93/73 
f 75/97/52 83/95/79 78/190/74 
s 8
f 102/191/82 105/192/86 83/78/79 79/4/75 
f 97/193/86 108/194/88 103/195/80 95/196/82 
f 84/99/80 87/102/82 91/197/86 100/198/88 
f 108/194/88 97/193/86 83/78/79 105/192/86 
f 97/193/86 100/198/88 78/189/74 83/78/79 
f 91/197/86 93/199/88 78/189/74 100/198/88 
f 93/199/88 86/101/80 85/100/81 78/189/74 
f 79/4/75 95/196/82 103/195/80 102/191/82 
f 85/100/81 84/99/80 95/196/82 79/4/75 
# 106 polygons - 4 triangles

