# 3ds Max Wavefront OBJ Exporter v0.97b - (c)2007 guruware
# File Created: 13.03.2018 20:09:14

mtllib SueloEdificio3.mtl

#
# object Object025
#

v  -315.1263 37.5121 283.3074
v  -315.1392 37.5086 280.4896
v  -327.6631 50.8753 280.5470
v  -327.6501 50.8788 283.3649
v  -316.2296 -7.2315 280.5979
v  -316.2167 -7.2280 283.4158
v  -328.7405 -7.0615 283.4732
v  -328.7535 -7.0650 280.6554
v  -265.0308 20.2815 283.0776
v  -266.1212 -7.8940 283.1860
v  -266.1342 -7.8975 280.3681
v  -265.0437 20.2780 280.2598
v  -378.5959 35.9375 281.3951
v  -379.6863 -6.3990 281.5034
v  -379.6734 -6.3955 284.3213
v  -378.5829 35.9411 284.2130
v  -277.5676 36.3014 280.3172
v  -277.5546 36.3050 283.1351
v  -290.0915 25.9162 280.3747
v  -290.0785 25.9197 283.1925
v  -302.6154 37.3421 280.4321
v  -302.6024 37.3456 283.2500
v  -366.8626 33.8261 283.4680
v  -366.8756 33.8225 280.6502
v  -357.6426 23.4479 283.2712
v  -357.6555 23.4444 280.4534
v  -348.6060 47.2970 283.0667
v  -348.6190 47.2935 280.2488
v  -278.6451 -7.7275 283.2434
v  -278.6580 -7.7310 280.4256
v  -291.1689 -7.5610 283.3009
v  -291.1819 -7.5645 280.4830
v  -303.6928 -7.3945 283.3583
v  -303.7058 -7.3980 280.5405
v  -366.3252 -6.5655 280.8277
v  -366.3122 -6.5620 283.6456
v  -353.8013 -6.7320 280.7703
v  -353.7883 -6.7285 283.5881
v  -341.2774 -6.8985 280.7128
v  -341.2644 -6.8950 283.5307
# 40 vertices

vn 0.3845 0.9229 -0.0058
vn 0.3846 0.9229 -0.0058
vn 0.3028 0.9529 -0.0049
vn 0.3082 0.9512 -0.0049
vn -0.0123 -0.9999 0.0014
vn -0.0021 0.0021 1.0011
vn -0.0010 0.0023 1.0011
vn -0.0129 0.0021 1.0012
vn -0.0045 0.0046 1.0012
vn 0.9979 -0.0419 -0.0120
vn 0.0021 -0.0020 -1.0011
vn 0.0114 -0.0043 -1.0012
vn 0.0014 -0.0020 -1.0011
vn 0.0023 -0.0023 -1.0011
vn -0.9984 0.0279 0.0120
vn 0.7624 0.6460 -0.0100
vn 0.1068 0.9943 -0.0025
vn 0.1074 0.9942 -0.0026
vn 0.0236 0.9997 -0.0015
vn 0.0230 0.9997 -0.0015
vn 0.3482 0.9372 -0.0054
vn 0.3483 0.9372 -0.0054
vn 0.1641 0.9864 -0.0032
vn 0.4596 0.8878 -0.0067
vn 0.4716 0.8815 -0.0068
vn -0.1794 0.9837 0.0009
vn -0.1947 0.9808 0.0011
vn -0.6176 0.7859 0.0065
vn -0.6213 0.7830 0.0065
vn -0.0114 -0.9999 0.0014
vn -0.0119 -0.9999 0.0014
vn -0.0118 -0.9999 0.0014
vn -0.0015 0.0026 1.0011
vn 0.0018 0.0035 1.0011
vn -0.0022 0.0027 1.0011
vn -0.0025 0.0026 1.0011
vn -0.0018 0.0028 1.0011
vn -0.0020 0.0028 1.0011
vn -0.0017 0.0025 1.0011
vn -0.0023 0.0023 1.0011
vn 0.0499 0.0043 0.9992
vn 0.0401 0.0013 0.9998
vn 0.0197 0.0033 1.0006
vn 0.0417 0.0069 0.9996
vn -0.0002 0.0088 1.0011
vn 0.0113 0.0121 1.0008
vn -0.0027 0.0097 1.0011
vn -0.0147 0.0045 1.0012
vn -0.0425 -0.0043 -0.9996
vn -0.0521 -0.0009 -0.9990
vn -0.0402 -0.0026 -0.9997
vn -0.0207 -0.0075 -1.0006
vn -0.0020 -0.0080 -1.0011
vn 0.0028 -0.0101 -1.0011
vn 0.0171 -0.0073 -1.0012
vn 0.0046 -0.0057 -1.0011
vn 0.0001 -0.0025 -1.0011
vn 0.0023 -0.0037 -1.0011
vn 0.0019 -0.0028 -1.0011
vn 0.0020 -0.0026 -1.0011
vn 0.0025 -0.0028 -1.0011
vn 0.0027 -0.0028 -1.0011
vn 0.0016 -0.0023 -1.0011
# 63 vertex normals

vt 0.6053 0.4973 0.0000
vt 0.6059 0.4718 0.0000
vt 0.7286 0.4745 0.0000
vt 0.7280 0.4999 0.0000
vt 0.5580 0.5194 0.0000
vt 0.5562 0.5415 0.0000
vt 0.4497 0.5326 0.0000
vt 0.4515 0.5105 0.0000
vt 0.5411 0.0058 0.0000
vt 0.5505 0.3587 0.0000
vt 0.4439 0.4641 0.0000
vt 0.4345 0.0071 0.0000
vt 0.7851 0.6356 0.0000
vt 0.5410 0.6271 0.0000
vt 0.5418 0.6028 0.0000
vt 0.7860 0.6113 0.0000
vt 0.4345 0.9929 0.0000
vt 0.4439 0.5359 0.0000
vt 0.5505 0.6413 0.0000
vt 0.5411 0.9942 0.0000
vt 0.5462 0.3660 0.0000
vt 0.8801 0.3660 0.0000
vt 0.8801 0.3882 0.0000
vt 0.5462 0.3882 0.0000
vt 0.9251 0.6064 0.0000
vt 0.9243 0.6307 0.0000
vt 0.2373 0.4893 0.0000
vt 0.2379 0.4638 0.0000
vt 0.3606 0.4665 0.0000
vt 0.3600 0.4920 0.0000
vt 0.4832 0.4691 0.0000
vt 0.4827 0.4946 0.0000
vt 0.7179 0.4273 0.0000
vt 0.7161 0.4049 0.0000
vt 0.8174 0.4020 0.0000
vt 0.8192 0.4244 0.0000
vt 0.0056 0.3775 0.0000
vt 0.0066 0.3486 0.0000
vt 0.1135 0.3454 0.0000
vt 0.1125 0.3743 0.0000
vt 0.7127 0.4036 0.0000
vt 0.7118 0.4273 0.0000
vt 0.5101 0.4258 0.0000
vt 0.5110 0.4020 0.0000
vt 0.9339 0.4753 0.0000
vt 0.9333 0.5008 0.0000
vt 0.9842 0.5548 0.0000
vt 0.9824 0.5770 0.0000
vt 0.8758 0.5681 0.0000
vt 0.8777 0.5460 0.0000
vt 0.7693 0.5592 0.0000
vt 0.7711 0.5371 0.0000
vt 0.6628 0.5504 0.0000
vt 0.6646 0.5282 0.0000
vt 0.0159 0.5014 0.0000
vt 0.0178 0.4793 0.0000
vt 0.1319 0.4839 0.0000
vt 0.1300 0.5060 0.0000
vt 0.2384 0.4928 0.0000
vt 0.2366 0.5149 0.0000
vt 0.3449 0.5016 0.0000
vt 0.3431 0.5238 0.0000
vt 0.9676 0.0005 0.0000
vt 0.9769 0.2228 0.0000
vt 0.8703 0.3492 0.0000
vt 0.8610 0.0018 0.0000
vt 0.7637 0.2672 0.0000
vt 0.7543 0.0031 0.0000
vt 0.6571 0.3574 0.0000
vt 0.6477 0.0044 0.0000
vt 0.0099 0.3463 0.0000
vt 0.0005 0.0123 0.0000
vt 0.1147 0.0110 0.0000
vt 0.1101 0.3296 0.0000
vt 0.2213 0.0097 0.0000
vt 0.1887 0.2477 0.0000
vt 0.3279 0.0084 0.0000
vt 0.2657 0.4359 0.0000
vt 0.0005 0.9877 0.0000
vt 0.0099 0.6537 0.0000
vt 0.1101 0.6704 0.0000
vt 0.1147 0.9890 0.0000
vt 0.1887 0.7523 0.0000
vt 0.2213 0.9903 0.0000
vt 0.2657 0.5641 0.0000
vt 0.3279 0.9916 0.0000
vt 0.9769 0.7772 0.0000
vt 0.9676 0.9995 0.0000
vt 0.8610 0.9982 0.0000
vt 0.8703 0.6508 0.0000
vt 0.7543 0.9969 0.0000
vt 0.7637 0.7328 0.0000
vt 0.6477 0.9956 0.0000
vt 0.6571 0.6426 0.0000
# 94 texture coords

o Object025
g Object025
usemtl SueloEdificio3
f 1/1/1 2/2/2 3/3/3 
f 3/3/3 4/4/4 1/1/1 
f 5/5/5 6/6/5 7/7/5 
f 7/7/5 8/8/5 5/5/5 
f 6/9/6 1/10/7 4/11/8 
f 4/11/8 7/12/9 6/9/6 
f 9/13/10 10/14/10 11/15/10 
f 11/15/10 12/16/10 9/13/10 
f 8/17/11 3/18/12 2/19/13 
f 2/19/13 5/20/14 8/17/11 
f 13/21/15 14/22/15 15/23/15 
f 15/23/15 16/24/15 13/21/15 
f 9/13/16 12/16/16 17/25/17 
f 17/25/17 18/26/18 9/13/16 
f 18/27/18 17/28/17 19/29/19 
f 19/29/19 20/30/20 18/27/18 
f 20/30/20 19/29/19 21/31/21 
f 21/31/21 22/32/22 20/30/20 
f 22/32/22 21/31/21 2/2/2 
f 2/2/2 1/1/1 22/32/22 
f 13/33/23 16/34/23 23/35/24 
f 23/35/24 24/36/25 13/33/23 
f 24/37/25 23/38/24 25/39/26 
f 25/39/26 26/40/27 24/37/25 
f 26/41/27 25/42/26 27/43/28 
f 27/43/28 28/44/29 26/41/27 
f 28/45/29 27/46/28 4/4/4 
f 4/4/4 3/3/3 28/45/29 
f 11/47/5 10/48/5 29/49/5 
f 29/49/5 30/50/5 11/47/5 
f 30/50/5 29/49/5 31/51/5 
f 31/51/5 32/52/5 30/50/5 
f 32/52/5 31/51/5 33/53/5 
f 33/53/5 34/54/5 32/52/5 
f 34/54/5 33/53/5 6/6/5 
f 6/6/5 5/5/5 34/54/5 
f 15/55/30 14/56/30 35/57/31 
f 35/57/31 36/58/32 15/55/30 
f 36/58/32 35/57/31 37/59/5 
f 37/59/5 38/60/5 36/58/32 
f 38/60/5 37/59/5 39/61/5 
f 39/61/5 40/62/5 38/60/5 
f 40/62/5 39/61/5 8/8/5 
f 8/8/5 7/7/5 40/62/5 
f 10/63/33 9/64/34 18/65/35 
f 18/65/35 29/66/36 10/63/33 
f 29/66/36 18/65/35 20/67/37 
f 20/67/37 31/68/38 29/66/36 
f 31/68/38 20/67/37 22/69/39 
f 22/69/39 33/70/40 31/68/38 
f 33/70/40 22/69/39 1/10/7 
f 1/10/7 6/9/6 33/70/40 
f 16/71/41 15/72/42 36/73/43 
f 36/73/43 23/74/44 16/71/41 
f 23/74/44 36/73/43 38/75/45 
f 38/75/45 25/76/46 23/74/44 
f 25/76/46 38/75/45 40/77/47 
f 40/77/47 27/78/48 25/76/46 
f 27/78/48 40/77/47 7/12/9 
f 7/12/9 4/11/8 27/78/48 
f 14/79/49 13/80/50 24/81/51 
f 24/81/51 35/82/52 14/79/49 
f 35/82/52 24/81/51 26/83/53 
f 26/83/53 37/84/54 35/82/52 
f 37/84/54 26/83/53 28/85/55 
f 28/85/55 39/86/56 37/84/54 
f 39/86/56 28/85/55 3/18/12 
f 3/18/12 8/17/11 39/86/56 
f 12/87/57 11/88/58 30/89/59 
f 30/89/59 17/90/60 12/87/57 
f 17/90/60 30/89/59 32/91/61 
f 32/91/61 19/92/62 17/90/60 
f 19/92/62 32/91/61 34/93/60 
f 34/93/60 21/94/63 19/92/62 
f 21/94/63 34/93/60 5/20/14 
f 5/20/14 2/19/13 21/94/63 
# 76 faces

