# 3ds Max Wavefront OBJ Exporter v0.97b - (c)2007 guruware
# File Created: 03.04.2018 12:10:21

mtllib PuertaReja.mtl

#
# object puertabidones
#

v  -7.4157 -7.4930 0.4195
v  -7.4157 -7.4930 -0.4195
v  7.4157 -7.4930 -0.4195
v  7.4157 -7.4930 0.4195
v  -7.4157 -7.0871 0.4195
v  7.4157 -7.0871 0.4195
v  7.4157 -7.0871 -0.4195
v  -7.4157 -7.0871 -0.4195
v  7.2818 -9.0197 0.1580
v  7.2818 -9.0197 -0.2010
v  7.2818 8.9263 -0.2010
v  7.2818 8.9263 0.1580
v  6.8959 -9.0197 0.1580
v  6.8959 8.9263 0.1580
v  6.8959 8.9263 -0.2010
v  6.8959 -9.0197 -0.2010
v  5.7398 -9.0157 0.1580
v  5.7398 -9.0157 -0.2010
v  6.2757 8.9223 -0.2010
v  6.2757 8.9223 0.1580
v  5.3541 -9.0042 0.1580
v  5.8900 8.9338 0.1580
v  5.8900 8.9338 -0.2010
v  5.3541 -9.0042 -0.2010
v  4.6269 -9.0197 0.1580
v  4.6269 -9.0197 -0.2010
v  4.6269 8.9263 -0.2010
v  4.6269 8.9263 0.1580
v  4.2410 -9.0197 0.1580
v  4.2410 8.9263 0.1580
v  4.2410 8.9263 -0.2010
v  4.2410 -9.0197 -0.2010
v  3.4363 -9.0048 0.0826
v  3.4361 -9.0018 -0.2764
v  2.3604 8.9114 -0.1255
v  2.3606 8.9083 0.2334
v  3.0511 -9.0279 0.0826
v  1.9754 8.8852 0.2334
v  1.9752 8.8882 -0.1255
v  3.0509 -9.0249 -0.2764
v  1.5154 -9.0142 0.1580
v  1.5154 -9.0142 -0.2010
v  0.8847 8.9208 -0.2010
v  0.8847 8.9208 0.1580
v  1.1298 -9.0277 0.1580
v  0.4990 8.9072 0.1580
v  0.4990 8.9072 -0.2010
v  1.1298 -9.0277 -0.2010
v  -0.3103 -9.0197 0.1580
v  -0.3103 -9.0197 -0.2010
v  -0.3103 8.9263 -0.2010
v  -0.3103 8.9263 0.1580
v  -0.6962 -9.0197 0.1580
v  -0.6962 8.9263 0.1580
v  -0.6962 8.9263 -0.2010
v  -0.6962 -9.0197 -0.2010
v  -1.8125 -9.0159 0.1580
v  -1.8125 -9.0159 -0.2010
v  -2.3353 8.9225 -0.2010
v  -2.3353 8.9225 0.1580
v  -2.1982 -9.0272 0.1580
v  -2.7211 8.9113 0.1580
v  -2.7211 8.9113 -0.2010
v  -2.1982 -9.0272 -0.2010
v  -3.7442 -9.0197 0.1580
v  -3.7442 -9.0197 -0.2010
v  -3.7442 8.9263 -0.2010
v  -3.7442 8.9263 0.1580
v  -4.1301 -9.0197 0.1580
v  -4.1301 8.9263 0.1580
v  -4.1301 8.9263 -0.2010
v  -4.1301 -9.0197 -0.2010
v  -5.5954 -9.0164 0.1580
v  -5.5954 -9.0164 -0.2010
v  -5.1099 8.9230 -0.2010
v  -5.1099 8.9230 0.1580
v  -5.9812 -9.0060 0.1580
v  -5.4957 8.9335 0.1580
v  -5.4957 8.9335 -0.2010
v  -5.9812 -9.0060 -0.2010
v  -6.8676 -9.0197 0.1580
v  -6.8676 -9.0197 -0.2010
v  -6.8676 8.9263 -0.2010
v  -6.8676 8.9263 0.1580
v  -7.2535 -9.0197 0.1580
v  -7.2535 8.9263 0.1580
v  -7.2535 8.9263 -0.2010
v  -7.2535 -9.0197 -0.2010
v  -5.4628 -2.9607 0.2903
v  -5.4628 -0.2235 0.2903
v  -7.0748 -0.2235 0.2903
v  -7.0748 -2.9607 0.2903
v  -5.4628 -2.9607 -0.4030
v  -7.0748 -2.9607 -0.4030
v  -7.0748 -0.2235 -0.4030
v  -5.4628 -0.2235 -0.4030
v  -7.4157 8.6220 0.4195
v  -7.4157 8.6220 -0.4195
v  7.4157 8.6220 -0.4195
v  7.4157 8.6220 0.4195
v  -7.4157 9.0279 0.4195
v  7.4157 9.0279 0.4195
v  7.4157 9.0279 -0.4195
v  -7.4157 9.0279 -0.4195
# 104 vertices

vn 0.0000 -1.0000 -0.0000
vn 0.0000 1.0000 -0.0000
vn 0.0000 0.0000 1.0000
vn 1.0000 0.0000 -0.0000
vn 0.0000 0.0000 -1.0000
vn -1.0000 0.0000 -0.0000
vn -1.0000 -0.0000 -0.0000
vn 0.9996 -0.0299 -0.0000
vn -0.9996 0.0299 -0.0000
vn 0.0299 0.9996 -0.0000
vn -0.0299 -0.9996 -0.0000
vn 0.9982 0.0599 0.0000
vn -0.9982 -0.0599 -0.0000
vn 0.0005 -0.0084 1.0000
vn -0.0599 0.9982 0.0084
vn -0.0005 0.0084 -1.0000
vn 0.0599 -0.9982 -0.0084
vn 0.9994 0.0351 -0.0000
vn -0.9994 -0.0351 -0.0000
vn -0.0352 0.9994 -0.0000
vn 0.0351 -0.9994 -0.0000
vn 0.9996 0.0291 -0.0000
vn -0.9996 -0.0291 -0.0000
vn -0.0291 0.9996 -0.0000
vn 0.0291 -0.9996 -0.0000
vn 0.9996 -0.0271 -0.0000
vn -0.9996 0.0271 -0.0000
vn 0.0271 0.9996 -0.0000
vn -0.0271 -0.9996 -0.0000
vn -0.0000 0.0000 1.0000
vn 0.0000 -0.0000 -1.0000
vn 1.0000 0.0000 0.0000
# 32 vertex normals

vt 0.2005 0.9117 0.0000
vt 0.2005 0.8834 0.0000
vt 0.7003 0.8834 0.0000
vt 0.7003 0.9117 0.0000
vt 0.8775 0.2980 0.0000
vt 0.8775 0.7978 0.0000
vt 0.8492 0.7978 0.0000
vt 0.8492 0.2980 0.0000
vt 0.2883 0.8590 0.0000
vt 0.7881 0.8590 0.0000
vt 0.7881 0.8727 0.0000
vt 0.2883 0.8727 0.0000
vt 0.6541 0.9224 0.0000
vt 0.6824 0.9224 0.0000
vt 0.6824 0.9361 0.0000
vt 0.6541 0.9361 0.0000
vt 0.9410 0.0834 0.0000
vt 0.9410 0.5832 0.0000
vt 0.9273 0.5832 0.0000
vt 0.9273 0.0834 0.0000
vt 0.9019 0.8590 0.0000
vt 0.9019 0.8873 0.0000
vt 0.8883 0.8873 0.0000
vt 0.8883 0.8590 0.0000
vt 0.3761 0.2249 0.0000
vt 0.3882 0.2249 0.0000
vt 0.3882 0.8296 0.0000
vt 0.3761 0.8296 0.0000
vt 0.3589 0.2298 0.0000
vt 0.3589 0.8345 0.0000
vt 0.3468 0.8345 0.0000
vt 0.3468 0.2298 0.0000
vt 0.2428 0.2590 0.0000
vt 0.2428 0.8638 0.0000
vt 0.2298 0.8638 0.0000
vt 0.2298 0.2590 0.0000
vt 0.7842 0.9224 0.0000
vt 0.7842 0.9345 0.0000
vt 0.7712 0.9345 0.0000
vt 0.7712 0.9224 0.0000
vt 0.2590 0.8589 0.0000
vt 0.2590 0.2541 0.0000
vt 0.2720 0.2541 0.0000
vt 0.2720 0.8589 0.0000
vt 0.7696 0.9224 0.0000
vt 0.7696 0.9345 0.0000
vt 0.7566 0.9345 0.0000
vt 0.7566 0.9224 0.0000
vt 0.5371 0.1859 0.0000
vt 0.5492 0.1859 0.0000
vt 0.5492 0.7906 0.0000
vt 0.5371 0.7906 0.0000
vt 0.5345 0.1907 0.0000
vt 0.5345 0.7955 0.0000
vt 0.5224 0.7955 0.0000
vt 0.5224 0.1907 0.0000
vt 0.1663 0.8833 0.0000
vt 0.1694 0.2785 0.0000
vt 0.1824 0.2786 0.0000
vt 0.1794 0.8833 0.0000
vt 0.9647 0.6590 0.0000
vt 0.9647 0.6711 0.0000
vt 0.9517 0.6711 0.0000
vt 0.9517 0.6590 0.0000
vt 0.0298 0.9123 0.0000
vt 0.0478 0.3078 0.0000
vt 0.0608 0.3082 0.0000
vt 0.0428 0.9127 0.0000
vt 0.9647 0.6736 0.0000
vt 0.9647 0.6857 0.0000
vt 0.9517 0.6857 0.0000
vt 0.9517 0.6736 0.0000
vt 0.4639 0.2005 0.0000
vt 0.4760 0.2005 0.0000
vt 0.4760 0.8052 0.0000
vt 0.4639 0.8052 0.0000
vt 0.2126 0.2688 0.0000
vt 0.2126 0.8735 0.0000
vt 0.2005 0.8735 0.0000
vt 0.2005 0.2688 0.0000
vt 0.4037 0.2200 0.0000
vt 0.4037 0.8248 0.0000
vt 0.3907 0.8248 0.0000
vt 0.3907 0.2200 0.0000
vt 0.7403 0.9224 0.0000
vt 0.7403 0.9345 0.0000
vt 0.7273 0.9345 0.0000
vt 0.7273 0.9224 0.0000
vt 0.3322 0.8394 0.0000
vt 0.3322 0.2346 0.0000
vt 0.3452 0.2346 0.0000
vt 0.3452 0.8394 0.0000
vt 0.9647 0.5858 0.0000
vt 0.9647 0.5979 0.0000
vt 0.9517 0.5979 0.0000
vt 0.9517 0.5858 0.0000
vt 0.0103 0.9540 0.0000
vt 0.0104 0.9419 0.0000
vt 0.6151 0.9470 0.0000
vt 0.6150 0.9591 0.0000
vt 0.1590 0.2883 0.0000
vt 0.1640 0.8930 0.0000
vt 0.1519 0.8931 0.0000
vt 0.1468 0.2884 0.0000
vt 0.6302 0.1720 0.0000
vt 0.5939 0.7757 0.0000
vt 0.5810 0.7749 0.0000
vt 0.6172 0.1712 0.0000
vt 0.9647 0.7322 0.0000
vt 0.9647 0.7443 0.0000
vt 0.9517 0.7443 0.0000
vt 0.9517 0.7322 0.0000
vt 0.0590 0.9076 0.0000
vt 0.0650 0.3029 0.0000
vt 0.0780 0.3031 0.0000
vt 0.0720 0.9078 0.0000
vt 0.9647 0.7175 0.0000
vt 0.9647 0.7296 0.0000
vt 0.9517 0.7296 0.0000
vt 0.9517 0.7175 0.0000
vt 0.5663 0.1761 0.0000
vt 0.5784 0.1761 0.0000
vt 0.5784 0.7808 0.0000
vt 0.5663 0.7808 0.0000
vt 0.5638 0.1810 0.0000
vt 0.5638 0.7857 0.0000
vt 0.5517 0.7857 0.0000
vt 0.5517 0.1810 0.0000
vt 0.1079 0.2936 0.0000
vt 0.0867 0.8980 0.0000
vt 0.0737 0.8975 0.0000
vt 0.0949 0.2932 0.0000
vt 0.9647 0.7029 0.0000
vt 0.9647 0.7150 0.0000
vt 0.9517 0.7150 0.0000
vt 0.9517 0.7029 0.0000
vt 0.0054 0.9827 0.0000
vt 0.6098 0.9614 0.0000
vt 0.6102 0.9744 0.0000
vt 0.0058 0.9957 0.0000
vt 0.9647 0.6883 0.0000
vt 0.9647 0.7004 0.0000
vt 0.9517 0.7004 0.0000
vt 0.9517 0.6883 0.0000
vt 0.4054 0.2151 0.0000
vt 0.4175 0.2151 0.0000
vt 0.4175 0.8199 0.0000
vt 0.4054 0.8199 0.0000
vt 0.3004 0.2444 0.0000
vt 0.3004 0.8491 0.0000
vt 0.2883 0.8491 0.0000
vt 0.2883 0.2444 0.0000
vt 0.3159 0.2444 0.0000
vt 0.3159 0.8491 0.0000
vt 0.3029 0.8491 0.0000
vt 0.3029 0.2444 0.0000
vt 0.7110 0.9224 0.0000
vt 0.7110 0.9345 0.0000
vt 0.6980 0.9345 0.0000
vt 0.6980 0.9224 0.0000
vt 0.2151 0.8687 0.0000
vt 0.2151 0.2639 0.0000
vt 0.2281 0.2639 0.0000
vt 0.2281 0.8687 0.0000
vt 0.9013 0.8883 0.0000
vt 0.9013 0.9004 0.0000
vt 0.8883 0.9004 0.0000
vt 0.8883 0.8883 0.0000
vt 0.4932 0.1956 0.0000
vt 0.5053 0.1956 0.0000
vt 0.5053 0.8004 0.0000
vt 0.4932 0.8004 0.0000
vt 0.5199 0.1907 0.0000
vt 0.5199 0.7955 0.0000
vt 0.5078 0.7955 0.0000
vt 0.5078 0.1907 0.0000
vt 0.0458 0.3131 0.0000
vt 0.0281 0.9176 0.0000
vt 0.0151 0.9172 0.0000
vt 0.0328 0.3127 0.0000
vt 0.9647 0.6444 0.0000
vt 0.9647 0.6565 0.0000
vt 0.9517 0.6565 0.0000
vt 0.9517 0.6444 0.0000
vt 0.1273 0.8930 0.0000
vt 0.1308 0.2883 0.0000
vt 0.1438 0.2884 0.0000
vt 0.1403 0.8931 0.0000
vt 0.9647 0.6297 0.0000
vt 0.9647 0.6418 0.0000
vt 0.9517 0.6418 0.0000
vt 0.9517 0.6297 0.0000
vt 0.4467 0.8150 0.0000
vt 0.4346 0.8150 0.0000
vt 0.4346 0.2102 0.0000
vt 0.4467 0.2102 0.0000
vt 0.2565 0.2590 0.0000
vt 0.2565 0.8638 0.0000
vt 0.2444 0.8638 0.0000
vt 0.2444 0.2590 0.0000
vt 0.3745 0.2298 0.0000
vt 0.3745 0.8345 0.0000
vt 0.3615 0.8345 0.0000
vt 0.3615 0.2298 0.0000
vt 0.9647 0.5712 0.0000
vt 0.9647 0.5833 0.0000
vt 0.9517 0.5833 0.0000
vt 0.9517 0.5712 0.0000
vt 0.4200 0.8199 0.0000
vt 0.4200 0.2151 0.0000
vt 0.4330 0.2151 0.0000
vt 0.4330 0.8199 0.0000
vt 0.7549 0.9224 0.0000
vt 0.7549 0.9345 0.0000
vt 0.7419 0.9345 0.0000
vt 0.7419 0.9224 0.0000
vt 0.4785 0.2005 0.0000
vt 0.4906 0.2005 0.0000
vt 0.4906 0.8052 0.0000
vt 0.4785 0.8052 0.0000
vt 0.6491 0.9345 0.0000
vt 0.0444 0.9345 0.0000
vt 0.0444 0.9224 0.0000
vt 0.6491 0.9224 0.0000
vt 0.1256 0.2884 0.0000
vt 0.1208 0.8931 0.0000
vt 0.1078 0.8930 0.0000
vt 0.1126 0.2883 0.0000
vt 0.9647 0.6151 0.0000
vt 0.9647 0.6272 0.0000
vt 0.9517 0.6272 0.0000
vt 0.9517 0.6151 0.0000
vt 0.0005 0.9221 0.0000
vt 0.0169 0.3176 0.0000
vt 0.0299 0.3179 0.0000
vt 0.0135 0.9224 0.0000
vt 0.9647 0.6005 0.0000
vt 0.9647 0.6126 0.0000
vt 0.9517 0.6126 0.0000
vt 0.9517 0.6005 0.0000
vt 0.3176 0.2395 0.0000
vt 0.3297 0.2395 0.0000
vt 0.3297 0.8443 0.0000
vt 0.3176 0.8443 0.0000
vt 0.2858 0.2493 0.0000
vt 0.2858 0.8540 0.0000
vt 0.2737 0.8540 0.0000
vt 0.2737 0.2493 0.0000
vt 0.4623 0.2054 0.0000
vt 0.4623 0.8101 0.0000
vt 0.4493 0.8101 0.0000
vt 0.4493 0.2054 0.0000
vt 0.7257 0.9224 0.0000
vt 0.7257 0.9345 0.0000
vt 0.7127 0.9345 0.0000
vt 0.7127 0.9224 0.0000
vt 0.1859 0.8784 0.0000
vt 0.1859 0.2737 0.0000
vt 0.1989 0.2737 0.0000
vt 0.1989 0.8784 0.0000
vt 0.6964 0.9224 0.0000
vt 0.6964 0.9345 0.0000
vt 0.6834 0.9345 0.0000
vt 0.6834 0.9224 0.0000
vt 0.6597 0.6054 0.0000
vt 0.6597 0.6976 0.0000
vt 0.6054 0.6976 0.0000
vt 0.6054 0.6054 0.0000
vt 0.6736 0.6054 0.0000
vt 0.7280 0.6054 0.0000
vt 0.7280 0.6976 0.0000
vt 0.6736 0.6976 0.0000
vt 0.6597 0.7263 0.0000
vt 0.6054 0.7263 0.0000
vt 0.6054 0.7029 0.0000
vt 0.6597 0.7029 0.0000
vt 0.7122 0.9702 0.0000
vt 0.6200 0.9702 0.0000
vt 0.6200 0.9468 0.0000
vt 0.7122 0.9468 0.0000
vt 0.7175 0.9468 0.0000
vt 0.7719 0.9468 0.0000
vt 0.7719 0.9702 0.0000
vt 0.7175 0.9702 0.0000
vt 0.8492 0.8927 0.0000
vt 0.8492 0.8005 0.0000
vt 0.8726 0.8005 0.0000
vt 0.8726 0.8927 0.0000
vt 0.8102 0.4054 0.0000
vt 0.8385 0.4054 0.0000
vt 0.8385 0.9052 0.0000
vt 0.8102 0.9052 0.0000
vt 0.9165 0.1907 0.0000
vt 0.9165 0.6905 0.0000
vt 0.8883 0.6905 0.0000
vt 0.8883 0.1907 0.0000
vt 0.2883 0.9858 0.0000
vt 0.7881 0.9858 0.0000
vt 0.7881 0.9995 0.0000
vt 0.2883 0.9995 0.0000
vt 0.9019 0.8297 0.0000
vt 0.9019 0.8580 0.0000
vt 0.8883 0.8580 0.0000
vt 0.8883 0.8297 0.0000
vt 0.9654 0.0151 0.0000
vt 0.9654 0.5149 0.0000
vt 0.9517 0.5149 0.0000
vt 0.9517 0.0151 0.0000
vt 0.9654 0.5175 0.0000
vt 0.9654 0.5458 0.0000
vt 0.9517 0.5458 0.0000
vt 0.9517 0.5175 0.0000
# 312 texture coords

o puertabidones
g puertabidones
usemtl PuertaRejaRuinas
f 1/1/1 2/2/1 3/3/1 
f 3/3/1 4/4/1 1/1/1 
f 5/5/2 6/6/2 7/7/2 
f 7/7/2 8/8/2 5/5/2 
f 1/9/3 4/10/3 6/11/3 
f 6/11/3 5/12/3 1/9/3 
f 4/13/4 3/14/4 7/15/4 
f 7/15/4 6/16/4 4/13/4 
f 3/17/5 2/18/5 8/19/5 
f 8/19/5 7/20/5 3/17/5 
f 2/21/6 1/22/6 5/23/6 
f 5/23/6 8/24/6 2/21/6 
f 9/25/4 10/26/4 11/27/4 
f 11/27/4 12/28/4 9/25/4 
f 13/29/7 14/30/7 15/31/7 
f 15/31/7 16/32/7 13/29/7 
f 9/33/3 12/34/3 14/35/3 
f 14/35/3 13/36/3 9/33/3 
f 12/37/2 11/38/2 15/39/2 
f 15/39/2 14/40/2 12/37/2 
f 11/41/5 10/42/5 16/43/5 
f 16/43/5 15/44/5 11/41/5 
f 10/45/1 9/46/1 13/47/1 
f 13/47/1 16/48/1 10/45/1 
f 17/49/8 18/50/8 19/51/8 
f 19/51/8 20/52/8 17/49/8 
f 21/53/9 22/54/9 23/55/9 
f 23/55/9 24/56/9 21/53/9 
f 17/57/3 20/58/3 22/59/3 
f 22/59/3 21/60/3 17/57/3 
f 20/61/10 19/62/10 23/63/10 
f 23/63/10 22/64/10 20/61/10 
f 19/65/5 18/66/5 24/67/5 
f 24/67/5 23/68/5 19/65/5 
f 18/69/11 17/70/11 21/71/11 
f 21/71/11 24/72/11 18/69/11 
f 25/73/4 26/74/4 27/75/4 
f 27/75/4 28/76/4 25/73/4 
f 29/77/7 30/78/7 31/79/7 
f 31/79/7 32/80/7 29/77/7 
f 25/81/3 28/82/3 30/83/3 
f 30/83/3 29/84/3 25/81/3 
f 28/85/2 27/86/2 31/87/2 
f 31/87/2 30/88/2 28/85/2 
f 27/89/5 26/90/5 32/91/5 
f 32/91/5 31/92/5 27/89/5 
f 26/93/1 25/94/1 29/95/1 
f 29/95/1 32/96/1 26/93/1 
f 33/97/12 34/98/12 35/99/12 
f 35/99/12 36/100/12 33/97/12 
f 37/101/13 38/102/13 39/103/13 
f 39/103/13 40/104/13 37/101/13 
f 33/105/14 36/106/14 38/107/14 
f 38/107/14 37/108/14 33/105/14 
f 36/109/15 35/110/15 39/111/15 
f 39/111/15 38/112/15 36/109/15 
f 35/113/16 34/114/16 40/115/16 
f 40/115/16 39/116/16 35/113/16 
f 34/117/17 33/118/17 37/119/17 
f 37/119/17 40/120/17 34/117/17 
f 41/121/18 42/122/18 43/123/18 
f 43/123/18 44/124/18 41/121/18 
f 45/125/19 46/126/19 47/127/19 
f 47/127/19 48/128/19 45/125/19 
f 41/129/3 44/130/3 46/131/3 
f 46/131/3 45/132/3 41/129/3 
f 44/133/20 43/134/20 47/135/20 
f 47/135/20 46/136/20 44/133/20 
f 43/137/5 42/138/5 48/139/5 
f 48/139/5 47/140/5 43/137/5 
f 42/141/21 41/142/21 45/143/21 
f 45/143/21 48/144/21 42/141/21 
f 49/145/4 50/146/4 51/147/4 
f 51/147/4 52/148/4 49/145/4 
f 53/149/7 54/150/7 55/151/7 
f 55/151/7 56/152/7 53/149/7 
f 49/153/3 52/154/3 54/155/3 
f 54/155/3 53/156/3 49/153/3 
f 52/157/2 51/158/2 55/159/2 
f 55/159/2 54/160/2 52/157/2 
f 51/161/5 50/162/5 56/163/5 
f 56/163/5 55/164/5 51/161/5 
f 50/165/1 49/166/1 53/167/1 
f 53/167/1 56/168/1 50/165/1 
f 57/169/22 58/170/22 59/171/22 
f 59/171/22 60/172/22 57/169/22 
f 61/173/23 62/174/23 63/175/23 
f 63/175/23 64/176/23 61/173/23 
f 57/177/3 60/178/3 62/179/3 
f 62/179/3 61/180/3 57/177/3 
f 60/181/24 59/182/24 63/183/24 
f 63/183/24 62/184/24 60/181/24 
f 59/185/5 58/186/5 64/187/5 
f 64/187/5 63/188/5 59/185/5 
f 58/189/25 57/190/25 61/191/25 
f 61/191/25 64/192/25 58/189/25 
f 65/193/4 66/194/4 67/195/4 
f 67/195/4 68/196/4 65/193/4 
f 69/197/7 70/198/7 71/199/7 
f 71/199/7 72/200/7 69/197/7 
f 65/201/3 68/202/3 70/203/3 
f 70/203/3 69/204/3 65/201/3 
f 68/205/2 67/206/2 71/207/2 
f 71/207/2 70/208/2 68/205/2 
f 67/209/5 66/210/5 72/211/5 
f 72/211/5 71/212/5 67/209/5 
f 66/213/1 65/214/1 69/215/1 
f 69/215/1 72/216/1 66/213/1 
f 73/217/26 74/218/26 75/219/26 
f 75/219/26 76/220/26 73/217/26 
f 77/221/27 78/222/27 79/223/27 
f 79/223/27 80/224/27 77/221/27 
f 73/225/3 76/226/3 78/227/3 
f 78/227/3 77/228/3 73/225/3 
f 76/229/28 75/230/28 79/231/28 
f 79/231/28 78/232/28 76/229/28 
f 75/233/5 74/234/5 80/235/5 
f 80/235/5 79/236/5 75/233/5 
f 74/237/29 73/238/29 77/239/29 
f 77/239/29 80/240/29 74/237/29 
f 81/241/4 82/242/4 83/243/4 
f 83/243/4 84/244/4 81/241/4 
f 85/245/7 86/246/7 87/247/7 
f 87/247/7 88/248/7 85/245/7 
f 81/249/3 84/250/3 86/251/3 
f 86/251/3 85/252/3 81/249/3 
f 84/253/2 83/254/2 87/255/2 
f 87/255/2 86/256/2 84/253/2 
f 83/257/5 82/258/5 88/259/5 
f 88/259/5 87/260/5 83/257/5 
f 82/261/1 81/262/1 85/263/1 
f 85/263/1 88/264/1 82/261/1 
f 89/265/30 90/266/30 91/267/30 
f 91/267/30 92/268/30 89/265/30 
f 93/269/31 94/270/31 95/271/31 
f 95/271/31 96/272/31 93/269/31 
f 89/273/1 92/274/1 94/275/1 
f 94/275/1 93/276/1 89/273/1 
f 92/277/6 91/278/6 95/279/6 
f 95/279/6 94/280/6 92/277/6 
f 91/281/2 90/282/2 96/283/2 
f 96/283/2 95/284/2 91/281/2 
f 90/285/32 89/286/32 93/287/32 
f 93/287/32 96/288/32 90/285/32 
f 97/289/1 98/290/1 99/291/1 
f 99/291/1 100/292/1 97/289/1 
f 101/293/2 102/294/2 103/295/2 
f 103/295/2 104/296/2 101/293/2 
f 97/297/3 100/298/3 102/299/3 
f 102/299/3 101/300/3 97/297/3 
f 100/301/4 99/302/4 103/303/4 
f 103/303/4 102/304/4 100/301/4 
f 99/305/5 98/306/5 104/307/5 
f 104/307/5 103/308/5 99/305/5 
f 98/309/6 97/310/6 101/311/6 
f 101/311/6 104/312/6 98/309/6 
# 156 faces

