# 3ds Max Wavefront OBJ Exporter v0.97b - (c)2007 guruware
# File Created: 10.03.2018 11:21:45

mtllib Mina_low.mtl

#
# object Mina_LowPoly
#

v  0.4018 -0.2993 1.2367
v  -0.4018 -0.2993 1.2367
v  -1.0520 -0.2993 0.7643
v  -1.3003 -0.2993 -0.0000
v  -1.0520 -0.2993 -0.7643
v  -0.4018 -0.2993 -1.2367
v  0.4018 -0.2993 -1.2367
v  1.0520 -0.2993 -0.7643
v  1.3003 -0.2993 -0.0000
v  1.0520 -0.2993 0.7643
v  1.0520 0.1462 -0.7643
v  1.3003 0.1462 -0.0000
v  0.4018 0.1462 -1.2367
v  -0.4018 0.1462 -1.2367
v  -1.0520 0.1462 -0.7643
v  -1.3003 0.1462 -0.0000
v  -1.0520 0.1462 0.7643
v  -0.4018 0.1462 1.2367
v  0.4018 0.1462 1.2367
v  1.0520 0.1462 0.7643
v  0.3189 0.2993 -0.0210
# 21 vertices

vn 0.2365 -0.6437 0.7278
vn -0.2365 -0.6437 0.7278
vn -0.6191 -0.6438 0.4498
vn -0.7652 -0.6438 0.0000
vn -0.6191 -0.6437 -0.4498
vn -0.2365 -0.6437 -0.7278
vn 0.2365 -0.6437 -0.7278
vn 0.6191 -0.6438 -0.4498
vn 0.7653 -0.6437 -0.0000
vn 0.6191 -0.6437 0.4498
vn 0.6607 0.5739 -0.4838
vn 0.8215 0.5701 0.0004
vn 0.2472 0.5832 -0.7738
vn -0.2521 0.5919 -0.7656
vn -0.6498 0.5974 -0.4700
vn -0.8005 0.5994 0.0001
vn -0.6492 0.5980 0.4700
vn -0.2515 0.5933 0.7647
vn 0.2468 0.5852 0.7724
vn 0.6595 0.5756 0.4835
vn 0.0463 0.9989 -0.0030
# 21 vertex normals

vt 0.6828 0.9995 0.0000
vt 0.5064 0.9995 0.0000
vt 0.3636 0.8958 0.0000
vt 0.3091 0.7280 0.0000
vt 0.3636 0.5602 0.0000
vt 0.5064 0.4565 0.0000
vt 0.6828 0.4565 0.0000
vt 0.8255 0.5602 0.0000
vt 0.8800 0.7280 0.0000
vt 0.8255 0.8958 0.0000
vt 0.2901 0.7210 0.0000
vt 0.2901 0.8888 0.0000
vt 0.1479 0.8888 0.0000
vt 0.1479 0.7210 0.0000
vt 0.7007 0.4670 0.0000
vt 0.7007 0.3243 0.0000
vt 0.8428 0.3243 0.0000
vt 0.8428 0.4670 0.0000
vt 0.7007 0.1478 0.0000
vt 0.8428 0.1478 0.0000
vt 0.7007 0.0051 0.0000
vt 0.8428 0.0051 0.0000
vt 0.1426 0.5533 0.0000
vt 0.1426 0.7210 0.0000
vt 0.0005 0.7210 0.0000
vt 0.0005 0.5533 0.0000
vt 0.1426 0.8888 0.0000
vt 0.0005 0.8888 0.0000
vt 0.8527 0.4670 0.0000
vt 0.8527 0.3243 0.0000
vt 0.9948 0.3243 0.0000
vt 0.9948 0.4670 0.0000
vt 0.8527 0.1478 0.0000
vt 0.9948 0.1478 0.0000
vt 0.8527 0.0051 0.0000
vt 0.9948 0.0051 0.0000
vt 0.2901 0.5533 0.0000
vt 0.1479 0.5533 0.0000
vt 0.5714 0.2720 0.0000
vt 0.5169 0.4398 0.0000
vt 0.3560 0.2766 0.0000
vt 0.3742 0.5435 0.0000
vt 0.1977 0.5435 0.0000
vt 0.0550 0.4398 0.0000
vt 0.0005 0.2720 0.0000
vt 0.0550 0.1042 0.0000
vt 0.1977 0.0005 0.0000
vt 0.3742 0.0005 0.0000
vt 0.5169 0.1042 0.0000
# 49 texture coords

o Mina_LowPoly
g Mina_LowPoly
usemtl Mina_low
f 1/1/1 2/2/2 3/3/3 
f 3/3/3 4/4/4 5/5/5 
f 5/5/5 6/6/6 7/7/7 
f 7/7/7 8/8/8 9/9/9 
f 5/5/5 7/7/7 9/9/9 
f 3/3/3 5/5/5 9/9/9 
f 1/1/1 3/3/3 9/9/9 
f 10/10/10 1/1/1 9/9/9 
f 9/11/9 8/12/8 11/13/11 
f 11/13/11 12/14/12 9/11/9 
f 8/15/8 7/16/7 13/17/13 
f 13/17/13 11/18/11 8/15/8 
f 7/16/7 6/19/6 14/20/14 
f 14/20/14 13/17/13 7/16/7 
f 6/19/6 5/21/5 15/22/15 
f 15/22/15 14/20/14 6/19/6 
f 5/23/5 4/24/4 16/25/16 
f 16/25/16 15/26/15 5/23/5 
f 4/24/4 3/27/3 17/28/17 
f 17/28/17 16/25/16 4/24/4 
f 3/29/3 2/30/2 18/31/18 
f 18/31/18 17/32/17 3/29/3 
f 2/30/2 1/33/1 19/34/19 
f 19/34/19 18/31/18 2/30/2 
f 1/33/1 10/35/10 20/36/20 
f 20/36/20 19/34/19 1/33/1 
f 10/37/10 9/11/9 12/14/12 
f 12/14/12 20/38/20 10/37/10 
f 12/39/12 11/40/11 21/41/21 
f 13/42/13 14/43/14 21/41/21 
f 15/44/15 16/45/16 21/41/21 
f 17/46/17 18/47/18 21/41/21 
f 19/48/19 20/49/20 21/41/21 
f 11/40/11 13/42/13 21/41/21 
f 14/43/14 15/44/15 21/41/21 
f 16/45/16 17/46/17 21/41/21 
f 18/47/18 19/48/19 21/41/21 
f 20/49/20 12/39/12 21/41/21 
# 0 polygons - 38 triangles

