# 3ds Max Wavefront OBJ Exporter v0.97b - (c)2007 guruware
# File Created: 11.05.2018 12:30:38

mtllib suelo_t_5.mtl

#
# object suelo_t_5
#

v  -200.7623 -0.0000 96.3727
v  -276.2682 -0.0000 63.5780
v  -247.6178 -0.0000 105.0859
v  -247.4443 -0.0000 16.1647
v  -264.3825 -0.0000 -8.9725
v  -263.5552 -0.0000 15.9297
v  -283.4135 -0.0000 -42.5749
v  -291.0206 -0.0000 -17.6161
v  -335.6869 -0.0000 82.2883
v  -311.4281 -0.0000 111.8017
v  -301.1961 -0.0000 91.7089
v  -276.1169 -0.0000 40.4613
v  -299.1675 -0.0000 41.8763
v  -349.2377 -0.0000 -73.0547
v  -335.2606 -0.0000 -51.1417
v  -312.3090 -0.0000 -63.3387
v  -445.0306 -0.0000 -72.3618
v  -450.2326 -0.0000 -47.1225
v  -416.8997 -0.0000 -38.8459
v  -417.7227 -0.0000 -79.2786
v  -419.3815 -0.0000 -101.4543
v  -481.6365 -0.0000 -59.9970
v  -467.1366 -0.0000 -90.6844
v  -532.3901 -0.0000 -119.4977
v  -570.5368 -0.0000 -120.8837
v  -538.7311 -0.0000 -85.1729
v  -573.8031 -0.0000 -90.1644
v  -608.7355 -0.0000 -120.8800
v  -377.0802 -0.0000 -53.7862
v  -344.2350 -0.0000 -17.0315
v  -323.5054 -0.0000 -28.5964
v  -317.3631 -0.0000 6.7743
v  -208.9463 -0.0000 106.2244
v  -294.8336 -0.0000 9.8732
v  -249.4527 -0.0000 48.6088
v  -231.8900 -0.0000 159.3319
v  -286.0140 -0.0000 108.0608
v  -192.0727 -0.0000 84.1551
v  -305.5130 -0.0000 66.2465
v  -400.4358 -0.0000 -59.4882
v  -296.3159 -0.0000 132.6285
v  -381.5672 -0.0000 -28.8156
v  -360.1445 -0.0000 -8.1619
v  -352.1288 -0.0000 68.4341
v  -381.6251 -0.0000 79.5614
v  -366.7900 -0.0000 111.7035
v  -339.0746 -0.0000 43.4526
v  -354.6312 -0.0000 21.3614
v  -380.5840 -0.0000 37.6631
v  -494.4172 -0.0000 -115.6703
v  -518.1159 -0.0000 -92.4507
v  -488.9630 -0.0000 -81.0441
v  -380.2531 -0.0000 6.5247
v  -420.6312 -0.0000 36.9528
v  -400.0308 -0.0000 -9.9271
v  -456.7601 -0.0000 -109.2604
v  -383.5540 -0.0000 -89.2590
v  -436.7747 -0.0000 -12.7199
v  -527.5404 -0.0000 -42.1842
v  -539.0340 -0.0000 -0.1573
v  -491.9101 -0.0000 -9.6228
v  -511.5398 -0.0000 -71.8930
v  -622.0391 -0.0000 -98.5333
v  -645.2404 -0.0000 -110.2832
v  -699.6561 9.9661 -146.1134
v  -633.4166 -0.0000 -81.4711
v  -542.3414 -0.0000 -53.7130
v  -602.6612 -0.0000 -84.3781
v  -571.0332 -0.0000 -67.9231
v  -596.9552 -0.0000 -59.8920
v  -612.1414 -0.0000 -64.4366
v  -471.2909 -0.0000 -31.5753
v  -419.2555 -0.0000 -9.9525
v  -349.7035 -0.0000 126.2923
v  -370.8924 -0.0000 155.3717
v  -346.0860 -0.0000 161.8841
v  -332.1243 -0.0000 142.0937
v  -311.2213 -0.0000 154.0911
v  -335.2413 -0.0000 188.1870
v  -290.6709 -0.0000 184.9337
v  -387.3789 -0.0000 180.7549
v  -414.2399 -0.0000 163.9437
v  -413.7659 -0.0000 191.9987
v  -413.7752 -0.0000 255.7218
v  -380.5984 -0.0000 220.6683
v  -413.8281 -0.0000 213.6459
v  -257.1696 -0.0000 -23.0399
v  -278.5727 -0.0000 163.1745
v  -359.0823 -0.0000 223.6425
v  -324.6619 -0.0000 225.4354
v  -400.4066 -0.0000 66.9176
v  -421.5785 -0.0000 102.4264
v  -414.0930 -0.0000 132.6142
v  -381.0549 -0.0000 129.1869
v  -430.5167 -0.0000 47.2849
v  -439.0106 -0.0000 83.5282
v  -480.0757 -0.0000 41.3371
v  -453.9810 -0.0000 59.5465
v  -463.3564 -0.0000 -10.6339
v  -515.0889 -0.0000 24.0527
v  -440.8360 -0.0000 18.9154
v  -482.0037 -0.0000 12.3936
v  -560.7528 -0.0000 -33.7818
v  -336.7809 -0.0000 252.8753
v  -360.5675 -0.0000 197.5281
v  -240.2793 -0.0000 182.4439
v  -310.2039 -0.0000 206.4461
v  -291.0341 -0.0000 218.7011
v  -304.6996 -0.0000 246.2177
v  -249.6814 -0.0000 240.7353
v  -279.7827 -0.0000 263.0294
v  -251.2639 -0.0000 252.1299
v  -361.4072 -0.0000 262.0721
v  -246.9595 -0.0000 204.8083
v  -248.5298 -0.0000 228.7083
v  -324.2735 -0.0000 271.1184
v  -228.8747 -0.0000 249.7543
v  -228.2233 -0.0000 249.4569
v  -228.0525 -0.0000 248.8183
v  -228.8399 -0.0000 248.1399
v  -229.6489 -0.0000 249.0608
v  -230.2177 -0.0000 292.8185
# 122 vertices

vn 0.0000 1.0000 -0.0000
vn 0.0300 0.9996 -0.0008
vn 0.4160 -0.3902 -0.8214
vn 0.2032 0.9707 -0.1281
vn 0.0413 0.9988 0.0276
# 5 vertex normals

vt 0.9456 0.4611 0.0000
vt 0.8496 0.4781 0.0000
vt 0.8858 0.3946 0.0000
vt 0.9485 0.6027 0.0000
vt 0.8769 0.6450 0.0000
vt 0.9033 0.5877 0.0000
vt 0.8504 0.7435 0.0000
vt 0.8156 0.6649 0.0000
vt 0.7128 0.4350 0.0000
vt 0.7687 0.3671 0.0000
vt 0.7922 0.4134 0.0000
vt 0.8499 0.5313 0.0000
vt 0.7969 0.5280 0.0000
vt 0.6817 0.7925 0.0000
vt 0.7138 0.7421 0.0000
vt 0.7666 0.7702 0.0000
vt 0.4612 0.7909 0.0000
vt 0.4493 0.7328 0.0000
vt 0.5260 0.7138 0.0000
vt 0.5241 0.8068 0.0000
vt 0.5202 0.8579 0.0000
vt 0.3770 0.7625 0.0000
vt 0.4104 0.8331 0.0000
vt 0.2602 0.8994 0.0000
vt 0.1724 0.9026 0.0000
vt 0.2456 0.8204 0.0000
vt 0.1649 0.8319 0.0000
vt 0.0845 0.9026 0.0000
vt 0.6176 0.7482 0.0000
vt 0.6932 0.6636 0.0000
vt 0.7409 0.6902 0.0000
vt 0.7550 0.6088 0.0000
vt 0.9353 0.3852 0.0000
vt 0.8069 0.6017 0.0000
vt 0.9495 0.5267 0.0000
vt 0.8725 0.3207 0.0000
vt 0.8272 0.3757 0.0000
vt 0.9995 0.5314 0.0000
vt 0.7823 0.4720 0.0000
vt 0.5638 0.7613 0.0000
vt 0.8034 0.3192 0.0000
vt 0.6073 0.6907 0.0000
vt 0.6566 0.6432 0.0000
vt 0.6750 0.4669 0.0000
vt 0.6071 0.4413 0.0000
vt 0.6413 0.3673 0.0000
vt 0.7051 0.5244 0.0000
vt 0.6693 0.5752 0.0000
vt 0.6095 0.5377 0.0000
vt 0.3476 0.8906 0.0000
vt 0.2930 0.8371 0.0000
vt 0.3601 0.8109 0.0000
vt 0.6103 0.6094 0.0000
vt 0.5174 0.5394 0.0000
vt 0.5648 0.6472 0.0000
vt 0.4342 0.8758 0.0000
vt 0.6027 0.8298 0.0000
vt 0.4802 0.6537 0.0000
vt 0.2714 0.7215 0.0000
vt 0.2831 0.6467 0.0000
vt 0.3533 0.6465 0.0000
vt 0.3082 0.7898 0.0000
vt 0.0539 0.8511 0.0000
vt 0.0005 0.8782 0.0000
vt 0.0141 0.8450 0.0000
vt 0.0277 0.8119 0.0000
vt 0.2373 0.7480 0.0000
vt 0.0985 0.8186 0.0000
vt 0.1713 0.7807 0.0000
vt 0.1116 0.7622 0.0000
vt 0.0767 0.7727 0.0000
vt 0.4008 0.6971 0.0000
vt 0.5205 0.6473 0.0000
vt 0.6806 0.3338 0.0000
vt 0.6318 0.2669 0.0000
vt 0.6889 0.2519 0.0000
vt 0.7210 0.2974 0.0000
vt 0.7691 0.2698 0.0000
vt 0.7139 0.1913 0.0000
vt 0.8164 0.1988 0.0000
vt 0.5939 0.2084 0.0000
vt 0.5404 0.2419 0.0000
vt 0.5095 0.1535 0.0000
vt 0.5720 0.0250 0.0000
vt 0.6095 0.1166 0.0000
vt 0.5427 0.1335 0.0000
vt 0.9118 0.6825 0.0000
vt 0.8443 0.2489 0.0000
vt 0.6590 0.1098 0.0000
vt 0.7382 0.1056 0.0000
vt 0.5639 0.4704 0.0000
vt 0.5031 0.3624 0.0000
vt 0.5522 0.3471 0.0000
vt 0.6084 0.3271 0.0000
vt 0.4717 0.4995 0.0000
vt 0.4751 0.4322 0.0000
vt 0.3806 0.5293 0.0000
vt 0.4281 0.4809 0.0000
vt 0.4191 0.6489 0.0000
vt 0.3000 0.5691 0.0000
vt 0.4709 0.5809 0.0000
vt 0.3761 0.5959 0.0000
vt 0.1949 0.7021 0.0000
vt 0.7103 0.0425 0.0000
vt 0.6556 0.1698 0.0000
vt 0.8927 0.2244 0.0000
vt 0.7715 0.1493 0.0000
vt 0.8156 0.1211 0.0000
vt 0.7842 0.0578 0.0000
vt 0.8742 0.0748 0.0000
vt 0.8415 0.0191 0.0000
vt 0.8916 0.0325 0.0000
vt 0.6537 0.0213 0.0000
vt 0.8912 0.1562 0.0000
vt 0.8863 0.1110 0.0000
vt 0.7391 0.0005 0.0000
vt 0.5137 0.3641 0.0000
vt 0.5144 0.3644 0.0000
vt 0.5147 0.3651 0.0000
vt 0.5136 0.3659 0.0000
vt 0.5126 0.3646 0.0000
vt 0.9967 0.5578 0.0000
vt 0.9936 0.6509 0.0000
vt 0.9916 0.6519 0.0000
vt 0.9389 0.6318 0.0000
# 125 texture coords

o suelo_t_5
g suelo_t_5
usemtl Suelo5
f 1/1/1 2/2/1 3/3/1 
f 4/4/1 5/5/1 6/6/1 
f 7/7/1 8/8/1 5/5/1 
f 9/9/1 10/10/1 11/11/1 
f 2/2/1 12/12/1 13/13/1 
f 14/14/1 15/15/1 16/16/1 
f 17/17/1 18/18/1 19/19/1 
f 17/17/1 20/20/1 21/21/1 
f 22/22/1 17/17/1 23/23/1 
f 24/24/1 25/25/1 26/26/1 
f 25/25/1 27/27/1 26/26/1 
f 27/27/1 25/25/1 28/28/1 
f 29/29/1 30/30/1 15/15/1 
f 31/31/1 32/32/1 8/8/1 
f 1/1/1 3/3/1 33/33/1 
f 13/13/1 12/12/1 34/34/1 
f 4/4/1 6/6/1 35/35/1 
f 2/2/1 35/35/1 12/12/1 
f 36/36/1 33/33/1 3/3/1 
f 36/36/1 3/3/1 37/37/1 
f 4/4/1 35/35/1 38/38/1 
f 2/2/1 13/13/1 39/39/1 
f 20/20/1 19/19/1 40/40/1 
f 2/2/1 37/37/1 3/3/1 
f 36/36/1 37/37/1 41/41/1 
f 42/42/1 43/43/1 30/30/1 
f 44/44/1 45/45/1 46/46/1 
f 9/9/1 39/39/1 47/47/1 
f 11/11/1 2/2/1 39/39/1 
f 9/9/1 11/11/1 39/39/1 
f 47/47/1 39/39/1 13/13/1 
f 32/32/1 48/48/1 47/47/1 
f 13/13/1 34/34/1 32/32/1 
f 35/35/1 6/6/1 12/12/1 
f 44/44/1 49/49/1 45/45/1 
f 50/50/1 51/51/1 52/52/1 
f 8/8/1 7/7/1 16/16/1 
f 48/48/1 43/43/1 53/53/1 
f 31/31/1 8/8/1 16/16/1 
f 29/29/1 42/42/1 30/30/1 
f 54/54/1 53/53/1 55/55/1 
f 56/56/1 23/23/1 17/17/1 
f 57/57/1 21/21/1 20/20/1 
f 57/57/1 20/20/1 40/40/1 
f 29/29/1 14/14/1 57/57/1 
f 19/19/1 42/42/1 40/40/1 
f 19/19/1 18/18/1 58/58/1 
f 56/56/1 50/50/1 23/23/1 
f 17/17/1 21/21/1 56/56/1 
f 24/24/1 26/26/1 51/51/1 
f 59/59/1 60/60/1 61/61/1 
f 22/22/1 52/52/1 62/62/1 
f 50/50/1 24/24/1 51/51/1 
f 50/50/1 52/52/1 23/23/1 
f 26/26/1 62/62/1 51/51/1 
f 63/63/2 64/64/3 65/65/4 
f 65/65/4 66/66/5 63/63/2 
f 62/62/1 26/26/1 67/67/1 
f 68/68/1 69/69/1 27/27/1 
f 28/28/1 64/64/3 63/63/2 
f 68/68/1 27/27/1 28/28/1 
f 66/66/5 68/68/1 63/63/2 
f 70/70/1 68/68/1 71/71/1 
f 69/69/1 67/67/1 26/26/1 
f 59/59/1 61/61/1 72/72/1 
f 19/19/1 58/58/1 73/73/1 
f 74/74/1 75/75/1 76/76/1 
f 74/74/1 76/76/1 77/77/1 
f 78/78/1 79/79/1 80/80/1 
f 81/81/1 82/82/1 83/83/1 
f 84/84/1 85/85/1 86/86/1 
f 7/7/1 5/5/1 87/87/1 
f 6/6/1 5/5/1 34/34/1 
f 4/4/1 87/87/1 5/5/1 
f 6/6/1 34/34/1 12/12/1 
f 15/15/1 30/30/1 31/31/1 
f 31/31/1 16/16/1 15/15/1 
f 47/47/1 13/13/1 32/32/1 
f 31/31/1 30/30/1 32/32/1 
f 8/8/1 32/32/1 34/34/1 
f 34/34/1 5/5/1 8/8/1 
f 1/1/1 38/38/1 35/35/1 
f 2/2/1 1/1/1 35/35/1 
f 78/78/1 80/80/1 88/88/1 
f 74/74/1 10/10/1 9/9/1 
f 79/79/1 89/89/1 90/90/1 
f 91/91/1 49/49/1 54/54/1 
f 91/91/1 92/92/1 93/93/1 
f 93/93/1 94/94/1 46/46/1 
f 19/19/1 55/55/1 42/42/1 
f 42/42/1 29/29/1 40/40/1 
f 93/93/1 46/46/1 45/45/1 
f 91/91/1 54/54/1 95/95/1 
f 9/9/1 47/47/1 44/44/1 
f 44/44/1 46/46/1 9/9/1 
f 53/53/1 43/43/1 42/42/1 
f 44/44/1 47/47/1 49/49/1 
f 22/22/1 23/23/1 52/52/1 
f 22/22/1 62/62/1 59/59/1 
f 32/32/1 30/30/1 48/48/1 
f 49/49/1 47/47/1 48/48/1 
f 48/48/1 30/30/1 43/43/1 
f 48/48/1 53/53/1 49/49/1 
f 54/54/1 49/49/1 53/53/1 
f 53/53/1 42/42/1 55/55/1 
f 45/45/1 49/49/1 91/91/1 
f 93/93/1 45/45/1 91/91/1 
f 96/96/1 91/91/1 95/95/1 
f 95/95/1 97/97/1 98/98/1 
f 18/18/1 72/72/1 99/99/1 
f 72/72/1 22/22/1 59/59/1 
f 100/100/1 61/61/1 60/60/1 
f 95/95/1 101/101/1 97/97/1 
f 17/17/1 19/19/1 20/20/1 
f 22/22/1 18/18/1 17/17/1 
f 55/55/1 19/19/1 73/73/1 
f 54/54/1 55/55/1 73/73/1 
f 101/101/1 73/73/1 58/58/1 
f 101/101/1 99/99/1 102/102/1 
f 18/18/1 22/22/1 72/72/1 
f 18/18/1 99/99/1 58/58/1 
f 61/61/1 99/99/1 72/72/1 
f 100/100/1 102/102/1 61/61/1 
f 62/62/1 67/67/1 59/59/1 
f 52/52/1 51/51/1 62/62/1 
f 103/103/1 67/67/1 69/69/1 
f 60/60/1 59/59/1 103/103/1 
f 103/103/1 59/59/1 67/67/1 
f 103/103/1 69/69/1 70/70/1 
f 66/66/5 71/71/1 68/68/1 
f 68/68/1 28/28/1 63/63/2 
f 100/100/1 97/97/1 102/102/1 
f 96/96/1 95/95/1 98/98/1 
f 97/97/1 101/101/1 102/102/1 
f 104/104/1 90/90/1 89/89/1 
f 86/86/1 85/85/1 81/81/1 
f 75/75/1 81/81/1 105/105/1 
f 94/94/1 93/93/1 82/82/1 
f 74/74/1 94/94/1 75/75/1 
f 74/74/1 9/9/1 46/46/1 
f 10/10/1 74/74/1 77/77/1 
f 77/77/1 78/78/1 41/41/1 
f 76/76/1 78/78/1 77/77/1 
f 76/76/1 105/105/1 79/79/1 
f 76/76/1 79/79/1 78/78/1 
f 77/77/1 41/41/1 10/10/1 
f 88/88/1 41/41/1 78/78/1 
f 80/80/1 106/106/1 88/88/1 
f 79/79/1 90/90/1 107/107/1 
f 81/81/1 83/83/1 86/86/1 
f 108/108/1 109/109/1 110/110/1 
f 111/111/1 112/112/1 110/110/1 
f 91/91/1 96/96/1 92/92/1 
f 85/85/1 84/84/1 113/113/1 
f 85/85/1 113/113/1 89/89/1 
f 105/105/1 81/81/1 85/85/1 
f 80/80/1 114/114/1 106/106/1 
f 36/36/1 88/88/1 106/106/1 
f 101/101/1 95/95/1 54/54/1 
f 54/54/1 73/73/1 101/101/1 
f 74/74/1 46/46/1 94/94/1 
f 94/94/1 82/82/1 75/75/1 
f 29/29/1 57/57/1 40/40/1 
f 29/29/1 15/15/1 14/14/1 
f 101/101/1 58/58/1 99/99/1 
f 61/61/1 102/102/1 99/99/1 
f 68/68/1 70/70/1 69/69/1 
f 69/69/1 26/26/1 27/27/1 
f 108/108/1 110/110/1 115/115/1 
f 116/116/1 111/111/1 109/109/1 
f 80/80/1 79/79/1 107/107/1 
f 108/108/1 114/114/1 80/80/1 
f 90/90/1 108/108/1 107/107/1 
f 104/104/1 116/116/1 109/109/1 
f 75/75/1 82/82/1 81/81/1 
f 75/75/1 105/105/1 76/76/1 
f 89/89/1 79/79/1 105/105/1 
f 105/105/1 85/85/1 89/89/1 
f 10/10/1 37/37/1 11/11/1 
f 88/88/1 36/36/1 41/41/1 
f 10/10/1 41/41/1 37/37/1 
f 2/2/1 11/11/1 37/37/1 
f 90/90/1 109/109/1 108/108/1 
f 108/108/1 80/80/1 107/107/1 
f 114/114/1 108/108/1 115/115/1 
f 116/116/1 104/104/1 113/113/1 
f 111/111/1 110/110/1 109/109/1 
f 104/104/1 89/89/1 113/113/1 
f 104/104/1 109/109/1 90/90/1 
f 117/117/1 118/118/1 119/119/1 
f 117/117/1 119/119/1 120/120/1 
f 117/117/1 120/120/1 121/121/1 
f 122/122/1 117/123/1 121/124/1 
f 121/124/1 112/125/1 122/122/1 
# 194 faces

