# 3ds Max Wavefront OBJ Exporter v0.97b - (c)2007 guruware
# File Created: 13.03.2018 20:30:08

mtllib Pinchos.mtl

#
# object Pinchos
#

v  0.0420 1.2174 6.9439
v  -0.3401 -1.2174 7.3363
v  0.4241 -1.2174 7.3363
v  0.4241 -1.2174 6.5515
v  -0.3401 -1.2174 6.5515
v  0.0420 -1.2174 6.9439
v  0.0420 1.2174 4.9754
v  -0.3401 -1.2174 5.3678
v  0.4241 -1.2174 5.3678
v  0.4241 -1.2174 4.5830
v  -0.3401 -1.2174 4.5830
v  0.0420 -1.2174 4.9754
v  0.0420 1.2174 3.0069
v  -0.3401 -1.2174 3.3993
v  0.4241 -1.2174 3.3993
v  0.4241 -1.2174 2.6145
v  -0.3401 -1.2174 2.6145
v  0.0420 -1.2174 3.0069
v  0.0420 1.2174 1.0384
v  -0.3401 -1.2174 1.4308
v  0.4241 -1.2174 1.4308
v  0.4241 -1.2174 0.6460
v  -0.3401 -1.2174 0.6460
v  0.0420 -1.2174 1.0384
v  0.0420 1.2174 -0.9301
v  -0.3401 -1.2174 -0.5377
v  0.4241 -1.2174 -0.5377
v  0.4241 -1.2174 -1.3225
v  -0.3401 -1.2174 -1.3225
v  0.0420 -1.2174 -0.9301
v  0.0420 1.2174 -2.8986
v  -0.3401 -1.2174 -2.5063
v  0.4241 -1.2174 -2.5063
v  0.4241 -1.2174 -3.2910
v  -0.3401 -1.2174 -3.2910
v  0.0420 -1.2174 -2.8986
v  0.0420 1.2174 -4.8671
v  -0.3401 -1.2174 -4.4748
v  0.4241 -1.2174 -4.4748
v  0.4241 -1.2174 -5.2595
v  -0.3401 -1.2174 -5.2595
v  0.0420 -1.2174 -4.8671
v  0.0420 1.2174 -6.8356
v  -0.3401 -1.2174 -6.4433
v  0.4241 -1.2174 -6.4433
v  0.4241 -1.2174 -7.2280
v  -0.3401 -1.2174 -7.2280
v  0.0420 -1.2174 -6.8356
v  -1.8328 1.2174 7.8875
v  -2.2149 -1.2174 8.2799
v  -1.4507 -1.2174 8.2799
v  -1.4507 -1.2174 7.4951
v  -2.2149 -1.2174 7.4951
v  -1.8328 -1.2174 7.8875
v  1.8328 1.2174 7.8605
v  1.4507 -1.2174 8.2529
v  2.2149 -1.2174 8.2529
v  2.2149 -1.2174 7.4682
v  1.4507 -1.2174 7.4682
v  1.8328 -1.2174 7.8605
v  -1.8328 1.2174 5.9190
v  -2.2149 -1.2174 6.3114
v  -1.4507 -1.2174 6.3114
v  -1.4507 -1.2174 5.5266
v  -2.2149 -1.2174 5.5266
v  -1.8328 -1.2174 5.9190
v  1.8328 1.2174 5.8920
v  1.4507 -1.2174 6.2844
v  2.2149 -1.2174 6.2844
v  2.2149 -1.2174 5.4997
v  1.4507 -1.2174 5.4997
v  1.8328 -1.2174 5.8920
v  -1.8328 1.2174 3.9505
v  -2.2149 -1.2174 4.3429
v  -1.4507 -1.2174 4.3429
v  -1.4507 -1.2174 3.5581
v  -2.2149 -1.2174 3.5581
v  -1.8328 -1.2174 3.9505
v  1.8328 1.2174 3.9235
v  1.4507 -1.2174 4.3159
v  2.2149 -1.2174 4.3159
v  2.2149 -1.2174 3.5312
v  1.4507 -1.2174 3.5312
v  1.8328 -1.2174 3.9235
v  -1.8328 1.2174 1.9820
v  -2.2149 -1.2174 2.3744
v  -1.4507 -1.2174 2.3744
v  -1.4507 -1.2174 1.5896
v  -2.2149 -1.2174 1.5896
v  -1.8328 -1.2174 1.9820
v  1.8328 1.2174 1.9550
v  1.4507 -1.2174 2.3474
v  2.2149 -1.2174 2.3474
v  2.2149 -1.2174 1.5627
v  1.4507 -1.2174 1.5627
v  1.8328 -1.2174 1.9550
v  -1.8328 1.2174 0.0135
v  -2.2149 -1.2174 0.4058
v  -1.4507 -1.2174 0.4058
v  -1.4507 -1.2174 -0.3789
v  -2.2149 -1.2174 -0.3789
v  -1.8328 -1.2174 0.0135
v  1.8328 1.2174 -0.0135
v  1.4507 -1.2174 0.3789
v  2.2149 -1.2174 0.3789
v  2.2149 -1.2174 -0.4058
v  1.4507 -1.2174 -0.4058
v  1.8328 -1.2174 -0.0135
v  -1.8328 1.2174 -1.9550
v  -2.2149 -1.2174 -1.5627
v  -1.4507 -1.2174 -1.5627
v  -1.4507 -1.2174 -2.3474
v  -2.2149 -1.2174 -2.3474
v  -1.8328 -1.2174 -1.9550
v  1.8328 1.2174 -1.9820
v  1.4507 -1.2174 -1.5896
v  2.2149 -1.2174 -1.5896
v  2.2149 -1.2174 -2.3743
v  1.4507 -1.2174 -2.3743
v  1.8328 -1.2174 -1.9820
v  -1.8328 1.2174 -3.9235
v  -2.2149 -1.2174 -3.5312
v  -1.4507 -1.2174 -3.5312
v  -1.4507 -1.2174 -4.3159
v  -2.2149 -1.2174 -4.3159
v  -1.8328 -1.2174 -3.9235
v  1.8328 1.2174 -3.9505
v  1.4507 -1.2174 -3.5581
v  2.2149 -1.2174 -3.5581
v  2.2149 -1.2174 -4.3428
v  1.4507 -1.2174 -4.3428
v  1.8328 -1.2174 -3.9505
v  -1.8328 1.2174 -5.8920
v  -2.2149 -1.2174 -5.4997
v  -1.4507 -1.2174 -5.4997
v  -1.4507 -1.2174 -6.2844
v  -2.2149 -1.2174 -6.2844
v  -1.8328 -1.2174 -5.8920
v  1.8328 1.2174 -5.9190
v  1.4507 -1.2174 -5.5266
v  2.2149 -1.2174 -5.5266
v  2.2149 -1.2174 -6.3114
v  1.4507 -1.2174 -6.3114
v  1.8328 -1.2174 -5.9190
v  1.8328 1.2174 -7.8875
v  1.4507 -1.2174 -7.4951
v  2.2149 -1.2174 -7.4951
v  2.2149 -1.2174 -8.2799
v  1.4507 -1.2174 -8.2799
v  1.8328 -1.2174 -7.8875
v  -1.8328 1.2174 -7.8605
v  -2.2149 -1.2174 -7.4682
v  -1.4507 -1.2174 -7.4682
v  -1.4507 -1.2174 -8.2529
v  -2.2149 -1.2174 -8.2529
v  -1.8328 -1.2174 -7.8605
# 156 vertices

vn 0.0000 1.0000 -0.0000
vn -0.6136 -0.4951 0.6150
vn 0.6136 -0.4951 0.6150
vn 0.6136 -0.4951 -0.6150
vn -0.6136 -0.4951 -0.6150
vn 0.0000 -1.0000 -0.0000
# 6 vertex normals

vt 0.4272 0.5489 0.0000
vt 0.2720 0.5730 0.0000
vt 0.2720 0.5248 0.0000
vt 0.2734 0.5219 0.0000
vt 0.4286 0.4972 0.0000
vt 0.4286 0.5466 0.0000
vt 0.5982 0.5535 0.0000
vt 0.4429 0.5776 0.0000
vt 0.4429 0.5295 0.0000
vt 0.7690 0.5727 0.0000
vt 0.6139 0.5974 0.0000
vt 0.6139 0.5480 0.0000
vt 0.5907 0.8970 0.0000
vt 0.6154 0.9210 0.0000
vt 0.5907 0.9451 0.0000
vt 0.6401 0.9451 0.0000
vt 0.6401 0.8970 0.0000
vt 0.2147 0.5258 0.0000
vt 0.0595 0.5499 0.0000
vt 0.0595 0.5017 0.0000
vt 0.4444 0.5265 0.0000
vt 0.5995 0.5018 0.0000
vt 0.5995 0.5512 0.0000
vt 0.0747 0.4981 0.0000
vt 0.2299 0.4740 0.0000
vt 0.2299 0.5221 0.0000
vt 0.4272 0.4941 0.0000
vt 0.2720 0.5188 0.0000
vt 0.2720 0.4694 0.0000
vt 0.7806 0.8055 0.0000
vt 0.8053 0.8296 0.0000
vt 0.7806 0.8536 0.0000
vt 0.8300 0.8536 0.0000
vt 0.8300 0.8055 0.0000
vt 0.5982 0.4981 0.0000
vt 0.4429 0.5221 0.0000
vt 0.4429 0.4740 0.0000
vt 0.2734 0.4664 0.0000
vt 0.4286 0.4417 0.0000
vt 0.4286 0.4911 0.0000
vt 0.6152 0.5443 0.0000
vt 0.7705 0.5202 0.0000
vt 0.7705 0.5683 0.0000
vt 0.7690 0.5126 0.0000
vt 0.6139 0.5373 0.0000
vt 0.6139 0.4879 0.0000
vt 0.5274 0.9182 0.0000
vt 0.5515 0.8935 0.0000
vt 0.5755 0.9182 0.0000
vt 0.5755 0.8688 0.0000
vt 0.5274 0.8688 0.0000
vt 0.4443 0.4704 0.0000
vt 0.5995 0.4463 0.0000
vt 0.5995 0.4944 0.0000
vt 0.7690 0.4572 0.0000
vt 0.6139 0.4819 0.0000
vt 0.6139 0.4325 0.0000
vt 0.5982 0.4426 0.0000
vt 0.4429 0.4667 0.0000
vt 0.4429 0.4186 0.0000
vt 0.6153 0.4849 0.0000
vt 0.7705 0.4602 0.0000
vt 0.7705 0.5096 0.0000
vt 0.3304 0.9534 0.0000
vt 0.3545 0.9287 0.0000
vt 0.3785 0.9534 0.0000
vt 0.3785 0.9040 0.0000
vt 0.3304 0.9040 0.0000
vt 0.4272 0.4380 0.0000
vt 0.2720 0.4621 0.0000
vt 0.2720 0.4140 0.0000
vt 0.2039 0.2865 0.0000
vt 0.2286 0.4416 0.0000
vt 0.1792 0.4416 0.0000
vt 0.2147 0.4704 0.0000
vt 0.0595 0.4944 0.0000
vt 0.0595 0.4463 0.0000
vt 0.2316 0.4402 0.0000
vt 0.2069 0.2851 0.0000
vt 0.2563 0.2851 0.0000
vt 0.3797 0.9252 0.0000
vt 0.4037 0.9005 0.0000
vt 0.4278 0.9252 0.0000
vt 0.4278 0.8758 0.0000
vt 0.3797 0.8758 0.0000
vt 0.2734 0.4103 0.0000
vt 0.4286 0.3862 0.0000
vt 0.4286 0.4343 0.0000
vt 0.5981 0.3879 0.0000
vt 0.4430 0.4126 0.0000
vt 0.4430 0.3632 0.0000
vt 0.4272 0.3826 0.0000
vt 0.2720 0.4066 0.0000
vt 0.2720 0.3585 0.0000
vt 0.4444 0.4156 0.0000
vt 0.5995 0.3909 0.0000
vt 0.5995 0.4403 0.0000
vt 0.4289 0.9182 0.0000
vt 0.4530 0.8935 0.0000
vt 0.4770 0.9182 0.0000
vt 0.4770 0.8688 0.0000
vt 0.4289 0.8688 0.0000
vt 0.6153 0.4288 0.0000
vt 0.7705 0.4047 0.0000
vt 0.7705 0.4528 0.0000
vt 0.1485 0.2865 0.0000
vt 0.1732 0.4416 0.0000
vt 0.1238 0.4416 0.0000
vt 0.7691 0.4011 0.0000
vt 0.6139 0.4251 0.0000
vt 0.6139 0.3770 0.0000
vt 0.1762 0.4402 0.0000
vt 0.1515 0.2851 0.0000
vt 0.2009 0.2851 0.0000
vt 0.4782 0.9182 0.0000
vt 0.5022 0.8935 0.0000
vt 0.5263 0.9182 0.0000
vt 0.5263 0.8688 0.0000
vt 0.4782 0.8688 0.0000
vt 0.2734 0.3549 0.0000
vt 0.4286 0.3308 0.0000
vt 0.4286 0.3789 0.0000
vt 0.5981 0.3324 0.0000
vt 0.4430 0.3571 0.0000
vt 0.4430 0.3077 0.0000
vt 0.4272 0.3271 0.0000
vt 0.2720 0.3512 0.0000
vt 0.2720 0.3031 0.0000
vt 0.4444 0.3601 0.0000
vt 0.5995 0.3355 0.0000
vt 0.5995 0.3848 0.0000
vt 0.5837 0.8971 0.0000
vt 0.6077 0.8724 0.0000
vt 0.6318 0.8971 0.0000
vt 0.6318 0.8477 0.0000
vt 0.5837 0.8477 0.0000
vt 0.6153 0.3733 0.0000
vt 0.7705 0.3493 0.0000
vt 0.7705 0.3974 0.0000
vt 0.0930 0.2865 0.0000
vt 0.1177 0.4416 0.0000
vt 0.0683 0.4416 0.0000
vt 0.7691 0.3456 0.0000
vt 0.6139 0.3697 0.0000
vt 0.6139 0.3216 0.0000
vt 0.1207 0.4402 0.0000
vt 0.0960 0.2851 0.0000
vt 0.1454 0.2851 0.0000
vt 0.6329 0.8830 0.0000
vt 0.6570 0.8583 0.0000
vt 0.6810 0.8830 0.0000
vt 0.6810 0.8336 0.0000
vt 0.6329 0.8336 0.0000
vt 0.2734 0.2994 0.0000
vt 0.4286 0.2754 0.0000
vt 0.4286 0.3235 0.0000
vt 0.1962 0.2539 0.0000
vt 0.0410 0.2786 0.0000
vt 0.0410 0.2292 0.0000
vt 0.4272 0.2717 0.0000
vt 0.2720 0.2957 0.0000
vt 0.2720 0.2476 0.0000
vt 0.0653 0.4402 0.0000
vt 0.0406 0.2851 0.0000
vt 0.0900 0.2851 0.0000
vt 0.6822 0.8830 0.0000
vt 0.7062 0.8583 0.0000
vt 0.7303 0.8830 0.0000
vt 0.7303 0.8336 0.0000
vt 0.6822 0.8336 0.0000
vt 0.1024 0.2347 0.0000
vt 0.2577 0.2107 0.0000
vt 0.2577 0.2588 0.0000
vt 0.4444 0.3047 0.0000
vt 0.5995 0.2800 0.0000
vt 0.5995 0.3294 0.0000
vt 0.2470 0.2070 0.0000
vt 0.0918 0.2311 0.0000
vt 0.0918 0.1830 0.0000
vt 0.0933 0.1800 0.0000
vt 0.2484 0.1553 0.0000
vt 0.2484 0.2047 0.0000
vt 0.3508 0.8633 0.0000
vt 0.3748 0.8386 0.0000
vt 0.3989 0.8633 0.0000
vt 0.3989 0.8139 0.0000
vt 0.3508 0.8139 0.0000
vt 0.5982 0.2763 0.0000
vt 0.4429 0.3004 0.0000
vt 0.4429 0.2523 0.0000
vt 0.6153 0.3186 0.0000
vt 0.7705 0.2939 0.0000
vt 0.7705 0.3433 0.0000
vt 0.2734 0.2440 0.0000
vt 0.4286 0.2199 0.0000
vt 0.4286 0.2680 0.0000
vt 0.4272 0.2123 0.0000
vt 0.2720 0.2370 0.0000
vt 0.2720 0.1876 0.0000
vt 0.7314 0.8266 0.0000
vt 0.7561 0.8507 0.0000
vt 0.7314 0.8747 0.0000
vt 0.7808 0.8747 0.0000
vt 0.7808 0.8266 0.0000
vt 0.7691 0.2902 0.0000
vt 0.6139 0.3142 0.0000
vt 0.6139 0.2661 0.0000
vt 0.6153 0.2631 0.0000
vt 0.7705 0.2384 0.0000
vt 0.7705 0.2878 0.0000
vt 0.4443 0.2486 0.0000
vt 0.5995 0.2245 0.0000
vt 0.5995 0.2726 0.0000
vt 0.5981 0.2169 0.0000
vt 0.4430 0.2416 0.0000
vt 0.4430 0.1922 0.0000
vt 0.8299 0.7985 0.0000
vt 0.8546 0.8225 0.0000
vt 0.8299 0.8466 0.0000
vt 0.8793 0.8466 0.0000
vt 0.8793 0.7985 0.0000
vt 0.7691 0.2347 0.0000
vt 0.6139 0.2588 0.0000
vt 0.6139 0.2107 0.0000
vt 0.7079 0.7792 0.0000
vt 0.6832 0.6240 0.0000
vt 0.7326 0.6240 0.0000
vt 0.7627 0.7793 0.0000
vt 0.7387 0.6240 0.0000
vt 0.7868 0.6240 0.0000
vt 0.7357 0.6255 0.0000
vt 0.7604 0.7806 0.0000
vt 0.7110 0.7806 0.0000
vt 0.3937 0.9251 0.0000
vt 0.4184 0.9492 0.0000
vt 0.3937 0.9732 0.0000
vt 0.4431 0.9732 0.0000
vt 0.4431 0.9251 0.0000
vt 0.6795 0.6254 0.0000
vt 0.7036 0.7806 0.0000
vt 0.6555 0.7806 0.0000
vt 0.5971 0.7792 0.0000
vt 0.5724 0.6240 0.0000
vt 0.6218 0.6240 0.0000
vt 0.6518 0.7793 0.0000
vt 0.6278 0.6240 0.0000
vt 0.6759 0.6240 0.0000
vt 0.6248 0.6255 0.0000
vt 0.6495 0.7806 0.0000
vt 0.6001 0.7806 0.0000
vt 0.4570 0.9181 0.0000
vt 0.4817 0.9421 0.0000
vt 0.4570 0.9662 0.0000
vt 0.5064 0.9662 0.0000
vt 0.5064 0.9181 0.0000
vt 0.5687 0.6254 0.0000
vt 0.5927 0.7806 0.0000
vt 0.5446 0.7806 0.0000
vt 0.4862 0.7792 0.0000
vt 0.4615 0.6240 0.0000
vt 0.5109 0.6240 0.0000
vt 0.5409 0.7793 0.0000
vt 0.5169 0.6240 0.0000
vt 0.5650 0.6240 0.0000
vt 0.5139 0.6255 0.0000
vt 0.5386 0.7806 0.0000
vt 0.4892 0.7806 0.0000
vt 0.5203 0.9181 0.0000
vt 0.5450 0.9421 0.0000
vt 0.5203 0.9662 0.0000
vt 0.5697 0.9662 0.0000
vt 0.5697 0.9181 0.0000
vt 0.4578 0.6254 0.0000
vt 0.4818 0.7806 0.0000
vt 0.4337 0.7806 0.0000
vt 0.3753 0.7792 0.0000
vt 0.3506 0.6240 0.0000
vt 0.4000 0.6240 0.0000
vt 0.4301 0.7793 0.0000
vt 0.4060 0.6240 0.0000
vt 0.4541 0.6240 0.0000
vt 0.4030 0.6255 0.0000
vt 0.4277 0.7806 0.0000
vt 0.3783 0.7806 0.0000
vt 0.6540 0.8829 0.0000
vt 0.6787 0.9070 0.0000
vt 0.6540 0.9310 0.0000
vt 0.7034 0.9310 0.0000
vt 0.7034 0.8829 0.0000
vt 0.3469 0.6254 0.0000
vt 0.3710 0.7806 0.0000
vt 0.3229 0.7806 0.0000
vt 0.2644 0.7792 0.0000
vt 0.2397 0.6240 0.0000
vt 0.2891 0.6240 0.0000
vt 0.3192 0.7793 0.0000
vt 0.2951 0.6240 0.0000
vt 0.3432 0.6240 0.0000
vt 0.2921 0.6255 0.0000
vt 0.3168 0.7806 0.0000
vt 0.2674 0.7806 0.0000
vt 0.7174 0.9322 0.0000
vt 0.7414 0.9075 0.0000
vt 0.7655 0.9322 0.0000
vt 0.7655 0.8828 0.0000
vt 0.7174 0.8828 0.0000
vt 0.2734 0.1839 0.0000
vt 0.4286 0.1599 0.0000
vt 0.4286 0.2080 0.0000
vt 0.5981 0.1615 0.0000
vt 0.4430 0.1862 0.0000
vt 0.4430 0.1368 0.0000
vt 0.4180 0.1562 0.0000
vt 0.2628 0.1802 0.0000
vt 0.2628 0.1321 0.0000
vt 0.4444 0.1892 0.0000
vt 0.5995 0.1645 0.0000
vt 0.5995 0.2139 0.0000
vt 0.7948 0.9041 0.0000
vt 0.8188 0.8794 0.0000
vt 0.8429 0.9041 0.0000
vt 0.8429 0.8547 0.0000
vt 0.7948 0.8547 0.0000
vt 0.6153 0.2070 0.0000
vt 0.7705 0.1830 0.0000
vt 0.7705 0.2311 0.0000
vt 0.6153 0.1522 0.0000
vt 0.7705 0.1275 0.0000
vt 0.7705 0.1769 0.0000
vt 0.7691 0.1793 0.0000
vt 0.6139 0.2033 0.0000
vt 0.6139 0.1552 0.0000
vt 0.4444 0.1338 0.0000
vt 0.5995 0.1091 0.0000
vt 0.5995 0.1585 0.0000
vt 0.9073 0.7774 0.0000
vt 0.9320 0.8014 0.0000
vt 0.9073 0.8255 0.0000
vt 0.9567 0.8255 0.0000
vt 0.9567 0.7774 0.0000
vt 0.7691 0.1239 0.0000
vt 0.6139 0.1479 0.0000
vt 0.6139 0.0998 0.0000
vt 0.6153 0.0968 0.0000
vt 0.7705 0.0721 0.0000
vt 0.7705 0.1215 0.0000
vt 0.2360 0.6254 0.0000
vt 0.2601 0.7806 0.0000
vt 0.2120 0.7806 0.0000
vt 0.2044 0.7792 0.0000
vt 0.1797 0.6240 0.0000
vt 0.2291 0.6240 0.0000
vt 0.2523 0.8633 0.0000
vt 0.2763 0.8386 0.0000
vt 0.3004 0.8633 0.0000
vt 0.3004 0.8139 0.0000
vt 0.2523 0.8139 0.0000
vt 0.5889 0.1054 0.0000
vt 0.4337 0.1294 0.0000
vt 0.4337 0.0813 0.0000
vt 0.5750 0.0460 0.0000
vt 0.4199 0.0707 0.0000
vt 0.4199 0.0213 0.0000
vt 0.7414 0.0684 0.0000
vt 0.5862 0.0925 0.0000
vt 0.5862 0.0444 0.0000
vt 0.4259 0.0737 0.0000
vt 0.5810 0.0490 0.0000
vt 0.5810 0.0984 0.0000
vt 0.3015 0.8633 0.0000
vt 0.3256 0.8386 0.0000
vt 0.3496 0.8633 0.0000
vt 0.3496 0.8139 0.0000
vt 0.3015 0.8139 0.0000
vt 0.2641 0.1285 0.0000
vt 0.4194 0.1044 0.0000
vt 0.4194 0.1525 0.0000
vt 0.0933 0.1245 0.0000
vt 0.2484 0.0998 0.0000
vt 0.2484 0.1492 0.0000
vt 0.4180 0.1008 0.0000
vt 0.2628 0.1248 0.0000
vt 0.2628 0.0767 0.0000
vt 0.2470 0.1522 0.0000
vt 0.0918 0.1769 0.0000
vt 0.0918 0.1275 0.0000
vt 0.5478 0.8633 0.0000
vt 0.5718 0.8386 0.0000
vt 0.5959 0.8633 0.0000
vt 0.5959 0.8139 0.0000
vt 0.5478 0.8139 0.0000
vt 0.1760 0.6254 0.0000
vt 0.2000 0.7806 0.0000
vt 0.1519 0.7806 0.0000
vt 0.4087 0.0414 0.0000
vt 0.2535 0.0661 0.0000
vt 0.2535 0.0167 0.0000
vt 0.1482 0.7793 0.0000
vt 0.1242 0.6240 0.0000
vt 0.1723 0.6240 0.0000
vt 0.2596 0.0691 0.0000
vt 0.4147 0.0444 0.0000
vt 0.4147 0.0938 0.0000
vt 0.4985 0.8633 0.0000
vt 0.5226 0.8386 0.0000
vt 0.5466 0.8633 0.0000
vt 0.5466 0.8139 0.0000
vt 0.4985 0.8139 0.0000
vt 0.1205 0.6254 0.0000
vt 0.1446 0.7806 0.0000
vt 0.0965 0.7806 0.0000
vt 0.0932 0.0691 0.0000
vt 0.2484 0.0444 0.0000
vt 0.2484 0.0938 0.0000
vt 0.0928 0.7793 0.0000
vt 0.0687 0.6240 0.0000
vt 0.1169 0.6240 0.0000
vt 0.2470 0.0968 0.0000
vt 0.0918 0.1215 0.0000
vt 0.0918 0.0721 0.0000
vt 0.4493 0.8633 0.0000
vt 0.4733 0.8386 0.0000
vt 0.4974 0.8633 0.0000
vt 0.4974 0.8139 0.0000
vt 0.4493 0.8139 0.0000
vt 0.0651 0.6254 0.0000
vt 0.0891 0.7806 0.0000
vt 0.0410 0.7806 0.0000
vt 0.0607 0.1768 0.0000
vt 0.0360 0.0217 0.0000
vt 0.0854 0.0217 0.0000
vt 0.6291 0.0453 0.0000
vt 0.7844 0.0213 0.0000
vt 0.7844 0.0694 0.0000
vt 0.2470 0.0414 0.0000
vt 0.0918 0.0661 0.0000
vt 0.0918 0.0167 0.0000
vt 0.4000 0.8633 0.0000
vt 0.4241 0.8386 0.0000
vt 0.4481 0.8633 0.0000
vt 0.4481 0.8139 0.0000
vt 0.4000 0.8139 0.0000
# 442 texture coords

o Pinchos
g Pinchos
usemtl Pinchos
f 1/1/1 2/2/2 3/3/3 
f 1/4/1 3/5/3 4/6/4 
f 1/7/1 4/8/4 5/9/5 
f 1/10/1 5/11/5 2/12/2 
f 2/13/2 6/14/6 3/15/3 
f 3/15/3 6/14/6 4/16/4 
f 4/16/4 6/14/6 5/17/5 
f 5/17/5 6/14/6 2/13/2 
f 7/18/1 8/19/2 9/20/3 
f 7/21/1 9/22/3 10/23/4 
f 7/24/1 10/25/4 11/26/5 
f 7/27/1 11/28/5 8/29/2 
f 8/30/2 12/31/6 9/32/3 
f 9/32/3 12/31/6 10/33/4 
f 10/33/4 12/31/6 11/34/5 
f 11/34/5 12/31/6 8/30/2 
f 13/35/1 14/36/2 15/37/3 
f 13/38/1 15/39/3 16/40/4 
f 13/41/1 16/42/4 17/43/5 
f 13/44/1 17/45/5 14/46/2 
f 14/47/2 18/48/6 15/49/3 
f 15/49/3 18/48/6 16/50/4 
f 16/50/4 18/48/6 17/51/5 
f 17/51/5 18/48/6 14/47/2 
f 19/52/1 20/53/2 21/54/3 
f 19/55/1 21/56/3 22/57/4 
f 19/58/1 22/59/4 23/60/5 
f 19/61/1 23/62/5 20/63/2 
f 20/64/2 24/65/6 21/66/3 
f 21/66/3 24/65/6 22/67/4 
f 22/67/4 24/65/6 23/68/5 
f 23/68/5 24/65/6 20/64/2 
f 25/69/1 26/70/2 27/71/3 
f 25/72/1 27/73/3 28/74/4 
f 25/75/1 28/76/4 29/77/5 
f 25/78/1 29/79/5 26/80/2 
f 26/81/2 30/82/6 27/83/3 
f 27/83/3 30/82/6 28/84/4 
f 28/84/4 30/82/6 29/85/5 
f 29/85/5 30/82/6 26/81/2 
f 31/86/1 32/87/2 33/88/3 
f 31/89/1 33/90/3 34/91/4 
f 31/92/1 34/93/4 35/94/5 
f 31/95/1 35/96/5 32/97/2 
f 32/98/2 36/99/6 33/100/3 
f 33/100/3 36/99/6 34/101/4 
f 34/101/4 36/99/6 35/102/5 
f 35/102/5 36/99/6 32/98/2 
f 37/103/1 38/104/2 39/105/3 
f 37/106/1 39/107/3 40/108/4 
f 37/109/1 40/110/4 41/111/5 
f 37/112/1 41/113/5 38/114/2 
f 38/115/2 42/116/6 39/117/3 
f 39/117/3 42/116/6 40/118/4 
f 40/118/4 42/116/6 41/119/5 
f 41/119/5 42/116/6 38/115/2 
f 43/120/1 44/121/2 45/122/3 
f 43/123/1 45/124/3 46/125/4 
f 43/126/1 46/127/4 47/128/5 
f 43/129/1 47/130/5 44/131/2 
f 44/132/2 48/133/6 45/134/3 
f 45/134/3 48/133/6 46/135/4 
f 46/135/4 48/133/6 47/136/5 
f 47/136/5 48/133/6 44/132/2 
f 49/137/1 50/138/2 51/139/3 
f 49/140/1 51/141/3 52/142/4 
f 49/143/1 52/144/4 53/145/5 
f 49/146/1 53/147/5 50/148/2 
f 50/149/2 54/150/6 51/151/3 
f 51/151/3 54/150/6 52/152/4 
f 52/152/4 54/150/6 53/153/5 
f 53/153/5 54/150/6 50/149/2 
f 55/154/1 56/155/2 57/156/3 
f 55/157/1 57/158/3 58/159/4 
f 55/160/1 58/161/4 59/162/5 
f 55/163/1 59/164/5 56/165/2 
f 56/166/2 60/167/6 57/168/3 
f 57/168/3 60/167/6 58/169/4 
f 58/169/4 60/167/6 59/170/5 
f 59/170/5 60/167/6 56/166/2 
f 61/171/1 62/172/2 63/173/3 
f 61/174/1 63/175/3 64/176/4 
f 61/177/1 64/178/4 65/179/5 
f 61/180/1 65/181/5 62/182/2 
f 62/183/2 66/184/6 63/185/3 
f 63/185/3 66/184/6 64/186/4 
f 64/186/4 66/184/6 65/187/5 
f 65/187/5 66/184/6 62/183/2 
f 67/188/1 68/189/2 69/190/3 
f 67/191/1 69/192/3 70/193/4 
f 67/194/1 70/195/4 71/196/5 
f 67/197/1 71/198/5 68/199/2 
f 68/200/2 72/201/6 69/202/3 
f 69/202/3 72/201/6 70/203/4 
f 70/203/4 72/201/6 71/204/5 
f 71/204/5 72/201/6 68/200/2 
f 73/205/1 74/206/2 75/207/3 
f 73/208/1 75/209/3 76/210/4 
f 73/211/1 76/212/4 77/213/5 
f 73/214/1 77/215/5 74/216/2 
f 74/217/2 78/218/6 75/219/3 
f 75/219/3 78/218/6 76/220/4 
f 76/220/4 78/218/6 77/221/5 
f 77/221/5 78/218/6 74/217/2 
f 79/222/1 80/223/2 81/224/3 
f 79/225/1 81/226/3 82/227/4 
f 79/228/1 82/229/4 83/230/5 
f 79/231/1 83/232/5 80/233/2 
f 80/234/2 84/235/6 81/236/3 
f 81/236/3 84/235/6 82/237/4 
f 82/237/4 84/235/6 83/238/5 
f 83/238/5 84/235/6 80/234/2 
f 85/239/1 86/240/2 87/241/3 
f 85/242/1 87/243/3 88/244/4 
f 85/245/1 88/246/4 89/247/5 
f 85/248/1 89/249/5 86/250/2 
f 86/251/2 90/252/6 87/253/3 
f 87/253/3 90/252/6 88/254/4 
f 88/254/4 90/252/6 89/255/5 
f 89/255/5 90/252/6 86/251/2 
f 91/256/1 92/257/2 93/258/3 
f 91/259/1 93/260/3 94/261/4 
f 91/262/1 94/263/4 95/264/5 
f 91/265/1 95/266/5 92/267/2 
f 92/268/2 96/269/6 93/270/3 
f 93/270/3 96/269/6 94/271/4 
f 94/271/4 96/269/6 95/272/5 
f 95/272/5 96/269/6 92/268/2 
f 97/273/1 98/274/2 99/275/3 
f 97/276/1 99/277/3 100/278/4 
f 97/279/1 100/280/4 101/281/5 
f 97/282/1 101/283/5 98/284/2 
f 98/285/2 102/286/6 99/287/3 
f 99/287/3 102/286/6 100/288/4 
f 100/288/4 102/286/6 101/289/5 
f 101/289/5 102/286/6 98/285/2 
f 103/290/1 104/291/2 105/292/3 
f 103/293/1 105/294/3 106/295/4 
f 103/296/1 106/297/4 107/298/5 
f 103/299/1 107/300/5 104/301/2 
f 104/302/2 108/303/6 105/304/3 
f 105/304/3 108/303/6 106/305/4 
f 106/305/4 108/303/6 107/306/5 
f 107/306/5 108/303/6 104/302/2 
f 109/307/1 110/308/2 111/309/3 
f 109/310/1 111/311/3 112/312/4 
f 109/313/1 112/314/4 113/315/5 
f 109/316/1 113/317/5 110/318/2 
f 110/319/2 114/320/6 111/321/3 
f 111/321/3 114/320/6 112/322/4 
f 112/322/4 114/320/6 113/323/5 
f 113/323/5 114/320/6 110/319/2 
f 115/324/1 116/325/2 117/326/3 
f 115/327/1 117/328/3 118/329/4 
f 115/330/1 118/331/4 119/332/5 
f 115/333/1 119/334/5 116/335/2 
f 116/336/2 120/337/6 117/338/3 
f 117/338/3 120/337/6 118/339/4 
f 118/339/4 120/337/6 119/340/5 
f 119/340/5 120/337/6 116/336/2 
f 121/341/1 122/342/2 123/343/3 
f 121/344/1 123/345/3 124/346/4 
f 121/347/1 124/348/4 125/349/5 
f 121/350/1 125/351/5 122/352/2 
f 122/353/2 126/354/6 123/355/3 
f 123/355/3 126/354/6 124/356/4 
f 124/356/4 126/354/6 125/357/5 
f 125/357/5 126/354/6 122/353/2 
f 127/358/1 128/359/2 129/360/3 
f 127/361/1 129/362/3 130/363/4 
f 127/364/1 130/365/4 131/366/5 
f 127/367/1 131/368/5 128/369/2 
f 128/370/2 132/371/6 129/372/3 
f 129/372/3 132/371/6 130/373/4 
f 130/373/4 132/371/6 131/374/5 
f 131/374/5 132/371/6 128/370/2 
f 133/375/1 134/376/2 135/377/3 
f 133/378/1 135/379/3 136/380/4 
f 133/381/1 136/382/4 137/383/5 
f 133/384/1 137/385/5 134/386/2 
f 134/387/2 138/388/6 135/389/3 
f 135/389/3 138/388/6 136/390/4 
f 136/390/4 138/388/6 137/391/5 
f 137/391/5 138/388/6 134/387/2 
f 139/392/1 140/393/2 141/394/3 
f 139/395/1 141/396/3 142/397/4 
f 139/398/1 142/399/4 143/400/5 
f 139/401/1 143/402/5 140/403/2 
f 140/404/2 144/405/6 141/406/3 
f 141/406/3 144/405/6 142/407/4 
f 142/407/4 144/405/6 143/408/5 
f 143/408/5 144/405/6 140/404/2 
f 145/409/1 146/410/2 147/411/3 
f 145/412/1 147/413/3 148/414/4 
f 145/415/1 148/416/4 149/417/5 
f 145/418/1 149/419/5 146/420/2 
f 146/421/2 150/422/6 147/423/3 
f 147/423/3 150/422/6 148/424/4 
f 148/424/4 150/422/6 149/425/5 
f 149/425/5 150/422/6 146/421/2 
f 151/426/1 152/427/2 153/428/3 
f 151/429/1 153/430/3 154/431/4 
f 151/432/1 154/433/4 155/434/5 
f 151/435/1 155/436/5 152/437/2 
f 152/438/2 156/439/6 153/440/3 
f 153/440/3 156/439/6 154/441/4 
f 154/441/4 156/439/6 155/442/5 
f 155/442/5 156/439/6 152/438/2 
# 208 faces

