# 3ds Max Wavefront OBJ Exporter v0.97b - (c)2007 guruware
# File Created: 25.03.2018 13:24:20

mtllib ApoyoEdificio3.mtl

#
# object Box128
#

v  -407.2886 0.0000 328.3758
v  -407.2886 0.0000 281.5986
v  -394.4079 0.0000 281.5986
v  -394.4079 0.0000 328.3758
v  -407.2886 9.0200 328.3758
v  -394.4079 9.0200 328.3758
v  -394.4079 9.0200 281.5986
v  -407.2886 9.0200 281.5986
v  -401.7103 2.8040 313.5104
v  -401.0167 2.8040 311.1357
v  -370.9395 55.0422 313.5493
v  -371.6331 55.0422 315.9240
v  -403.5237 5.8630 312.9807
v  -371.8191 58.6322 315.8696
v  -371.1255 58.6322 313.4949
v  -402.8300 5.8630 310.6060
v  -402.1855 2.8040 298.7237
v  -402.1855 2.8040 296.2498
v  -373.2449 55.0422 290.3104
v  -373.2449 55.0422 292.7843
v  -404.0746 5.8630 298.7237
v  -373.4387 58.6322 292.7843
v  -373.4387 58.6322 290.3104
v  -404.0746 5.8630 296.2498
# 24 vertices

vn 0.0000 -1.0000 -0.0000
vn 0.0000 1.0000 -0.0000
vn 0.0000 0.0000 1.0000
vn 1.0000 0.0000 -0.0000
vn 0.0000 0.0000 -1.0000
vn -1.0000 0.0000 -0.0000
vn 0.8355 -0.4923 0.2441
vn -0.8260 0.5095 -0.2413
vn -0.1847 0.0574 0.9811
vn -0.0973 0.0100 0.9952
vn -0.1049 0.0141 0.9944
vn -0.1872 0.0588 0.9806
vn 0.9585 0.0539 0.2800
vn 0.1081 -0.0106 -0.9941
vn 0.1842 -0.0607 -0.9810
vn 0.1829 -0.0599 -0.9813
vn 0.1065 -0.0095 -0.9943
vn -0.8167 -0.5254 -0.2386
vn 0.8747 -0.4846 -0.0000
vn -0.8648 0.5021 -0.0000
vn 0.0960 0.0563 0.9938
vn 0.1838 0.0099 0.9829
vn 0.1761 0.0140 0.9843
vn 0.0934 0.0577 0.9940
vn 0.9985 0.0539 -0.0000
vn -0.1730 -0.0105 -0.9849
vn -0.0964 -0.0595 -0.9936
vn -0.0977 -0.0587 -0.9935
vn -0.1746 -0.0094 -0.9846
vn -0.8508 -0.5254 -0.0000
# 30 vertex normals

vt 0.7085 0.7379 0.0000
vt 0.1313 0.7379 0.0000
vt 0.1313 0.5790 0.0000
vt 0.7085 0.5790 0.0000
vt 0.7286 0.4080 0.0000
vt 0.7286 0.5669 0.0000
vt 0.1514 0.5669 0.0000
vt 0.1514 0.4080 0.0000
vt 0.8406 0.8758 0.0000
vt 0.9995 0.8758 0.0000
vt 0.9995 0.9871 0.0000
vt 0.8406 0.9871 0.0000
vt 0.6934 0.8613 0.0000
vt 0.1162 0.8613 0.0000
vt 0.1162 0.7500 0.0000
vt 0.6934 0.7500 0.0000
vt 0.6796 0.8758 0.0000
vt 0.8385 0.8758 0.0000
vt 0.8385 0.9871 0.0000
vt 0.6796 0.9871 0.0000
vt 0.6783 0.9871 0.0000
vt 0.1011 0.9871 0.0000
vt 0.1011 0.8758 0.0000
vt 0.6783 0.8758 0.0000
vt 0.0311 0.7968 0.0000
vt 0.0005 0.7936 0.0000
vt 0.0029 0.0430 0.0000
vt 0.0335 0.0462 0.0000
vt 0.1719 0.1514 0.0000
vt 0.0964 0.9081 0.0000
vt 0.0659 0.9081 0.0000
vt 0.1414 0.1514 0.0000
vt 0.0407 0.0005 0.0000
vt 0.7852 0.0015 0.0000
vt 0.8224 0.0257 0.0000
vt 0.0620 0.0394 0.0000
vt 0.0068 0.0055 0.0000
vt 0.0374 0.0087 0.0000
vt 0.8818 0.0441 0.0000
vt 0.1665 0.2502 0.0000
vt 0.1762 0.2070 0.0000
vt 0.9109 0.0106 0.0000
vt 0.6947 0.7500 0.0000
vt 0.7252 0.7500 0.0000
vt 0.7252 0.7944 0.0000
vt 0.6947 0.7944 0.0000
vt 0.9915 0.7863 0.0000
vt 0.9574 0.7827 0.0000
vt 0.9512 0.0550 0.0000
vt 0.9853 0.0585 0.0000
vt 0.1343 0.2096 0.0000
vt 0.0505 0.9539 0.0000
vt 0.0156 0.9539 0.0000
vt 0.0994 0.2096 0.0000
vt 0.9402 0.0055 0.0000
vt 0.9271 0.7457 0.0000
vt 0.9027 0.7830 0.0000
vt 0.9009 0.0267 0.0000
vt 0.9564 0.0055 0.0000
vt 0.9905 0.0091 0.0000
vt 0.8694 0.0895 0.0000
vt 0.1615 0.3061 0.0000
vt 0.1710 0.2626 0.0000
vt 0.8985 0.0558 0.0000
vt 0.0994 0.1665 0.0000
vt 0.1343 0.1665 0.0000
# 66 texture coords

o Box128
g Box128
usemtl ApoyoEdificio3
f 1/1/1 2/2/1 3/3/1 
f 3/3/1 4/4/1 1/1/1 
f 5/5/2 6/6/2 7/7/2 
f 7/7/2 8/8/2 5/5/2 
f 1/9/3 4/10/3 6/11/3 
f 6/11/3 5/12/3 1/9/3 
f 4/13/4 3/14/4 7/15/4 
f 7/15/4 6/16/4 4/13/4 
f 3/17/5 2/18/5 8/19/5 
f 8/19/5 7/20/5 3/17/5 
f 2/21/6 1/22/6 5/23/6 
f 5/23/6 8/24/6 2/21/6 
f 9/25/7 10/26/7 11/27/7 
f 11/27/7 12/28/7 9/25/7 
f 13/29/8 14/30/8 15/31/8 
f 15/31/8 16/32/8 13/29/8 
f 9/33/9 12/34/10 14/35/11 
f 14/35/11 13/36/12 9/33/9 
f 12/28/13 11/27/13 15/37/13 
f 15/37/13 14/38/13 12/28/13 
f 11/39/14 10/40/15 16/41/16 
f 16/41/16 15/42/17 11/39/14 
f 10/43/18 9/44/18 13/45/18 
f 13/45/18 16/46/18 10/43/18 
f 17/47/19 18/48/19 19/49/19 
f 19/49/19 20/50/19 17/47/19 
f 21/51/20 22/52/20 23/53/20 
f 23/53/20 24/54/20 21/51/20 
f 17/55/21 20/56/22 22/57/23 
f 22/57/23 21/58/24 17/55/21 
f 20/50/25 19/49/25 23/59/25 
f 23/59/25 22/60/25 20/50/25 
f 19/61/26 18/62/27 24/63/28 
f 24/63/28 23/64/29 19/61/26 
f 18/65/30 17/66/30 21/51/30 
f 21/51/30 24/54/30 18/65/30 
# 36 faces

