# 3ds Max Wavefront OBJ Exporter v0.97b - (c)2007 guruware
# File Created: 11.01.2018 14:18:24

mtllib Puerta.mtl

#
# object Puerta
#

v  -0.5906 -8.8583 -7.8740
v  0.5906 -8.8583 -7.8740
v  0.5906 -8.8583 7.8740
v  -0.5906 -8.8583 7.8740
v  -0.5906 8.8583 -7.8740
v  -0.5906 8.8583 7.8740
v  0.5906 8.8583 7.8740
v  0.5906 8.8583 -7.8740
# 8 vertices

vn -0.5774 -0.5774 -0.5774
vn 0.5774 -0.5774 -0.5774
vn 0.5774 -0.5774 0.5774
vn -0.5774 -0.5774 0.5774
vn -0.5774 0.5774 -0.5774
vn -0.5774 0.5774 0.5774
vn 0.5774 0.5774 0.5774
vn 0.5774 0.5774 -0.5774
# 8 vertex normals

vt 0.9287 0.9714 0.0000
vt 0.8913 0.9714 0.0000
vt 0.8913 0.4727 0.0000
vt 0.9287 0.4727 0.0000
vt 0.9687 0.4727 0.0000
vt 0.9687 0.9714 0.0000
vt 0.9313 0.9714 0.0000
vt 0.9313 0.4727 0.0000
vt 0.2034 0.5028 0.0000
vt 0.6413 0.5028 0.0000
vt 0.6413 0.9955 0.0000
vt 0.2034 0.9955 0.0000
vt 0.8513 0.4086 0.0000
vt 0.8887 0.4086 0.0000
vt 0.8887 0.9697 0.0000
vt 0.8513 0.9697 0.0000
vt 0.2044 0.0045 0.0000
vt 0.6423 0.0045 0.0000
vt 0.6423 0.4972 0.0000
vt 0.2044 0.4972 0.0000
vt 0.9274 0.0179 0.0000
vt 0.9648 0.0179 0.0000
vt 0.9648 0.5790 0.0000
vt 0.9274 0.5790 0.0000
# 24 texture coords

o Puerta
g Puerta
usemtl Material__18
s 2
f 1/1/1 2/2/2 3/3/3 4/4/4 
s 4
f 5/5/5 6/6/6 7/7/7 8/8/8 
s 8
f 1/9/1 4/10/4 6/11/6 5/12/5 
s 16
f 4/13/4 3/14/3 7/15/7 6/16/6 
s 32
f 3/17/3 2/18/2 8/19/8 7/20/7 
s 64
f 2/21/2 1/22/1 5/23/5 8/24/8 
# 6 polygons

