# 3ds Max Wavefront OBJ Exporter v0.97b - (c)2007 guruware
# File Created: 25.03.2018 13:30:21

mtllib CajasHoguera.mtl

#
# object CajasHoguera
#

v  -33.3591 -0.0204 232.5724
v  -29.8693 -0.0204 232.5724
v  -29.8693 -0.0204 235.9727
v  -33.3591 -0.0204 235.9727
v  -29.8693 2.6722 235.9727
v  -29.8693 2.6722 232.5724
v  -33.3591 2.6722 232.5724
v  -33.3591 2.6722 235.9727
v  -39.2267 -0.0204 226.3951
v  -35.7369 -0.0204 226.3951
v  -35.7369 -0.0204 229.7953
v  -39.2267 -0.0204 229.7953
v  -35.7369 2.6722 229.7953
v  -35.7369 2.6722 226.3951
v  -39.2267 2.6722 226.3951
v  -39.2267 2.6722 229.7953
v  -37.1086 -0.0204 216.0813
v  -33.6188 -0.0204 216.0813
v  -33.6188 -0.0204 219.4816
v  -37.1086 -0.0204 219.4816
v  -33.6188 2.6722 219.4816
v  -33.6188 2.6722 216.0813
v  -37.1086 2.6722 216.0813
v  -37.1086 2.6722 219.4816
v  -27.1588 -0.0204 211.9763
v  -23.6690 -0.0204 211.9763
v  -23.6690 -0.0204 215.3766
v  -27.1588 -0.0204 215.3766
v  -23.6690 2.6722 215.3766
v  -23.6690 2.6722 211.9763
v  -27.1588 2.6722 211.9763
v  -27.1588 2.6722 215.3766
v  -17.1049 -0.0204 217.3573
v  -13.6151 -0.0204 217.3573
v  -13.6151 -0.0204 220.7576
v  -17.1049 -0.0204 220.7576
v  -13.6151 2.6722 220.7576
v  -13.6151 2.6722 217.3573
v  -17.1049 2.6722 217.3573
v  -17.1049 2.6722 220.7576
# 40 vertices

vn -0.5774 -0.5774 -0.5774
vn 0.5774 -0.5774 -0.5774
vn 0.5774 -0.5774 0.5774
vn -0.5774 -0.5774 0.5774
vn 0.5774 0.5774 0.5774
vn 0.5774 0.5774 -0.5774
vn -0.5774 0.5774 -0.5774
vn -0.5774 0.5774 0.5774
# 8 vertex normals

vt 0.3677 0.0005 0.0000
vt 0.5443 0.0005 0.0000
vt 0.5443 0.1725 0.0000
vt 0.3677 0.1725 0.0000
vt 0.3629 0.0005 0.0000
vt 0.3629 0.1725 0.0000
vt 0.1863 0.1725 0.0000
vt 0.1863 0.0005 0.0000
vt 0.1367 0.6770 0.0000
vt 0.0005 0.6770 0.0000
vt 0.0005 0.5005 0.0000
vt 0.1367 0.5005 0.0000
vt 0.9995 0.7610 0.0000
vt 0.8633 0.7610 0.0000
vt 0.8633 0.5890 0.0000
vt 0.9995 0.5890 0.0000
vt 0.1367 0.4956 0.0000
vt 0.0005 0.4956 0.0000
vt 0.0005 0.3191 0.0000
vt 0.1367 0.3191 0.0000
vt 0.4955 0.8633 0.0000
vt 0.4955 0.9995 0.0000
vt 0.3235 0.9995 0.0000
vt 0.3235 0.8633 0.0000
vt 0.3097 0.5093 0.0000
vt 0.3097 0.6859 0.0000
vt 0.1377 0.6859 0.0000
vt 0.1377 0.5093 0.0000
vt 0.3097 0.5001 0.0000
vt 0.1377 0.5001 0.0000
vt 0.1377 0.3235 0.0000
vt 0.3097 0.3235 0.0000
vt 0.3585 0.1775 0.0000
vt 0.3585 0.3137 0.0000
vt 0.1819 0.3137 0.0000
vt 0.1819 0.1775 0.0000
vt 0.6769 0.8633 0.0000
vt 0.6769 0.9995 0.0000
vt 0.5049 0.9995 0.0000
vt 0.5049 0.8633 0.0000
vt 0.9071 0.0005 0.0000
vt 0.9071 0.1367 0.0000
vt 0.7305 0.1367 0.0000
vt 0.7305 0.0005 0.0000
vt 0.8583 0.7704 0.0000
vt 0.8583 0.9066 0.0000
vt 0.6863 0.9066 0.0000
vt 0.6863 0.7704 0.0000
vt 0.5536 0.2748 0.0000
vt 0.7301 0.2748 0.0000
vt 0.7301 0.4469 0.0000
vt 0.5536 0.4469 0.0000
vt 0.4867 0.7124 0.0000
vt 0.3146 0.7124 0.0000
vt 0.3146 0.5359 0.0000
vt 0.4867 0.5359 0.0000
vt 0.1815 0.0005 0.0000
vt 0.1815 0.1367 0.0000
vt 0.0049 0.1367 0.0000
vt 0.0049 0.0005 0.0000
vt 0.8756 0.4911 0.0000
vt 0.7394 0.4911 0.0000
vt 0.7394 0.3191 0.0000
vt 0.8756 0.3191 0.0000
vt 0.7301 0.1377 0.0000
vt 0.7301 0.2739 0.0000
vt 0.5536 0.2739 0.0000
vt 0.5536 0.1377 0.0000
vt 0.6725 0.7261 0.0000
vt 0.6725 0.8623 0.0000
vt 0.5005 0.8623 0.0000
vt 0.5005 0.7261 0.0000
vt 0.3097 0.6951 0.0000
vt 0.3097 0.8717 0.0000
vt 0.1377 0.8717 0.0000
vt 0.1377 0.6951 0.0000
vt 0.5443 0.1775 0.0000
vt 0.5443 0.3495 0.0000
vt 0.3677 0.3495 0.0000
vt 0.3677 0.1775 0.0000
vt 0.8756 0.3142 0.0000
vt 0.7394 0.3142 0.0000
vt 0.7394 0.1377 0.0000
vt 0.8756 0.1377 0.0000
vt 0.6725 0.5890 0.0000
vt 0.6725 0.7252 0.0000
vt 0.5005 0.7252 0.0000
vt 0.5005 0.5890 0.0000
vt 0.4912 0.7217 0.0000
vt 0.4912 0.8579 0.0000
vt 0.3146 0.8579 0.0000
vt 0.3146 0.7217 0.0000
vt 0.6769 0.4518 0.0000
vt 0.6769 0.5880 0.0000
vt 0.5049 0.5880 0.0000
vt 0.5049 0.4518 0.0000
vt 0.3191 0.3545 0.0000
vt 0.4956 0.3545 0.0000
vt 0.4956 0.5265 0.0000
vt 0.3191 0.5265 0.0000
vt 0.1725 0.3142 0.0000
vt 0.0005 0.3142 0.0000
vt 0.0005 0.1377 0.0000
vt 0.1725 0.1377 0.0000
vt 0.1367 0.8584 0.0000
vt 0.0005 0.8584 0.0000
vt 0.0005 0.6819 0.0000
vt 0.1367 0.6819 0.0000
vt 0.8583 0.4960 0.0000
vt 0.8583 0.6323 0.0000
vt 0.6863 0.6323 0.0000
vt 0.6863 0.4960 0.0000
vt 0.7257 0.0005 0.0000
vt 0.7257 0.1367 0.0000
vt 0.5491 0.1367 0.0000
vt 0.5491 0.0005 0.0000
vt 0.8539 0.6332 0.0000
vt 0.8539 0.7694 0.0000
vt 0.6819 0.7694 0.0000
vt 0.6819 0.6332 0.0000
# 120 texture coords

o CajasHoguera
g CajasHoguera
usemtl CajasHoguera
f 1/1/1 2/2/2 3/3/3 
f 3/3/3 4/4/4 1/1/1 
f 5/5/5 6/6/6 7/7/7 
f 7/7/7 8/8/8 5/5/5 
f 3/9/3 5/10/5 8/11/8 
f 8/11/8 4/12/4 3/9/3 
f 2/13/2 6/14/6 5/15/5 
f 5/15/5 3/16/3 2/13/2 
f 1/17/1 7/18/7 6/19/6 
f 6/19/6 2/20/2 1/17/1 
f 4/21/4 8/22/8 7/23/7 
f 7/23/7 1/24/1 4/21/4 
f 9/25/1 10/26/2 11/27/3 
f 11/27/3 12/28/4 9/25/1 
f 13/29/5 14/30/6 15/31/7 
f 15/31/7 16/32/8 13/29/5 
f 11/33/3 13/34/5 16/35/8 
f 16/35/8 12/36/4 11/33/3 
f 10/37/2 14/38/6 13/39/5 
f 13/39/5 11/40/3 10/37/2 
f 9/41/1 15/42/7 14/43/6 
f 14/43/6 10/44/2 9/41/1 
f 12/45/4 16/46/8 15/47/7 
f 15/47/7 9/48/1 12/45/4 
f 17/49/1 18/50/2 19/51/3 
f 19/51/3 20/52/4 17/49/1 
f 21/53/5 22/54/6 23/55/7 
f 23/55/7 24/56/8 21/53/5 
f 19/57/3 21/58/5 24/59/8 
f 24/59/8 20/60/4 19/57/3 
f 18/61/2 22/62/6 21/63/5 
f 21/63/5 19/64/3 18/61/2 
f 17/65/1 23/66/7 22/67/6 
f 22/67/6 18/68/2 17/65/1 
f 20/69/4 24/70/8 23/71/7 
f 23/71/7 17/72/1 20/69/4 
f 25/73/1 26/74/2 27/75/3 
f 27/75/3 28/76/4 25/73/1 
f 29/77/5 30/78/6 31/79/7 
f 31/79/7 32/80/8 29/77/5 
f 27/81/3 29/82/5 32/83/8 
f 32/83/8 28/84/4 27/81/3 
f 26/85/2 30/86/6 29/87/5 
f 29/87/5 27/88/3 26/85/2 
f 25/89/1 31/90/7 30/91/6 
f 30/91/6 26/92/2 25/89/1 
f 28/93/4 32/94/8 31/95/7 
f 31/95/7 25/96/1 28/93/4 
f 33/97/1 34/98/2 35/99/3 
f 35/99/3 36/100/4 33/97/1 
f 37/101/5 38/102/6 39/103/7 
f 39/103/7 40/104/8 37/101/5 
f 35/105/3 37/106/5 40/107/8 
f 40/107/8 36/108/4 35/105/3 
f 34/109/2 38/110/6 37/111/5 
f 37/111/5 35/112/3 34/109/2 
f 33/113/1 39/114/7 38/115/6 
f 38/115/6 34/116/2 33/113/1 
f 36/117/4 40/118/8 39/119/7 
f 39/119/7 33/120/1 36/117/4 
# 60 faces

