# 3ds Max Wavefront OBJ Exporter v0.97b - (c)2007 guruware
# File Created: 25.03.2018 13:21:12

mtllib EdificioLejos4.mtl

#
# object Box227
#

v  -117.8558 -114.4050 757.1124
v  -125.2474 -56.2410 732.1307
v  -145.4660 -82.3862 677.2398
v  -138.0745 -140.5502 702.2214
v  55.2413 -118.8775 695.4836
v  35.0227 -145.0227 640.5927
v  27.6311 -86.8587 615.6110
v  47.8498 -60.7135 670.5020
# 8 vertices

vn -0.9418 0.0243 0.3353
vn 0.9418 -0.0243 -0.3353
vn 0.1160 -0.9126 0.3920
vn -0.3156 -0.4081 -0.8567
vn -0.1160 0.9126 -0.3920
vn 0.3156 0.4081 0.8567
# 6 vertex normals

vt 0.0005 0.9676 0.0000
vt 0.0005 0.7206 0.0000
vt 0.2489 0.7206 0.0000
vt 0.2489 0.9676 0.0000
vt 0.7251 0.7525 0.0000
vt 0.9735 0.7525 0.0000
vt 0.9735 0.9995 0.0000
vt 0.7251 0.9995 0.0000
vt 0.9727 0.2512 0.0000
vt 0.9727 0.4995 0.0000
vt 0.2603 0.4995 0.0000
vt 0.2603 0.2512 0.0000
vt 0.9727 0.5018 0.0000
vt 0.9727 0.7488 0.0000
vt 0.2603 0.7488 0.0000
vt 0.2603 0.5018 0.0000
vt 0.9636 0.0005 0.0000
vt 0.9636 0.2489 0.0000
vt 0.2512 0.2489 0.0000
vt 0.2512 0.0005 0.0000
vt 0.0005 0.0051 0.0000
vt 0.2475 0.0051 0.0000
vt 0.2475 0.7175 0.0000
vt 0.0005 0.7175 0.0000
# 24 texture coords

o Box227
g Box227
usemtl EdificioLejos1
f 1/1/1 2/2/1 3/3/1 
f 3/3/1 4/4/1 1/1/1 
f 5/5/2 6/6/2 7/7/2 
f 7/7/2 8/8/2 5/5/2 
f 1/9/3 4/10/3 6/11/3 
f 6/11/3 5/12/3 1/9/3 
f 4/13/4 3/14/4 7/15/4 
f 7/15/4 6/16/4 4/13/4 
f 3/17/5 2/18/5 8/19/5 
f 8/19/5 7/20/5 3/17/5 
f 2/21/6 1/22/6 5/23/6 
f 5/23/6 8/24/6 2/21/6 
# 12 faces

