# 3ds Max Wavefront OBJ Exporter v0.97b - (c)2007 guruware
# File Created: 25.03.2018 13:23:44

mtllib ApoyoEdificio2.mtl

#
# object Box134
#

v  -268.5691 3.5430 455.5088
v  -268.6559 4.3858 439.9646
v  -268.6042 12.0796 443.3300
v  -268.5173 11.2368 458.8741
v  -275.3606 8.2723 459.1954
v  -275.4474 9.1151 443.6512
v  -275.4991 4.4144 440.2859
v  -275.4123 3.5716 455.8300
v  -268.6067 -0.2224 451.7401
v  -275.4500 -0.1938 452.0613
v  -275.5245 -1.1869 439.9574
v  -268.6813 -1.2155 439.6362
v  -268.3542 10.3992 477.5546
v  -275.1974 7.4347 477.8759
v  -275.2913 3.9744 476.3444
v  -268.4481 3.9458 476.0231
v  -268.5445 17.7416 449.5279
v  -275.3877 14.2048 449.8492
v  -275.2941 16.5666 464.2430
v  -268.4509 20.1034 463.9218
v  -268.7750 5.5414 418.6535
v  -275.6183 5.5700 418.9748
v  -275.5343 9.9580 428.1071
v  -268.6911 12.9225 427.7858
v  -268.4535 -2.7200 477.7913
v  -275.2967 -2.6914 478.1125
v  -275.6378 -2.4365 421.3763
v  -268.7945 -2.4651 421.0551
v  -256.6996 67.7125 437.9015
v  -261.2640 68.1243 437.2930
v  -262.2328 68.3490 443.3760
v  -257.6684 67.9372 443.9845
v  -275.2220 14.5509 478.1049
v  -268.3788 18.0877 477.7837
v  -275.4755 13.9477 434.9347
v  -268.6323 17.4846 434.6135
v  -269.9764 16.8520 439.0536
v  -269.9402 16.9582 445.2164
v  -274.0799 14.7311 439.2463
v  -274.0436 14.8374 445.4090
# 40 vertices

vn 0.9989 -0.0039 -0.0471
vn 0.9989 -0.0042 -0.0469
vn 0.9989 -0.0050 -0.0504
vn -0.9989 0.0042 0.0506
vn -0.9989 0.0056 0.0475
vn -0.9989 0.0054 0.0474
vn -0.9989 0.0062 0.0487
vn -0.0054 -0.9152 -0.2635
vn -0.0054 -0.9152 -0.2632
vn -0.0038 -0.8760 -0.0215
vn 0.0166 0.0445 1.0352
vn 0.0508 -0.0083 1.0142
vn 0.0239 0.0737 1.0436
vn 0.0065 0.0901 1.0490
vn -0.4254 0.7176 -0.1802
vn -0.4577 0.8098 0.2144
vn -0.4577 0.8103 0.2195
vn -0.0580 0.0971 -0.9748
vn -0.0049 0.1548 -0.9482
vn -0.1457 0.3807 -0.7693
vn -0.2122 0.3291 -0.7970
vn 0.9989 -0.0053 -0.0496
vn 0.9988 -0.0072 -0.0553
vn -0.9988 0.0072 0.0530
vn -0.9988 0.0134 0.0491
vn -0.9989 0.0053 0.0474
vn -0.9989 0.0059 0.0476
vn -0.0068 -0.9042 -0.5108
vn -0.0039 -0.8814 -0.0431
vn 0.0942 0.9028 0.1746
vn 0.0942 0.9028 0.1747
vn -0.4275 0.7920 0.5839
vn 0.9989 -0.0041 -0.0474
vn 0.9989 -0.0017 -0.0477
vn -0.9989 0.0045 0.0470
vn -0.9989 0.0047 0.0468
vn -0.9989 0.0042 0.0469
vn -0.9989 0.0039 0.0470
vn 0.0116 0.0761 1.0449
vn 0.0122 0.0757 1.0448
vn 0.0069 0.1705 1.0660
vn -0.0070 -0.1814 -1.0677
vn -0.2289 0.3722 -0.7555
vn -0.2394 0.3409 -0.7792
vn 0.9989 -0.0030 -0.0471
vn 0.9989 0.0030 -0.0418
vn -0.9989 0.0016 0.0496
vn -0.9989 0.0026 0.0474
vn -0.9989 0.0047 0.0470
vn -0.4575 0.8074 0.1924
vn 0.9662 -0.2301 -0.0933
vn 0.8771 -0.1537 0.3655
vn -0.0012 -0.0953 -1.0505
vn 0.0551 -0.1038 -1.0533
vn -0.9752 0.1965 0.0866
vn -0.8776 0.1516 -0.3661
vn 0.0038 0.0907 1.0493
vn -0.0547 0.1070 1.0541
# 58 vertex normals

vt 0.1112 0.7900 0.0000
vt 0.1250 0.6916 0.0000
vt 0.2633 0.7111 0.0000
vt 0.2494 0.8094 0.0000
vt 0.8481 0.6241 0.0000
vt 0.7488 0.6241 0.0000
vt 0.7406 0.5375 0.0000
vt 0.8399 0.5375 0.0000
vt 0.3875 0.5916 0.0000
vt 0.5126 0.5916 0.0000
vt 0.5126 0.6659 0.0000
vt 0.3875 0.6659 0.0000
vt 0.1381 0.5438 0.0000
vt 0.1916 0.4203 0.0000
vt 0.2549 0.4190 0.0000
vt 0.2549 0.5428 0.0000
vt 0.2091 0.2760 0.0000
vt 0.1984 0.4105 0.0000
vt 0.1068 0.4105 0.0000
vt 0.1175 0.2760 0.0000
vt 0.5570 0.9212 0.0000
vt 0.5570 0.7952 0.0000
vt 0.6459 0.7954 0.0000
vt 0.7003 0.9212 0.0000
vt 0.1201 0.9194 0.0000
vt 0.2360 0.9276 0.0000
vt 0.2771 0.6127 0.0000
vt 0.1439 0.5568 0.0000
vt 0.9670 0.6272 0.0000
vt 0.9669 0.5644 0.0000
vt 0.6045 0.5375 0.0000
vt 0.6495 0.6241 0.0000
vt 0.3872 0.4190 0.0000
vt 0.5123 0.4190 0.0000
vt 0.5126 0.7805 0.0000
vt 0.3875 0.7805 0.0000
vt 0.0990 0.2564 0.0000
vt 0.0161 0.2569 0.0000
vt 0.0005 0.2182 0.0000
vt 0.0835 0.2177 0.0000
vt 0.0058 0.4105 0.0000
vt 0.0165 0.2760 0.0000
vt 0.0433 0.7671 0.0000
vt 0.0245 0.6909 0.0000
vt 0.3654 0.7489 0.0000
vt 0.4089 0.8392 0.0000
vt 0.8570 0.7760 0.0000
vt 0.7736 0.7203 0.0000
vt 0.7539 0.4379 0.0000
vt 0.8267 0.4671 0.0000
vt 0.0005 0.5428 0.0000
vt 0.0642 0.4193 0.0000
vt 0.3722 0.4193 0.0000
vt 0.3722 0.5430 0.0000
vt 0.4137 0.9212 0.0000
vt 0.4137 0.7952 0.0000
vt 0.7252 0.7955 0.0000
vt 0.7900 0.9212 0.0000
vt 0.0007 0.9322 0.0000
vt 0.3739 0.9272 0.0000
vt 0.3595 0.6547 0.0000
vt 0.0005 0.5738 0.0000
vt 0.9490 0.7536 0.0000
vt 0.9961 0.4479 0.0000
vt 0.6413 0.3978 0.0000
vt 0.6812 0.7014 0.0000
vt 0.3105 0.2760 0.0000
vt 0.2786 0.3029 0.0000
vt 0.2367 0.3029 0.0000
vt 0.2998 0.4105 0.0000
vt 0.2722 0.3836 0.0000
vt 0.2303 0.3836 0.0000
vt 0.0030 0.9995 0.0000
vt 0.0005 0.9594 0.0000
vt 0.9420 0.9435 0.0000
vt 0.9466 0.9828 0.0000
vt 0.0600 0.2072 0.0000
vt 0.0217 0.1329 0.0000
vt 0.9787 0.3616 0.0000
vt 0.9725 0.4444 0.0000
vt 0.9923 0.2490 0.0000
vt 0.9843 0.2882 0.0000
vt 0.0111 0.1286 0.0000
vt 0.0211 0.0906 0.0000
vt 0.9936 0.0005 0.0000
vt 0.9406 0.0652 0.0000
vt 0.0005 0.0892 0.0000
vt 0.0116 0.0069 0.0000
# 88 texture coords

o Box134
g Box134
usemtl ApoyoEdificio2
f 1/1/1 2/2/2 3/3/2 
f 3/3/2 4/4/3 1/1/1 
f 5/5/4 6/6/5 7/7/6 
f 7/7/6 8/8/7 5/5/4 
f 9/9/8 10/10/9 11/11/10 
f 11/11/10 12/12/10 9/9/8 
f 13/13/11 14/14/12 15/15/13 
f 15/15/13 16/16/14 13/13/11 
f 17/17/15 18/18/15 19/19/16 
f 19/19/16 20/20/17 17/17/15 
f 21/21/18 22/22/19 23/23/20 
f 23/23/20 24/24/21 21/21/18 
f 16/25/22 1/1/1 4/4/3 
f 4/4/3 13/26/23 16/25/22 
f 24/27/2 3/3/2 2/2/2 
f 2/2/2 21/28/2 24/27/2 
f 14/29/24 5/5/4 8/8/7 
f 8/8/7 15/30/25 14/29/24 
f 22/31/26 7/7/6 6/6/5 
f 6/6/5 23/32/27 22/31/26 
f 25/33/28 26/34/28 10/10/9 
f 10/10/9 9/9/8 25/33/28 
f 27/35/29 28/36/29 12/12/10 
f 12/12/10 11/11/10 27/35/29 
f 29/37/30 30/38/31 31/39/31 
f 31/39/31 32/40/30 29/37/30 
f 33/41/32 34/42/32 20/20/17 
f 20/20/17 19/19/16 33/41/32 
f 9/43/33 12/44/2 2/2/2 
f 2/2/2 1/1/1 9/43/33 
f 17/45/2 20/46/34 4/4/3 
f 4/4/3 3/3/2 17/45/2 
f 19/47/35 18/48/36 6/6/5 
f 6/6/5 5/5/4 19/47/35 
f 11/49/37 10/50/38 8/8/7 
f 8/8/7 7/7/6 11/49/37 
f 34/51/39 33/52/40 14/14/12 
f 14/14/12 13/13/11 34/51/39 
f 26/53/41 25/54/41 16/16/14 
f 16/16/14 15/15/13 26/53/41 
f 28/55/42 27/56/42 22/22/19 
f 22/22/19 21/21/18 28/55/42 
f 35/57/43 36/58/44 24/24/21 
f 24/24/21 23/23/20 35/57/43 
f 25/59/45 9/43/33 1/1/1 
f 1/1/1 16/25/22 25/59/45 
f 20/46/34 34/60/46 13/26/23 
f 13/26/23 4/4/3 20/46/34 
f 36/61/2 17/45/2 3/3/2 
f 3/3/2 24/27/2 36/61/2 
f 12/44/2 28/62/2 21/28/2 
f 21/28/2 2/2/2 12/44/2 
f 33/63/47 19/47/35 5/5/4 
f 5/5/4 14/29/24 33/63/47 
f 10/50/38 26/64/48 15/30/25 
f 15/30/25 8/8/7 10/50/38 
f 27/65/37 11/49/37 7/7/6 
f 7/7/6 22/31/26 27/65/37 
f 18/48/36 35/66/49 23/32/27 
f 23/32/27 6/6/5 18/48/36 
f 17/17/50 36/67/50 37/68/50 
f 37/68/50 38/69/50 17/17/50 
f 36/67/50 35/70/50 39/71/50 
f 39/71/50 37/68/50 36/67/50 
f 35/70/50 18/18/50 40/72/50 
f 40/72/50 39/71/50 35/70/50 
f 18/18/50 17/17/50 38/69/50 
f 38/69/50 40/72/50 18/18/50 
f 38/73/51 37/74/51 29/75/51 
f 29/75/52 32/76/52 38/73/52 
f 37/77/53 39/78/53 30/79/53 
f 30/79/54 29/80/54 37/77/54 
f 39/81/55 40/82/55 31/83/55 
f 31/83/56 30/84/56 39/81/56 
f 40/85/57 38/86/57 32/87/57 
f 32/87/58 31/88/58 40/85/58 
# 76 faces

