# 3ds Max Wavefront OBJ Exporter v0.97b - (c)2007 guruware
# File Created: 25.03.2018 13:22:49

mtllib PiedraPoste.mtl

#
# object Box135
#

v  -314.0786 -0.0002 513.6895
v  -308.7299 -0.0002 515.3697
v  -310.7793 -0.0002 525.3650
v  -316.1280 -0.0002 523.6848
v  -316.1280 6.8440 523.6848
v  -310.7793 6.8440 525.3650
v  -308.7299 6.8440 515.3697
v  -314.0786 6.8440 513.6895
v  -312.3326 -0.0002 508.8758
v  -312.3326 3.2426 508.8758
v  -307.9810 3.2426 508.0148
v  -307.9810 -0.0002 508.0148
v  -324.5912 -0.0002 521.5294
v  -324.5912 6.8440 521.5294
v  -324.2647 6.8440 513.4648
v  -324.2647 -0.0002 513.4648
v  -313.5908 -0.0002 532.5838
v  -313.5908 6.8440 532.5838
v  -318.8993 6.8440 535.1608
v  -318.8993 -0.0002 535.1608
v  -301.3969 -0.0002 517.6732
v  -301.3969 6.8440 517.6732
v  -305.4306 6.8440 527.0452
v  -305.4306 -0.0002 527.0452
v  -324.3163 -0.0002 506.9893
v  -324.3163 6.8440 506.9893
v  -301.3319 6.8440 507.0546
v  -301.3319 -0.0002 507.0546
v  -308.3382 -0.0002 532.7943
v  -308.3382 6.8440 532.7943
v  -323.5260 6.8440 531.9999
v  -323.5260 -0.0002 531.9999
# 32 vertices

vn 0.0000 -1.0000 -0.0000
vn 0.0000 1.0000 -0.0000
vn -0.0413 0.9785 -0.2101
vn 0.0051 0.9275 -0.3810
vn -0.0393 0.0000 -1.0232
vn -0.0282 0.0000 -1.0226
vn -0.1471 0.0000 -1.0225
vn -0.1498 0.0000 -1.0223
vn -0.9703 -0.0000 0.0090
vn -0.9743 -0.0000 -0.0536
vn 0.1821 0.0000 1.0195
vn -0.0316 0.0000 1.0168
vn 0.9540 0.0000 0.2997
vn 0.8544 0.0000 0.5716
vn 0.1171 0.9878 -0.0900
vn 0.0913 0.0000 -1.0073
vn -0.1304 0.0000 -1.0234
vn -0.0056 0.0000 1.0198
vn -0.4209 0.0000 0.8809
vn -0.2418 0.7747 -0.6162
vn -0.0452 0.7535 -0.6734
vn -0.9572 -0.0000 0.1040
vn -0.9572 0.0000 0.1040
vn -0.9726 -0.0000 -0.0209
vn -0.9726 0.0000 -0.0209
vn 0.9737 -0.0000 0.0399
vn 0.9737 0.0000 0.0399
vn 0.8364 0.0000 0.6027
vn 0.2807 0.9574 0.0060
vn -0.2276 0.9389 -0.2795
# 30 vertex normals

vt 0.7513 0.5620 0.0000
vt 0.6271 0.5310 0.0000
vt 0.6706 0.3562 0.0000
vt 0.7949 0.3872 0.0000
vt 0.3042 0.3607 0.0000
vt 0.1761 0.3607 0.0000
vt 0.1761 0.1806 0.0000
vt 0.3042 0.1806 0.0000
vt 0.2835 0.9828 0.0000
vt 0.2835 0.9077 0.0000
vt 0.3774 0.9077 0.0000
vt 0.3774 0.9828 0.0000
vt 0.2528 0.6522 0.0000
vt 0.2528 0.8105 0.0000
vt 0.1145 0.8105 0.0000
vt 0.1145 0.6522 0.0000
vt 0.8039 0.0005 0.0000
vt 0.8039 0.1589 0.0000
vt 0.6964 0.1589 0.0000
vt 0.6964 0.0005 0.0000
vt 0.8194 0.8244 0.0000
vt 0.8194 0.9828 0.0000
vt 0.6393 0.9828 0.0000
vt 0.6393 0.8244 0.0000
vt 0.9869 0.5688 0.0000
vt 0.9914 0.4274 0.0000
vt 0.5464 0.3252 0.0000
vt 0.4567 0.4885 0.0000
vt 0.5046 0.3692 0.0000
vt 0.5344 0.2310 0.0000
vt 0.0005 0.1806 0.0000
vt 0.0480 0.3607 0.0000
vt 0.0052 0.9828 0.0000
vt 0.0052 0.8244 0.0000
vt 0.5226 0.8244 0.0000
vt 0.5226 0.9828 0.0000
vt 0.9231 0.0005 0.0000
vt 0.9231 0.1589 0.0000
vt 0.5777 0.1589 0.0000
vt 0.5777 0.0005 0.0000
vt 0.7128 0.6459 0.0000
vt 0.6125 0.6598 0.0000
vt 0.7329 0.2304 0.0000
vt 0.8546 0.1867 0.0000
vt 0.3136 0.5697 0.0000
vt 0.2061 0.4979 0.0000
vt 0.1932 0.0521 0.0000
vt 0.2871 0.0898 0.0000
vt 0.4244 0.6522 0.0000
vt 0.4244 0.8105 0.0000
vt 0.0052 0.8105 0.0000
vt 0.0052 0.6522 0.0000
vt 0.9995 0.8244 0.0000
vt 0.9995 0.9828 0.0000
vt 0.5265 0.9828 0.0000
vt 0.5265 0.8244 0.0000
vt 0.9906 0.6824 0.0000
vt 0.9628 0.2435 0.0000
vt 0.6114 0.2252 0.0000
vt 0.4592 0.6748 0.0000
vt 0.4323 0.5408 0.0000
vt 0.5654 0.1216 0.0000
vt 0.0480 0.0005 0.0000
vt 0.0869 0.4735 0.0000
# 64 texture coords

o Box135
g Box135
usemtl PiedraPoste
f 1/1/1 2/2/1 3/3/1 
f 3/3/1 4/4/1 1/1/1 
f 5/5/2 6/6/2 7/7/3 
f 7/7/3 8/8/4 5/5/2 
f 9/9/5 10/10/6 11/11/7 
f 11/11/7 12/12/8 9/9/5 
f 13/13/9 14/14/9 15/15/10 
f 15/15/10 16/16/10 13/13/9 
f 17/17/11 18/18/11 19/19/12 
f 19/19/12 20/20/12 17/17/11 
f 21/21/13 22/22/13 23/23/14 
f 23/23/14 24/24/14 21/21/13 
f 16/25/1 1/1/1 4/4/1 
f 4/4/1 13/26/1 16/25/1 
f 24/27/1 3/3/1 2/2/1 
f 2/2/1 21/28/1 24/27/1 
f 14/29/2 5/5/2 8/8/4 
f 8/8/4 15/30/15 14/29/2 
f 22/31/2 7/7/3 6/6/2 
f 6/6/2 23/32/2 22/31/2 
f 25/33/16 26/34/16 10/10/6 
f 10/10/6 9/9/5 25/33/16 
f 27/35/17 28/36/17 12/12/8 
f 12/12/8 11/11/7 27/35/17 
f 29/37/18 30/38/18 18/18/11 
f 18/18/11 17/17/11 29/37/18 
f 31/39/19 32/40/19 20/20/12 
f 20/20/12 19/19/12 31/39/19 
f 9/41/1 12/42/1 2/2/1 
f 2/2/1 1/1/1 9/41/1 
f 17/43/1 20/44/1 4/4/1 
f 4/4/1 3/3/1 17/43/1 
f 19/45/2 18/46/2 6/6/2 
f 6/6/2 5/5/2 19/45/2 
f 11/47/20 10/48/21 8/8/4 
f 8/8/4 7/7/3 11/47/20 
f 32/49/22 31/50/23 14/14/9 
f 14/14/9 13/13/9 32/49/22 
f 26/51/24 25/52/25 16/16/10 
f 16/16/10 15/15/10 26/51/24 
f 28/53/26 27/54/27 22/22/13 
f 22/22/13 21/21/13 28/53/26 
f 30/55/28 29/56/28 24/24/14 
f 24/24/14 23/23/14 30/55/28 
f 25/57/1 9/41/1 1/1/1 
f 1/1/1 16/25/1 25/57/1 
f 20/44/1 32/58/1 13/26/1 
f 13/26/1 4/4/1 20/44/1 
f 29/59/1 17/43/1 3/3/1 
f 3/3/1 24/27/1 29/59/1 
f 12/42/1 28/60/1 21/28/1 
f 21/28/1 2/2/1 12/42/1 
f 31/61/2 19/45/2 5/5/2 
f 5/5/2 14/29/2 31/61/2 
f 10/48/21 26/62/29 15/30/15 
f 15/30/15 8/8/4 10/48/21 
f 27/63/30 11/47/20 7/7/3 
f 7/7/3 22/31/2 27/63/30 
f 18/46/2 30/64/2 23/32/2 
f 23/32/2 6/6/2 18/46/2 
# 60 faces

