# 3ds Max Wavefront OBJ Exporter v0.97b - (c)2007 guruware
# File Created: 13.03.2018 20:33:21

mtllib base_puerta_pinchos.mtl

#
# object BasePuertaPinchos
#

v  -1.6000 -0.0327 0.7845
v  -2.1547 -0.0327 0.5547
v  -2.3845 -0.0327 -0.0000
v  -2.1547 -0.0327 -0.5547
v  -1.6000 -0.0327 -0.7845
v  -1.0453 -0.0327 -0.5547
v  -0.8155 -0.0327 -0.0000
v  -1.0453 -0.0327 0.5547
v  -1.0453 0.0327 -0.5547
v  -0.8155 0.0327 -0.0000
v  -1.6000 0.0327 -0.7845
v  -2.1547 0.0327 -0.5547
v  -2.3845 0.0327 -0.0000
v  -2.1547 0.0327 0.5547
v  -1.6000 0.0327 0.7845
v  -1.0453 0.0327 0.5547
v  0.0000 -0.0327 0.7845
v  -0.5547 -0.0327 0.5547
v  -0.7845 -0.0327 -0.0000
v  -0.5547 -0.0327 -0.5547
v  0.0000 -0.0327 -0.7845
v  0.5547 -0.0327 -0.5547
v  0.7845 -0.0327 -0.0000
v  0.5547 -0.0327 0.5547
v  0.5547 0.0327 -0.5547
v  0.7845 0.0327 -0.0000
v  0.0000 0.0327 -0.7845
v  -0.5547 0.0327 -0.5547
v  -0.7845 0.0327 -0.0000
v  -0.5547 0.0327 0.5547
v  0.0000 0.0327 0.7845
v  0.5547 0.0327 0.5547
v  1.6000 -0.0327 0.7845
v  1.0453 -0.0327 0.5547
v  0.8155 -0.0327 -0.0000
v  1.0453 -0.0327 -0.5547
v  1.6000 -0.0327 -0.7845
v  2.1547 -0.0327 -0.5547
v  2.3845 -0.0327 -0.0000
v  2.1547 -0.0327 0.5547
v  2.1547 0.0327 -0.5547
v  2.3845 0.0327 -0.0000
v  1.6000 0.0327 -0.7845
v  1.0453 0.0327 -0.5547
v  0.8155 0.0327 -0.0000
v  1.0453 0.0327 0.5547
v  1.6000 0.0327 0.7845
v  2.1547 0.0327 0.5547
v  3.2000 -0.0327 0.7845
v  2.6453 -0.0327 0.5547
v  2.4155 -0.0327 -0.0000
v  2.6453 -0.0327 -0.5547
v  3.2000 -0.0327 -0.7845
v  3.7547 -0.0327 -0.5547
v  3.9845 -0.0327 -0.0000
v  3.7547 -0.0327 0.5547
v  3.7547 0.0327 -0.5547
v  3.9845 0.0327 -0.0000
v  3.2000 0.0327 -0.7845
v  2.6453 0.0327 -0.5547
v  2.4155 0.0327 -0.0000
v  2.6453 0.0327 0.5547
v  3.2000 0.0327 0.7845
v  3.7547 0.0327 0.5547
v  -3.2000 -0.0327 0.7845
v  -3.7547 -0.0327 0.5547
v  -3.9845 -0.0327 -0.0000
v  -3.7547 -0.0327 -0.5547
v  -3.2000 -0.0327 -0.7845
v  -2.6453 -0.0327 -0.5547
v  -2.4155 -0.0327 -0.0000
v  -2.6453 -0.0327 0.5547
v  -2.6453 0.0327 -0.5547
v  -2.4155 0.0327 -0.0000
v  -3.2000 0.0327 -0.7845
v  -3.7547 0.0327 -0.5547
v  -3.9845 0.0327 -0.0000
v  -3.7547 0.0327 0.5547
v  -3.2000 0.0327 0.7845
v  -2.6453 0.0327 0.5547
v  -4.8000 -0.0327 0.7845
v  -5.3547 -0.0327 0.5547
v  -5.5845 -0.0327 -0.0000
v  -5.3547 -0.0327 -0.5547
v  -4.8000 -0.0327 -0.7845
v  -4.2453 -0.0327 -0.5547
v  -4.0155 -0.0327 -0.0000
v  -4.2453 -0.0327 0.5547
v  -4.2453 0.0327 -0.5547
v  -4.0155 0.0327 -0.0000
v  -4.8000 0.0327 -0.7845
v  -5.3547 0.0327 -0.5547
v  -5.5845 0.0327 -0.0000
v  -5.3547 0.0327 0.5547
v  -4.8000 0.0327 0.7845
v  -4.2453 0.0327 0.5547
v  -6.4000 -0.0327 0.7845
v  -6.9547 -0.0327 0.5547
v  -7.1845 -0.0327 -0.0000
v  -6.9547 -0.0327 -0.5547
v  -6.4000 -0.0327 -0.7845
v  -5.8453 -0.0327 -0.5547
v  -5.6155 -0.0327 -0.0000
v  -5.8453 -0.0327 0.5547
v  -5.8453 0.0327 -0.5547
v  -5.6155 0.0327 -0.0000
v  -6.4000 0.0327 -0.7845
v  -6.9547 0.0327 -0.5547
v  -7.1845 0.0327 -0.0000
v  -6.9547 0.0327 0.5547
v  -6.4000 0.0327 0.7845
v  -5.8453 0.0327 0.5547
v  4.8000 -0.0327 0.7845
v  4.2453 -0.0327 0.5547
v  4.0155 -0.0327 -0.0000
v  4.2453 -0.0327 -0.5547
v  4.8000 -0.0327 -0.7845
v  5.3547 -0.0327 -0.5547
v  5.5845 -0.0327 -0.0000
v  5.3547 -0.0327 0.5547
v  5.3547 0.0327 -0.5547
v  5.5845 0.0327 -0.0000
v  4.8000 0.0327 -0.7845
v  4.2453 0.0327 -0.5547
v  4.0155 0.0327 -0.0000
v  4.2453 0.0327 0.5547
v  4.8000 0.0327 0.7845
v  5.3547 0.0327 0.5547
v  6.4000 -0.0327 0.7845
v  5.8453 -0.0327 0.5547
v  5.6155 -0.0327 -0.0000
v  5.8453 -0.0327 -0.5547
v  6.4000 -0.0327 -0.7845
v  6.9547 -0.0327 -0.5547
v  7.1845 -0.0327 -0.0000
v  6.9547 -0.0327 0.5547
v  6.9547 0.0327 -0.5547
v  7.1845 0.0327 -0.0000
v  6.4000 0.0327 -0.7845
v  5.8453 0.0327 -0.5547
v  5.6155 0.0327 -0.0000
v  5.8453 0.0327 0.5547
v  6.4000 0.0327 0.7845
v  6.9547 0.0327 0.5547
# 144 vertices

vn 0.0000 -0.6303 0.7764
vn -0.5489 -0.6303 0.5490
vn -0.7763 -0.6303 -0.0000
vn -0.5490 -0.6303 -0.5490
vn 0.0000 -0.6303 -0.7764
vn 0.5490 -0.6303 -0.5490
vn 0.7764 -0.6303 -0.0000
vn 0.5490 -0.6303 0.5490
vn 0.5490 0.6303 -0.5490
vn 0.7764 0.6303 -0.0000
vn 0.0000 0.6303 -0.7764
vn -0.5490 0.6303 -0.5490
vn -0.7763 0.6303 -0.0000
vn -0.5489 0.6303 0.5490
vn 0.0000 0.6303 0.7764
vn 0.5490 0.6303 0.5490
vn -0.5490 -0.6303 0.5490
vn -0.7764 -0.6303 -0.0000
vn -0.7764 0.6303 -0.0000
vn -0.5490 0.6303 0.5490
# 20 vertex normals

vt 0.1613 0.7944 0.0000
vt 0.1024 0.7366 0.0000
vt 0.1017 0.6541 0.0000
vt 0.1595 0.5952 0.0000
vt 0.2420 0.5945 0.0000
vt 0.3009 0.6523 0.0000
vt 0.3016 0.7348 0.0000
vt 0.2438 0.7937 0.0000
vt 0.0667 0.7778 0.0000
vt 0.0577 0.7778 0.0000
vt 0.0577 0.7015 0.0000
vt 0.0667 0.7015 0.0000
vt 0.9423 0.9127 0.0000
vt 0.9333 0.9127 0.0000
vt 0.9333 0.8365 0.0000
vt 0.9423 0.8365 0.0000
vt 0.9423 0.9890 0.0000
vt 0.9333 0.9890 0.0000
vt 0.6971 0.9905 0.0000
vt 0.6971 0.9995 0.0000
vt 0.6209 0.9995 0.0000
vt 0.6209 0.9905 0.0000
vt 0.7734 0.9905 0.0000
vt 0.7734 0.9995 0.0000
vt 0.9861 0.9127 0.0000
vt 0.9951 0.9127 0.0000
vt 0.9951 0.9890 0.0000
vt 0.9861 0.9890 0.0000
vt 0.9861 0.8365 0.0000
vt 0.9951 0.8365 0.0000
vt 0.0577 0.6253 0.0000
vt 0.0667 0.6253 0.0000
vt 0.8252 0.5544 0.0000
vt 0.7674 0.6133 0.0000
vt 0.6849 0.6140 0.0000
vt 0.6260 0.5562 0.0000
vt 0.6253 0.4737 0.0000
vt 0.6831 0.4148 0.0000
vt 0.7656 0.4141 0.0000
vt 0.8245 0.4719 0.0000
vt 0.4141 0.2625 0.0000
vt 0.4719 0.2036 0.0000
vt 0.5544 0.2029 0.0000
vt 0.6133 0.2607 0.0000
vt 0.6140 0.3432 0.0000
vt 0.5562 0.4021 0.0000
vt 0.4737 0.4028 0.0000
vt 0.4148 0.3450 0.0000
vt 0.0799 0.7778 0.0000
vt 0.0709 0.7778 0.0000
vt 0.0709 0.7015 0.0000
vt 0.0799 0.7015 0.0000
vt 0.9127 0.0841 0.0000
vt 0.9127 0.0931 0.0000
vt 0.8365 0.0931 0.0000
vt 0.8365 0.0841 0.0000
vt 0.9890 0.0841 0.0000
vt 0.9890 0.0931 0.0000
vt 0.8631 0.8907 0.0000
vt 0.8541 0.8907 0.0000
vt 0.8541 0.8145 0.0000
vt 0.8631 0.8145 0.0000
vt 0.8631 0.9670 0.0000
vt 0.8541 0.9670 0.0000
vt 0.9597 0.9127 0.0000
vt 0.9687 0.9127 0.0000
vt 0.9687 0.9890 0.0000
vt 0.9597 0.9890 0.0000
vt 0.9597 0.8365 0.0000
vt 0.9687 0.8365 0.0000
vt 0.0709 0.6253 0.0000
vt 0.0799 0.6253 0.0000
vt 0.2625 0.4116 0.0000
vt 0.2036 0.3538 0.0000
vt 0.2029 0.2713 0.0000
vt 0.2607 0.2124 0.0000
vt 0.3432 0.2117 0.0000
vt 0.4021 0.2695 0.0000
vt 0.4028 0.3520 0.0000
vt 0.3450 0.4109 0.0000
vt 0.4097 0.8477 0.0000
vt 0.4675 0.7888 0.0000
vt 0.5500 0.7881 0.0000
vt 0.6089 0.8459 0.0000
vt 0.6096 0.9284 0.0000
vt 0.5518 0.9873 0.0000
vt 0.4693 0.9880 0.0000
vt 0.4104 0.9302 0.0000
vt 0.0139 0.7778 0.0000
vt 0.0049 0.7778 0.0000
vt 0.0049 0.7015 0.0000
vt 0.0139 0.7015 0.0000
vt 0.8763 0.8907 0.0000
vt 0.8673 0.8907 0.0000
vt 0.8673 0.8145 0.0000
vt 0.8763 0.8145 0.0000
vt 0.8763 0.9670 0.0000
vt 0.8673 0.9670 0.0000
vt 0.9127 0.0049 0.0000
vt 0.9127 0.0139 0.0000
vt 0.8365 0.0139 0.0000
vt 0.8365 0.0049 0.0000
vt 0.9890 0.0049 0.0000
vt 0.9890 0.0139 0.0000
vt 0.9465 0.9127 0.0000
vt 0.9555 0.9127 0.0000
vt 0.9555 0.9890 0.0000
vt 0.9465 0.9890 0.0000
vt 0.9465 0.8365 0.0000
vt 0.9555 0.8365 0.0000
vt 0.0049 0.6253 0.0000
vt 0.0139 0.6253 0.0000
vt 0.6717 0.9880 0.0000
vt 0.6128 0.9302 0.0000
vt 0.6121 0.8477 0.0000
vt 0.6699 0.7888 0.0000
vt 0.7524 0.7881 0.0000
vt 0.8113 0.8459 0.0000
vt 0.8120 0.9284 0.0000
vt 0.7542 0.9873 0.0000
vt 0.0005 0.2625 0.0000
vt 0.0583 0.2036 0.0000
vt 0.1408 0.2029 0.0000
vt 0.1997 0.2607 0.0000
vt 0.2004 0.3432 0.0000
vt 0.1426 0.4021 0.0000
vt 0.0601 0.4028 0.0000
vt 0.0012 0.3450 0.0000
vt 0.9890 0.0709 0.0000
vt 0.9890 0.0799 0.0000
vt 0.9127 0.0799 0.0000
vt 0.9127 0.0709 0.0000
vt 0.9127 0.0445 0.0000
vt 0.9127 0.0535 0.0000
vt 0.8365 0.0535 0.0000
vt 0.8365 0.0445 0.0000
vt 0.9890 0.0445 0.0000
vt 0.9890 0.0535 0.0000
vt 0.2923 0.9905 0.0000
vt 0.2923 0.9995 0.0000
vt 0.2161 0.9995 0.0000
vt 0.2161 0.9905 0.0000
vt 0.3686 0.9905 0.0000
vt 0.3686 0.9995 0.0000
vt 0.9127 0.0577 0.0000
vt 0.9127 0.0667 0.0000
vt 0.8365 0.0667 0.0000
vt 0.8365 0.0577 0.0000
vt 0.9890 0.0577 0.0000
vt 0.9890 0.0667 0.0000
vt 0.8365 0.0799 0.0000
vt 0.8365 0.0709 0.0000
vt 0.2004 0.5456 0.0000
vt 0.1426 0.6045 0.0000
vt 0.0601 0.6052 0.0000
vt 0.0012 0.5474 0.0000
vt 0.0005 0.4649 0.0000
vt 0.0583 0.4060 0.0000
vt 0.1408 0.4053 0.0000
vt 0.1997 0.4631 0.0000
vt 0.4737 0.6140 0.0000
vt 0.4148 0.5562 0.0000
vt 0.4141 0.4737 0.0000
vt 0.4719 0.4148 0.0000
vt 0.5544 0.4141 0.0000
vt 0.6133 0.4719 0.0000
vt 0.6140 0.5544 0.0000
vt 0.5562 0.6133 0.0000
vt 0.8895 0.9670 0.0000
vt 0.8805 0.9670 0.0000
vt 0.8805 0.8907 0.0000
vt 0.8895 0.8907 0.0000
vt 0.0931 0.7015 0.0000
vt 0.0841 0.7015 0.0000
vt 0.0841 0.6253 0.0000
vt 0.0931 0.6253 0.0000
vt 0.0931 0.7778 0.0000
vt 0.0841 0.7778 0.0000
vt 0.0535 0.7015 0.0000
vt 0.0445 0.7015 0.0000
vt 0.0445 0.6253 0.0000
vt 0.0535 0.6253 0.0000
vt 0.0535 0.7778 0.0000
vt 0.0445 0.7778 0.0000
vt 0.3131 0.7015 0.0000
vt 0.3041 0.7015 0.0000
vt 0.3041 0.6253 0.0000
vt 0.3131 0.6253 0.0000
vt 0.3131 0.7778 0.0000
vt 0.3041 0.7778 0.0000
vt 0.8805 0.8145 0.0000
vt 0.8895 0.8145 0.0000
vt 0.8164 0.3520 0.0000
vt 0.7586 0.4109 0.0000
vt 0.6761 0.4116 0.0000
vt 0.6172 0.3538 0.0000
vt 0.6165 0.2713 0.0000
vt 0.6743 0.2124 0.0000
vt 0.7568 0.2117 0.0000
vt 0.8157 0.2695 0.0000
vt 0.4097 0.0601 0.0000
vt 0.4675 0.0012 0.0000
vt 0.5500 0.0005 0.0000
vt 0.6089 0.0583 0.0000
vt 0.6096 0.1408 0.0000
vt 0.5518 0.1997 0.0000
vt 0.4693 0.2004 0.0000
vt 0.4104 0.1426 0.0000
vt 0.1574 0.9905 0.0000
vt 0.1574 0.9995 0.0000
vt 0.0811 0.9995 0.0000
vt 0.0811 0.9905 0.0000
vt 0.4947 0.9905 0.0000
vt 0.4947 0.9995 0.0000
vt 0.4185 0.9995 0.0000
vt 0.4185 0.9905 0.0000
vt 0.5710 0.9905 0.0000
vt 0.5710 0.9995 0.0000
vt 0.9127 0.0313 0.0000
vt 0.9127 0.0403 0.0000
vt 0.8365 0.0403 0.0000
vt 0.8365 0.0313 0.0000
vt 0.9890 0.0313 0.0000
vt 0.9890 0.0403 0.0000
vt 0.9729 0.9127 0.0000
vt 0.9819 0.9127 0.0000
vt 0.9819 0.9890 0.0000
vt 0.9729 0.9890 0.0000
vt 0.9729 0.8365 0.0000
vt 0.9819 0.8365 0.0000
vt 0.0049 0.9995 0.0000
vt 0.0049 0.9905 0.0000
vt 0.8120 0.1408 0.0000
vt 0.7542 0.1997 0.0000
vt 0.6717 0.2004 0.0000
vt 0.6128 0.1426 0.0000
vt 0.6121 0.0601 0.0000
vt 0.6699 0.0012 0.0000
vt 0.7524 0.0005 0.0000
vt 0.8113 0.0583 0.0000
vt 0.2073 0.8477 0.0000
vt 0.2651 0.7888 0.0000
vt 0.3476 0.7881 0.0000
vt 0.4065 0.8459 0.0000
vt 0.4072 0.9284 0.0000
vt 0.3494 0.9873 0.0000
vt 0.2669 0.9880 0.0000
vt 0.2080 0.9302 0.0000
vt 0.0403 0.7778 0.0000
vt 0.0313 0.7778 0.0000
vt 0.0313 0.7015 0.0000
vt 0.0403 0.7015 0.0000
vt 0.8367 0.8907 0.0000
vt 0.8277 0.8907 0.0000
vt 0.8277 0.8145 0.0000
vt 0.8367 0.8145 0.0000
vt 0.8367 0.9670 0.0000
vt 0.8277 0.9670 0.0000
vt 0.8145 0.8907 0.0000
vt 0.8235 0.8907 0.0000
vt 0.8235 0.9670 0.0000
vt 0.8145 0.9670 0.0000
vt 0.8145 0.8145 0.0000
vt 0.8235 0.8145 0.0000
vt 0.8499 0.8907 0.0000
vt 0.8409 0.8907 0.0000
vt 0.8409 0.8145 0.0000
vt 0.8499 0.8145 0.0000
vt 0.8499 0.9670 0.0000
vt 0.8409 0.9670 0.0000
vt 0.0313 0.6253 0.0000
vt 0.0403 0.6253 0.0000
vt 0.3476 0.0005 0.0000
vt 0.4065 0.0583 0.0000
vt 0.4072 0.1408 0.0000
vt 0.3494 0.1997 0.0000
vt 0.2669 0.2004 0.0000
vt 0.2080 0.1426 0.0000
vt 0.2073 0.0601 0.0000
vt 0.2651 0.0012 0.0000
vt 0.1452 0.0005 0.0000
vt 0.2041 0.0583 0.0000
vt 0.2048 0.1408 0.0000
vt 0.1470 0.1997 0.0000
vt 0.0645 0.2004 0.0000
vt 0.0056 0.1426 0.0000
vt 0.0049 0.0601 0.0000
vt 0.0627 0.0012 0.0000
vt 0.9890 0.0181 0.0000
vt 0.9890 0.0271 0.0000
vt 0.9127 0.0271 0.0000
vt 0.9127 0.0181 0.0000
vt 0.9159 0.8907 0.0000
vt 0.9069 0.8907 0.0000
vt 0.9069 0.8145 0.0000
vt 0.9159 0.8145 0.0000
vt 0.9159 0.9670 0.0000
vt 0.9069 0.9670 0.0000
vt 0.9027 0.8907 0.0000
vt 0.8937 0.8907 0.0000
vt 0.8937 0.8145 0.0000
vt 0.9027 0.8145 0.0000
vt 0.9027 0.9670 0.0000
vt 0.8937 0.9670 0.0000
vt 0.9291 0.8907 0.0000
vt 0.9201 0.8907 0.0000
vt 0.9201 0.8145 0.0000
vt 0.9291 0.8145 0.0000
vt 0.9291 0.9670 0.0000
vt 0.9201 0.9670 0.0000
vt 0.8365 0.0271 0.0000
vt 0.8365 0.0181 0.0000
vt 0.0645 0.9880 0.0000
vt 0.0056 0.9302 0.0000
vt 0.0049 0.8477 0.0000
vt 0.0627 0.7888 0.0000
vt 0.1452 0.7881 0.0000
vt 0.2041 0.8459 0.0000
vt 0.2048 0.9284 0.0000
vt 0.1470 0.9873 0.0000
vt 0.9968 0.2420 0.0000
vt 0.9390 0.3009 0.0000
vt 0.8565 0.3016 0.0000
vt 0.7976 0.2438 0.0000
vt 0.7969 0.1613 0.0000
vt 0.8547 0.1024 0.0000
vt 0.9372 0.1017 0.0000
vt 0.9961 0.1595 0.0000
vt 0.7749 0.9863 0.0000
vt 0.7749 0.9773 0.0000
vt 0.8511 0.9773 0.0000
vt 0.8511 0.9863 0.0000
vt 0.3395 0.7015 0.0000
vt 0.3305 0.7015 0.0000
vt 0.3305 0.6253 0.0000
vt 0.3395 0.6253 0.0000
vt 0.3395 0.7778 0.0000
vt 0.3305 0.7778 0.0000
vt 0.0271 0.7015 0.0000
vt 0.0181 0.7015 0.0000
vt 0.0181 0.6253 0.0000
vt 0.0271 0.6253 0.0000
vt 0.0271 0.7778 0.0000
vt 0.0181 0.7778 0.0000
vt 0.3263 0.7015 0.0000
vt 0.3173 0.7015 0.0000
vt 0.3173 0.6253 0.0000
vt 0.3263 0.6253 0.0000
vt 0.3263 0.7778 0.0000
vt 0.3173 0.7778 0.0000
vt 0.9274 0.9773 0.0000
vt 0.9274 0.9863 0.0000
vt 0.3520 0.4141 0.0000
vt 0.4109 0.4719 0.0000
vt 0.4116 0.5544 0.0000
vt 0.3538 0.6133 0.0000
vt 0.2713 0.6140 0.0000
vt 0.2124 0.5562 0.0000
vt 0.2117 0.4737 0.0000
vt 0.2695 0.4148 0.0000
# 360 texture coords

o BasePuertaPinchos
g BasePuertaPinchos
usemtl BasePinchos
f 1/1/1 2/2/2 3/3/3 
f 3/3/3 4/4/4 5/5/5 
f 5/5/5 6/6/6 7/7/7 
f 3/3/3 5/5/5 7/7/7 
f 1/1/1 3/3/3 7/7/7 
f 8/8/8 1/1/1 7/7/7 
f 6/9/6 9/10/9 10/11/10 
f 10/11/10 7/12/7 6/9/6 
f 5/13/5 11/14/11 9/15/9 
f 9/15/9 6/16/6 5/13/5 
f 4/17/4 12/18/12 11/14/11 
f 11/14/11 5/13/5 4/17/4 
f 3/19/3 13/20/13 12/21/12 
f 12/21/12 4/22/4 3/19/3 
f 2/23/2 14/24/14 13/20/13 
f 13/20/13 3/19/3 2/23/2 
f 1/25/1 15/26/15 14/27/14 
f 14/27/14 2/28/2 1/25/1 
f 8/29/8 16/30/16 15/26/15 
f 15/26/15 1/25/1 8/29/8 
f 7/12/7 10/11/10 16/31/16 
f 16/31/16 8/32/8 7/12/7 
f 10/33/10 9/34/9 11/35/11 
f 11/35/11 12/36/12 13/37/13 
f 13/37/13 14/38/14 15/39/15 
f 11/35/11 13/37/13 15/39/15 
f 10/33/10 11/35/11 15/39/15 
f 16/40/16 10/33/10 15/39/15 
f 17/41/1 18/42/17 19/43/18 
f 19/43/18 20/44/4 21/45/5 
f 21/45/5 22/46/6 23/47/7 
f 19/43/18 21/45/5 23/47/7 
f 17/41/1 19/43/18 23/47/7 
f 24/48/8 17/41/1 23/47/7 
f 22/49/6 25/50/9 26/51/10 
f 26/51/10 23/52/7 22/49/6 
f 21/53/5 27/54/11 25/55/9 
f 25/55/9 22/56/6 21/53/5 
f 20/57/4 28/58/12 27/54/11 
f 27/54/11 21/53/5 20/57/4 
f 19/59/18 29/60/19 28/61/12 
f 28/61/12 20/62/4 19/59/18 
f 18/63/17 30/64/20 29/60/19 
f 29/60/19 19/59/18 18/63/17 
f 17/65/1 31/66/15 30/67/20 
f 30/67/20 18/68/17 17/65/1 
f 24/69/8 32/70/16 31/66/15 
f 31/66/15 17/65/1 24/69/8 
f 23/52/7 26/51/10 32/71/16 
f 32/71/16 24/72/8 23/52/7 
f 26/73/10 25/74/9 27/75/11 
f 27/75/11 28/76/12 29/77/19 
f 29/77/19 30/78/20 31/79/15 
f 27/75/11 29/77/19 31/79/15 
f 26/73/10 27/75/11 31/79/15 
f 32/80/16 26/73/10 31/79/15 
f 33/81/1 34/82/17 35/83/18 
f 35/83/18 36/84/4 37/85/5 
f 37/85/5 38/86/6 39/87/7 
f 35/83/18 37/85/5 39/87/7 
f 33/81/1 35/83/18 39/87/7 
f 40/88/8 33/81/1 39/87/7 
f 38/89/6 41/90/9 42/91/10 
f 42/91/10 39/92/7 38/89/6 
f 37/93/5 43/94/11 41/95/9 
f 41/95/9 38/96/6 37/93/5 
f 36/97/4 44/98/12 43/94/11 
f 43/94/11 37/93/5 36/97/4 
f 35/99/18 45/100/19 44/101/12 
f 44/101/12 36/102/4 35/99/18 
f 34/103/17 46/104/20 45/100/19 
f 45/100/19 35/99/18 34/103/17 
f 33/105/1 47/106/15 46/107/20 
f 46/107/20 34/108/17 33/105/1 
f 40/109/8 48/110/16 47/106/15 
f 47/106/15 33/105/1 40/109/8 
f 39/92/7 42/91/10 48/111/16 
f 48/111/16 40/112/8 39/92/7 
f 42/113/10 41/114/9 43/115/11 
f 43/115/11 44/116/12 45/117/19 
f 45/117/19 46/118/20 47/119/15 
f 43/115/11 45/117/19 47/119/15 
f 42/113/10 43/115/11 47/119/15 
f 48/120/16 42/113/10 47/119/15 
f 49/121/1 50/122/17 51/123/18 
f 51/123/18 52/124/4 53/125/5 
f 53/125/5 54/126/6 55/127/7 
f 51/123/18 53/125/5 55/127/7 
f 49/121/1 51/123/18 55/127/7 
f 56/128/8 49/121/1 55/127/7 
f 54/129/6 57/130/9 58/131/10 
f 58/131/10 55/132/7 54/129/6 
f 53/133/5 59/134/11 57/135/9 
f 57/135/9 54/136/6 53/133/5 
f 52/137/4 60/138/12 59/134/11 
f 59/134/11 53/133/5 52/137/4 
f 51/139/18 61/140/19 60/141/12 
f 60/141/12 52/142/4 51/139/18 
f 50/143/17 62/144/20 61/140/19 
f 61/140/19 51/139/18 50/143/17 
f 49/145/1 63/146/15 62/147/20 
f 62/147/20 50/148/17 49/145/1 
f 56/149/8 64/150/16 63/146/15 
f 63/146/15 49/145/1 56/149/8 
f 55/132/7 58/131/10 64/151/16 
f 64/151/16 56/152/8 55/132/7 
f 58/153/10 57/154/9 59/155/11 
f 59/155/11 60/156/12 61/157/19 
f 61/157/19 62/158/20 63/159/15 
f 59/155/11 61/157/19 63/159/15 
f 58/153/10 59/155/11 63/159/15 
f 64/160/16 58/153/10 63/159/15 
f 65/161/1 66/162/17 67/163/18 
f 67/163/18 68/164/4 69/165/5 
f 69/165/5 70/166/6 71/167/7 
f 67/163/18 69/165/5 71/167/7 
f 65/161/1 67/163/18 71/167/7 
f 72/168/8 65/161/1 71/167/7 
f 70/169/6 73/170/9 74/171/10 
f 74/171/10 71/172/7 70/169/6 
f 69/173/5 75/174/11 73/175/9 
f 73/175/9 70/176/6 69/173/5 
f 68/177/4 76/178/12 75/174/11 
f 75/174/11 69/173/5 68/177/4 
f 67/179/18 77/180/19 76/181/12 
f 76/181/12 68/182/4 67/179/18 
f 66/183/17 78/184/20 77/180/19 
f 77/180/19 67/179/18 66/183/17 
f 65/185/1 79/186/15 78/187/20 
f 78/187/20 66/188/17 65/185/1 
f 72/189/8 80/190/16 79/186/15 
f 79/186/15 65/185/1 72/189/8 
f 71/172/7 74/171/10 80/191/16 
f 80/191/16 72/192/8 71/172/7 
f 74/193/10 73/194/9 75/195/11 
f 75/195/11 76/196/12 77/197/19 
f 77/197/19 78/198/20 79/199/15 
f 75/195/11 77/197/19 79/199/15 
f 74/193/10 75/195/11 79/199/15 
f 80/200/16 74/193/10 79/199/15 
f 81/201/1 82/202/17 83/203/18 
f 83/203/18 84/204/4 85/205/5 
f 85/205/5 86/206/6 87/207/7 
f 83/203/18 85/205/5 87/207/7 
f 81/201/1 83/203/18 87/207/7 
f 88/208/8 81/201/1 87/207/7 
f 86/209/6 89/210/9 90/211/10 
f 90/211/10 87/212/7 86/209/6 
f 85/213/5 91/214/11 89/215/9 
f 89/215/9 86/216/6 85/213/5 
f 84/217/4 92/218/12 91/214/11 
f 91/214/11 85/213/5 84/217/4 
f 83/219/18 93/220/19 92/221/12 
f 92/221/12 84/222/4 83/219/18 
f 82/223/17 94/224/20 93/220/19 
f 93/220/19 83/219/18 82/223/17 
f 81/225/1 95/226/15 94/227/20 
f 94/227/20 82/228/17 81/225/1 
f 88/229/8 96/230/16 95/226/15 
f 95/226/15 81/225/1 88/229/8 
f 87/212/7 90/211/10 96/231/16 
f 96/231/16 88/232/8 87/212/7 
f 90/233/10 89/234/9 91/235/11 
f 91/235/11 92/236/12 93/237/19 
f 93/237/19 94/238/20 95/239/15 
f 91/235/11 93/237/19 95/239/15 
f 90/233/10 91/235/11 95/239/15 
f 96/240/16 90/233/10 95/239/15 
f 97/241/1 98/242/17 99/243/18 
f 99/243/18 100/244/4 101/245/5 
f 101/245/5 102/246/6 103/247/7 
f 99/243/18 101/245/5 103/247/7 
f 97/241/1 99/243/18 103/247/7 
f 104/248/8 97/241/1 103/247/7 
f 102/249/6 105/250/9 106/251/10 
f 106/251/10 103/252/7 102/249/6 
f 101/253/5 107/254/11 105/255/9 
f 105/255/9 102/256/6 101/253/5 
f 100/257/4 108/258/12 107/254/11 
f 107/254/11 101/253/5 100/257/4 
f 99/259/18 109/260/19 108/261/12 
f 108/261/12 100/262/4 99/259/18 
f 98/263/17 110/264/20 109/260/19 
f 109/260/19 99/259/18 98/263/17 
f 97/265/1 111/266/15 110/267/20 
f 110/267/20 98/268/17 97/265/1 
f 104/269/8 112/270/16 111/266/15 
f 111/266/15 97/265/1 104/269/8 
f 103/252/7 106/251/10 112/271/16 
f 112/271/16 104/272/8 103/252/7 
f 106/273/10 105/274/9 107/275/11 
f 107/275/11 108/276/12 109/277/19 
f 109/277/19 110/278/20 111/279/15 
f 107/275/11 109/277/19 111/279/15 
f 106/273/10 107/275/11 111/279/15 
f 112/280/16 106/273/10 111/279/15 
f 113/281/1 114/282/17 115/283/18 
f 115/283/18 116/284/4 117/285/5 
f 117/285/5 118/286/6 119/287/7 
f 115/283/18 117/285/5 119/287/7 
f 113/281/1 115/283/18 119/287/7 
f 120/288/8 113/281/1 119/287/7 
f 118/289/6 121/290/9 122/291/10 
f 122/291/10 119/292/7 118/289/6 
f 117/293/5 123/294/11 121/295/9 
f 121/295/9 118/296/6 117/293/5 
f 116/297/4 124/298/12 123/294/11 
f 123/294/11 117/293/5 116/297/4 
f 115/299/18 125/300/19 124/301/12 
f 124/301/12 116/302/4 115/299/18 
f 114/303/17 126/304/20 125/300/19 
f 125/300/19 115/299/18 114/303/17 
f 113/305/1 127/306/15 126/307/20 
f 126/307/20 114/308/17 113/305/1 
f 120/309/8 128/310/16 127/306/15 
f 127/306/15 113/305/1 120/309/8 
f 119/292/7 122/291/10 128/311/16 
f 128/311/16 120/312/8 119/292/7 
f 122/313/10 121/314/9 123/315/11 
f 123/315/11 124/316/12 125/317/19 
f 125/317/19 126/318/20 127/319/15 
f 123/315/11 125/317/19 127/319/15 
f 122/313/10 123/315/11 127/319/15 
f 128/320/16 122/313/10 127/319/15 
f 129/321/1 130/322/17 131/323/18 
f 131/323/18 132/324/4 133/325/5 
f 133/325/5 134/326/6 135/327/7 
f 131/323/18 133/325/5 135/327/7 
f 129/321/1 131/323/18 135/327/7 
f 136/328/8 129/321/1 135/327/7 
f 134/329/6 137/330/9 138/331/10 
f 138/331/10 135/332/7 134/329/6 
f 133/333/5 139/334/11 137/335/9 
f 137/335/9 134/336/6 133/333/5 
f 132/337/4 140/338/12 139/334/11 
f 139/334/11 133/333/5 132/337/4 
f 131/339/18 141/340/19 140/341/12 
f 140/341/12 132/342/4 131/339/18 
f 130/343/17 142/344/20 141/340/19 
f 141/340/19 131/339/18 130/343/17 
f 129/345/1 143/346/15 142/347/20 
f 142/347/20 130/348/17 129/345/1 
f 136/349/8 144/350/16 143/346/15 
f 143/346/15 129/345/1 136/349/8 
f 135/332/7 138/331/10 144/351/16 
f 144/351/16 136/352/8 135/332/7 
f 138/353/10 137/354/9 139/355/11 
f 139/355/11 140/356/12 141/357/19 
f 141/357/19 142/358/20 143/359/15 
f 139/355/11 141/357/19 143/359/15 
f 138/353/10 139/355/11 143/359/15 
f 144/360/16 138/353/10 143/359/15 
# 252 faces

