# 3ds Max Wavefront OBJ Exporter v0.97b - (c)2007 guruware
# File Created: 13.02.2018 21:02:26

mtllib interruptor.mtl

#
# object Cylinder077
#

v  0.6106 -2.4762 0.2777
v  0.6106 -2.4766 -0.2787
v  0.6106 -2.0835 -0.6725
v  0.6106 -1.5271 -0.6729
v  0.6106 -1.1333 -0.2798
v  0.6106 -1.1329 0.2766
v  0.6106 -1.5261 0.6704
v  0.6106 -2.0825 0.6708
v  0.3033 -1.5261 0.6704
v  0.3033 -2.0825 0.6708
v  0.3033 -1.1329 0.2766
v  0.3033 -1.1333 -0.2798
v  0.3033 -1.5271 -0.6729
v  0.3033 -2.0835 -0.6725
v  0.3033 -2.4766 -0.2787
v  0.3033 -2.4762 0.2777
v  -0.0040 -1.5261 0.6704
v  -0.0040 -2.0825 0.6708
v  -0.0040 -1.1329 0.2766
v  0.1121 2.9274 0.1124
v  0.1121 2.9272 -0.1219
v  -0.0040 2.9272 -0.1219
v  -0.0040 2.9274 0.1124
v  -0.0040 -1.5271 -0.6729
v  -0.0040 -1.1333 -0.2798
v  -0.0040 -2.0835 -0.6725
v  -0.0040 -2.4766 -0.2787
v  -0.0040 -2.4762 0.2777
v  -0.3113 -1.5261 0.6704
v  -0.3113 -2.0825 0.6708
v  -0.3113 -1.1329 0.2766
v  -0.1201 2.9272 -0.1219
v  -0.1201 2.9274 0.1124
v  -0.3113 -1.5271 -0.6729
v  -0.3113 -1.1333 -0.2798
v  -0.3113 -2.0835 -0.6725
v  -0.3113 -2.4766 -0.2787
v  -0.3113 -2.4762 0.2777
v  -0.6186 -1.5261 0.6704
v  -0.6186 -2.0825 0.6708
v  -0.6186 -1.1329 0.2766
v  -0.6186 -1.1333 -0.2798
v  -0.6186 -1.5271 -0.6729
v  -0.6186 -2.0835 -0.6725
v  -0.6186 -2.4766 -0.2787
v  -0.6186 -2.4762 0.2777
v  0.1724 -1.1333 -0.1795
v  0.1724 -1.1330 0.1763
v  -0.0040 -1.1333 -0.1795
v  -0.1804 -1.1333 -0.1795
v  -0.1804 -1.1330 0.1763
v  -0.0040 -1.1330 0.1763
v  0.1724 1.8977 -0.1818
v  0.1724 1.8980 0.1740
v  -0.0040 1.8977 -0.1818
v  -0.1804 1.8977 -0.1818
v  -0.1804 1.8980 0.1740
v  -0.0040 1.8980 0.1740
v  0.2447 2.0172 -0.2548
v  0.2447 2.0176 0.2469
v  -0.0040 2.0172 -0.2548
v  -0.2527 2.0172 -0.2548
v  -0.2527 2.0176 0.2469
v  -0.0040 2.0176 0.2469
v  0.2447 2.8316 -0.2555
v  0.2447 2.8320 0.2463
v  -0.0040 2.8316 -0.2555
v  -0.2527 2.8316 -0.2555
v  -0.2527 2.8320 0.2463
v  -0.0040 2.8320 0.2463
# 70 vertices

vn 0.6303 -0.7171 0.2977
vn 0.6303 -0.7175 -0.2966
vn 0.6303 -0.2977 -0.7171
vn 0.6303 0.2965 -0.7175
vn 0.6303 0.7170 -0.2976
vn 0.6303 0.7175 0.2965
vn 0.6303 0.2976 0.7170
vn 0.6303 -0.2966 0.7175
vn -0.0000 0.3833 0.9236
vn -0.0000 -0.3820 0.9242
vn -0.0000 0.9242 0.3819
vn -0.0000 0.9236 -0.3833
vn 0.0000 0.3819 -0.9242
vn 0.0000 -0.3834 -0.9236
vn 0.0000 -0.9242 -0.3820
vn -0.0000 -0.9236 0.3834
vn 0.2375 0.9426 0.2346
vn 0.2375 0.9422 -0.2362
vn 0.0000 0.9521 -0.3059
vn -0.0000 0.9526 0.3042
vn 0.0000 0.9236 -0.3834
vn -0.2375 0.9422 -0.2362
vn -0.2375 0.9426 0.2346
vn 0.0000 0.9236 -0.3833
vn -0.6303 0.2976 0.7170
vn -0.6303 -0.2966 0.7175
vn -0.6303 0.7175 0.2965
vn -0.6303 0.7170 -0.2976
vn -0.6303 0.2965 -0.7175
vn -0.6303 -0.2977 -0.7171
vn -0.6303 -0.7175 -0.2966
vn -0.6303 -0.7171 0.2977
vn 0.3015 0.9043 -0.3022
vn 0.3015 0.9048 0.3008
vn -0.0000 0.7065 -0.7077
vn -0.3015 0.9043 -0.3022
vn -0.3015 0.9048 0.3008
vn -0.0000 0.7076 0.7066
vn 0.6449 -0.4130 -0.6431
vn 0.6449 -0.4120 0.6437
vn -0.0000 -0.2712 -0.9625
vn -0.6449 -0.4130 -0.6431
vn -0.6449 -0.4120 0.6437
vn -0.0000 -0.2697 0.9629
vn 0.6732 -0.3054 -0.6734
vn 0.6732 -0.3044 0.6739
vn -0.6732 -0.3054 -0.6734
vn -0.6732 -0.3044 0.6739
vn 0.6351 0.4387 -0.6358
vn 0.6351 0.4397 0.6351
vn 0.0000 0.4569 -0.8895
vn -0.6351 0.4387 -0.6358
vn -0.6351 0.4397 0.6351
vn -0.0000 0.4585 0.8887
# 54 vertex normals

vt 0.6921 0.3181 0.0000
vt 0.6340 0.3186 0.0000
vt 0.5927 0.2779 0.0000
vt 0.5922 0.2199 0.0000
vt 0.6328 0.1785 0.0000
vt 0.6908 0.1780 0.0000
vt 0.7322 0.2187 0.0000
vt 0.7327 0.2767 0.0000
vt 0.1895 0.6485 0.0000
vt 0.1895 0.7049 0.0000
vt 0.1558 0.7049 0.0000
vt 0.1558 0.6485 0.0000
vt 0.5440 0.5922 0.0000
vt 0.5440 0.6483 0.0000
vt 0.5104 0.6483 0.0000
vt 0.5104 0.5922 0.0000
vt 0.5440 0.7044 0.0000
vt 0.5104 0.7044 0.0000
vt 0.5840 0.3308 0.0000
vt 0.5840 0.3872 0.0000
vt 0.5503 0.3872 0.0000
vt 0.5503 0.3308 0.0000
vt 0.5840 0.4436 0.0000
vt 0.5503 0.4436 0.0000
vt 0.3999 0.4541 0.0000
vt 0.4562 0.4541 0.0000
vt 0.4562 0.4878 0.0000
vt 0.3999 0.4878 0.0000
vt 0.5126 0.4541 0.0000
vt 0.5126 0.4878 0.0000
vt 0.1895 0.5922 0.0000
vt 0.1558 0.5922 0.0000
vt 0.1221 0.7049 0.0000
vt 0.1221 0.6485 0.0000
vt 0.4768 0.6483 0.0000
vt 0.4768 0.5922 0.0000
vt 0.6868 0.4867 0.0000
vt 0.6868 0.5107 0.0000
vt 0.6740 0.5107 0.0000
vt 0.6740 0.4867 0.0000
vt 0.5166 0.3872 0.0000
vt 0.5166 0.3308 0.0000
vt 0.5166 0.4436 0.0000
vt 0.4562 0.5215 0.0000
vt 0.3999 0.5215 0.0000
vt 0.5126 0.5215 0.0000
vt 0.1221 0.5922 0.0000
vt 0.0884 0.7049 0.0000
vt 0.0884 0.6485 0.0000
vt 0.4433 0.6483 0.0000
vt 0.4433 0.5922 0.0000
vt 0.6611 0.5107 0.0000
vt 0.6611 0.4867 0.0000
vt 0.4829 0.3872 0.0000
vt 0.4829 0.3308 0.0000
vt 0.4829 0.4436 0.0000
vt 0.4562 0.5552 0.0000
vt 0.3999 0.5552 0.0000
vt 0.5126 0.5552 0.0000
vt 0.0884 0.5922 0.0000
vt 0.0547 0.7049 0.0000
vt 0.0547 0.6485 0.0000
vt 0.4097 0.6483 0.0000
vt 0.4097 0.5922 0.0000
vt 0.4433 0.7044 0.0000
vt 0.4097 0.7044 0.0000
vt 0.4492 0.3872 0.0000
vt 0.4492 0.3308 0.0000
vt 0.4492 0.4436 0.0000
vt 0.4562 0.5889 0.0000
vt 0.3999 0.5889 0.0000
vt 0.5126 0.5889 0.0000
vt 0.0547 0.5922 0.0000
vt 0.5491 0.3181 0.0000
vt 0.4911 0.3186 0.0000
vt 0.4497 0.2779 0.0000
vt 0.4492 0.2199 0.0000
vt 0.4898 0.1785 0.0000
vt 0.5479 0.1780 0.0000
vt 0.5893 0.2187 0.0000
vt 0.5898 0.2767 0.0000
vt 0.4961 0.6943 0.0000
vt 0.4961 0.6584 0.0000
vt 0.4768 0.7044 0.0000
vt 0.4768 0.6943 0.0000
vt 0.4576 0.6943 0.0000
vt 0.4576 0.6584 0.0000
vt 0.4768 0.6584 0.0000
vt 0.9183 0.0053 0.0000
vt 0.9187 0.0425 0.0000
vt 0.6015 0.0453 0.0000
vt 0.6012 0.0080 0.0000
vt 0.7688 0.0646 0.0000
vt 0.7688 0.0844 0.0000
vt 0.4541 0.0844 0.0000
vt 0.4541 0.0646 0.0000
vt 0.7688 0.1042 0.0000
vt 0.4541 0.1042 0.0000
vt 0.9926 0.5460 0.0000
vt 0.9784 0.5804 0.0000
vt 0.6854 0.4590 0.0000
vt 0.6996 0.4246 0.0000
vt 0.8219 0.4559 0.0000
vt 0.8023 0.4559 0.0000
vt 0.8023 0.1441 0.0000
vt 0.8219 0.1441 0.0000
vt 0.7826 0.4559 0.0000
vt 0.7826 0.1441 0.0000
vt 0.5891 0.0530 0.0000
vt 0.5886 0.0005 0.0000
vt 0.0005 0.6891 0.0000
vt 0.0005 0.6693 0.0000
vt 0.0132 0.6693 0.0000
vt 0.0132 0.6972 0.0000
vt 0.0005 0.6496 0.0000
vt 0.0132 0.6415 0.0000
vt 0.6709 0.4613 0.0000
vt 0.6910 0.4128 0.0000
vt 0.8023 0.1287 0.0000
vt 0.8300 0.1287 0.0000
vt 0.7746 0.1287 0.0000
vt 0.5039 0.0537 0.0000
vt 0.5034 0.0012 0.0000
vt 0.5182 0.4541 0.0000
vt 0.5457 0.4541 0.0000
vt 0.5457 0.5374 0.0000
vt 0.5182 0.5374 0.0000
vt 0.5733 0.4541 0.0000
vt 0.5733 0.5374 0.0000
vt 0.5922 0.4286 0.0000
vt 0.6122 0.3801 0.0000
vt 0.8023 0.0449 0.0000
vt 0.8300 0.0449 0.0000
vt 0.7746 0.0449 0.0000
vt 0.7016 0.4689 0.0000
vt 0.7016 0.5203 0.0000
vt 0.5457 0.5529 0.0000
vt 0.5329 0.5529 0.0000
vt 0.5586 0.5529 0.0000
vt 0.6464 0.5203 0.0000
vt 0.6464 0.4689 0.0000
vt 0.6740 0.4689 0.0000
# 142 texture coords

o Cylinder077
g Cylinder077
usemtl wire_229166215
f 1/1/1 2/2/2 3/3/3 4/4/4 5/5/5 6/6/6 7/7/7 8/8/8 
f 8/9/8 7/10/7 9/11/9 10/12/10 
f 7/13/7 6/14/6 11/15/11 9/16/9 
f 6/14/6 5/17/5 12/18/12 11/15/11 
f 5/19/5 4/20/4 13/21/13 12/22/12 
f 4/20/4 3/23/3 14/24/14 13/21/13 
f 3/25/3 2/26/2 15/27/15 14/28/14 
f 2/26/2 1/29/1 16/30/16 15/27/15 
f 1/31/1 8/9/8 10/12/10 16/32/16 
f 10/12/10 9/11/9 17/33/9 18/34/10 
f 9/16/9 11/15/11 19/35/11 17/36/9 
f 20/37/17 21/38/18 22/39/19 23/40/20 
f 12/22/12 13/21/13 24/41/13 25/42/21 
f 13/21/13 14/24/14 26/43/14 24/41/13 
f 14/28/14 15/27/15 27/44/15 26/45/14 
f 15/27/15 16/30/16 28/46/16 27/44/15 
f 16/32/16 10/12/10 18/34/10 28/47/16 
f 18/34/10 17/33/9 29/48/9 30/49/10 
f 17/36/9 19/35/11 31/50/11 29/51/9 
f 23/40/20 22/39/19 32/52/22 33/53/23 
f 25/42/21 24/41/13 34/54/13 35/55/24 
f 24/41/13 26/43/14 36/56/14 34/54/13 
f 26/45/14 27/44/15 37/57/15 36/58/14 
f 27/44/15 28/46/16 38/59/16 37/57/15 
f 28/47/16 18/34/10 30/49/10 38/60/16 
f 30/49/10 29/48/9 39/61/25 40/62/26 
f 29/51/9 31/50/11 41/63/27 39/64/25 
f 31/50/11 35/65/24 42/66/28 41/63/27 
f 35/55/24 34/54/13 43/67/29 42/68/28 
f 34/54/13 36/56/14 44/69/30 43/67/29 
f 36/58/14 37/57/15 45/70/31 44/71/30 
f 37/57/15 38/59/16 46/72/32 45/70/31 
f 38/60/16 30/49/10 40/62/26 46/73/32 
f 46/74/32 40/75/26 39/76/25 41/77/27 42/78/28 43/79/29 44/80/30 45/81/31 
f 11/15/11 12/18/12 47/82/33 48/83/34 
f 12/18/12 25/84/21 49/85/35 47/82/33 
f 25/84/21 35/65/24 50/86/36 49/85/35 
f 35/65/24 31/50/11 51/87/37 50/86/36 
f 31/50/11 19/35/11 52/88/38 51/87/37 
f 19/35/11 11/15/11 48/83/34 52/88/38 
f 48/89/34 47/90/33 53/91/39 54/92/40 
f 47/93/33 49/94/35 55/95/41 53/96/39 
f 49/94/35 50/97/36 56/98/42 55/95/41 
f 50/99/36 51/100/37 57/101/43 56/102/42 
f 51/103/37 52/104/38 58/105/44 57/106/43 
f 52/104/38 48/107/34 54/108/40 58/105/44 
f 54/92/40 53/91/39 59/109/45 60/110/46 
f 53/111/39 55/112/41 61/113/41 59/114/45 
f 55/112/41 56/115/42 62/116/47 61/113/41 
f 56/102/42 57/101/43 63/117/48 62/118/47 
f 57/106/43 58/105/44 64/119/44 63/120/48 
f 58/105/44 54/108/40 60/121/46 64/119/44 
f 60/110/46 59/109/45 65/122/49 66/123/50 
f 59/124/45 61/125/41 67/126/51 65/127/49 
f 61/125/41 62/128/47 68/129/52 67/126/51 
f 62/118/47 63/117/48 69/130/53 68/131/52 
f 63/120/48 64/119/44 70/132/54 69/133/53 
f 64/119/44 60/121/46 66/134/50 70/132/54 
f 66/135/50 65/136/49 21/38/18 20/37/17 
f 65/127/49 67/126/51 22/137/19 21/138/18 
f 67/126/51 68/129/52 32/139/22 22/137/19 
f 68/140/52 69/141/53 33/53/23 32/52/22 
f 69/141/53 70/142/54 23/40/20 33/53/23 
f 70/142/54 66/135/50 20/37/17 23/40/20 
# 64 polygons

#
# object Box223
#

v  0.6106 -2.9274 -0.3705
v  0.6106 -2.9274 0.3704
v  -0.6106 -2.9274 0.3704
v  -0.6106 -2.9274 -0.3705
v  -0.6106 -2.4858 -0.3705
v  -0.6106 -2.4858 0.3704
v  0.6106 -2.4858 0.3704
v  0.6106 -2.4858 -0.3705
v  -0.6106 -2.9274 2.3579
v  0.6106 -2.9274 2.3579
v  0.6106 -2.4858 2.3579
v  -0.6106 -2.4858 2.3579
v  1.2484 -2.9274 0.3704
v  1.2484 -2.9274 -0.3705
v  1.2484 -2.4858 -0.3705
v  1.2484 -2.4858 0.3704
v  0.6106 -2.9274 -2.3579
v  -0.6106 -2.9274 -2.3579
v  -0.6106 -2.4858 -2.3579
v  0.6106 -2.4858 -2.3579
v  -1.2484 -2.9274 -0.3705
v  -1.2484 -2.9274 0.3704
v  -1.2484 -2.4858 0.3704
v  -1.2484 -2.4858 -0.3705
v  0.6106 -2.9274 -1.8522
v  -0.6106 -2.9274 -1.8522
v  -0.6106 -2.9274 1.8522
v  0.6106 -2.9274 1.8522
v  -0.6106 -2.4858 -1.8522
v  0.6106 -2.4858 -1.8522
v  0.6106 -2.4858 1.8522
v  -0.6106 -2.4858 1.8522
v  1.2484 -2.9274 -1.8522
v  1.2484 -2.9274 -2.3579
v  1.2484 -2.4858 -2.3579
v  1.2484 -2.4858 -1.8522
v  1.2484 -2.4858 1.8522
v  1.2484 -2.4858 2.3579
v  1.2484 -2.9274 2.3579
v  1.2484 -2.9274 1.8522
v  -1.2484 -2.9274 1.8522
v  -1.2484 -2.9274 2.3579
v  -1.2484 -2.4858 2.3579
v  -1.2484 -2.4858 1.8522
v  -1.2484 -2.4858 -1.8522
v  -1.2484 -2.4858 -2.3579
v  -1.2484 -2.9274 -2.3579
v  -1.2484 -2.9274 -1.8522
v  -1.2484 -0.8433 -0.3705
v  -1.2484 -0.8433 0.3704
v  -0.6106 -0.8433 0.3704
v  -0.6106 -0.8433 -0.3705
v  1.2484 -0.8433 0.3704
v  1.2484 -0.8433 -0.3705
v  0.6106 -0.8433 -0.3705
v  0.6106 -0.8433 0.3704
v  -0.6106 -1.5945 1.8522
v  -1.2484 -1.5945 1.8522
v  -1.2484 -1.5945 -1.8522
v  -0.6106 -1.5945 -1.8522
v  0.6106 -1.5945 -1.8522
v  1.2484 -1.5945 -1.8522
v  1.2484 -1.5945 1.8522
v  0.6106 -1.5945 1.8522
v  0.6106 -2.9274 1.1113
v  -0.6106 -2.9274 1.1113
v  -0.6106 -2.9274 -1.1113
v  0.6106 -2.9274 -1.1113
v  -0.6106 -2.4858 1.1113
v  0.6106 -2.4858 1.1113
v  0.6106 -2.4858 -1.1113
v  -0.6106 -2.4858 -1.1113
v  1.2484 -2.9274 -1.1113
v  1.2484 -2.4858 -1.1113
v  1.2484 -2.4858 1.1113
v  1.2484 -2.9274 1.1113
v  -1.2484 -2.9274 1.1113
v  -1.2484 -2.4858 1.1113
v  -1.2484 -2.4858 -1.1113
v  -1.2484 -2.9274 -1.1113
v  -1.2484 -1.0967 1.1113
v  -0.6106 -1.0967 1.1113
v  -0.6106 -1.0967 -1.1113
v  -1.2484 -1.0967 -1.1113
v  1.2484 -1.0967 -1.1113
v  0.6106 -1.0967 -1.1113
v  0.6106 -1.0967 1.1113
v  1.2484 -1.0967 1.1113
# 88 vertices

vn 0.0000 -1.0000 -0.0000
vn 0.7071 0.7071 0.0000
vn -0.7071 0.7071 -0.0000
vn 0.0000 -0.7071 0.7071
vn 0.0000 0.7071 0.7071
vn 0.7071 -0.7071 -0.0000
vn 1.0000 0.0000 -0.0000
vn 0.0000 -0.7071 -0.7071
vn 0.0000 0.7071 -0.7071
vn -0.7071 -0.7071 -0.0000
vn -1.0000 0.0000 -0.0000
vn 0.3015 0.9045 -0.3015
vn -0.3015 0.9045 -0.3015
vn -0.3015 0.9045 0.3015
vn 0.3015 0.9045 0.3015
vn 0.5774 -0.5774 -0.5774
vn 0.5774 0.5774 -0.5774
vn 0.9045 0.3015 -0.3015
vn 0.9045 0.3015 0.3015
vn 0.5774 0.5774 0.5774
vn 0.5774 -0.5774 0.5774
vn -0.5774 -0.5774 0.5774
vn -0.5774 0.5774 0.5774
vn -0.9045 0.3015 0.3015
vn -0.9045 0.3015 -0.3015
vn -0.5774 0.5774 -0.5774
vn -0.5774 -0.5774 -0.5774
vn -0.6720 0.7305 -0.1215
vn -0.6720 0.7305 0.1215
vn 0.6720 0.7305 0.1215
vn 0.6719 0.7306 -0.1215
vn 0.6720 0.7305 -0.1215
vn 0.6150 0.3708 0.6959
vn -0.6150 0.3708 0.6959
vn -0.6150 0.3708 -0.6959
vn 0.6150 0.3708 -0.6959
vn -0.6788 0.6578 0.3264
vn 0.6788 0.6578 0.3264
vn 0.6789 0.6577 -0.3264
vn -0.6789 0.6577 -0.3264
# 40 vertex normals

vt 0.7125 0.8022 0.0000
vt 0.7904 0.8022 0.0000
vt 0.7904 0.9307 0.0000
vt 0.7125 0.9307 0.0000
vt 0.2145 0.8022 0.0000
vt 0.2924 0.8022 0.0000
vt 0.2924 0.9307 0.0000
vt 0.2145 0.9307 0.0000
vt 0.4463 0.2451 0.0000
vt 0.4463 0.3736 0.0000
vt 0.3999 0.3736 0.0000
vt 0.3999 0.2451 0.0000
vt 0.0005 0.4305 0.0000
vt 0.0005 0.3526 0.0000
vt 0.0470 0.3526 0.0000
vt 0.0470 0.4305 0.0000
vt 0.5212 0.1188 0.0000
vt 0.6497 0.1188 0.0000
vt 0.6497 0.1653 0.0000
vt 0.5212 0.1653 0.0000
vt 0.2145 0.0005 0.0000
vt 0.2924 0.0005 0.0000
vt 0.2924 0.0470 0.0000
vt 0.2145 0.0470 0.0000
vt 0.5034 0.9307 0.0000
vt 0.5034 0.8022 0.0000
vt 0.5566 0.8022 0.0000
vt 0.5566 0.9307 0.0000
vt 0.9995 0.8022 0.0000
vt 0.9995 0.9307 0.0000
vt 0.9463 0.9307 0.0000
vt 0.9463 0.8022 0.0000
vt 0.0054 0.9307 0.0000
vt 0.0054 0.8022 0.0000
vt 0.0586 0.8022 0.0000
vt 0.0586 0.9307 0.0000
vt 0.5015 0.8022 0.0000
vt 0.5015 0.9307 0.0000
vt 0.4483 0.9307 0.0000
vt 0.4483 0.8022 0.0000
vt 0.0005 0.1967 0.0000
vt 0.0005 0.1435 0.0000
vt 0.0470 0.1435 0.0000
vt 0.0470 0.1967 0.0000
vt 0.0470 0.5864 0.0000
vt 0.0470 0.6396 0.0000
vt 0.0005 0.6396 0.0000
vt 0.0005 0.5864 0.0000
vt 0.4483 0.0005 0.0000
vt 0.5015 0.0005 0.0000
vt 0.5015 0.0470 0.0000
vt 0.4483 0.0470 0.0000
vt 0.0586 0.0470 0.0000
vt 0.0054 0.0470 0.0000
vt 0.0054 0.0005 0.0000
vt 0.0586 0.0005 0.0000
vt 0.7125 0.7351 0.0000
vt 0.7904 0.7351 0.0000
vt 0.7904 0.9978 0.0000
vt 0.7125 0.9978 0.0000
vt 0.9145 0.2095 0.0000
vt 0.9145 0.2918 0.0000
vt 0.8436 0.2918 0.0000
vt 0.8436 0.2095 0.0000
vt 0.9274 0.2918 0.0000
vt 0.9274 0.2095 0.0000
vt 0.9983 0.2095 0.0000
vt 0.9983 0.2918 0.0000
vt 0.4463 0.4406 0.0000
vt 0.3999 0.4406 0.0000
vt 0.3999 0.1780 0.0000
vt 0.4463 0.1780 0.0000
vt 0.7167 0.1188 0.0000
vt 0.7167 0.1653 0.0000
vt 0.4541 0.1653 0.0000
vt 0.4541 0.1188 0.0000
vt 0.5034 0.7351 0.0000
vt 0.5566 0.7351 0.0000
vt 0.5566 0.9978 0.0000
vt 0.5034 0.9978 0.0000
vt 0.9995 0.9978 0.0000
vt 0.9463 0.9978 0.0000
vt 0.9463 0.7351 0.0000
vt 0.9995 0.7351 0.0000
vt 0.0054 0.7351 0.0000
vt 0.0586 0.7351 0.0000
vt 0.0586 0.9978 0.0000
vt 0.0054 0.9978 0.0000
vt 0.5015 0.9978 0.0000
vt 0.4483 0.9978 0.0000
vt 0.4483 0.7351 0.0000
vt 0.5015 0.7351 0.0000
vt 0.2924 0.2197 0.0000
vt 0.2145 0.2197 0.0000
vt 0.3950 0.6119 0.0000
vt 0.3950 0.6790 0.0000
vt 0.3013 0.6790 0.0000
vt 0.3013 0.6119 0.0000
vt 0.3952 0.3733 0.0000
vt 0.3952 0.4513 0.0000
vt 0.2224 0.4513 0.0000
vt 0.2224 0.3733 0.0000
vt 0.1584 0.7105 0.0000
vt 0.1584 0.7776 0.0000
vt 0.0646 0.7776 0.0000
vt 0.0646 0.7105 0.0000
vt 0.2197 0.3526 0.0000
vt 0.2197 0.4305 0.0000
vt 0.2026 0.5724 0.0000
vt 0.2697 0.5724 0.0000
vt 0.2697 0.6662 0.0000
vt 0.2026 0.6662 0.0000
vt 0.8309 0.7008 0.0000
vt 0.7530 0.7008 0.0000
vt 0.7530 0.5281 0.0000
vt 0.8309 0.5281 0.0000
vt 0.5774 0.4541 0.0000
vt 0.6444 0.4541 0.0000
vt 0.6444 0.5479 0.0000
vt 0.5774 0.5479 0.0000
vt 0.8684 0.8022 0.0000
vt 0.8684 0.9307 0.0000
vt 0.6345 0.9307 0.0000
vt 0.6345 0.8022 0.0000
vt 0.3704 0.8022 0.0000
vt 0.3704 0.9307 0.0000
vt 0.1366 0.9307 0.0000
vt 0.1366 0.8022 0.0000
vt 0.0005 0.2746 0.0000
vt 0.0470 0.2746 0.0000
vt 0.0470 0.5084 0.0000
vt 0.0005 0.5084 0.0000
vt 0.3704 0.0005 0.0000
vt 0.3704 0.0470 0.0000
vt 0.1366 0.0470 0.0000
vt 0.1366 0.0005 0.0000
vt 0.8684 0.7351 0.0000
vt 0.6345 0.7351 0.0000
vt 0.6345 0.9978 0.0000
vt 0.8684 0.9978 0.0000
vt 0.9145 0.3742 0.0000
vt 0.9145 0.4565 0.0000
vt 0.8436 0.4565 0.0000
vt 0.8436 0.3742 0.0000
vt 0.8436 0.1272 0.0000
vt 0.8436 0.0449 0.0000
vt 0.9145 0.0449 0.0000
vt 0.9145 0.1272 0.0000
vt 0.9274 0.1272 0.0000
vt 0.9274 0.0449 0.0000
vt 0.9983 0.0449 0.0000
vt 0.9983 0.1272 0.0000
vt 0.9983 0.3742 0.0000
vt 0.9983 0.4565 0.0000
vt 0.9274 0.4565 0.0000
vt 0.9274 0.3742 0.0000
vt 0.4483 0.1407 0.0000
vt 0.3704 0.1931 0.0000
vt 0.1366 0.1931 0.0000
vt 0.0586 0.1407 0.0000
vt 0.3952 0.5292 0.0000
vt 0.3952 0.6071 0.0000
vt 0.3014 0.6071 0.0000
vt 0.2490 0.5292 0.0000
vt 0.2490 0.2954 0.0000
vt 0.3014 0.2174 0.0000
vt 0.3952 0.2174 0.0000
vt 0.3952 0.2954 0.0000
vt 0.1407 0.1967 0.0000
vt 0.1931 0.2746 0.0000
vt 0.1931 0.5084 0.0000
vt 0.1407 0.5864 0.0000
vt 0.6750 0.7008 0.0000
vt 0.5971 0.7008 0.0000
vt 0.5971 0.6071 0.0000
vt 0.6750 0.5547 0.0000
vt 0.9088 0.5547 0.0000
vt 0.9868 0.6071 0.0000
vt 0.9868 0.7008 0.0000
vt 0.9088 0.7008 0.0000
# 180 texture coords

o Box223
g Box223
usemtl wire_027177148
f 71/143/55 72/144/55 73/145/55 74/146/55 
f 75/147/56 76/148/56 77/149/57 78/150/57 
f 79/151/58 80/152/58 81/153/59 82/154/59 
f 83/155/60 84/156/60 85/157/61 86/158/61 
f 87/159/62 88/160/62 89/161/63 90/162/63 
f 91/163/64 92/164/64 93/165/65 94/166/65 
f 88/167/62 87/168/62 95/169/55 96/170/55 
f 80/171/58 79/172/58 97/173/55 98/174/55 
f 90/175/63 89/176/63 99/177/66 100/178/67 
f 82/179/59 81/180/59 101/181/68 102/182/69 
f 103/183/60 104/184/70 105/185/71 106/186/72 
f 107/187/73 108/188/74 109/189/75 110/190/60 
f 111/191/64 112/192/76 113/193/77 114/194/78 
f 115/195/79 116/196/80 117/197/81 118/198/64 
f 84/199/60 83/200/60 72/144/55 71/143/55 
f 92/201/64 91/202/64 74/146/55 73/145/55 
f 119/203/82 120/204/83 121/205/84 122/206/85 
f 123/207/84 124/208/86 125/209/82 126/210/83 
f 80/152/58 109/211/75 108/212/74 81/153/59 
f 82/154/59 113/213/77 112/214/76 79/151/58 
f 88/160/62 117/215/81 116/216/80 89/161/63 
f 90/162/63 105/217/71 104/218/70 87/159/62 
f 87/168/62 104/219/70 103/220/60 95/169/55 
f 96/170/55 118/221/64 117/222/81 88/167/62 
f 79/172/58 112/223/76 111/224/64 97/173/55 
f 98/174/55 110/225/60 109/226/75 80/171/58 
f 89/176/63 116/227/80 115/228/79 99/177/66 
f 100/178/67 106/229/72 105/230/71 90/175/63 
f 81/180/59 108/231/74 107/232/73 101/181/68 
f 102/182/69 114/233/78 113/234/77 82/179/59 
f 94/166/65 93/165/65 120/235/83 119/236/82 
f 114/237/78 102/238/69 127/239/87 128/240/88 
f 76/241/56 75/242/56 122/243/85 121/244/84 
f 99/245/66 115/246/79 129/247/89 130/248/90 
f 86/158/61 85/157/61 124/249/86 123/250/84 
f 106/251/72 100/252/67 131/253/89 132/254/90 
f 78/255/57 77/256/57 126/257/83 125/258/82 
f 101/259/68 107/260/73 133/261/87 134/262/88 
f 135/263/55 98/174/55 97/173/55 136/264/55 
f 72/144/55 135/263/55 136/264/55 73/145/55 
f 137/265/55 96/170/55 95/169/55 138/266/55 
f 74/146/55 137/265/55 138/266/55 71/143/55 
f 139/267/56 102/182/69 101/181/68 140/268/57 
f 76/148/56 139/267/56 140/268/57 77/149/57 
f 141/269/57 100/178/67 99/177/66 142/270/56 
f 78/150/57 141/269/57 142/270/56 75/147/56 
f 143/271/60 103/183/60 106/186/72 144/272/61 
f 84/156/60 143/271/60 144/272/61 85/157/61 
f 145/273/61 107/187/73 110/190/60 146/274/60 
f 86/158/61 145/273/61 146/274/60 83/155/60 
f 147/275/64 111/191/64 114/194/78 148/276/65 
f 92/164/64 147/275/64 148/276/65 93/165/65 
f 149/277/65 115/195/79 118/198/64 150/278/64 
f 94/166/65 149/277/65 150/278/64 91/163/64 
f 146/279/60 110/225/60 98/174/55 135/263/55 
f 83/200/60 146/279/60 135/263/55 72/144/55 
f 138/266/55 95/169/55 103/220/60 143/280/60 
f 71/143/55 138/266/55 143/280/60 84/199/60 
f 150/281/64 118/221/64 96/170/55 137/265/55 
f 91/202/64 150/281/64 137/265/55 74/146/55 
f 136/264/55 97/173/55 111/224/64 147/282/64 
f 73/145/55 136/264/55 147/282/64 92/201/64 
f 151/283/91 128/284/88 127/285/87 152/286/92 
f 120/204/83 151/283/91 152/286/92 121/205/84 
f 153/287/93 130/288/90 129/289/89 154/290/94 
f 122/206/85 153/287/93 154/290/94 119/203/82 
f 155/291/93 132/292/90 131/293/89 156/294/94 
f 124/208/86 155/291/93 156/294/94 125/209/82 
f 157/295/91 134/296/88 133/297/87 158/298/92 
f 126/210/83 157/295/91 158/298/92 123/207/84 
f 148/276/65 114/194/78 128/299/88 151/300/91 
f 93/165/65 148/276/65 151/300/91 120/235/83 
f 154/301/94 129/302/89 115/195/79 149/277/65 
f 119/236/82 154/301/94 149/277/65 94/166/65 
f 142/303/56 99/304/66 130/305/90 153/306/93 
f 75/242/56 142/303/56 153/306/93 122/243/85 
f 152/307/92 127/308/87 102/309/69 139/310/56 
f 121/244/84 152/307/92 139/310/56 76/241/56 
f 144/272/61 106/186/72 132/311/90 155/312/93 
f 85/157/61 144/272/61 155/312/93 124/249/86 
f 158/313/92 133/314/87 107/187/73 145/273/61 
f 123/250/84 158/313/92 145/273/61 86/158/61 
f 140/315/57 101/316/68 134/317/88 157/318/91 
f 77/256/57 140/315/57 157/318/91 126/257/83 
f 156/319/94 131/320/89 100/321/67 141/322/57 
f 125/258/82 156/319/94 141/322/57 78/255/57 
# 86 polygons

