# 3ds Max Wavefront OBJ Exporter v0.97b - (c)2007 guruware
# File Created: 25.03.2018 13:38:41

mtllib PalancaInterruptor.mtl

#
# object PalancaInterruptor
#

v  0.6146 -0.6719 -0.2777
v  0.6146 -0.2787 -0.6714
v  0.6146 0.2777 -0.6719
v  0.6146 0.6714 -0.2787
v  0.6146 0.6719 0.2777
v  0.6146 0.2787 0.6714
v  0.6146 -0.2777 0.6719
v  0.6146 -0.6714 0.2787
v  0.3073 0.2787 0.6714
v  0.3073 -0.2777 0.6719
v  0.3073 0.6719 0.2777
v  0.3073 0.6714 -0.2787
v  0.3073 0.2777 -0.6719
v  0.3073 -0.2787 -0.6714
v  0.3073 -0.6719 -0.2777
v  0.3073 -0.6714 0.2787
v  0.0000 0.2787 0.6714
v  0.0000 -0.2777 0.6719
v  0.0000 0.6719 0.2777
v  0.1161 4.7319 -0.1208
v  0.0000 4.7319 -0.1208
v  0.0000 4.7321 0.1135
v  0.1161 4.7321 0.1135
v  0.0000 0.2777 -0.6719
v  0.0000 0.6714 -0.2787
v  0.0000 -0.2787 -0.6714
v  0.0000 -0.6719 -0.2777
v  0.0000 -0.6714 0.2787
v  -0.3073 0.2787 0.6714
v  -0.3073 -0.2777 0.6719
v  -0.3073 0.6719 0.2777
v  -0.1161 4.7319 -0.1208
v  -0.1161 4.7321 0.1135
v  -0.3073 0.2777 -0.6719
v  -0.3073 0.6714 -0.2787
v  -0.3073 -0.2787 -0.6714
v  -0.3073 -0.6719 -0.2777
v  -0.3073 -0.6714 0.2787
v  -0.6146 0.2787 0.6714
v  -0.6146 -0.2777 0.6719
v  -0.6146 0.6719 0.2777
v  -0.6146 0.6714 -0.2787
v  -0.6146 0.2777 -0.6719
v  -0.6146 -0.2787 -0.6714
v  -0.6146 -0.6719 -0.2777
v  -0.6146 -0.6714 0.2787
v  0.1764 0.6715 -0.1784
v  0.1764 0.6718 0.1774
v  0.0000 0.6715 -0.1784
v  -0.1764 0.6715 -0.1784
v  -0.1764 0.6718 0.1774
v  0.0000 0.6718 0.1774
v  0.1764 3.7025 -0.1807
v  0.1764 3.7027 0.1751
v  0.0000 3.7025 -0.1807
v  -0.1764 3.7025 -0.1807
v  -0.1764 3.7027 0.1751
v  0.0000 3.7027 0.1751
v  0.2487 3.8220 -0.2538
v  0.2487 3.8224 0.2480
v  0.0000 3.8220 -0.2538
v  -0.2487 3.8220 -0.2538
v  -0.2487 3.8224 0.2480
v  0.0000 3.8224 0.2480
v  0.2487 4.6364 -0.2544
v  0.2487 4.6368 0.2473
v  0.0000 4.6364 -0.2544
v  -0.2487 4.6364 -0.2544
v  -0.2487 4.6368 0.2473
v  0.0000 4.6368 0.2473
# 70 vertices

vn 0.6303 -0.7175 -0.2966
vn 0.6303 -0.2977 -0.7171
vn 0.6303 0.2965 -0.7175
vn 0.6303 0.7170 -0.2976
vn 0.6303 0.7175 0.2965
vn 0.6303 0.2976 0.7170
vn 0.6303 -0.2966 0.7175
vn 0.6303 -0.7171 0.2977
vn 0.0000 0.3833 0.9236
vn 0.0000 -0.3820 0.9242
vn 0.0000 0.9242 0.3819
vn 0.0000 0.9236 -0.3833
vn 0.0000 0.3819 -0.9242
vn 0.0000 -0.3834 -0.9236
vn 0.0000 -0.9242 -0.3820
vn 0.0000 -0.9236 0.3834
vn 0.2375 0.9422 -0.2362
vn 0.0000 0.9521 -0.3059
vn 0.0000 0.9526 0.3042
vn 0.2375 0.9426 0.2346
vn 0.0000 0.9236 -0.3834
vn -0.2375 0.9422 -0.2362
vn -0.2375 0.9426 0.2346
vn -0.6303 0.2976 0.7170
vn -0.6303 -0.2966 0.7175
vn -0.6303 0.7175 0.2965
vn -0.6303 0.7170 -0.2976
vn -0.6303 0.2965 -0.7175
vn -0.6303 -0.2977 -0.7171
vn -0.6303 -0.7175 -0.2966
vn -0.6303 -0.7171 0.2977
vn 0.3015 0.9043 -0.3022
vn 0.3015 0.9048 0.3008
vn 0.0000 0.7065 -0.7077
vn -0.3015 0.9043 -0.3022
vn -0.3015 0.9048 0.3008
vn 0.0000 0.7076 0.7066
vn 0.6449 -0.4130 -0.6431
vn 0.6449 -0.4120 0.6437
vn 0.0000 -0.2712 -0.9625
vn -0.6449 -0.4130 -0.6431
vn -0.6449 -0.4120 0.6437
vn 0.0000 -0.2697 0.9629
vn 0.6732 -0.3054 -0.6734
vn 0.6732 -0.3044 0.6739
vn -0.6732 -0.3054 -0.6734
vn -0.6732 -0.3044 0.6739
vn 0.6351 0.4387 -0.6358
vn 0.6351 0.4397 0.6351
vn 0.0000 0.4569 -0.8895
vn -0.6351 0.4387 -0.6358
vn -0.6351 0.4397 0.6351
vn 0.0000 0.4585 0.8887
# 53 vertex normals

vt 0.6340 0.3186 0.0000
vt 0.5927 0.2779 0.0000
vt 0.5922 0.2199 0.0000
vt 0.6328 0.1785 0.0000
vt 0.6908 0.1780 0.0000
vt 0.7322 0.2187 0.0000
vt 0.7327 0.2767 0.0000
vt 0.6921 0.3181 0.0000
vt 0.1895 0.7049 0.0000
vt 0.1558 0.7049 0.0000
vt 0.1558 0.6485 0.0000
vt 0.1895 0.6485 0.0000
vt 0.5440 0.6483 0.0000
vt 0.5104 0.6483 0.0000
vt 0.5104 0.5922 0.0000
vt 0.5440 0.5922 0.0000
vt 0.5440 0.7044 0.0000
vt 0.5104 0.7044 0.0000
vt 0.5840 0.3872 0.0000
vt 0.5503 0.3872 0.0000
vt 0.5503 0.3308 0.0000
vt 0.5840 0.3308 0.0000
vt 0.5840 0.4436 0.0000
vt 0.5503 0.4436 0.0000
vt 0.4562 0.4541 0.0000
vt 0.4562 0.4878 0.0000
vt 0.3999 0.4878 0.0000
vt 0.3999 0.4541 0.0000
vt 0.5126 0.4541 0.0000
vt 0.5126 0.4878 0.0000
vt 0.1558 0.5922 0.0000
vt 0.1895 0.5922 0.0000
vt 0.1221 0.7049 0.0000
vt 0.1221 0.6485 0.0000
vt 0.4768 0.6483 0.0000
vt 0.4768 0.5922 0.0000
vt 0.6868 0.5107 0.0000
vt 0.6740 0.5107 0.0000
vt 0.6740 0.4867 0.0000
vt 0.6868 0.4867 0.0000
vt 0.5166 0.3872 0.0000
vt 0.5166 0.3308 0.0000
vt 0.5166 0.4436 0.0000
vt 0.4562 0.5215 0.0000
vt 0.3999 0.5215 0.0000
vt 0.5126 0.5215 0.0000
vt 0.1221 0.5922 0.0000
vt 0.0884 0.7049 0.0000
vt 0.0884 0.6485 0.0000
vt 0.4433 0.6483 0.0000
vt 0.4433 0.5922 0.0000
vt 0.6611 0.5107 0.0000
vt 0.6611 0.4867 0.0000
vt 0.4829 0.3872 0.0000
vt 0.4829 0.3308 0.0000
vt 0.4829 0.4436 0.0000
vt 0.4562 0.5552 0.0000
vt 0.3999 0.5552 0.0000
vt 0.5126 0.5552 0.0000
vt 0.0884 0.5922 0.0000
vt 0.0547 0.7049 0.0000
vt 0.0547 0.6485 0.0000
vt 0.4097 0.6483 0.0000
vt 0.4097 0.5922 0.0000
vt 0.4433 0.7044 0.0000
vt 0.4097 0.7044 0.0000
vt 0.4492 0.3872 0.0000
vt 0.4492 0.3308 0.0000
vt 0.4492 0.4436 0.0000
vt 0.4562 0.5889 0.0000
vt 0.3999 0.5889 0.0000
vt 0.5126 0.5889 0.0000
vt 0.0547 0.5922 0.0000
vt 0.4911 0.3186 0.0000
vt 0.4497 0.2779 0.0000
vt 0.4492 0.2199 0.0000
vt 0.4898 0.1785 0.0000
vt 0.5479 0.1780 0.0000
vt 0.5893 0.2187 0.0000
vt 0.5898 0.2767 0.0000
vt 0.5491 0.3181 0.0000
vt 0.4961 0.6943 0.0000
vt 0.4961 0.6584 0.0000
vt 0.4768 0.7044 0.0000
vt 0.4768 0.6943 0.0000
vt 0.4576 0.6943 0.0000
vt 0.4576 0.6584 0.0000
vt 0.4768 0.6584 0.0000
vt 0.9187 0.0425 0.0000
vt 0.6015 0.0453 0.0000
vt 0.6012 0.0080 0.0000
vt 0.9183 0.0053 0.0000
vt 0.7688 0.0844 0.0000
vt 0.4541 0.0844 0.0000
vt 0.4541 0.0646 0.0000
vt 0.7688 0.0646 0.0000
vt 0.7688 0.1042 0.0000
vt 0.4541 0.1042 0.0000
vt 0.9784 0.5804 0.0000
vt 0.6854 0.4590 0.0000
vt 0.6996 0.4246 0.0000
vt 0.9926 0.5460 0.0000
vt 0.8023 0.4559 0.0000
vt 0.8023 0.1441 0.0000
vt 0.8219 0.1441 0.0000
vt 0.8219 0.4559 0.0000
vt 0.7826 0.4559 0.0000
vt 0.7826 0.1441 0.0000
vt 0.5891 0.0530 0.0000
vt 0.5886 0.0005 0.0000
vt 0.0005 0.6891 0.0000
vt 0.0005 0.6693 0.0000
vt 0.0132 0.6693 0.0000
vt 0.0132 0.6972 0.0000
vt 0.0005 0.6496 0.0000
vt 0.0132 0.6415 0.0000
vt 0.6709 0.4613 0.0000
vt 0.6910 0.4128 0.0000
vt 0.8023 0.1287 0.0000
vt 0.8300 0.1287 0.0000
vt 0.7746 0.1287 0.0000
vt 0.5039 0.0537 0.0000
vt 0.5034 0.0012 0.0000
vt 0.5457 0.4541 0.0000
vt 0.5457 0.5374 0.0000
vt 0.5182 0.5374 0.0000
vt 0.5182 0.4541 0.0000
vt 0.5733 0.4541 0.0000
vt 0.5733 0.5374 0.0000
vt 0.5922 0.4286 0.0000
vt 0.6122 0.3801 0.0000
vt 0.8023 0.0449 0.0000
vt 0.8300 0.0449 0.0000
vt 0.7746 0.0449 0.0000
vt 0.7016 0.5203 0.0000
vt 0.7016 0.4689 0.0000
vt 0.5457 0.5529 0.0000
vt 0.5329 0.5529 0.0000
vt 0.5586 0.5529 0.0000
vt 0.6464 0.4689 0.0000
vt 0.6464 0.5203 0.0000
vt 0.6740 0.4689 0.0000
# 142 texture coords

o PalancaInterruptor
g PalancaInterruptor
usemtl PalancaInterruptor
f 1/1/1 2/2/2 3/3/3 
f 3/3/3 4/4/4 5/5/5 
f 5/5/5 6/6/6 7/7/7 
f 3/3/3 5/5/5 7/7/7 
f 1/1/1 3/3/3 7/7/7 
f 8/8/8 1/1/1 7/7/7 
f 6/9/6 9/10/9 10/11/10 
f 10/11/10 7/12/7 6/9/6 
f 5/13/5 11/14/11 9/15/9 
f 9/15/9 6/16/6 5/13/5 
f 4/17/4 12/18/12 11/14/11 
f 11/14/11 5/13/5 4/17/4 
f 3/19/3 13/20/13 12/21/12 
f 12/21/12 4/22/4 3/19/3 
f 2/23/2 14/24/14 13/20/13 
f 13/20/13 3/19/3 2/23/2 
f 1/25/1 15/26/15 14/27/14 
f 14/27/14 2/28/2 1/25/1 
f 8/29/8 16/30/16 15/26/15 
f 15/26/15 1/25/1 8/29/8 
f 7/12/7 10/11/10 16/31/16 
f 16/31/16 8/32/8 7/12/7 
f 9/10/9 17/33/9 18/34/10 
f 18/34/10 10/11/10 9/10/9 
f 11/14/11 19/35/11 17/36/9 
f 17/36/9 9/15/9 11/14/11 
f 20/37/17 21/38/18 22/39/19 
f 22/39/19 23/40/20 20/37/17 
f 13/20/13 24/41/13 25/42/21 
f 25/42/21 12/21/12 13/20/13 
f 14/24/14 26/43/14 24/41/13 
f 24/41/13 13/20/13 14/24/14 
f 15/26/15 27/44/15 26/45/14 
f 26/45/14 14/27/14 15/26/15 
f 16/30/16 28/46/16 27/44/15 
f 27/44/15 15/26/15 16/30/16 
f 10/11/10 18/34/10 28/47/16 
f 28/47/16 16/31/16 10/11/10 
f 17/33/9 29/48/9 30/49/10 
f 30/49/10 18/34/10 17/33/9 
f 19/35/11 31/50/11 29/51/9 
f 29/51/9 17/36/9 19/35/11 
f 21/38/18 32/52/22 33/53/23 
f 33/53/23 22/39/19 21/38/18 
f 24/41/13 34/54/13 35/55/12 
f 35/55/12 25/42/21 24/41/13 
f 26/43/14 36/56/14 34/54/13 
f 34/54/13 24/41/13 26/43/14 
f 27/44/15 37/57/15 36/58/14 
f 36/58/14 26/45/14 27/44/15 
f 28/46/16 38/59/16 37/57/15 
f 37/57/15 27/44/15 28/46/16 
f 18/34/10 30/49/10 38/60/16 
f 38/60/16 28/47/16 18/34/10 
f 29/48/9 39/61/24 40/62/25 
f 40/62/25 30/49/10 29/48/9 
f 31/50/11 41/63/26 39/64/24 
f 39/64/24 29/51/9 31/50/11 
f 35/65/12 42/66/27 41/63/26 
f 41/63/26 31/50/11 35/65/12 
f 34/54/13 43/67/28 42/68/27 
f 42/68/27 35/55/12 34/54/13 
f 36/56/14 44/69/29 43/67/28 
f 43/67/28 34/54/13 36/56/14 
f 37/57/15 45/70/30 44/71/29 
f 44/71/29 36/58/14 37/57/15 
f 38/59/16 46/72/31 45/70/30 
f 45/70/30 37/57/15 38/59/16 
f 30/49/10 40/62/25 46/73/31 
f 46/73/31 38/60/16 30/49/10 
f 40/74/25 39/75/24 41/76/26 
f 41/76/26 42/77/27 43/78/28 
f 43/78/28 44/79/29 45/80/30 
f 41/76/26 43/78/28 45/80/30 
f 40/74/25 41/76/26 45/80/30 
f 46/81/31 40/74/25 45/80/30 
f 12/18/12 47/82/32 48/83/33 
f 48/83/33 11/14/11 12/18/12 
f 25/84/21 49/85/34 47/82/32 
f 47/82/32 12/18/12 25/84/21 
f 25/84/21 35/65/12 50/86/35 
f 50/86/35 49/85/34 25/84/21 
f 31/50/11 51/87/36 50/86/35 
f 50/86/35 35/65/12 31/50/11 
f 19/35/11 52/88/37 51/87/36 
f 51/87/36 31/50/11 19/35/11 
f 19/35/11 11/14/11 48/83/33 
f 48/83/33 52/88/37 19/35/11 
f 47/89/32 53/90/38 54/91/39 
f 54/91/39 48/92/33 47/89/32 
f 49/93/34 55/94/40 53/95/38 
f 53/95/38 47/96/32 49/93/34 
f 50/97/35 56/98/41 55/94/40 
f 55/94/40 49/93/34 50/97/35 
f 51/99/36 57/100/42 56/101/41 
f 56/101/41 50/102/35 51/99/36 
f 52/103/37 58/104/43 57/105/42 
f 57/105/42 51/106/36 52/103/37 
f 48/107/33 54/108/39 58/104/43 
f 58/104/43 52/103/37 48/107/33 
f 53/90/38 59/109/44 60/110/45 
f 60/110/45 54/91/39 53/90/38 
f 53/111/38 55/112/40 61/113/40 
f 61/113/40 59/114/44 53/111/38 
f 56/115/41 62/116/46 61/113/40 
f 61/113/40 55/112/40 56/115/41 
f 57/100/42 63/117/47 62/118/46 
f 62/118/46 56/101/41 57/100/42 
f 57/105/42 58/104/43 64/119/43 
f 64/119/43 63/120/47 57/105/42 
f 54/108/39 60/121/45 64/119/43 
f 64/119/43 58/104/43 54/108/39 
f 59/109/44 65/122/48 66/123/49 
f 66/123/49 60/110/45 59/109/44 
f 61/124/40 67/125/50 65/126/48 
f 65/126/48 59/127/44 61/124/40 
f 62/128/46 68/129/51 67/125/50 
f 67/125/50 61/124/40 62/128/46 
f 63/117/47 69/130/52 68/131/51 
f 68/131/51 62/118/46 63/117/47 
f 64/119/43 70/132/53 69/133/52 
f 69/133/52 63/120/47 64/119/43 
f 60/121/45 66/134/49 70/132/53 
f 70/132/53 64/119/43 60/121/45 
f 65/135/48 20/37/17 23/40/20 
f 23/40/20 66/136/49 65/135/48 
f 67/125/50 21/137/18 20/138/17 
f 20/138/17 65/126/48 67/125/50 
f 67/125/50 68/129/51 32/139/22 
f 32/139/22 21/137/18 67/125/50 
f 69/140/52 33/53/23 32/52/22 
f 32/52/22 68/141/51 69/140/52 
f 70/142/53 22/39/19 33/53/23 
f 33/53/23 69/140/52 70/142/53 
f 70/142/53 66/136/49 23/40/20 
f 23/40/20 22/39/19 70/142/53 
# 136 faces

