# 3ds Max Wavefront OBJ Exporter v0.97b - (c)2007 guruware
# File Created: 19.03.2018 11:37:32

mtllib suelo_exterior_3.mtl

#
# object suelo_exterior_3
#

v  -726.3000 -102.0952 816.9973
v  -789.1592 -102.0952 811.2872
v  -923.9644 -249.5512 912.3080
v  -848.9419 -249.5512 919.1230
v  205.8029 -102.0952 726.6027
v  146.6293 -102.0952 764.8281
v  192.8993 -249.5512 856.8591
v  263.5229 -249.5512 811.2369
v  299.5195 -102.0952 647.6719
v  260.4683 -102.0952 695.9384
v  328.7661 -249.5512 774.6390
v  375.3737 -249.5512 717.0330
v  -600.4654 -102.0952 772.8657
v  -663.7263 -102.0952 775.5815
v  -774.2602 -249.5512 869.6932
v  -698.7582 -249.5512 866.4519
v  -896.3167 -102.0950 793.3787
v  -1051.8568 -249.5510 890.9341
v  -466.0435 -102.0952 763.9807
v  -538.6790 -102.0952 775.0962
v  -625.0162 -249.5512 869.1140
v  -538.3257 -249.5512 855.8477
v  -290.7403 -102.0952 800.0554
v  -353.0641 -102.0952 802.5671
v  -403.4849 -249.5512 901.9006
v  -329.1014 -249.5512 898.9028
v  -412.7871 -102.0952 790.9034
v  -474.7642 -249.5512 887.9799
v  -227.6478 -102.0952 800.6165
v  -253.8005 -249.5512 899.5724
v  -36.0359 -102.0952 788.0074
v  -91.8552 -102.0952 789.2627
v  -91.7320 -249.5512 886.0217
v  -25.1116 -249.5512 884.5236
v  -150.6416 -102.0952 798.5431
v  -161.8936 -249.5512 897.0978
v  22.7112 -102.0952 780.5575
v  45.0031 -249.5512 875.6320
v  84.5755 -102.0952 775.5546
v  118.8381 -249.5512 869.6611
v  326.2039 -102.0951 635.3845
v  407.2216 -249.5511 702.3680
v  476.6935 -102.0950 591.3209
v  586.8310 -249.5510 649.7782
v  593.4023 -102.0951 303.5283
v  589.6392 -102.0950 366.4390
v  721.6316 -249.5510 381.3815
v  726.1230 -249.5511 306.2976
v  592.8821 -102.0950 240.7654
v  725.5020 -249.5510 231.3902
v  582.6513 -102.0951 428.9978
v  713.2916 -249.5511 456.0455
v  585.0854 -102.0950 178.1472
v  716.1967 -249.5510 156.6554
v  594.1981 -102.0950 -73.7572
v  594.2042 -102.0951 -10.6392
v  727.0800 -249.5511 -68.6613
v  727.0727 -249.5510 -143.9926
v  590.2631 -102.0950 -199.8933
v  593.4863 -102.0951 -136.8576
v  726.2232 -249.5511 -219.3030
v  722.3763 -249.5510 -294.5361
v  588.5732 -102.0951 52.1281
v  585.0781 -102.0951 115.0292
v  716.1879 -249.5511 81.3240
v  720.3594 -249.5511 6.2516
v  564.8322 -102.0950 489.4770
v  692.0245 -249.5510 528.2274
v  564.9087 -102.0950 -256.6125
v  692.1158 -249.5510 -362.2305
v  564.9087 -102.0951 -341.2782
v  692.1158 -249.5511 -463.2789
v  -1114.3342 -102.0950 555.9067
v  -1099.5477 -102.0950 478.4775
v  -1294.4131 -249.5510 515.0995
v  -1312.0607 -249.5510 607.5113
v  -1084.0502 -102.0950 643.5653
v  -1275.9167 -249.5510 712.1319
v  -965.5337 -102.0950 740.5739
v  -1046.2451 -102.0950 693.9805
v  -1230.7963 -249.5509 772.3023
v  -1134.4673 -249.5510 827.9116
v  564.9087 -102.0951 -435.0111
v  692.1158 -249.5511 -575.1491
v  564.9087 -102.0951 -533.1556
v  692.1158 -249.5511 -692.2846
v  564.9087 -108.0091 -635.7079
v  692.1158 -256.6094 -814.6808
v  -917.9802 -105.3902 -358.6572
v  -917.9802 -105.3902 -433.8451
v  -1077.7122 -253.4838 -573.7575
v  -1077.7122 -253.4838 -484.0208
v  -917.9802 -105.3902 -518.5619
v  -1077.7122 -253.4838 -674.8670
v  -917.9802 -105.3902 -607.2661
v  -1077.7122 -253.4838 -780.7355
v  -917.9802 -105.3902 -699.9541
v  -1077.7122 -253.4838 -891.3586
v  303.2990 -105.3902 -672.9945
v  341.5873 -104.1358 -641.3075
v  425.5817 -251.9866 -821.3639
v  379.8845 -253.4838 -859.1824
v  -1012.8370 -81.2199 -389.2687
v  -1190.9238 -224.6365 -520.5555
v  548.6221 -249.3557 1564.3903
v  707.2738 -249.3557 1461.9030
v  853.8384 -249.3557 1379.6881
v  958.5397 -249.3557 1250.2799
v  -1624.0410 -249.3557 1593.2213
v  -1454.4304 -249.3557 1585.9401
v  -1714.2371 -249.3557 1593.3490
v  -1288.7738 -249.3557 1591.9200
v  -1094.0288 -249.3557 1562.1183
v  -791.1176 -249.3557 1665.5731
v  -624.0195 -249.3557 1658.8387
v  -951.2419 -249.3557 1634.3011
v  -454.8608 -249.3557 1660.3431
v  -90.7842 -249.3557 1629.9025
v  58.8744 -249.3556 1626.5367
v  -248.3978 -249.3557 1654.7841
v  216.3826 -249.3557 1606.5626
v  382.2483 -249.3557 1593.1490
v  1030.0839 -249.3553 1217.3358
v  1433.5652 -249.3552 1099.1960
v  1736.3862 -249.3552 496.2599
v  1746.4758 -249.3553 327.5886
v  1745.0808 -249.3552 159.3137
v  1717.6509 -249.3553 663.9879
v  1724.1770 -249.3552 -8.5734
v  1748.6255 -249.3553 -514.7330
v  1748.6091 -249.3552 -683.9602
v  1746.7009 -249.3553 -853.1403
v  1738.0591 -249.3552 -1022.1466
v  1724.1575 -249.3553 -177.8005
v  1733.5281 -249.3553 -346.4460
v  1669.8757 -249.3552 826.1399
v  1670.0808 -249.3552 -1174.2179
v  1546.9824 -249.3995 -1325.9016
v  1359.1807 -249.4371 -1338.8322
v  1108.2927 -249.4677 -1299.5791
v  981.2430 -259.1526 -1308.1460
v  -1961.4976 -257.2327 -1285.4225
v  -2077.3945 -258.1898 -1034.2949
v  -1834.4780 -256.3839 -1415.3975
v  -1650.4585 -255.6787 -1402.7397
v  -1495.5825 -255.0852 -1392.0868
v  623.7624 -252.8582 -1377.4962
v  541.3959 -254.7747 -1383.1318
v  -1789.1116 -249.3836 1505.1771
v  -1843.1938 -249.4213 1387.2645
v  -1872.0455 -249.4397 1209.2355
v  -1897.0345 -249.4589 1055.0480
v  -1915.5610 -249.4660 940.7191
v  -1942.8752 -249.4697 772.1476
v  -1964.1281 -249.4635 640.9626
v  -2034.0913 -200.1795 -896.9558
# 156 vertices

vn -0.0719 0.6076 0.7910
vn 0.4457 0.5704 0.6899
vn 0.6381 0.5711 0.5163
vn 0.0367 0.5179 0.8546
vn -0.1271 0.6370 0.7603
vn 0.5481 0.1177 0.8281
vn 0.1330 0.4763 0.8692
vn 0.0336 0.5505 0.8342
vn -0.3562 0.6136 0.7047
vn -0.1551 0.5879 0.7940
vn -0.0074 0.5581 0.8297
vn 0.0188 0.5485 0.8359
vn 0.1308 0.5440 0.8288
vn 0.1051 0.5501 0.8285
vn 0.1416 0.5557 0.8192
vn 0.4023 0.5691 0.7172
vn -0.0301 0.5499 0.8347
vn 0.0224 0.5544 0.8320
vn 0.0674 0.5478 0.8339
vn 0.3519 0.5405 0.7642
vn 0.2420 0.5084 0.8264
vn 0.7421 0.6688 0.0444
vn 0.7433 0.6689 -0.0062
vn 0.7384 0.6693 0.0825
vn 0.7375 0.6691 -0.0918
vn 0.7429 0.6694 -0.0001
vn 0.7322 0.6801 -0.0374
vn 0.7409 0.6716 -0.0084
vn 0.7514 0.6585 0.0418
vn 0.7473 0.6645 -0.0001
vn 0.7124 0.6697 0.2099
vn 0.7543 0.6531 0.0677
vn 0.6203 0.7337 -0.2773
vn 0.5835 0.6360 0.5050
vn 0.7572 0.6532 -0.0000
vn -0.6132 0.7812 -0.1171
vn -0.5542 0.8101 0.1915
vn -0.3387 0.7356 0.5867
vn -0.3949 0.7590 0.5176
vn -0.4831 0.7971 0.3623
vn 0.7354 0.6765 -0.0390
vn -0.6799 0.7333 -0.0000
vn 0.3710 0.7951 -0.4798
vn 0.0137 0.7853 -0.6190
vn 0.0292 0.7791 -0.6262
vn -0.6079 0.7929 -0.0417
vn -0.0001 1.0000 -0.0002
vn -0.0002 1.0000 -0.0002
vn -0.0000 1.0000 -0.0003
vn -0.0013 1.0000 -0.0019
vn 0.0001 1.0000 -0.0002
vn 0.0000 1.0000 -0.0002
vn 0.0000 1.0000 -0.0003
vn -0.0001 1.0000 -0.0003
vn -0.0002 1.0000 -0.0000
vn -0.0002 1.0000 0.0000
vn -0.0002 1.0000 -0.0001
vn -0.0001 1.0000 0.0001
vn -0.0003 1.0000 -0.0001
vn -0.0001 1.0000 0.0000
vn -0.0839 0.9948 -0.0574
vn -0.0727 0.9962 -0.0477
vn -0.0042 1.0000 -0.0000
vn -0.0054 1.0000 0.0013
vn -0.0038 1.0000 -0.0000
vn -0.0053 1.0000 0.0013
vn -0.0038 1.0000 0.0000
vn -0.0226 0.9997 -0.0096
vn -0.0245 0.9997 -0.0100
vn 0.0001 1.0000 -0.0024
vn -0.0001 1.0000 -0.0031
vn 0.0167 0.9998 0.0046
vn 0.0172 0.9998 0.0046
vn 0.0001 1.0000 -0.0001
vn 0.0001 1.0000 -0.0000
vn 0.0001 1.0000 0.0000
vn 0.0047 0.9997 0.0245
vn 0.0150 0.9994 0.0313
vn 0.3799 0.6101 -0.6953
vn 0.2207 0.8716 -0.4377
# 80 vertex normals

vt 0.4463 0.3403 0.0000
vt 0.4627 0.3403 0.0000
vt 0.4979 0.3788 0.0000
vt 0.4783 0.3788 0.0000
vt 0.8364 0.2312 0.0000
vt 0.8358 0.2496 0.0000
vt 0.7888 0.2508 0.0000
vt 0.7896 0.2289 0.0000
vt 0.8398 0.1996 0.0000
vt 0.8364 0.2149 0.0000
vt 0.7896 0.2094 0.0000
vt 0.7937 0.1911 0.0000
vt 0.4134 0.3403 0.0000
vt 0.4299 0.3403 0.0000
vt 0.4588 0.3788 0.0000
vt 0.4391 0.3788 0.0000
vt 0.4907 0.3403 0.0000
vt 0.5313 0.3788 0.0000
vt 0.3783 0.3403 0.0000
vt 0.3973 0.3403 0.0000
vt 0.4198 0.3788 0.0000
vt 0.3972 0.3788 0.0000
vt 0.8632 0.3515 0.0000
vt 0.8674 0.3657 0.0000
vt 0.8266 0.3894 0.0000
vt 0.8215 0.3725 0.0000
vt 0.3277 0.3585 0.0000
vt 0.3288 0.3429 0.0000
vt 0.3779 0.3403 0.0000
vt 0.3766 0.3589 0.0000
vt 0.8733 0.3774 0.0000
vt 0.8336 0.4033 0.0000
vt 0.8585 0.3376 0.0000
vt 0.8159 0.3559 0.0000
vt 0.8461 0.2933 0.0000
vt 0.8500 0.3059 0.0000
vt 0.8059 0.3180 0.0000
vt 0.8012 0.3030 0.0000
vt 0.8531 0.3202 0.0000
vt 0.8095 0.3351 0.0000
vt 0.8428 0.2793 0.0000
vt 0.7972 0.2862 0.0000
vt 0.8389 0.2648 0.0000
vt 0.7926 0.2690 0.0000
vt 0.8395 0.1920 0.0000
vt 0.7932 0.1821 0.0000
vt 0.8342 0.1525 0.0000
vt 0.7869 0.1350 0.0000
vt 0.8631 0.0871 0.0000
vt 0.8552 0.0966 0.0000
vt 0.8120 0.0682 0.0000
vt 0.8214 0.0569 0.0000
vt 0.8713 0.0786 0.0000
vt 0.8312 0.0468 0.0000
vt 0.8476 0.1067 0.0000
vt 0.8029 0.0803 0.0000
vt 0.5149 0.4201 0.0000
vt 0.5313 0.4212 0.0000
vt 0.5295 0.4730 0.0000
vt 0.5099 0.4717 0.0000
vt 0.4495 0.4226 0.0000
vt 0.4660 0.4223 0.0000
vt 0.4515 0.4744 0.0000
vt 0.4320 0.4746 0.0000
vt 0.4167 0.4223 0.0000
vt 0.4331 0.4226 0.0000
vt 0.4124 0.4747 0.0000
vt 0.3927 0.4743 0.0000
vt 0.4822 0.4211 0.0000
vt 0.4984 0.4203 0.0000
vt 0.4903 0.4719 0.0000
vt 0.4709 0.4729 0.0000
vt 0.8410 0.1190 0.0000
vt 0.7951 0.0949 0.0000
vt 0.3031 0.6904 0.0000
vt 0.3179 0.6970 0.0000
vt 0.2932 0.7315 0.0000
vt 0.2755 0.7236 0.0000
vt 0.5092 0.3793 0.0000
vt 0.5313 0.3793 0.0000
vt 0.5037 0.4178 0.0000
vt 0.4773 0.4178 0.0000
vt 0.5152 0.2520 0.0000
vt 0.4950 0.2558 0.0000
vt 0.5046 0.2049 0.0000
vt 0.5287 0.2003 0.0000
vt 0.5381 0.2599 0.0000
vt 0.5560 0.2098 0.0000
vt 0.5634 0.2908 0.0000
vt 0.5513 0.2697 0.0000
vt 0.5717 0.2216 0.0000
vt 0.5862 0.2467 0.0000
vt 0.5772 0.3089 0.0000
vt 0.6027 0.2683 0.0000
vt 0.4847 0.3793 0.0000
vt 0.4481 0.4178 0.0000
vt 0.4591 0.3793 0.0000
vt 0.4175 0.4178 0.0000
vt 0.4323 0.3808 0.0000
vt 0.3856 0.4196 0.0000
vt 0.2764 0.3032 0.0000
vt 0.2568 0.3032 0.0000
vt 0.2203 0.2615 0.0000
vt 0.2437 0.2615 0.0000
vt 0.2347 0.3032 0.0000
vt 0.1939 0.2615 0.0000
vt 0.2115 0.3032 0.0000
vt 0.1662 0.2615 0.0000
vt 0.1873 0.3032 0.0000
vt 0.1373 0.2615 0.0000
vt 0.1943 0.6221 0.0000
vt 0.2026 0.6321 0.0000
vt 0.1556 0.6540 0.0000
vt 0.1457 0.6421 0.0000
vt 0.2041 0.6904 0.0000
vt 0.1574 0.7236 0.0000
vt 0.2684 0.2785 0.0000
vt 0.2341 0.2320 0.0000
vt 0.5819 0.6117 0.0000
vt 0.5938 0.5933 0.0000
vt 0.7785 0.6862 0.0000
vt 0.7518 0.7276 0.0000
vt 0.5573 0.6409 0.0000
vt 0.5723 0.6288 0.0000
vt 0.7303 0.7659 0.0000
vt 0.6965 0.7932 0.0000
vt 0.5963 0.3605 0.0000
vt 0.5972 0.3408 0.0000
vt 0.7861 0.1189 0.0000
vt 0.7842 0.1632 0.0000
vt 0.6101 0.3213 0.0000
vt 0.7861 0.0953 0.0000
vt 0.5935 0.4024 0.0000
vt 0.5970 0.3797 0.0000
vt 0.7857 0.2064 0.0000
vt 0.7779 0.2573 0.0000
vt 0.6048 0.4570 0.0000
vt 0.6056 0.4376 0.0000
vt 0.8050 0.3364 0.0000
vt 0.8032 0.3800 0.0000
vt 0.6019 0.4190 0.0000
vt 0.7968 0.2945 0.0000
vt 0.6050 0.4767 0.0000
vt 0.8036 0.4242 0.0000
vt 0.6010 0.5364 0.0000
vt 0.6014 0.5190 0.0000
vt 0.7956 0.5192 0.0000
vt 0.7948 0.5583 0.0000
vt 0.6043 0.5007 0.0000
vt 0.8021 0.4781 0.0000
vt 0.5987 0.5547 0.0000
vt 0.7896 0.5994 0.0000
vt 0.5971 0.5740 0.0000
vt 0.7861 0.6427 0.0000
vt 0.5535 0.6493 0.0000
vt 0.6879 0.8119 0.0000
vt 0.5397 0.6961 0.0000
vt 0.6571 0.9172 0.0000
vt 0.4500 0.7325 0.0000
vt 0.4697 0.7313 0.0000
vt 0.4996 0.9963 0.0000
vt 0.4556 0.9989 0.0000
vt 0.4305 0.7324 0.0000
vt 0.4117 0.9986 0.0000
vt 0.4891 0.7292 0.0000
vt 0.5434 0.9914 0.0000
vt 0.4110 0.7299 0.0000
vt 0.3678 0.9931 0.0000
vt 0.3325 0.7328 0.0000
vt 0.3521 0.7328 0.0000
vt 0.2357 0.9995 0.0000
vt 0.1915 0.9995 0.0000
vt 0.3128 0.7325 0.0000
vt 0.1473 0.9990 0.0000
vt 0.1032 0.9967 0.0000
vt 0.3717 0.7310 0.0000
vt 0.3913 0.7299 0.0000
vt 0.3236 0.9931 0.0000
vt 0.2796 0.9956 0.0000
vt 0.5080 0.7236 0.0000
vt 0.5858 0.9789 0.0000
vt 0.0635 0.9790 0.0000
vt 0.2491 0.7236 0.0000
vt 0.0239 0.9468 0.0000
vt 0.0205 0.8978 0.0000
vt 0.2199 0.7236 0.0000
vt 0.0307 0.8323 0.0000
vt 0.1893 0.7236 0.0000
vt 0.0285 0.7991 0.0000
vt 0.0344 0.0308 0.0000
vt 0.1000 0.0005 0.0000
vt 0.0005 0.0639 0.0000
vt 0.0038 0.1120 0.0000
vt 0.0066 0.1524 0.0000
vt 0.0104 0.7058 0.0000
vt 0.0089 0.6843 0.0000
vt 0.6083 0.3017 0.0000
vt 0.7631 0.0758 0.0000
vt 0.7323 0.0617 0.0000
vt 0.6858 0.0541 0.0000
vt 0.6456 0.0476 0.0000
vt 0.6157 0.0428 0.0000
vt 0.5717 0.0356 0.0000
vt 0.5374 0.0301 0.0000
vt 0.1359 0.0118 0.0000
# 205 texture coords

o suelo_exterior_3
g suelo_exterior_3
usemtl SueloExterior3
f 1/1/1 2/2/1 3/3/1 
f 3/3/1 4/4/1 1/1/1 
f 5/5/2 6/6/2 7/7/2 
f 7/7/2 8/8/2 5/5/2 
f 9/9/3 10/10/3 11/11/3 
f 11/11/3 12/12/3 9/9/3 
f 13/13/4 14/14/4 15/15/4 
f 15/15/4 16/16/4 13/13/4 
f 2/2/5 17/17/5 18/18/5 
f 18/18/5 3/3/5 2/2/5 
f 14/14/6 1/1/6 4/4/6 
f 4/4/6 15/15/6 14/14/6 
f 19/19/7 20/20/7 21/21/7 
f 21/21/7 22/22/7 19/19/7 
f 23/23/8 24/24/8 25/25/8 
f 25/25/8 26/26/8 23/23/8 
f 27/27/9 19/28/9 22/29/9 
f 22/29/9 28/30/9 27/27/9 
f 24/24/10 27/31/10 28/32/10 
f 28/32/10 25/25/10 24/24/10 
f 29/33/11 23/23/11 26/26/11 
f 26/26/11 30/34/11 29/33/11 
f 31/35/12 32/36/12 33/37/12 
f 33/37/12 34/38/12 31/35/12 
f 32/36/13 35/39/13 36/40/13 
f 36/40/13 33/37/13 32/36/13 
f 37/41/14 31/35/14 34/38/14 
f 34/38/14 38/42/14 37/41/14 
f 6/6/15 39/43/15 40/44/15 
f 40/44/15 7/7/15 6/6/15 
f 10/10/16 5/5/16 8/8/16 
f 8/8/16 11/11/16 10/10/16 
f 20/20/17 13/13/17 16/16/17 
f 16/16/17 21/21/17 20/20/17 
f 35/39/18 29/33/18 30/34/18 
f 30/34/18 36/40/18 35/39/18 
f 39/43/19 37/41/19 38/42/19 
f 38/42/19 40/44/19 39/43/19 
f 41/45/20 9/9/20 12/12/20 
f 12/12/20 42/46/20 41/45/20 
f 43/47/21 41/45/21 42/46/21 
f 42/46/21 44/48/21 43/47/21 
f 45/49/22 46/50/22 47/51/22 
f 47/51/22 48/52/22 45/49/22 
f 49/53/23 45/49/23 48/52/23 
f 48/52/23 50/54/23 49/53/23 
f 46/50/24 51/55/24 52/56/24 
f 52/56/24 47/51/24 46/50/24 
f 53/57/25 49/58/25 50/59/25 
f 50/59/25 54/60/25 53/57/25 
f 55/61/26 56/62/26 57/63/26 
f 57/63/26 58/64/26 55/61/26 
f 59/65/27 60/66/27 61/67/27 
f 61/67/27 62/68/27 59/65/27 
f 60/66/28 55/61/28 58/64/28 
f 58/64/28 61/67/28 60/66/28 
f 63/69/29 64/70/29 65/71/29 
f 65/71/29 66/72/29 63/69/29 
f 64/70/30 53/57/30 54/60/30 
f 54/60/30 65/71/30 64/70/30 
f 51/55/31 67/73/31 68/74/31 
f 68/74/31 52/56/31 51/55/31 
f 56/62/32 63/69/32 66/72/32 
f 66/72/32 57/63/32 56/62/32 
f 69/75/33 59/76/33 62/77/33 
f 62/77/33 70/78/33 69/75/33 
f 67/73/34 43/47/34 44/48/34 
f 44/48/34 68/74/34 67/73/34 
f 71/79/35 69/80/35 70/81/35 
f 70/81/35 72/82/35 71/79/35 
f 73/83/36 74/84/36 75/85/36 
f 75/85/36 76/86/36 73/83/36 
f 77/87/37 73/83/37 76/86/37 
f 76/86/37 78/88/37 77/87/37 
f 79/89/38 80/90/38 81/91/38 
f 81/91/38 82/92/38 79/89/38 
f 17/93/39 79/89/39 82/92/39 
f 82/92/39 18/94/39 17/93/39 
f 80/90/40 77/87/40 78/88/40 
f 78/88/40 81/91/40 80/90/40 
f 83/95/35 71/79/35 72/82/35 
f 72/82/35 84/96/35 83/95/35 
f 85/97/35 83/95/35 84/96/35 
f 84/96/35 86/98/35 85/97/35 
f 87/99/41 85/97/41 86/98/41 
f 86/98/41 88/100/41 87/99/41 
f 89/101/42 90/102/42 91/103/42 
f 91/103/42 92/104/42 89/101/42 
f 90/102/42 93/105/42 94/106/42 
f 94/106/42 91/103/42 90/102/42 
f 93/105/42 95/107/42 96/108/42 
f 96/108/42 94/106/42 93/105/42 
f 95/107/42 97/109/42 98/110/42 
f 98/110/42 96/108/42 95/107/42 
f 99/111/43 100/112/43 101/113/43 
f 101/113/43 102/114/43 99/111/43 
f 97/109/44 99/111/44 102/114/44 
f 102/114/44 98/110/44 97/109/44 
f 100/112/45 87/115/45 88/116/45 
f 88/116/45 101/113/45 100/112/45 
f 74/84/46 103/117/46 104/118/46 
f 104/118/46 75/85/46 74/84/46 
f 8/119/47 7/120/47 105/121/47 
f 105/121/47 106/122/47 8/119/47 
f 12/123/48 11/124/48 107/125/48 
f 107/125/48 108/126/48 12/123/48 
f 16/127/49 15/128/49 109/129/49 
f 109/129/49 110/130/49 16/127/49 
f 15/128/50 4/131/50 111/132/50 
f 111/132/49 109/129/49 15/128/49 
f 22/133/49 21/134/49 112/135/49 
f 112/135/49 113/136/49 22/133/49 
f 26/137/49 25/138/49 114/139/49 
f 114/139/49 115/140/49 26/137/49 
f 28/141/51 22/133/51 113/136/51 
f 113/136/51 116/142/51 28/141/51 
f 25/138/52 28/141/52 116/142/52 
f 116/142/52 114/139/52 25/138/52 
f 30/143/53 26/137/53 115/140/53 
f 115/140/53 117/144/53 30/143/53 
f 34/145/49 33/146/49 118/147/49 
f 118/147/49 119/148/49 34/145/49 
f 33/146/49 36/149/49 120/150/49 
f 120/150/49 118/147/49 33/146/49 
f 38/151/49 34/145/49 119/148/49 
f 119/148/49 121/152/49 38/151/49 
f 7/120/49 40/153/49 122/154/49 
f 122/154/49 105/121/49 7/120/49 
f 11/124/47 8/119/47 106/122/47 
f 106/122/47 107/125/47 11/124/47 
f 21/134/53 16/127/53 110/130/53 
f 110/130/53 112/135/53 21/134/53 
f 36/149/49 30/143/49 117/144/49 
f 117/144/49 120/150/49 36/149/49 
f 40/153/49 38/151/49 121/152/49 
f 121/152/49 122/154/49 40/153/49 
f 42/155/47 12/123/47 108/126/47 
f 108/126/47 123/156/47 42/155/47 
f 44/157/54 42/155/54 123/156/54 
f 123/156/54 124/158/54 44/157/54 
f 48/159/55 47/160/55 125/161/55 
f 125/161/55 126/162/55 48/159/55 
f 50/163/56 48/159/56 126/162/56 
f 126/162/56 127/164/56 50/163/56 
f 47/160/55 52/165/55 128/166/55 
f 128/166/55 125/161/55 47/160/55 
f 54/167/56 50/163/56 127/164/56 
f 127/164/56 129/168/56 54/167/56 
f 58/169/56 57/170/56 130/171/56 
f 130/171/56 131/172/56 58/169/56 
f 62/77/56 61/173/56 132/174/56 
f 132/174/56 133/175/56 62/77/56 
f 61/173/56 58/169/56 131/172/56 
f 131/172/56 132/174/56 61/173/56 
f 66/176/55 65/177/55 134/178/55 
f 134/178/55 135/179/55 66/176/55 
f 65/177/55 54/167/55 129/168/55 
f 129/168/55 134/178/55 65/177/55 
f 52/165/57 68/180/57 136/181/57 
f 136/181/57 128/166/57 52/165/57 
f 57/170/55 66/176/55 135/179/55 
f 135/179/55 130/171/55 57/170/55 
f 70/78/58 62/77/58 133/175/58 
f 133/175/58 137/182/58 70/78/58 
f 68/180/57 44/157/57 124/158/57 
f 124/158/57 136/181/57 68/180/57 
f 72/183/55 70/78/55 137/182/55 
f 137/182/59 138/184/59 72/183/59 
f 72/183/55 138/184/55 139/185/55 
f 139/185/55 84/186/55 72/183/55 
f 84/186/60 139/185/60 140/187/60 
f 140/187/55 86/188/55 84/186/55 
f 88/116/61 86/188/61 140/187/61 
f 140/187/62 141/189/62 88/116/62 
f 92/104/63 91/103/63 142/190/63 
f 142/190/64 143/191/64 92/104/64 
f 91/103/65 94/106/65 144/192/65 
f 144/192/66 142/190/66 91/103/66 
f 94/106/65 96/108/65 145/193/65 
f 145/193/67 144/192/67 94/106/67 
f 96/108/65 98/110/65 146/194/65 
f 146/194/65 145/193/65 96/108/65 
f 101/113/68 147/195/68 148/196/68 
f 148/196/69 102/114/69 101/113/69 
f 98/110/70 102/114/70 148/196/70 
f 148/196/71 146/194/71 98/110/71 
f 88/116/72 141/189/72 147/195/72 
f 147/195/73 101/113/73 88/116/73 
f 4/131/52 3/197/52 149/198/52 
f 149/198/49 111/132/49 4/131/49 
f 149/198/52 3/197/52 18/94/52 
f 18/94/49 150/199/49 149/198/49 
f 18/94/74 82/92/74 151/200/74 
f 151/200/74 150/199/74 18/94/74 
f 151/200/74 82/92/74 81/91/74 
f 81/91/74 152/201/74 151/200/74 
f 81/91/74 78/88/74 153/202/74 
f 153/202/74 152/201/74 81/91/74 
f 78/88/75 76/86/75 154/203/75 
f 154/203/75 153/202/75 78/88/75 
f 76/86/76 75/85/76 155/204/76 
f 155/204/76 154/203/76 76/86/76 
f 155/204/77 75/85/77 104/118/77 
f 104/118/78 156/205/78 155/204/78 
f 104/118/79 92/104/79 143/191/79 
f 143/191/80 156/205/80 104/118/80 
# 206 faces

