# 3ds Max Wavefront OBJ Exporter v0.97b - (c)2007 guruware
# File Created: 13.03.2018 20:08:17

mtllib SueloEdificio1.mtl

#
# object Object019
#

v  -306.5513 47.4276 421.7816
v  -306.5219 47.4236 418.6109
v  -319.9087 62.4715 418.6199
v  -319.9380 62.4755 421.7906
v  -307.6890 -30.0941 418.7280
v  -307.7184 -30.0901 421.8987
v  -321.1052 -29.9027 421.9077
v  -321.0758 -29.9067 418.7369
v  -307.1349 8.6687 421.8402
v  -320.5216 16.2864 421.8492
v  -253.5878 -14.9802 421.8043
v  -253.5583 -14.9842 418.6335
v  -251.8384 5.7582 418.5750
v  -251.8678 5.7622 421.7458
v  -320.4922 16.2824 418.6784
v  -307.1054 8.6647 418.6694
v  -371.5312 -5.3262 418.9662
v  -371.5606 -5.3222 422.1370
v  -370.9770 18.5085 422.0784
v  -370.9476 18.5045 418.9077
v  -266.3615 18.9142 418.5840
v  -266.3910 18.9182 421.7547
v  -275.0704 56.2275 418.5930
v  -275.0998 56.2315 421.7637
v  -289.5258 47.2401 421.7727
v  -282.3128 51.7358 421.7682
v  -282.2834 51.7318 418.5974
v  -289.4964 47.2361 418.6019
v  -360.0984 40.0266 421.8175
v  -360.0690 40.0226 418.6468
v  -346.7116 36.9152 421.8086
v  -346.6822 36.9112 418.6378
v  -333.3248 62.6629 421.7996
v  -333.2954 62.6589 418.6288
v  -254.1419 -30.8439 418.6921
v  -254.1713 -30.8399 421.8628
v  -267.5581 -30.6524 421.8718
v  -267.5287 -30.6564 418.7010
v  -276.2669 -30.4650 421.8808
v  -276.2375 -30.4690 418.7100
v  -290.6635 -30.2815 418.7190
v  -290.6929 -30.2775 421.8898
v  -372.1441 -29.1529 422.1955
v  -372.1147 -29.1569 419.0247
v  -361.2361 -29.3443 418.7639
v  -361.2655 -29.3403 421.9346
v  -347.8493 -29.5318 418.7549
v  -347.8788 -29.5278 421.9257
v  -334.4626 -29.7192 418.7459
v  -334.4920 -29.7152 421.9167
v  -266.9745 -5.8671 421.8133
v  -275.6833 12.8833 421.8223
v  -290.1094 8.4813 421.8312
v  -360.6819 5.3431 421.8761
v  -347.2952 3.6937 421.8671
v  -333.9084 16.4738 421.8581
v  -360.6525 5.3391 418.7053
v  -347.2657 3.6897 418.6964
v  -333.8790 16.4699 418.6874
v  -266.9451 -5.8711 418.6425
v  -275.6540 12.8793 418.6515
v  -282.8669 22.0182 418.6560
v  -290.0800 8.4773 418.6605
v  -282.8964 22.0222 421.8267
# 64 vertices

vn 0.3978 0.9173 0.0000
vn 0.3931 0.9193 0.0000
vn 0.3990 0.9167 0.0000
vn 0.3944 0.9187 0.0000
vn -0.0115 -0.9999 0.0012
vn -0.0129 -0.9999 0.0012
vn -0.0058 0.0014 1.0012
vn -0.0060 0.0015 1.0012
vn -0.0057 0.0014 1.0012
vn -0.0055 0.0013 1.0012
vn 0.9966 -0.0646 0.0030
vn 0.9947 -0.0894 0.0031
vn 0.0058 -0.0014 -1.0012
vn 0.0055 -0.0013 -1.0012
vn 0.0057 -0.0014 -1.0012
vn 0.0060 -0.0015 -1.0012
vn -0.9983 0.0265 -0.0030
vn 0.6408 0.7670 0.0009
vn 0.8450 0.5330 0.0018
vn 0.8464 0.5308 0.0018
vn 0.3942 0.9188 0.0000
vn 0.3845 0.9229 -0.0000
vn -0.2513 0.9678 -0.0020
vn -0.4982 0.8667 -0.0026
vn -0.2545 0.9670 -0.0020
vn -0.8760 0.4801 -0.0032
vn -0.4210 0.9068 -0.0024
vn -0.4102 0.9117 -0.0024
vn -0.4070 0.9132 -0.0024
vn -0.4134 0.9103 -0.0024
vn -0.5008 0.8651 -0.0026
vn -0.4960 0.8679 -0.0026
vn -0.0164 -0.9999 0.0012
vn -0.0199 -0.9998 0.0012
vn -0.0102 -0.9999 0.0012
vn -0.0159 -0.9999 0.0012
vn -0.0144 -0.9999 0.0012
vn -0.0054 0.0027 1.0012
vn -0.0059 0.0037 1.0012
vn -0.0047 0.0027 1.0012
vn -0.0036 0.0020 1.0012
vn -0.0049 0.0021 1.0012
vn -0.0019 0.0018 1.0011
vn -0.0064 0.0015 1.0012
vn 0.0133 0.0015 1.0008
vn 0.0144 0.0015 1.0008
vn 0.0041 0.0017 1.0010
vn -0.0007 0.0016 1.0011
vn -0.0071 0.0015 1.0012
vn -0.0064 0.0016 1.0012
vn -0.0067 0.0014 1.0012
vn -0.0065 0.0013 1.0012
vn -0.0047 -0.0017 -1.0010
vn -0.0156 -0.0019 -1.0008
vn -0.0144 -0.0015 -1.0008
vn -0.0041 -0.0017 -1.0010
vn 0.0064 -0.0016 -1.0012
vn 0.0059 -0.0017 -1.0012
vn 0.0061 -0.0014 -1.0012
vn 0.0067 -0.0014 -1.0012
vn 0.0041 -0.0024 -1.0012
vn 0.0047 -0.0027 -1.0012
vn 0.0036 -0.0020 -1.0012
vn 0.0016 -0.0018 -1.0011
vn 0.0019 -0.0018 -1.0011
vn 0.0068 -0.0017 -1.0012
vn 0.0067 -0.0016 -1.0012
vn 0.0062 -0.0017 -1.0012
vn 0.0064 -0.0015 -1.0012
vn 0.0053 -0.0014 -1.0012
vn -0.0053 0.0014 1.0012
vn 0.9979 -0.0398 0.0030
vn -0.0041 0.0024 1.0012
vn -0.0016 0.0018 1.0011
vn -0.0067 0.0016 1.0012
vn -0.0062 0.0017 1.0012
vn -0.0068 0.0017 1.0012
vn 0.0156 0.0019 1.0008
vn 0.0047 0.0017 1.0010
vn -0.0059 0.0017 1.0012
vn -0.0061 0.0014 1.0012
vn -0.0133 -0.0015 -1.0008
vn 0.0007 -0.0016 -1.0011
vn 0.0071 -0.0015 -1.0012
vn 0.0065 -0.0013 -1.0012
vn 0.0059 -0.0037 -1.0012
vn 0.0054 -0.0027 -1.0012
vn 0.0049 -0.0021 -1.0012
vn -0.7592 -0.6497 -0.0014
vn 0.8651 -0.4996 0.0032
vn -0.9986 0.0146 -0.0030
vn 0.9985 -0.0163 0.0030
# 92 vertex normals

vt 0.9865 0.0013 0.0000
vt 0.9865 0.0197 0.0000
vt 0.8653 0.0189 0.0000
vt 0.8653 0.0005 0.0000
vt 0.7143 0.0340 0.0000
vt 0.7126 0.0523 0.0000
vt 0.6288 0.0451 0.0000
vt 0.6306 0.0268 0.0000
vt 0.9927 0.5267 0.0000
vt 0.9909 0.6105 0.0000
vt 0.7659 0.6064 0.0000
vt 0.7247 0.5211 0.0000
vt 0.8244 0.7471 0.0000
vt 0.8244 0.7655 0.0000
vt 0.7038 0.7649 0.0000
vt 0.7038 0.7465 0.0000
vt 0.0059 0.3202 0.0000
vt 0.2740 0.3239 0.0000
vt 0.2298 0.4077 0.0000
vt 0.0049 0.4040 0.0000
vt 0.6871 0.0718 0.0000
vt 0.6871 0.0908 0.0000
vt 0.5435 0.0908 0.0000
vt 0.5436 0.0718 0.0000
vt 0.9842 0.0251 0.0000
vt 0.9842 0.0435 0.0000
vt 0.8653 0.0426 0.0000
vt 0.8653 0.0243 0.0000
vt 0.9889 0.7827 0.0000
vt 0.9882 0.8015 0.0000
vt 0.7655 0.7986 0.0000
vt 0.7662 0.7798 0.0000
vt 0.0313 0.8546 0.0000
vt 0.0321 0.9023 0.0000
vt 0.0127 0.9029 0.0000
vt 0.0119 0.8551 0.0000
vt 0.0100 0.7423 0.0000
vt 0.0294 0.7418 0.0000
vt 0.4139 0.0954 0.0000
vt 0.4139 0.0764 0.0000
vt 0.7423 0.1157 0.0000
vt 0.7418 0.0970 0.0000
vt 0.8274 0.0955 0.0000
vt 0.8279 0.1143 0.0000
vt 0.1003 0.7465 0.0000
vt 0.1210 0.7473 0.0000
vt 0.1233 0.9163 0.0000
vt 0.1026 0.9155 0.0000
vt 0.7423 0.1391 0.0000
vt 0.7418 0.1207 0.0000
vt 0.8258 0.1193 0.0000
vt 0.8263 0.1377 0.0000
vt 0.1709 0.8913 0.0000
vt 0.1526 0.8895 0.0000
vt 0.1598 0.8058 0.0000
vt 0.1781 0.8075 0.0000
vt 0.1645 0.7513 0.0000
vt 0.1828 0.7531 0.0000
vt 0.8209 0.0433 0.0000
vt 0.8191 0.0616 0.0000
vt 0.3094 0.0188 0.0000
vt 0.3111 0.0005 0.0000
vt 0.3793 0.0049 0.0000
vt 0.3775 0.0232 0.0000
vt 0.4631 0.0122 0.0000
vt 0.4613 0.0305 0.0000
vt 0.5468 0.0195 0.0000
vt 0.5450 0.0378 0.0000
vt 0.9853 0.8619 0.0000
vt 0.9835 0.9457 0.0000
vt 0.8914 0.9462 0.0000
vt 0.8415 0.8606 0.0000
vt 0.9862 0.8074 0.0000
vt 0.7346 0.8023 0.0000
vt 0.9882 0.7171 0.0000
vt 0.7633 0.7129 0.0000
vt 0.7228 0.2048 0.0000
vt 0.8612 0.2060 0.0000
vt 0.7969 0.2720 0.0000
vt 0.5956 0.2687 0.0000
vt 0.6108 0.3530 0.0000
vt 0.8036 0.3561 0.0000
vt 0.7265 0.4373 0.0000
vt 0.4585 0.4316 0.0000
vt 0.4567 0.5154 0.0000
vt 0.0092 0.0687 0.0000
vt 0.0103 0.0005 0.0000
vt 0.1486 0.0042 0.0000
vt 0.2105 0.0724 0.0000
vt 0.2009 0.1562 0.0000
vt 0.0081 0.1525 0.0000
vt 0.0070 0.2364 0.0000
vt 0.2751 0.2400 0.0000
vt 0.2129 0.7537 0.0000
vt 0.0925 0.7429 0.0000
vt 0.1454 0.6591 0.0000
vt 0.2893 0.6628 0.0000
vt 0.2542 0.6046 0.0000
vt 0.5058 0.6083 0.0000
vt 0.4536 0.5179 0.0000
vt 0.4797 0.5631 0.0000
vt 0.3073 0.5594 0.0000
vt 0.2287 0.5143 0.0000
vt 0.4547 0.4113 0.0000
vt 0.5410 0.6022 0.0000
vt 0.9166 0.7471 0.0000
vt 0.9166 0.7655 0.0000
vt 0.5420 0.3275 0.0000
vt 0.8307 0.0718 0.0000
vt 0.8307 0.0908 0.0000
vt 0.7707 0.9528 0.0000
vt 0.6976 0.8593 0.0000
vt 0.4831 0.7972 0.0000
vt 0.5107 0.7530 0.0000
vt 0.6832 0.7553 0.0000
vt 0.5384 0.7088 0.0000
vt 0.9995 0.2071 0.0000
vt 0.9982 0.2753 0.0000
vt 0.9964 0.3591 0.0000
vt 0.9945 0.4429 0.0000
vt 0.2869 0.0079 0.0000
vt 0.4118 0.0761 0.0000
vt 0.3937 0.1599 0.0000
vt 0.5431 0.2437 0.0000
vt 0.0005 0.7392 0.0000
vt 0.0016 0.6554 0.0000
vt 0.0027 0.6009 0.0000
vt 0.0038 0.5106 0.0000
vt 0.0329 0.9501 0.0000
vt 0.0135 0.9507 0.0000
vt 0.4648 0.1092 0.0000
vt 0.4647 0.1284 0.0000
vt 0.4091 0.1242 0.0000
vt 0.4092 0.1050 0.0000
vt 0.3997 0.1573 0.0000
vt 0.3996 0.1383 0.0000
vt 0.4810 0.1424 0.0000
vt 0.4810 0.1613 0.0000
vt 0.7285 0.1092 0.0000
vt 0.7285 0.1284 0.0000
vt 0.7138 0.1423 0.0000
vt 0.7139 0.1613 0.0000
# 142 texture coords

o Object019
g Object019
usemtl SueloEdificio1
f 1/1/1 2/2/2 3/3/3 
f 3/3/3 4/4/4 1/1/1 
f 5/5/5 6/6/5 7/7/6 
f 7/7/6 8/8/6 5/5/5 
f 7/9/7 6/10/8 9/11/9 
f 9/11/9 10/12/10 7/9/7 
f 11/13/11 12/14/11 13/15/12 
f 13/15/12 14/16/12 11/13/11 
f 8/17/13 15/18/14 16/19/15 
f 16/19/15 5/20/16 8/17/13 
f 17/21/17 18/22/17 19/23/17 
f 19/23/17 20/24/17 17/21/17 
f 14/25/18 13/26/18 21/27/19 
f 21/27/19 22/28/20 14/25/18 
f 22/29/20 21/30/19 23/31/21 
f 23/31/21 24/32/22 22/29/20 
f 25/33/23 26/34/24 27/35/24 
f 27/35/24 28/36/25 25/33/23 
f 25/33/23 28/36/25 2/37/2 
f 2/37/2 1/38/1 25/33/23 
f 20/24/26 19/23/26 29/39/27 
f 29/39/27 30/40/28 20/24/26 
f 30/41/28 29/42/27 31/43/29 
f 31/43/29 32/44/30 30/41/28 
f 32/45/30 31/46/29 33/47/31 
f 33/47/31 34/48/32 32/45/30 
f 34/49/32 33/50/31 4/51/4 
f 4/51/4 3/52/3 34/49/32 
f 35/53/6 36/54/6 37/55/33 
f 37/55/33 38/56/33 35/53/6 
f 38/56/33 37/55/33 39/57/34 
f 39/57/34 40/58/34 38/56/33 
f 41/59/35 42/60/35 6/6/5 
f 6/6/5 5/5/5 41/59/35 
f 43/61/36 44/62/36 45/63/37 
f 45/63/37 46/64/37 43/61/36 
f 46/64/37 45/63/37 47/65/6 
f 47/65/6 48/66/6 46/64/37 
f 48/66/6 47/65/6 49/67/6 
f 49/67/6 50/68/6 48/66/6 
f 50/68/6 49/67/6 8/8/6 
f 8/8/6 7/7/6 50/68/6 
f 37/69/38 36/70/39 11/71/40 
f 11/71/40 51/72/41 37/69/38 
f 39/73/42 37/69/38 51/72/41 
f 51/72/41 52/74/43 39/73/42 
f 42/75/8 53/76/44 9/11/9 
f 9/11/9 6/10/8 42/75/8 
f 19/77/45 18/78/46 54/79/47 
f 54/79/47 29/80/48 19/77/45 
f 31/81/49 29/80/48 54/79/47 
f 54/79/47 55/82/50 31/81/49 
f 31/81/49 55/82/50 56/83/51 
f 56/83/51 33/84/52 31/81/49 
f 33/84/52 56/83/51 10/12/10 
f 10/12/10 4/85/10 33/84/52 
f 45/86/53 44/87/54 17/88/55 
f 17/88/55 57/89/56 45/86/53 
f 45/86/53 57/89/56 58/90/57 
f 58/90/57 47/91/58 45/86/53 
f 49/92/59 47/91/58 58/90/57 
f 58/90/57 59/93/60 49/92/59 
f 49/92/59 59/93/60 15/18/14 
f 15/18/14 8/17/13 49/92/59 
f 13/94/61 12/95/62 60/96/63 
f 60/96/63 21/97/64 13/94/61 
f 21/97/64 60/96/63 61/98/65 
f 61/98/65 23/99/14 21/97/64 
f 28/100/66 27/101/67 62/102/68 
f 62/102/68 63/103/69 28/100/66 
f 2/104/70 28/100/66 63/103/69 
f 63/103/69 16/19/15 2/104/70 
f 1/105/71 4/85/10 10/12/10 
f 10/12/10 9/11/9 1/105/71 
f 36/106/72 35/107/72 12/14/11 
f 12/14/11 11/13/11 36/106/72 
f 15/18/14 3/108/14 2/104/70 
f 2/104/70 16/19/15 15/18/14 
f 44/109/17 43/110/17 18/22/17 
f 18/22/17 17/21/17 44/109/17 
f 14/111/73 22/112/74 51/72/41 
f 51/72/41 11/71/40 14/111/73 
f 22/112/74 24/113/10 52/74/43 
f 52/74/43 51/72/41 22/112/74 
f 52/74/43 24/113/10 26/114/75 
f 26/114/75 64/115/76 52/74/43 
f 53/76/44 25/116/77 1/105/71 
f 1/105/71 9/11/9 53/76/44 
f 18/78/46 43/117/78 46/118/79 
f 46/118/79 54/79/47 18/78/46 
f 46/118/79 48/119/80 55/82/50 
f 55/82/50 54/79/47 46/118/79 
f 55/82/50 48/119/80 50/120/81 
f 50/120/81 56/83/51 55/82/50 
f 50/120/81 7/9/7 10/12/10 
f 10/12/10 56/83/51 50/120/81 
f 20/121/82 30/122/83 57/89/56 
f 57/89/56 17/88/55 20/121/82 
f 57/89/56 30/122/83 32/123/84 
f 32/123/84 58/90/57 57/89/56 
f 32/123/84 34/124/85 59/93/60 
f 59/93/60 58/90/57 32/123/84 
f 34/124/85 3/108/14 15/18/14 
f 15/18/14 59/93/60 34/124/85 
f 12/95/62 35/125/86 38/126/87 
f 38/126/87 60/96/63 12/95/62 
f 60/96/63 38/126/87 40/127/88 
f 40/127/88 61/98/65 60/96/63 
f 41/128/16 5/20/16 16/19/15 
f 16/19/15 63/103/69 41/128/16 
f 26/34/24 24/129/22 23/130/21 
f 23/130/21 27/35/24 26/34/24 
f 27/101/67 23/99/14 61/98/65 
f 61/98/65 62/102/68 27/101/67 
f 25/116/77 53/76/44 64/115/76 
f 64/115/76 26/114/75 25/116/77 
f 61/131/89 52/132/89 64/133/89 
f 64/133/89 62/134/89 61/131/89 
f 62/135/90 64/136/90 53/137/90 
f 53/137/90 63/138/90 62/135/90 
f 52/132/91 61/131/91 40/139/91 
f 40/139/91 39/140/91 52/132/91 
f 63/138/92 53/137/92 42/141/92 
f 42/141/92 41/142/92 63/138/92 
# 124 faces

