# 3ds Max Wavefront OBJ Exporter v0.97b - (c)2007 guruware
# File Created: 18.04.2018 11:31:07

mtllib RuinaPuerta.mtl

#
# object Object016
#

v  -59.1992 -0.0000 224.9149
v  -59.2088 -0.0000 226.1491
v  -66.2132 -0.0000 226.1491
v  -66.1092 -0.0000 224.9149
v  -59.2088 13.1879 226.1491
v  -66.2132 11.2717 226.1491
v  -59.2088 23.9781 226.1491
v  -59.1992 23.9781 224.9149
v  -66.1092 20.4941 224.9149
v  -66.2132 20.4941 226.1491
v  -59.1992 13.1879 224.9149
v  -66.1092 11.2717 224.9149
v  -73.8508 -0.0000 226.1491
v  -73.7467 -0.0000 224.9149
v  -73.8508 9.6641 226.1491
v  -73.7467 17.5711 224.9149
v  -73.8508 17.5711 226.1491
v  -73.7467 9.6641 224.9149
v  -43.1491 23.9781 225.0397
v  -43.1587 23.9781 226.2739
v  -43.1587 13.1879 226.2739
v  -43.1491 13.1879 225.0397
v  -47.9254 22.5464 226.2368
v  -47.9158 22.5464 225.0026
v  -53.3464 25.1837 224.9604
v  -53.3560 25.1837 226.1946
v  -47.9254 13.9699 226.2368
v  -55.3100 12.4209 226.1946
v  -47.9158 13.9699 225.0026
v  -55.3004 12.4209 224.9604
v  -8.6700 -0.0000 219.0205
v  -7.3984 -0.0000 219.0205
v  -7.4003 -0.0000 229.8960
v  -8.6719 -0.0000 229.8960
v  -7.3984 9.1828 219.0205
v  -8.6700 9.1828 219.0205
v  -8.6719 13.3002 229.8960
v  -7.4003 13.3002 229.8960
v  -8.3861 -0.0000 235.1950
v  -9.6576 -0.0000 235.1950
v  -9.6576 9.1828 235.1950
v  -8.3861 9.1828 235.1950
v  -12.2055 -0.0000 208.1012
v  -7.8829 -0.0000 212.6328
v  -9.1544 -0.0000 212.6328
v  -13.4771 -0.0000 208.1012
v  -9.1544 13.3002 212.6328
v  -7.8829 13.3002 212.6328
v  -12.2055 13.3002 208.1012
v  -13.4771 13.3002 208.1012
v  -13.7215 -0.0000 206.9222
v  -16.6900 -0.0000 208.1209
v  -16.9699 -0.0000 206.8823
v  -16.6900 6.6828 208.1209
v  -13.7215 13.3002 206.9222
v  -16.9699 6.6828 206.8823
v  -13.3049 13.3002 240.9912
v  -18.6058 13.3002 241.0134
v  -18.6058 -0.0000 241.0134
v  -13.3049 -0.0000 240.9912
v  -12.8338 13.3002 239.5348
v  -18.3722 13.3002 239.6659
v  -12.8338 -0.0000 239.5348
v  -18.3722 -0.0000 239.6659
v  -20.0304 -0.0000 208.0824
v  -20.0343 -0.0000 206.8438
v  -20.0304 13.3002 208.0824
v  -20.0343 13.3002 206.8438
v  -26.5814 -0.0000 208.0824
v  -26.5853 -0.0000 206.8438
v  -26.5814 13.3002 208.0824
v  -26.5853 13.3002 206.8438
v  -33.5133 -0.0000 208.0824
v  -33.5172 -0.0000 206.8438
v  -33.5133 9.9621 208.0824
v  -33.5172 9.9621 206.8438
v  -39.2202 -0.0000 208.0824
v  -39.2241 -0.0000 206.8438
v  -39.2202 13.3002 208.0824
v  -39.2241 13.3002 206.8438
v  -41.4050 -0.0000 208.7303
v  -42.1186 -0.0000 207.7180
v  -41.4050 13.3002 208.7303
v  -42.1186 13.3002 207.7180
v  -42.9120 -0.0000 210.6064
v  -44.1462 -0.0000 210.5023
v  -42.9120 9.9097 210.6064
v  -44.1462 9.9097 210.5023
v  -42.9120 -0.0000 218.2630
v  -44.1462 -0.0000 218.1589
v  -42.9120 23.7465 218.2630
v  -44.1462 23.7465 218.1589
v  -42.9120 -0.0000 225.2674
v  -44.1462 -0.0000 225.1634
v  -42.9120 26.7805 225.2674
v  -44.1462 26.7805 225.1634
v  -42.9120 -0.0000 232.9050
v  -44.1462 -0.0000 232.8009
v  -42.9120 13.3002 232.9050
v  -44.1462 13.3002 232.8009
v  -42.8092 -0.0000 237.2648
v  -43.8827 -0.0000 238.0348
v  -42.8092 9.8671 237.2648
v  -43.8827 9.8671 238.0348
v  -41.4263 -0.0000 238.9880
v  -42.1335 -0.0000 240.0048
v  -41.4263 13.3002 238.9880
v  -42.1335 13.3002 240.0048
v  -38.4282 -0.0000 239.9454
v  -38.4244 -0.0000 241.1839
v  -38.4282 13.3002 239.9454
v  -38.4244 13.3002 241.1839
v  -30.3886 -0.0000 239.9454
v  -30.3848 -0.0000 241.1839
v  -30.3886 13.3002 239.9454
v  -30.3848 13.3002 241.1839
v  -24.5552 -0.0000 239.9901
v  -24.5514 -0.0000 241.2286
v  -24.5552 6.7108 239.9901
v  -24.5514 6.7108 241.2286
v  -11.5623 -0.0000 239.5348
v  -11.5623 13.3002 239.5348
# 122 vertices

vn 0.0000 -1.0000 -0.0000
vn -0.0000 0.0000 1.0000
vn -0.4502 0.8929 -0.0035
vn -0.4450 0.8947 -0.0375
vn 0.0000 0.0000 -1.0000
vn -0.3573 0.9335 -0.0301
vn 1.0000 0.0000 0.0078
vn -0.9965 0.0000 -0.0840
vn 0.4368 0.8995 0.0034
vn -0.0078 0.0000 1.0000
vn -0.0059 0.0009 1.0000
vn 0.2053 -0.9787 0.0016
vn 0.0057 0.0000 -1.0000
vn 0.0072 -0.0011 -1.0000
vn -0.2876 0.9577 -0.0022
vn -0.2017 0.9794 -0.0016
vn -0.0117 0.0000 0.9999
vn -0.0080 0.0012 1.0000
vn -0.1619 -0.9868 -0.0013
vn -0.1930 -0.9812 -0.0015
vn 0.0078 0.0000 -1.0000
vn 0.0113 -0.0017 -0.9999
vn 0.0000 0.9352 -0.3541
vn 1.0000 0.0000 0.0002
vn -1.0000 0.0000 -0.0002
vn -0.0000 0.7896 0.6136
vn 0.9831 0.0000 0.1829
vn -0.9831 0.0000 -0.1829
vn 0.0000 1.0000 -0.0000
vn 0.7236 0.0000 -0.6902
vn -0.7236 0.0000 0.6902
vn 0.0061 0.0000 1.0000
vn -0.8829 0.4323 0.1831
vn -0.8813 0.4285 0.1991
vn 0.0123 0.0000 -0.9999
vn 0.0042 0.0000 1.0000
vn -0.0237 0.0000 -0.9997
vn -0.0115 0.0000 0.9999
vn 0.8894 0.4107 -0.2009
vn 0.8927 0.4506 -0.0028
vn 0.0126 0.0000 -0.9999
vn -0.4339 0.9010 0.0014
vn 0.5049 0.8632 -0.0016
vn 0.2843 0.0000 0.9587
vn -0.2891 0.0000 -0.9573
vn 0.7796 0.0000 0.6263
vn -0.5891 0.6933 0.4152
vn -0.0724 0.5073 0.8587
vn -0.8084 0.0000 -0.5887
vn 1.0000 0.0000 0.0000
vn 0.0736 0.4829 -0.8726
vn -1.0000 0.0000 -0.0000
vn 0.0335 0.9171 -0.3972
vn -0.0732 0.4916 0.8677
vn 0.9997 0.0000 -0.0236
vn -0.0463 0.8342 0.5495
vn 0.4021 0.7239 0.5606
vn -0.9987 0.0000 0.0503
vn 0.7799 0.0000 -0.6259
vn -0.4633 0.6067 -0.6459
vn -0.6986 0.5253 -0.4859
vn -0.7478 0.0000 0.6640
vn 0.3042 0.0000 -0.9526
vn -0.3030 0.0000 0.9530
vn 0.0077 0.0000 -1.0000
vn 0.7488 0.6628 -0.0023
vn -0.0077 0.0000 1.0000
vn 0.0362 0.0000 0.9993
vn -0.7292 0.6843 0.0023
vn -0.7384 0.6621 -0.1280
vn -0.0524 0.0000 -0.9986
vn 0.0000 0.7254 -0.6883
vn 0.8070 0.0000 0.5906
vn -0.8070 0.0000 -0.5906
vn -0.0000 0.8405 0.5418
vn 0.9971 0.0000 -0.0756
vn -0.9971 0.0000 0.0756
vn 0.6139 0.0000 -0.7894
vn 0.6413 0.0000 0.7673
# 79 vertex normals

vt 0.2854 0.2262 0.0000
vt 0.2718 0.2261 0.0000
vt 0.2718 0.1490 0.0000
vt 0.2854 0.1501 0.0000
vt 0.6843 0.2334 0.0000
vt 0.5392 0.2334 0.0000
vt 0.5602 0.1563 0.0000
vt 0.6843 0.1563 0.0000
vt 0.1617 0.9729 0.0000
vt 0.1618 0.9865 0.0000
vt 0.0857 0.9865 0.0000
vt 0.0846 0.9729 0.0000
vt 0.5551 0.4231 0.0000
vt 0.6311 0.4020 0.0000
vt 0.6311 0.5035 0.0000
vt 0.5551 0.5419 0.0000
vt 0.2718 0.0649 0.0000
vt 0.2854 0.0661 0.0000
vt 0.5779 0.0723 0.0000
vt 0.6843 0.0723 0.0000
vt 0.0016 0.9865 0.0000
vt 0.0005 0.9729 0.0000
vt 0.7152 0.3843 0.0000
vt 0.7152 0.4714 0.0000
vt 0.9995 0.3131 0.0000
vt 0.9859 0.3131 0.0000
vt 0.9859 0.1679 0.0000
vt 0.9995 0.1679 0.0000
vt 0.3013 0.1520 0.0000
vt 0.3149 0.1520 0.0000
vt 0.3149 0.2584 0.0000
vt 0.3013 0.2584 0.0000
vt 0.4204 0.2334 0.0000
vt 0.4587 0.1563 0.0000
vt 0.5551 0.2779 0.0000
vt 0.6311 0.2779 0.0000
vt 0.4909 0.0723 0.0000
vt 0.7152 0.2779 0.0000
vt 0.6609 0.0349 0.0000
vt 0.6609 0.0485 0.0000
vt 0.5422 0.0485 0.0000
vt 0.5422 0.0349 0.0000
vt 0.3013 0.0649 0.0000
vt 0.3149 0.0649 0.0000
vt 0.2859 0.9720 0.0000
vt 0.2860 0.9856 0.0000
vt 0.2262 0.9860 0.0000
vt 0.2261 0.9724 0.0000
vt 0.5305 0.3576 0.0000
vt 0.4361 0.3576 0.0000
vt 0.4071 0.2979 0.0000
vt 0.5476 0.2764 0.0000
vt 0.2999 0.1892 0.0000
vt 0.2863 0.1891 0.0000
vt 0.2868 0.1078 0.0000
vt 0.3004 0.1080 0.0000
vt 0.4309 0.5261 0.0000
vt 0.4309 0.4317 0.0000
vt 0.5122 0.4147 0.0000
vt 0.4907 0.5552 0.0000
vt 0.3384 0.9716 0.0000
vt 0.3385 0.9851 0.0000
vt 0.5392 0.4101 0.0000
vt 0.4204 0.4101 0.0000
vt 0.2995 0.2417 0.0000
vt 0.2859 0.2416 0.0000
vt 0.2873 0.0649 0.0000
vt 0.3009 0.0650 0.0000
vt 0.3784 0.5419 0.0000
vt 0.3784 0.4231 0.0000
vt 0.3910 0.1345 0.0000
vt 0.4050 0.1345 0.0000
vt 0.4050 0.2543 0.0000
vt 0.3910 0.2543 0.0000
vt 0.6640 0.0171 0.0000
vt 0.6621 0.0310 0.0000
vt 0.5435 0.0144 0.0000
vt 0.5455 0.0005 0.0000
vt 0.9840 0.2311 0.0000
vt 0.8829 0.2311 0.0000
vt 0.8376 0.1114 0.0000
vt 0.9840 0.1114 0.0000
vt 0.8829 0.4747 0.0000
vt 0.9840 0.4747 0.0000
vt 0.9840 0.5944 0.0000
vt 0.8376 0.5944 0.0000
vt 0.3941 0.3126 0.0000
vt 0.3802 0.3126 0.0000
vt 0.4842 0.0170 0.0000
vt 0.4862 0.0031 0.0000
vt 0.8829 0.0531 0.0000
vt 0.9840 0.0531 0.0000
vt 0.9840 0.6527 0.0000
vt 0.8829 0.6527 0.0000
vt 0.3521 0.0143 0.0000
vt 0.3997 0.0642 0.0000
vt 0.3857 0.0642 0.0000
vt 0.3381 0.0143 0.0000
vt 0.7310 0.0461 0.0000
vt 0.7329 0.0322 0.0000
vt 0.7757 0.0863 0.0000
vt 0.7737 0.1001 0.0000
vt 0.8376 0.3014 0.0000
vt 0.9840 0.3014 0.0000
vt 0.9840 0.3513 0.0000
vt 0.8376 0.3513 0.0000
vt 0.9840 0.4044 0.0000
vt 0.8376 0.4044 0.0000
vt 0.8376 0.3545 0.0000
vt 0.9840 0.3545 0.0000
vt 0.3354 0.0014 0.0000
vt 0.3027 0.0146 0.0000
vt 0.2997 0.0009 0.0000
vt 0.6080 0.5219 0.0000
vt 0.7544 0.5219 0.0000
vt 0.6816 0.5573 0.0000
vt 0.6080 0.5573 0.0000
vt 0.2874 0.2422 0.0000
vt 0.3004 0.2422 0.0000
vt 0.3009 0.3150 0.0000
vt 0.2872 0.3150 0.0000
vt 0.2803 0.7066 0.0000
vt 0.2803 0.5602 0.0000
vt 0.3160 0.5602 0.0000
vt 0.3160 0.6337 0.0000
vt 0.0197 0.8137 0.0000
vt 0.0780 0.8137 0.0000
vt 0.0780 0.9601 0.0000
vt 0.0197 0.9601 0.0000
vt 0.4321 0.0450 0.0000
vt 0.4221 0.1051 0.0000
vt 0.4071 0.1056 0.0000
vt 0.4155 0.0479 0.0000
vt 0.9897 0.9888 0.0000
vt 0.9288 0.9888 0.0000
vt 0.9288 0.8424 0.0000
vt 0.9897 0.8424 0.0000
vt 0.3400 0.3764 0.0000
vt 0.2816 0.3766 0.0000
vt 0.2842 0.3618 0.0000
vt 0.3452 0.3604 0.0000
vt 0.2660 0.0141 0.0000
vt 0.2659 0.0005 0.0000
vt 0.7544 0.5940 0.0000
vt 0.6080 0.5940 0.0000
vt 0.4364 0.0016 0.0000
vt 0.4347 0.0154 0.0000
vt 0.3545 0.0141 0.0000
vt 0.3548 0.0005 0.0000
vt 0.3498 0.5602 0.0000
vt 0.3498 0.7066 0.0000
vt 0.1939 0.0141 0.0000
vt 0.1938 0.0005 0.0000
vt 0.7544 0.6662 0.0000
vt 0.6080 0.6662 0.0000
vt 0.3225 0.0649 0.0000
vt 0.3362 0.0650 0.0000
vt 0.3362 0.1371 0.0000
vt 0.3225 0.1370 0.0000
vt 0.4219 0.5602 0.0000
vt 0.4219 0.7066 0.0000
vt 0.1175 0.0141 0.0000
vt 0.1175 0.0005 0.0000
vt 0.7177 0.7425 0.0000
vt 0.6080 0.7425 0.0000
vt 0.3362 0.2134 0.0000
vt 0.3225 0.2133 0.0000
vt 0.4982 0.5602 0.0000
vt 0.4982 0.6698 0.0000
vt 0.0547 0.0141 0.0000
vt 0.0547 0.0005 0.0000
vt 0.7544 0.8053 0.0000
vt 0.6080 0.8053 0.0000
vt 0.3362 0.2762 0.0000
vt 0.3225 0.2762 0.0000
vt 0.5610 0.5602 0.0000
vt 0.5610 0.7066 0.0000
vt 0.0307 0.0213 0.0000
vt 0.0228 0.0101 0.0000
vt 0.7544 0.8293 0.0000
vt 0.6080 0.8293 0.0000
vt 0.3265 0.3081 0.0000
vt 0.3154 0.3002 0.0000
vt 0.5929 0.5602 0.0000
vt 0.5929 0.7066 0.0000
vt 0.0141 0.0419 0.0000
vt 0.0005 0.0408 0.0000
vt 0.3401 0.9889 0.0000
vt 0.3401 0.8425 0.0000
vt 0.3608 0.8798 0.0000
vt 0.3608 0.9889 0.0000
vt 0.3019 0.2617 0.0000
vt 0.3145 0.2588 0.0000
vt 0.3149 0.3118 0.0000
vt 0.3029 0.3072 0.0000
vt 0.0005 0.5296 0.0000
vt 0.0005 0.3832 0.0000
vt 0.0311 0.3832 0.0000
vt 0.0311 0.4923 0.0000
vt 0.0141 0.1262 0.0000
vt 0.0005 0.1251 0.0000
vt 0.4451 0.7275 0.0000
vt 0.4451 0.9889 0.0000
vt 0.9859 0.0053 0.0000
vt 0.9995 0.0053 0.0000
vt 0.9995 0.1576 0.0000
vt 0.9859 0.1576 0.0000
vt 0.1154 0.3832 0.0000
vt 0.1154 0.6446 0.0000
vt 0.0141 0.2033 0.0000
vt 0.0005 0.2022 0.0000
vt 0.5222 0.6941 0.0000
vt 0.5222 0.9889 0.0000
vt 0.0261 0.5363 0.0000
vt 0.0397 0.5363 0.0000
vt 0.0333 0.6200 0.0000
vt 0.0196 0.6200 0.0000
vt 0.1925 0.3832 0.0000
vt 0.1925 0.6780 0.0000
vt 0.0141 0.2874 0.0000
vt 0.0005 0.2862 0.0000
vt 0.6062 0.8425 0.0000
vt 0.6062 0.9889 0.0000
vt 0.0005 0.6742 0.0000
vt 0.0005 0.6606 0.0000
vt 0.1489 0.6606 0.0000
vt 0.1489 0.6742 0.0000
vt 0.2766 0.3832 0.0000
vt 0.2766 0.5296 0.0000
vt 0.0152 0.3354 0.0000
vt 0.0034 0.3439 0.0000
vt 0.6542 0.8803 0.0000
vt 0.6542 0.9889 0.0000
vt 0.0568 0.6088 0.0000
vt 0.0436 0.6099 0.0000
vt 0.0447 0.5410 0.0000
vt 0.0573 0.5477 0.0000
vt 0.3342 0.3832 0.0000
vt 0.3342 0.4918 0.0000
vt 0.0304 0.3543 0.0000
vt 0.0227 0.3655 0.0000
vt 0.6732 0.8425 0.0000
vt 0.6732 0.9889 0.0000
vt 0.0627 0.5802 0.0000
vt 0.0771 0.5793 0.0000
vt 0.0772 0.6269 0.0000
vt 0.0638 0.6251 0.0000
vt 0.3559 0.3832 0.0000
vt 0.3559 0.5296 0.0000
vt 0.0634 0.3649 0.0000
vt 0.0635 0.3785 0.0000
vt 0.6750 0.9888 0.0000
vt 0.6750 0.8424 0.0000
vt 0.7080 0.8424 0.0000
vt 0.7080 0.9888 0.0000
vt 0.5380 0.0708 0.0000
vt 0.5310 0.0591 0.0000
vt 0.5727 0.0490 0.0000
vt 0.5717 0.0626 0.0000
vt 0.3370 0.8137 0.0000
vt 0.3370 0.9601 0.0000
vt 0.2962 0.9601 0.0000
vt 0.2962 0.8137 0.0000
vt 0.1519 0.3649 0.0000
vt 0.1520 0.3785 0.0000
vt 0.7965 0.8424 0.0000
vt 0.7965 0.9888 0.0000
vt 0.6609 0.0551 0.0000
vt 0.6600 0.0687 0.0000
vt 0.2077 0.9601 0.0000
vt 0.2077 0.8137 0.0000
vt 0.2162 0.3654 0.0000
vt 0.2162 0.3790 0.0000
vt 0.8607 0.9149 0.0000
vt 0.8607 0.9888 0.0000
vt 0.0148 0.6331 0.0000
vt 0.0012 0.6331 0.0000
vt 0.0005 0.5363 0.0000
vt 0.0141 0.5363 0.0000
vt 0.1435 0.9601 0.0000
vt 0.1435 0.8862 0.0000
vt 0.7788 0.0284 0.0000
vt 0.6798 0.0189 0.0000
vt 0.6806 0.0053 0.0000
vt 0.7780 0.0134 0.0000
vt 0.3592 0.3604 0.0000
vt 0.4340 0.0311 0.0000
vt 0.8376 0.0053 0.0000
vt 0.9840 0.0053 0.0000
vt 0.9840 0.7005 0.0000
vt 0.8376 0.7005 0.0000
vt 0.2636 0.5602 0.0000
vt 0.2636 0.7066 0.0000
vt 0.7862 0.1046 0.0000
vt 0.0005 0.8137 0.0000
vt 0.0005 0.9601 0.0000
# 296 texture coords

o Object016
g Object016
usemtl RuinaPuerta
f 1/1/1 2/2/1 3/3/1 
f 3/3/1 4/4/1 1/1/1 
f 2/5/2 5/6/2 6/7/2 
f 6/7/2 3/8/2 2/5/2 
f 7/9/3 8/10/3 9/11/3 
f 9/11/4 10/12/4 7/9/4 
f 11/13/5 12/14/5 9/15/5 
f 9/15/5 8/16/5 11/13/5 
f 4/4/1 3/3/1 13/17/1 
f 13/17/1 14/18/1 4/4/1 
f 3/8/2 6/7/2 15/19/2 
f 15/19/2 13/20/2 3/8/2 
f 10/12/6 9/11/6 16/21/6 
f 16/21/6 17/22/6 10/12/6 
f 12/14/5 18/23/5 16/24/5 
f 16/24/5 9/15/5 12/14/5 
f 11/25/7 5/26/7 2/27/7 
f 2/27/7 1/28/7 11/25/7 
f 15/29/8 18/30/8 14/31/8 
f 14/31/8 13/32/8 15/29/8 
f 5/6/2 7/33/2 10/34/2 
f 10/34/2 6/7/2 5/6/2 
f 1/35/5 4/36/5 12/14/5 
f 12/14/5 11/13/5 1/35/5 
f 6/7/2 10/34/2 17/37/2 
f 17/37/2 15/19/2 6/7/2 
f 4/36/5 14/38/5 18/23/5 
f 18/23/5 12/14/5 4/36/5 
f 19/39/7 20/40/7 21/41/7 
f 21/41/7 22/42/7 19/39/7 
f 17/43/8 16/44/8 18/30/8 
f 18/30/8 15/29/8 17/43/8 
f 23/45/9 24/46/9 25/47/9 
f 25/47/9 26/48/9 23/45/9 
f 27/49/10 23/50/10 26/51/10 
f 26/51/11 28/52/11 27/49/11 
f 29/53/12 27/54/12 28/55/12 
f 28/55/12 30/56/12 29/53/12 
f 24/57/13 29/58/13 30/59/13 
f 30/59/14 25/60/14 24/57/14 
f 20/61/15 19/62/15 24/46/15 
f 24/46/15 23/45/15 20/61/15 
f 8/10/16 7/9/16 26/48/16 
f 26/48/16 25/47/16 8/10/16 
f 21/63/10 20/64/10 23/50/10 
f 23/50/10 27/49/10 21/63/10 
f 7/33/17 5/6/17 28/52/17 
f 28/52/18 26/51/18 7/33/18 
f 22/65/19 21/66/19 27/54/19 
f 27/54/19 29/53/19 22/65/19 
f 5/67/20 11/68/20 30/56/20 
f 30/56/20 28/55/20 5/67/20 
f 19/69/21 22/70/21 29/58/21 
f 29/58/21 24/57/21 19/69/21 
f 11/13/21 8/16/21 25/60/21 
f 25/60/22 30/59/22 11/13/22 
f 31/71/1 32/72/1 33/73/1 
f 33/73/1 34/74/1 31/71/1 
f 35/75/23 36/76/23 37/77/23 
f 37/77/23 38/78/23 35/75/23 
f 32/79/24 35/80/24 38/81/24 
f 38/81/24 33/82/24 32/79/24 
f 36/83/25 31/84/25 34/85/25 
f 34/85/25 37/86/25 36/83/25 
f 34/74/1 33/73/1 39/87/1 
f 39/87/1 40/88/1 34/74/1 
f 37/77/26 41/89/26 42/90/26 
f 42/90/26 38/78/26 37/77/26 
f 38/81/27 42/91/27 39/92/27 
f 39/92/27 33/82/27 38/81/27 
f 34/85/28 40/93/28 41/94/28 
f 41/94/28 37/86/28 34/85/28 
f 43/95/1 44/96/1 45/97/1 
f 45/97/1 46/98/1 43/95/1 
f 47/99/29 48/100/29 49/101/29 
f 49/101/29 50/102/29 47/99/29 
f 48/103/30 44/104/30 43/105/30 
f 43/105/30 49/106/30 48/103/30 
f 45/107/31 47/108/31 50/109/31 
f 50/109/31 46/110/31 45/107/31 
f 51/111/1 46/98/1 52/112/1 
f 52/112/1 53/113/1 51/111/1 
f 46/114/32 50/115/32 54/116/32 
f 54/116/32 52/117/32 46/114/32 
f 50/118/33 55/119/33 56/120/33 
f 56/120/34 54/121/34 50/118/34 
f 55/122/35 51/123/35 53/124/35 
f 53/124/35 56/125/35 55/122/35 
f 57/126/36 58/127/36 59/128/36 
f 59/128/36 60/129/36 57/126/36 
f 61/130/29 62/131/29 58/132/29 
f 58/132/29 57/133/29 61/130/29 
f 63/134/37 64/135/37 62/136/37 
f 62/136/37 61/137/37 63/134/37 
f 60/138/1 59/139/1 64/140/1 
f 64/140/1 63/141/1 60/138/1 
f 53/113/1 52/112/1 65/142/1 
f 65/142/1 66/143/1 53/113/1 
f 52/117/38 54/116/38 67/144/38 
f 67/144/38 65/145/38 52/117/38 
f 54/146/39 56/147/39 68/148/39 
f 68/148/40 67/149/40 54/146/40 
f 56/125/41 53/124/41 66/150/41 
f 66/150/41 68/151/41 56/125/41 
f 66/143/1 65/142/1 69/152/1 
f 69/152/1 70/153/1 66/143/1 
f 65/145/2 67/144/2 71/154/2 
f 71/154/2 69/155/2 65/145/2 
f 67/156/29 68/157/29 72/158/29 
f 72/158/29 71/159/29 67/156/29 
f 68/151/5 66/150/5 70/160/5 
f 70/160/5 72/161/5 68/151/5 
f 70/153/1 69/152/1 73/162/1 
f 73/162/1 74/163/1 70/153/1 
f 69/155/2 71/154/2 75/164/2 
f 75/164/2 73/165/2 69/155/2 
f 71/159/42 72/158/42 76/166/42 
f 76/166/42 75/167/42 71/159/42 
f 72/161/5 70/160/5 74/168/5 
f 74/168/5 76/169/5 72/161/5 
f 74/163/1 73/162/1 77/170/1 
f 77/170/1 78/171/1 74/163/1 
f 73/165/2 75/164/2 79/172/2 
f 79/172/2 77/173/2 73/165/2 
f 75/167/43 76/166/43 80/174/43 
f 80/174/43 79/175/43 75/167/43 
f 76/169/5 74/168/5 78/176/5 
f 78/176/5 80/177/5 76/169/5 
f 78/171/1 77/170/1 81/178/1 
f 81/178/1 82/179/1 78/171/1 
f 77/173/44 79/172/44 83/180/44 
f 83/180/44 81/181/44 77/173/44 
f 79/175/29 80/174/29 84/182/29 
f 84/182/29 83/183/29 79/175/29 
f 80/177/45 78/176/45 82/184/45 
f 82/184/45 84/185/45 80/177/45 
f 82/179/1 81/178/1 85/186/1 
f 85/186/1 86/187/1 82/179/1 
f 81/188/46 83/189/46 87/190/46 
f 87/190/46 85/191/46 81/188/46 
f 83/192/47 84/193/47 88/194/47 
f 88/194/48 87/195/48 83/192/48 
f 84/196/49 82/197/49 86/198/49 
f 86/198/49 88/199/49 84/196/49 
f 86/187/1 85/186/1 89/200/1 
f 89/200/1 90/201/1 86/187/1 
f 85/191/50 87/190/50 91/202/50 
f 91/202/50 89/203/50 85/191/50 
f 87/204/51 88/205/51 92/206/51 
f 92/206/51 91/207/51 87/204/51 
f 88/199/52 86/198/52 90/208/52 
f 90/208/52 92/209/52 88/199/52 
f 90/201/1 89/200/1 93/210/1 
f 93/210/1 94/211/1 90/201/1 
f 89/203/50 91/202/50 95/212/50 
f 95/212/50 93/213/50 89/203/50 
f 91/214/53 92/215/53 96/216/53 
f 96/216/53 95/217/53 91/214/53 
f 92/209/52 90/208/52 94/218/52 
f 94/218/52 96/219/52 92/209/52 
f 94/211/1 93/210/1 97/220/1 
f 97/220/1 98/221/1 94/211/1 
f 93/213/50 95/212/50 99/222/50 
f 99/222/50 97/223/50 93/213/50 
f 95/224/54 96/225/54 100/226/54 
f 100/226/54 99/227/54 95/224/54 
f 96/219/52 94/218/52 98/228/52 
f 98/228/52 100/229/52 96/219/52 
f 98/221/1 97/220/1 101/230/1 
f 101/230/1 102/231/1 98/221/1 
f 97/223/55 99/222/55 103/232/55 
f 103/232/55 101/233/55 97/223/55 
f 99/234/56 100/235/56 104/236/56 
f 104/236/57 103/237/57 99/234/57 
f 100/229/58 98/228/58 102/238/58 
f 102/238/58 104/239/58 100/229/58 
f 102/231/1 101/230/1 105/240/1 
f 105/240/1 106/241/1 102/231/1 
f 101/233/59 103/232/59 107/242/59 
f 107/242/59 105/243/59 101/233/59 
f 103/244/60 104/245/60 108/246/60 
f 108/246/61 107/247/61 103/244/61 
f 104/239/62 102/238/62 106/248/62 
f 106/248/62 108/249/62 104/239/62 
f 106/241/1 105/240/1 109/250/1 
f 109/250/1 110/251/1 106/241/1 
f 105/252/63 107/253/63 111/254/63 
f 111/254/63 109/255/63 105/252/63 
f 107/256/29 108/257/29 112/258/29 
f 112/258/29 111/259/29 107/256/29 
f 108/260/64 106/261/64 110/262/64 
f 110/262/64 112/263/64 108/260/64 
f 110/251/1 109/250/1 113/264/1 
f 113/264/1 114/265/1 110/251/1 
f 109/255/5 111/254/5 115/266/5 
f 115/266/5 113/267/5 109/255/5 
f 111/259/29 112/258/29 116/268/29 
f 116/268/29 115/269/29 111/259/29 
f 112/263/2 110/262/2 114/270/2 
f 114/270/2 116/271/2 112/263/2 
f 114/265/1 113/264/1 117/272/1 
f 117/272/1 118/273/1 114/265/1 
f 113/267/65 115/266/65 119/274/65 
f 119/274/65 117/275/65 113/267/65 
f 115/276/66 116/277/66 120/278/66 
f 120/278/66 119/279/66 115/276/66 
f 116/271/67 114/270/67 118/280/67 
f 118/280/67 120/281/67 116/271/67 
f 120/281/68 118/280/68 59/128/68 
f 59/128/68 58/127/68 120/281/68 
f 62/282/69 119/283/69 120/284/69 
f 120/284/70 58/285/70 62/282/70 
f 117/275/71 119/274/71 62/136/71 
f 62/136/71 64/135/71 117/275/71 
f 118/273/1 117/272/1 64/140/1 
f 64/140/1 59/139/1 118/273/1 
f 121/286/1 63/141/1 40/88/1 
f 40/88/1 39/87/1 121/286/1 
f 41/89/72 61/130/72 122/287/72 
f 122/287/72 42/90/72 41/89/72 
f 122/288/73 121/289/73 39/92/73 
f 39/92/73 42/91/73 122/288/73 
f 63/290/74 61/291/74 41/94/74 
f 41/94/74 40/93/74 63/290/74 
f 44/96/1 32/72/1 31/71/1 
f 31/71/1 45/97/1 44/96/1 
f 36/76/75 35/75/75 48/100/75 
f 48/100/75 47/99/75 36/76/75 
f 35/80/76 32/79/76 44/104/76 
f 44/104/76 48/103/76 35/80/76 
f 31/84/77 36/83/77 47/108/77 
f 47/108/77 45/107/77 31/84/77 
f 43/292/78 51/123/78 55/122/78 
f 55/122/78 49/293/78 43/292/78 
f 50/102/29 49/101/29 55/294/29 
f 51/111/1 43/95/1 46/98/1 
f 122/295/79 57/126/79 60/129/79 
f 60/129/79 121/296/79 122/295/79 
f 57/133/29 122/287/29 61/130/29 
f 63/141/1 121/286/1 60/138/1 
# 240 faces

