# 3ds Max Wavefront OBJ Exporter v0.97b - (c)2007 guruware
# File Created: 19.03.2018 16:43:36

mtllib suelo.mtl

#
# object suelo_t_2
#

v  12.3838 1.5621 -129.0517
v  7.0920 1.5621 -99.3533
v  38.8965 1.5621 -95.1447
v  64.4648 1.5621 -104.8025
v  41.2740 1.5621 -130.9805
v  125.1017 1.5621 -55.9439
v  89.7086 1.5621 -61.2368
v  88.9694 1.5621 -60.5509
v  90.0364 1.5621 -46.0892
v  90.8683 1.5621 -45.5192
v  4.7292 1.5621 -115.5618
v  63.5635 1.5621 -131.2706
v  89.4695 1.5621 -120.1133
v  80.7603 1.5621 -155.2826
v  50.8895 1.5621 -79.0945
v  6.1022 1.5621 -153.5992
v  47.8796 1.5621 -153.6632
v  8.0315 1.5621 -80.1829
v  8.1115 1.5621 -79.7936
v  35.8511 1.5621 -78.5206
v  -11.7657 1.5621 -99.2407
v  -11.5327 1.5621 -98.7010
v  -13.2600 1.5621 -75.5887
v  -77.1854 1.5621 -47.5613
v  -46.0048 1.5621 -41.8735
v  -35.1109 1.5621 23.5558
v  -7.3656 1.5621 19.7843
v  -9.8756 1.5621 -2.1836
v  -35.8368 1.5621 -12.2605
v  -67.9866 1.5621 6.9006
v  -54.0482 1.5621 -17.8464
v  -27.1509 1.5621 -74.7846
v  -28.7643 1.5621 -74.7233
v  -44.3346 1.5621 -74.4421
v  -4.5992 1.5621 -73.2545
v  -4.7477 1.5621 -73.8994
v  -101.6517 1.5621 67.8234
v  -98.8996 1.5621 27.1528
v  -123.3914 1.5621 42.7369
v  54.1620 1.5621 113.5809
v  37.0200 1.5621 67.3235
v  18.5520 1.5621 97.2892
v  111.1757 1.5621 114.8275
v  76.9970 1.5621 113.2133
v  90.5867 1.5621 137.5130
v  20.7887 1.5621 17.0156
v  122.8660 1.5621 -44.6098
v  90.9031 1.5621 -45.2674
v  90.4786 1.5621 -44.5730
v  100.6338 1.5621 -25.7074
v  -98.2247 1.5621 92.1526
v  -84.7653 1.5621 134.9861
v  -67.9208 1.5621 93.3673
v  -125.1017 1.5621 115.2672
v  -113.6194 1.5621 137.9390
v  97.0056 1.5621 -0.3184
v  74.2242 1.5621 9.4730
v  96.9836 1.5621 33.5530
v  87.2765 1.5621 -88.4982
v  96.8597 1.5621 -80.8132
v  89.5041 1.5621 -44.7347
v  70.1174 1.5621 -26.7391
v  85.7138 1.5621 -79.9853
v  85.6020 1.5621 -79.5117
v  7.2961 1.5621 -80.6380
v  -2.8485 1.5621 -30.5197
v  -12.3718 1.5621 -97.8660
v  -12.9016 1.5621 -99.2525
v  -27.4198 1.5621 -114.2289
v  -27.6980 1.5621 -114.0527
v  -3.9351 1.5621 -72.9351
v  -76.9985 1.5621 -0.7686
v  -27.1746 1.5621 -114.8272
v  46.8420 1.5621 -6.7183
v  36.3074 1.5621 -44.8245
v  17.0191 1.5621 -30.4352
v  55.5717 1.5621 21.6052
v  22.8896 1.5621 37.9808
v  24.7945 1.5621 120.4624
v  -72.5023 1.5621 60.7529
v  -29.9424 1.5621 86.5036
v  -88.0971 1.5621 -4.9602
v  -71.6547 1.5621 37.2529
v  13.2747 1.5621 75.5581
v  -123.7239 1.5621 70.5886
v  -122.9365 1.5621 71.2670
v  -122.6458 1.5621 14.0850
v  -123.1072 1.5621 71.9056
v  -15.7478 1.5621 62.0617
v  -41.1203 1.5621 48.7901
v  54.0135 1.5621 56.3590
v  69.4487 1.5621 80.1482
v  102.2874 1.5621 155.2826
v  26.3801 1.5621 143.7247
v  -2.0403 1.5621 136.2091
v  -6.1586 1.5621 104.0817
v  42.2036 1.5621 137.1057
v  42.3455 1.5621 137.5619
v  91.6512 1.5621 84.9612
v  -41.4019 1.5621 113.5639
v  -123.7587 1.5621 72.2030
v  -63.1912 1.5621 136.1446
v  94.3291 1.5621 59.9078
v  51.6967 1.5621 -79.1142
v  84.1014 1.5621 -79.9057
v  85.1236 1.5621 -80.7037
v  50.4948 1.5621 -45.6086
v  50.8265 1.5621 -45.6984
v  102.5917 1.5621 -84.6671
v  50.0630 1.5621 -44.8137
v  51.4051 1.5621 -44.2903
v  17.6785 1.5621 -44.8797
v  16.8793 1.5621 -44.0748
v  60.2701 1.5621 -44.5521
v  51.6520 1.5621 -44.7045
v  61.4247 1.5621 -43.6466
v  -23.2615 1.5621 136.8647
v  -118.1626 1.5621 -6.0730
v  -121.1482 1.5621 -5.1957
v  -122.2130 1.5621 -2.2718
v  40.7901 1.5621 137.8668
v  41.9141 1.5621 136.8482
v  7.7696 -7.5994 -78.1614
v  33.6923 -7.5994 -77.4680
v  -9.7993 -7.5994 -95.9993
v  6.5470 -7.5994 -96.1314
v  -11.4528 -7.5994 -74.7730
v  -10.6389 -7.5994 -95.1860
v  6.8601 -7.5994 -79.0785
v  34.1117 -7.5994 -46.4932
v  -1.8820 -7.5994 -33.3436
v  -2.8770 -7.5994 -72.1825
v  16.2541 -7.5994 -45.6528
v  16.3811 -7.5994 -33.2660
v  -3.7762 -7.5994 -73.2495
v  17.1383 -7.5994 -46.5435
v  -27.9813 1.5621 -114.0012
v  -27.9575 1.5621 -75.5453
v  -72.2432 1.5621 -74.3112
v  -75.2413 1.5621 -73.3109
v  -76.3385 1.5621 -70.3468
v  -28.1179 2.2441 -115.2188
v  -28.7788 1.5621 -114.6792
v  85.0787 1.5621 -79.1361
v  88.7399 1.5621 -62.1455
v  89.2888 1.5621 -45.2584
v  61.8625 1.5621 -44.3902
v  83.2583 6.8539 -77.1412
v  86.3351 6.8575 -61.9886
v  54.2401 6.8376 -48.9956
v  52.8519 6.8806 -77.2103
v  61.0913 6.8499 -46.5341
v  55.0921 6.8499 -47.9660
v  86.3119 6.8572 -61.2459
v  87.6288 6.8568 -48.0210
v  86.8248 6.8421 -47.1332
v  62.6938 6.8421 -46.3692
v  62.6842 7.5994 -47.0473
v  86.7432 7.5994 -47.9573
v  77.4005 7.5994 -56.0143
v  53.5520 7.2820 -76.4747
v  55.0981 7.5994 -48.9878
v  68.9389 7.5994 -63.3113
v  85.6308 7.5994 -61.0293
v  85.4308 7.5994 -62.0637
v  85.4296 7.5994 -62.0796
v  82.2637 7.5994 -77.1006
v  82.2360 6.8405 -77.9426
v  53.6893 6.8405 -77.2453
v  41.5670 1.5621 138.3696
# 170 vertices

vn 0.0000 1.0000 -0.0000
vn 0.0000 -1.0000 -0.0000
vn 0.0158 0.9851 0.1711
vn 1.0000 0.0000 -0.0000
vn -0.0310 0.1338 0.9905
vn -0.0451 0.1769 0.9832
vn -0.0413 0.1652 0.9854
vn -0.0265 0.1203 0.9924
vn 0.0165 0.3168 0.9483
vn 0.0335 0.2885 0.9569
vn 0.0258 0.3014 0.9532
vn 0.0076 0.3314 0.9435
vn 0.9797 0.1967 0.0391
vn -0.9984 0.0545 0.0160
vn -0.9979 0.0632 0.0109
vn -0.9981 0.0597 0.0130
vn -0.9985 0.0506 0.0183
vn -0.9729 0.2308 0.0132
vn 0.9933 0.1126 -0.0254
vn -0.9977 0.0663 0.0102
vn -0.7104 0.1507 0.6875
vn -0.7111 0.1507 0.6867
vn -0.7027 0.1503 0.6954
vn -0.7020 0.1502 0.6961
vn 0.6669 0.3227 0.6716
vn 0.6677 0.3226 0.6709
vn 0.6588 0.3247 0.6786
vn 0.6581 0.3248 0.6793
vn 0.0754 0.5728 0.8162
vn 0.0442 0.8765 0.4793
vn 0.8989 0.4093 -0.1564
vn 0.7487 0.4440 -0.4923
vn 0.6983 0.5968 -0.3952
vn 0.8363 0.5383 -0.1040
vn -0.9293 0.3672 0.0391
vn -0.7079 0.6416 0.2954
vn -0.7163 0.6646 0.2126
vn -0.7135 0.6913 -0.1146
vn -0.3993 0.6232 0.6725
vn -0.0524 0.3577 0.9324
vn -0.1190 0.5907 0.7981
vn -0.3439 0.7049 0.6203
vn 0.9012 0.4221 -0.0982
vn 0.8483 0.5283 -0.0374
vn 0.8116 0.5800 -0.0704
vn 0.9173 0.3924 -0.0677
vn -0.0377 0.3559 0.9338
vn 0.0297 0.3467 0.9375
vn 0.0286 0.5304 0.8473
vn -0.0259 0.5157 0.8564
vn -0.0113 0.9999 -0.0109
vn -0.0050 1.0000 -0.0048
vn -0.0056 1.0000 -0.0055
vn 0.6328 0.7741 0.0208
vn 0.6331 0.7738 0.0201
vn -0.6808 -0.7289 0.0721
vn -0.6699 -0.7408 0.0494
vn -0.0050 1.0000 -0.0049
vn -0.4954 0.7854 0.3710
vn 0.5162 0.5380 -0.6665
vn 0.5531 0.7567 -0.3486
vn 0.6123 0.5552 0.5628
vn 0.5686 0.6330 0.5254
vn 0.6105 0.5579 0.5621
vn -0.0452 0.6908 0.7216
vn 0.7099 0.6911 -0.1360
vn 0.5510 0.4549 -0.6996
vn 0.6417 0.5032 0.5789
vn 0.6424 0.5031 0.5781
vn 0.6334 0.7630 -0.1290
vn -0.2894 0.9249 -0.2465
vn -0.0023 0.8662 -0.4998
vn 0.0255 0.7373 0.6750
vn 0.7263 0.6846 -0.0618
vn 0.6430 0.7632 -0.0635
vn -0.0164 0.7457 -0.6661
vn -0.0163 0.7430 -0.6691
vn 0.0029 0.1785 -0.9839
vn 0.0041 0.2949 -0.9555
vn -0.6997 0.1674 -0.6946
vn -0.0230 0.3414 -0.9397
vn -0.0229 0.3414 -0.9397
vn 0.1944 -0.0489 -0.9797
vn 0.7642 0.0354 -0.6440
# 84 vertex normals

vt 0.8993 0.3814 0.0000
vt 0.8021 0.3918 0.0000
vt 0.7956 0.2880 0.0000
vt 0.8326 0.2075 0.0000
vt 0.9120 0.2884 0.0000
vt 0.6884 0.0005 0.0000
vt 0.6975 0.1161 0.0000
vt 0.6951 0.1183 0.0000
vt 0.6486 0.1116 0.0000
vt 0.6470 0.1088 0.0000
vt 0.8539 0.4031 0.0000
vt 0.9180 0.2164 0.0000
vt 0.8878 0.1302 0.0000
vt 0.9995 0.1663 0.0000
vt 0.7465 0.2456 0.0000
vt 0.9772 0.4072 0.0000
vt 0.9868 0.2722 0.0000
vt 0.7403 0.3844 0.0000
vt 0.7391 0.3840 0.0000
vt 0.7412 0.2941 0.0000
vt 0.7974 0.4527 0.0000
vt 0.7957 0.4518 0.0000
vt 0.7206 0.4522 0.0000
vt 0.6156 0.6525 0.0000
vt 0.6043 0.5504 0.0000
vt 0.3952 0.5004 0.0000
vt 0.4137 0.4116 0.0000
vt 0.4841 0.4246 0.0000
vt 0.5108 0.5108 0.0000
vt 0.4416 0.6104 0.0000
vt 0.5248 0.5710 0.0000
vt 0.7149 0.4969 0.0000
vt 0.7143 0.5021 0.0000
vt 0.7099 0.5524 0.0000
vt 0.7151 0.4237 0.0000
vt 0.7171 0.4243 0.0000
vt 0.2371 0.7055 0.0000
vt 0.3692 0.7058 0.0000
vt 0.3133 0.7814 0.0000
vt 0.1244 0.1915 0.0000
vt 0.2701 0.2574 0.0000
vt 0.1690 0.3103 0.0000
vt 0.1333 0.0069 0.0000
vt 0.1308 0.1178 0.0000
vt 0.0553 0.0683 0.0000
vt 0.4290 0.3212 0.0000
vt 0.6513 0.0052 0.0000
vt 0.6462 0.1086 0.0000
vt 0.6438 0.1098 0.0000
vt 0.5852 0.0728 0.0000
vt 0.1592 0.6889 0.0000
vt 0.0238 0.6357 0.0000
vt 0.1622 0.5907 0.0000
vt 0.0784 0.7706 0.0000
vt 0.0078 0.7283 0.0000
vt 0.5023 0.0787 0.0000
vt 0.4655 0.1502 0.0000
vt 0.3928 0.0712 0.0000
vt 0.7851 0.1301 0.0000
vt 0.7624 0.0974 0.0000
vt 0.6441 0.1130 0.0000
vt 0.5816 0.1716 0.0000
vt 0.7572 0.1333 0.0000
vt 0.7557 0.1335 0.0000
vt 0.7416 0.3869 0.0000
vt 0.5773 0.4083 0.0000
vt 0.7929 0.4543 0.0000
vt 0.7972 0.4564 0.0000
vt 0.8423 0.5067 0.0000
vt 0.8417 0.5075 0.0000
vt 0.7142 0.4214 0.0000
vt 0.4644 0.6413 0.0000
vt 0.8443 0.5060 0.0000
vt 0.5116 0.2423 0.0000
vt 0.6324 0.2850 0.0000
vt 0.5815 0.3441 0.0000
vt 0.4220 0.2077 0.0000
vt 0.3617 0.3097 0.0000
vt 0.0955 0.2849 0.0000
vt 0.2665 0.6129 0.0000
vt 0.1929 0.4695 0.0000
vt 0.4754 0.6781 0.0000
vt 0.3427 0.6154 0.0000
vt 0.2381 0.3322 0.0000
vt 0.2232 0.7762 0.0000
vt 0.2212 0.7735 0.0000
vt 0.4061 0.7855 0.0000
vt 0.2191 0.7739 0.0000
vt 0.2751 0.4291 0.0000
vt 0.3123 0.5141 0.0000
vt 0.3093 0.2049 0.0000
vt 0.2359 0.1496 0.0000
vt 0.0005 0.0265 0.0000
vt 0.0207 0.2745 0.0000
vt 0.0386 0.3680 0.0000
vt 0.1415 0.3886 0.0000
vt 0.0457 0.2248 0.0000
vt 0.0442 0.2243 0.0000
vt 0.2254 0.0768 0.0000
vt 0.1029 0.5004 0.0000
vt 0.2180 0.7759 0.0000
vt 0.0250 0.5657 0.0000
vt 0.3070 0.0738 0.0000
vt 0.7467 0.2430 0.0000
vt 0.7566 0.1384 0.0000
vt 0.7594 0.1353 0.0000
vt 0.6382 0.2393 0.0000
vt 0.6385 0.2383 0.0000
vt 0.7762 0.0798 0.0000
vt 0.6355 0.2405 0.0000
vt 0.6341 0.2361 0.0000
vt 0.6284 0.3452 0.0000
vt 0.6256 0.3476 0.0000
vt 0.6369 0.2075 0.0000
vt 0.6355 0.2354 0.0000
vt 0.6343 0.2035 0.0000
vt 0.0317 0.4365 0.0000
vt 0.4722 0.7756 0.0000
vt 0.4687 0.7850 0.0000
vt 0.4590 0.7878 0.0000
vt 0.0429 0.2292 0.0000
vt 0.0464 0.2258 0.0000
vt 0.5069 0.7515 0.0000
vt 0.5069 0.6614 0.0000
vt 0.5367 0.6603 0.0000
vt 0.5367 0.7445 0.0000
vt 0.8601 0.0005 0.0000
vt 0.9209 0.0007 0.0000
vt 0.9154 0.0319 0.0000
vt 0.8621 0.0322 0.0000
vt 0.7114 0.0005 0.0000
vt 0.7836 0.0005 0.0000
vt 0.7860 0.0308 0.0000
vt 0.7198 0.0308 0.0000
vt 0.7954 0.0005 0.0000
vt 0.8561 0.0005 0.0000
vt 0.8456 0.0302 0.0000
vt 0.7904 0.0302 0.0000
vt 0.7764 0.6347 0.0000
vt 0.7764 0.5255 0.0000
vt 0.8069 0.5288 0.0000
vt 0.8069 0.6292 0.0000
vt 0.7160 0.6445 0.0000
vt 0.7160 0.5069 0.0000
vt 0.7457 0.5161 0.0000
vt 0.7457 0.6420 0.0000
vt 0.9047 0.0813 0.0000
vt 0.8605 0.0813 0.0000
vt 0.8554 0.0516 0.0000
vt 0.8955 0.0516 0.0000
vt 0.0634 0.9800 0.0000
vt 0.0105 0.9796 0.0000
vt 0.0078 0.9769 0.0000
vt 0.0645 0.9248 0.0000
vt 0.0051 0.9108 0.0000
vt 0.0300 0.9059 0.0000
vt 0.0329 0.9025 0.0000
vt 0.0361 0.7767 0.0000
vt 0.0953 0.7764 0.0000
vt 0.0949 0.8165 0.0000
vt 0.0977 0.8194 0.0000
vt 0.1527 0.8193 0.0000
vt 0.1513 0.9196 0.0000
vt 0.0674 0.9218 0.0000
vt 0.8415 0.5084 0.0000
vt 0.7172 0.4997 0.0000
vt 0.7032 0.6425 0.0000
vt 0.6993 0.6520 0.0000
vt 0.6894 0.6549 0.0000
vt 0.2839 0.7849 0.0000
vt 0.2839 0.7811 0.0000
vt 0.3139 0.7837 0.0000
vt 0.3139 0.7879 0.0000
vt 0.9237 0.0016 0.0000
vt 0.9182 0.0327 0.0000
vt 0.8454 0.5092 0.0000
vt 0.8435 0.5112 0.0000
vt 0.7543 0.1351 0.0000
vt 0.7002 0.1194 0.0000
vt 0.6458 0.1138 0.0000
vt 0.6368 0.2023 0.0000
vt 0.7916 0.0517 0.0000
vt 0.8485 0.0538 0.0000
vt 0.8427 0.0723 0.0000
vt 0.7921 0.0707 0.0000
vt 0.7714 0.5162 0.0000
vt 0.7725 0.6252 0.0000
vt 0.7520 0.6146 0.0000
vt 0.7531 0.5225 0.0000
vt 0.4744 0.7823 0.0000
vt 0.4756 0.7542 0.0000
vt 0.4940 0.7523 0.0000
vt 0.4952 0.7723 0.0000
vt 0.7408 0.2388 0.0000
vt 0.7864 0.0516 0.0000
vt 0.7897 0.0708 0.0000
vt 0.7464 0.0712 0.0000
vt 0.7393 0.0525 0.0000
vt 0.4756 0.7490 0.0000
vt 0.4815 0.6603 0.0000
vt 0.4992 0.6689 0.0000
vt 0.4940 0.7470 0.0000
vt 0.9556 0.4366 0.0000
vt 0.9527 0.5146 0.0000
vt 0.9265 0.4843 0.0000
vt 0.8602 0.4070 0.0000
vt 0.9493 0.4120 0.0000
vt 0.9029 0.4569 0.0000
vt 0.9103 0.5110 0.0000
vt 0.7928 0.0741 0.0000
vt 0.7929 0.0741 0.0000
vt 0.9069 0.5104 0.0000
vt 0.8581 0.5001 0.0000
vt 0.7508 0.6181 0.0000
vt 0.7485 0.6147 0.0000
vt 0.8459 0.0735 0.0000
vt 0.8431 0.0759 0.0000
vt 0.3846 0.7896 0.0000
vt 0.3815 0.7875 0.0000
vt 0.3847 0.7857 0.0000
vt 0.4972 0.7473 0.0000
vt 0.7894 0.0740 0.0000
vt 0.7713 0.6285 0.0000
vt 0.8516 0.0549 0.0000
vt 0.4044 0.7867 0.0000
vt 0.4044 0.7903 0.0000
vt 0.7509 0.5250 0.0000
vt 0.4989 0.7726 0.0000
vt 0.8577 0.4074 0.0000
vt 0.8578 0.4047 0.0000
vt 0.5026 0.6695 0.0000
vt 0.7467 0.0746 0.0000
vt 0.8554 0.5000 0.0000
vt 0.9269 0.0005 0.0000
vt 0.9875 0.0005 0.0000
vt 0.9804 0.0303 0.0000
vt 0.9251 0.0303 0.0000
vt 0.5395 0.7246 0.0000
vt 0.5395 0.6603 0.0000
vt 0.5705 0.6624 0.0000
vt 0.5705 0.7215 0.0000
vt 0.9065 0.0836 0.0000
vt 0.9068 0.0800 0.0000
vt 0.9370 0.0795 0.0000
vt 0.9367 0.0835 0.0000
vt 0.1910 0.7768 0.0000
vt 0.1959 0.7764 0.0000
vt 0.1954 0.7794 0.0000
vt 0.1917 0.7794 0.0000
vt 0.1910 0.7780 0.0000
vt 0.8273 0.5255 0.0000
vt 0.8273 0.6305 0.0000
vt 0.8091 0.6242 0.0000
vt 0.8091 0.5317 0.0000
vt 0.8273 0.6331 0.0000
vt 0.8089 0.6269 0.0000
vt 0.5720 0.6958 0.0000
vt 0.5720 0.6674 0.0000
vt 0.6020 0.6638 0.0000
vt 0.6020 0.6894 0.0000
vt 0.5721 0.6641 0.0000
vt 0.6021 0.6603 0.0000
# 262 texture coords

o suelo_t_2
g suelo_t_2
usemtl Suelo2
f 1/1/1 2/2/1 3/3/1 
f 3/3/1 4/4/1 5/5/1 
f 3/3/1 5/5/1 1/1/1 
f 6/6/1 7/7/1 8/8/1 
f 8/8/1 9/9/1 10/10/1 
f 6/6/1 8/8/1 10/10/1 
f 2/2/1 1/1/1 11/11/1 
f 12/12/1 13/13/1 14/14/1 
f 3/3/1 15/15/1 4/4/1 
f 16/16/1 11/11/1 1/1/1 
f 16/16/1 5/5/1 17/17/1 
f 3/3/1 18/18/1 19/19/1 
f 19/19/1 20/20/1 3/3/1 
f 11/11/1 21/21/1 22/22/1 
f 22/22/1 2/2/1 11/11/1 
f 16/16/1 1/1/1 5/5/1 
f 12/12/1 14/14/1 17/17/1 
f 23/23/1 24/24/1 25/25/1 
f 26/26/1 27/27/1 28/28/1 
f 26/26/1 28/28/1 29/29/1 
f 30/30/1 29/29/1 31/31/1 
f 23/23/1 32/32/2 33/33/1 
f 24/24/1 23/23/1 33/33/1 
f 24/24/1 33/33/1 34/34/1 
f 25/25/1 35/35/1 36/36/1 
f 36/36/1 23/23/1 25/25/1 
f 37/37/1 38/38/1 39/39/1 
f 40/40/1 41/41/1 42/42/1 
f 43/43/1 44/44/1 45/45/1 
f 28/28/1 27/27/1 46/46/1 
f 47/47/1 48/48/1 49/49/1 
f 49/49/1 50/50/1 47/47/1 
f 51/51/1 52/52/1 53/53/1 
f 54/54/1 55/55/1 52/52/1 
f 56/56/1 57/57/1 58/58/1 
f 59/59/1 60/60/1 13/13/1 
f 15/15/1 59/59/1 4/4/1 
f 59/59/1 13/13/1 12/12/1 
f 50/50/1 49/49/1 61/61/1 
f 61/61/1 62/62/1 50/50/1 
f 60/60/1 63/63/1 64/64/1 
f 64/64/1 6/6/1 60/60/1 
f 5/5/1 4/4/1 12/12/1 
f 12/12/1 17/17/1 5/5/1 
f 2/2/1 65/65/1 18/18/1 
f 18/18/1 3/3/1 2/2/1 
f 15/15/1 3/3/1 20/20/1 
f 25/25/1 31/31/1 66/66/1 
f 23/23/1 67/67/1 68/68/1 
f 68/68/1 69/69/1 70/70/1 
f 23/23/1 68/68/1 70/70/1 
f 66/66/1 71/71/1 35/35/1 
f 35/35/1 25/25/1 66/66/1 
f 72/72/1 31/31/1 25/25/1 
f 11/11/1 73/73/3 69/69/1 
f 21/21/1 11/11/1 69/69/1 
f 68/68/1 21/21/1 69/69/1 
f 74/74/1 75/75/1 76/76/1 
f 75/75/1 74/74/1 62/62/1 
f 77/77/1 46/46/1 78/78/1 
f 40/40/1 42/42/1 79/79/1 
f 80/80/1 53/53/1 81/81/1 
f 30/30/1 82/82/1 38/38/1 
f 30/30/1 83/83/1 26/26/1 
f 66/66/1 31/31/1 29/29/1 
f 66/66/1 29/29/1 28/28/1 
f 46/46/1 76/76/1 28/28/1 
f 84/84/1 41/41/1 78/78/1 
f 39/39/1 85/85/1 86/86/1 
f 86/86/1 37/37/1 39/39/1 
f 72/72/1 25/25/1 24/24/1 
f 30/30/1 31/31/1 72/72/1 
f 87/87/1 39/39/1 38/38/1 
f 30/30/1 38/38/1 83/83/1 
f 37/37/1 83/83/1 38/38/1 
f 51/51/1 53/53/1 80/80/1 
f 37/37/1 86/86/1 88/88/1 
f 88/88/1 51/51/1 37/37/1 
f 51/51/1 54/54/1 52/52/1 
f 81/81/1 89/89/1 90/90/1 
f 41/41/1 84/84/1 42/42/1 
f 91/91/1 77/77/1 78/78/1 
f 92/92/1 91/91/1 41/41/1 
f 43/43/1 45/45/1 93/93/1 
f 94/94/1 40/40/1 79/79/1 
f 79/79/1 95/95/1 94/94/1 
f 96/96/1 79/79/1 42/42/1 
f 96/96/1 84/84/1 89/89/1 
f 44/44/1 97/97/1 98/98/1 
f 98/98/1 45/45/1 44/44/1 
f 92/92/1 41/41/1 40/40/1 
f 44/44/1 99/99/1 92/92/1 
f 77/77/1 74/74/1 46/46/1 
f 27/27/1 78/78/1 46/46/1 
f 81/81/1 90/90/1 80/80/1 
f 96/96/1 81/81/1 100/100/1 
f 51/51/1 88/88/1 101/101/1 
f 101/101/1 54/54/1 51/51/1 
f 51/51/1 80/80/1 37/37/1 
f 53/53/1 102/102/1 100/100/1 
f 91/91/1 92/92/1 103/103/1 
f 74/74/1 77/77/1 57/57/1 
f 15/15/1 15/15/4 104/104/1 
f 104/104/1 105/105/1 106/106/1 
f 104/104/1 106/106/1 59/59/1 
f 15/15/1 104/104/1 59/59/1 
f 59/59/1 12/12/1 4/4/1 
f 20/20/1 107/107/1 108/108/1 
f 108/108/1 15/15/1 20/20/1 
f 6/6/1 10/10/1 48/48/1 
f 48/48/1 47/47/1 6/6/1 
f 59/59/1 106/106/1 63/63/1 
f 63/63/1 60/60/1 59/59/1 
f 109/109/1 13/13/1 60/60/1 
f 75/75/1 110/110/1 107/107/1 
f 107/107/1 20/20/1 75/75/1 
f 62/62/1 111/111/1 110/110/1 
f 110/110/1 75/75/1 62/62/1 
f 46/46/1 74/74/1 76/76/1 
f 76/76/1 66/66/1 28/28/1 
f 75/75/1 112/112/1 113/113/1 
f 113/113/1 76/76/1 75/75/1 
f 114/114/1 115/115/1 111/111/1 
f 114/114/1 111/111/1 62/62/1 
f 116/116/1 114/114/1 62/62/1 
f 56/56/1 62/62/1 57/57/1 
f 74/74/1 57/57/1 62/62/1 
f 91/91/1 103/103/1 58/58/1 
f 27/27/1 26/26/1 89/89/1 
f 89/89/1 78/78/1 27/27/1 
f 96/96/1 89/89/1 81/81/1 
f 117/117/1 95/95/1 96/96/1 
f 90/90/1 26/26/1 83/83/1 
f 37/37/1 80/80/1 83/83/1 
f 87/87/1 38/38/1 82/82/1 
f 82/82/1 118/118/1 119/119/1 
f 82/82/1 119/119/1 120/120/1 
f 87/87/1 82/82/1 120/120/1 
f 30/30/1 72/72/1 82/82/1 
f 30/30/1 26/26/1 29/29/1 
f 94/94/1 121/121/1 122/122/1 
f 122/122/1 40/40/1 94/94/1 
f 90/90/1 83/83/1 80/80/1 
f 89/89/1 26/26/1 90/90/1 
f 96/96/1 42/42/1 84/84/1 
f 84/84/1 78/78/1 89/89/1 
f 44/44/1 43/43/1 99/99/1 
f 92/92/1 40/40/1 44/44/1 
f 91/91/1 78/78/1 41/41/1 
f 91/91/1 58/58/1 77/77/1 
f 40/40/1 122/122/1 97/97/1 
f 97/97/1 44/44/1 40/40/1 
f 102/102/1 117/117/1 100/100/1 
f 79/79/1 96/96/1 95/95/1 
f 81/81/1 53/53/1 100/100/1 
f 56/56/1 50/50/1 62/62/1 
f 77/77/1 58/58/1 57/57/1 
f 103/103/1 92/92/1 99/99/1 
f 53/53/1 52/52/1 102/102/1 
f 117/117/1 96/96/1 100/100/1 
f 20/123/5 19/124/6 123/125/7 
f 123/125/7 124/126/8 20/123/5 
f 2/127/9 22/128/10 125/129/11 
f 125/129/11 126/130/12 2/127/9 
f 67/131/13 23/132/13 127/133/13 
f 127/133/13 128/134/13 67/131/13 
f 65/135/14 2/136/15 126/137/16 
f 126/137/16 129/138/17 65/135/14 
f 75/139/18 20/140/18 124/141/18 
f 124/141/18 130/142/18 75/139/18 
f 71/143/19 66/144/19 131/145/19 
f 131/145/19 132/146/19 71/143/19 
f 76/147/20 113/148/20 133/149/20 
f 133/149/20 134/150/20 76/147/20 
f 126/151/1 125/152/1 128/153/1 
f 129/154/1 126/151/1 128/153/1 
f 127/155/1 135/156/2 132/157/1 
f 128/153/1 127/155/1 132/157/1 
f 129/154/1 128/153/1 132/157/1 
f 132/157/1 131/158/1 134/159/1 
f 134/159/1 133/160/2 136/161/1 
f 132/157/1 134/159/1 136/161/1 
f 129/154/1 132/157/1 136/161/1 
f 129/154/1 136/161/1 130/162/1 
f 129/154/1 130/162/1 124/163/1 
f 123/164/2 129/154/1 124/163/1 
f 23/23/1 70/70/1 137/165/1 
f 32/32/2 23/23/1 137/165/1 
f 138/166/1 32/32/2 137/165/1 
f 34/34/1 139/167/1 140/168/1 
f 34/34/1 140/168/1 141/169/1 
f 34/34/1 141/169/1 24/24/1 
f 138/166/1 33/33/1 32/32/2 
f 71/71/1 36/36/1 35/35/1 
f 18/18/1 65/65/1 19/19/1 
f 19/170/21 65/171/22 129/172/23 
f 129/172/23 123/173/24 19/170/21 
f 21/21/1 68/68/1 67/67/1 
f 67/67/1 22/22/1 21/21/1 
f 22/128/25 67/174/26 128/175/27 
f 128/175/27 125/129/28 22/128/25 
f 73/73/3 142/176/29 143/177/30 
f 73/73/3 143/177/30 137/165/1 
f 73/73/3 137/165/1 70/70/1 
f 73/73/3 70/70/1 69/69/1 
f 6/6/1 64/64/1 144/178/1 
f 144/178/1 145/179/1 7/7/1 
f 6/6/1 144/178/1 7/7/1 
f 62/62/1 61/61/1 146/180/1 
f 146/180/1 147/181/1 116/116/1 
f 62/62/1 146/180/1 116/116/1 
f 145/182/31 144/183/32 148/184/33 
f 148/184/33 149/185/34 145/182/31 
f 15/186/35 108/187/36 150/188/37 
f 150/188/37 151/189/38 15/186/35 
f 115/190/39 114/191/40 152/192/41 
f 152/192/41 153/193/42 115/190/39 
f 15/15/4 15/15/4 151/194/4 
f 8/195/43 154/196/44 155/197/45 
f 155/197/45 9/198/46 8/195/43 
f 147/199/47 146/200/48 156/201/49 
f 156/201/49 157/202/50 147/199/47 
f 158/203/1 159/204/1 160/205/1 
f 161/206/51 162/207/52 163/208/53 
f 159/204/1 164/209/1 160/205/1 
f 154/196/54 149/185/55 165/210/56 
f 165/210/56 166/211/57 154/196/54 
f 164/209/1 166/212/1 165/212/1 
f 165/212/1 167/213/58 163/208/53 
f 164/209/1 165/212/1 163/208/53 
f 164/209/1 163/208/53 160/205/1 
f 163/208/53 162/207/52 158/203/1 
f 158/203/1 160/205/1 163/208/53 
f 108/108/1 107/107/1 110/110/1 
f 108/108/1 110/110/1 111/111/1 
f 108/108/1 111/111/1 115/115/1 
f 106/106/1 105/105/1 144/178/1 
f 106/106/1 144/178/1 64/64/1 
f 106/106/1 64/64/1 63/63/1 
f 48/48/1 10/10/1 9/9/1 
f 48/48/1 9/9/1 146/180/1 
f 48/48/1 146/180/1 61/61/1 
f 48/48/1 61/61/1 49/49/1 
f 145/179/1 8/8/1 7/7/1 
f 114/114/1 116/116/1 147/181/1 
f 153/214/42 162/215/59 150/188/37 
f 168/216/60 167/217/61 148/184/33 
f 155/218/62 159/219/63 156/220/64 
f 157/202/50 158/221/65 152/192/41 
f 154/196/66 166/211/66 164/222/66 
f 108/187/36 115/223/39 153/214/42 
f 153/214/42 150/188/37 108/187/36 
f 144/183/32 105/224/67 168/216/60 
f 168/216/60 148/184/33 144/183/32 
f 146/225/68 9/226/69 155/218/62 
f 155/218/62 156/220/64 146/225/68 
f 8/195/43 145/182/31 149/185/34 
f 149/185/34 154/196/44 8/195/43 
f 114/191/40 147/199/47 157/202/50 
f 157/202/50 152/192/41 114/191/40 
f 148/184/33 167/217/61 165/210/70 
f 165/210/70 149/185/34 148/184/33 
f 150/188/37 162/215/59 161/227/71 
f 161/227/71 151/189/38 150/188/37 
f 152/192/41 158/221/65 162/228/59 
f 162/228/59 153/193/42 152/192/41 
f 169/229/72 151/230/38 161/206/71 
f 156/201/49 159/231/73 158/221/65 
f 158/221/65 157/202/50 156/201/49 
f 154/196/44 164/222/74 159/232/75 
f 159/232/75 155/197/45 154/196/44 
f 161/206/51 163/208/53 167/213/58 
f 169/229/72 161/206/71 167/213/76 
f 167/213/76 168/233/77 169/229/72 
f 112/234/78 75/235/78 130/236/78 
f 130/236/78 136/237/78 112/234/78 
f 66/238/79 76/239/79 134/240/79 
f 134/240/79 131/241/79 66/238/79 
f 113/242/80 112/243/80 136/244/80 
f 136/244/80 133/245/80 113/242/80 
f 122/246/1 121/247/1 170/248/1 
f 122/246/1 170/248/1 98/249/1 
f 122/246/1 98/249/1 97/250/1 
f 105/251/81 104/252/81 169/253/81 
f 169/253/81 168/254/81 105/251/81 
f 104/252/81 15/255/82 151/256/82 
f 151/256/82 169/253/81 104/252/81 
f 23/257/83 36/258/83 135/259/83 
f 135/259/83 127/260/83 23/257/83 
f 36/258/84 71/261/84 132/262/84 
f 132/262/84 135/259/84 36/258/84 
# 291 faces

