# 3ds Max Wavefront OBJ Exporter v0.97b - (c)2007 guruware
# File Created: 25.03.2018 11:48:21

mtllib suelo_t_4.mtl

#
# object suelo_t_4
#

v  -659.8187 0.0000 449.2900
v  -645.1335 0.0000 434.6706
v  -660.5330 0.0000 412.1186
v  -610.6071 0.0000 419.2093
v  -634.1987 0.0000 402.6047
v  -550.8956 0.0000 520.7024
v  -551.4229 0.0000 482.4253
v  -573.1536 0.0000 511.3714
v  -572.7602 0.0000 454.8074
v  -585.2795 0.0000 490.9954
v  -474.1433 0.0000 562.5073
v  -505.2115 0.0000 538.4427
v  -512.1853 0.0000 559.0516
v  -445.5359 0.0000 514.2477
v  -473.0679 0.0000 494.6461
v  -462.2023 0.0000 526.6488
v  -430.3236 0.0000 531.1448
v  -412.6228 0.0000 480.1885
v  -383.7313 0.0000 494.7628
v  -382.7763 0.0000 455.6579
v  -256.6278 0.0000 527.8566
v  -281.1942 0.0000 512.7294
v  -284.4071 0.0000 544.4514
v  -247.2394 0.0000 498.8973
v  -312.6451 0.0000 373.2522
v  -285.6089 0.0000 398.2816
v  -279.2234 0.0000 369.3760
v  -632.8043 0.0000 476.2966
v  -591.0295 0.0000 462.8020
v  -397.7619 0.0000 541.2449
v  -436.2740 0.0000 532.8727
v  -502.5285 0.0000 509.8665
v  -535.4448 0.0000 537.7902
v  -388.1431 0.0000 346.8691
v  -423.8795 0.0000 349.6586
v  -409.3378 0.0000 382.0274
v  -582.5737 0.0000 412.4202
v  -599.2120 0.0000 390.0962
v  -580.2296 0.0000 530.7960
v  -590.1276 0.0000 436.6102
v  -615.0487 0.0000 442.6031
v  -609.9249 0.0000 506.8075
v  -529.3062 0.0000 496.5106
v  -550.2273 0.0000 555.5960
v  -534.4308 0.0000 452.2437
v  -369.7593 0.0000 377.0477
v  -409.1610 0.0000 521.3705
v  -502.6747 0.0000 489.1235
v  -443.4422 0.0000 468.9321
v  -476.1896 0.0000 460.9936
v  -365.1567 0.0000 485.3698
v  -360.0131 0.0000 518.6033
v  -328.9626 0.0000 505.6887
v  -361.1468 0.0000 545.4143
v  -311.3942 0.0000 532.3059
v  -336.9522 0.0000 527.8939
v  -355.1924 0.0000 445.3548
v  -385.2974 0.0000 524.3392
v  -435.1523 0.0000 490.0014
v  -445.8113 0.0000 443.1504
v  -527.5414 0.0000 396.7197
v  -522.1774 0.0000 420.8266
v  -494.6076 0.0000 390.0409
v  -402.7401 0.0000 423.1494
v  -418.9848 0.0000 455.8015
v  -337.1882 0.0000 463.9969
v  -292.8550 0.0000 347.0410
v  -316.4235 0.0000 340.7531
v  -304.2399 0.0000 433.7167
v  -283.0032 0.0000 457.2728
v  -273.5399 0.0000 423.7281
v  -302.3611 0.0000 516.0037
v  -300.7953 0.0000 490.2112
v  -248.2631 0.0000 551.2222
v  -301.5872 0.0000 412.8065
v  -386.3315 0.0000 396.8981
v  -349.7018 0.0000 370.1526
v  -259.2064 0.0000 362.8055
v  -262.6054 0.0000 483.3256
v  -551.8090 0.0000 439.3939
v  -571.7487 0.0000 402.3593
v  -445.7107 0.0000 414.2484
v  -417.8022 0.0000 399.5255
v  -453.7456 0.0000 378.7718
v  -413.7753 0.0000 255.7218
v  -413.9896 0.0000 280.7625
v  -386.8620 0.0000 289.3764
v  -358.6133 0.0000 346.4089
v  -337.9950 0.0000 322.2049
v  -371.9016 0.0000 310.7925
v  -371.4331 0.0000 414.1212
v  -345.6127 0.0000 416.4095
v  -335.9865 0.0000 386.6048
v  -407.6861 0.0000 318.5718
v  -390.8478 0.0000 320.7962
v  -435.5348 0.0000 366.2654
v  -499.6040 0.0000 439.8917
v  -552.5471 0.0000 398.8081
v  -473.5187 0.0000 400.0692
v  -472.2029 0.0000 431.3950
v  -306.9956 0.0000 470.4937
v  -328.1293 0.0000 431.0710
v  -252.0076 0.0000 415.6299
v  -361.4073 0.0000 262.0721
v  -504.4317 0.0000 467.4536
v  -285.7494 0.0000 321.7020
v  -306.7136 0.0000 305.0654
v  -357.1013 0.0000 298.3565
v  -329.3628 0.0000 291.5135
v  -276.6586 0.0000 285.6379
v  -257.6796 0.0000 312.9996
v  -324.2735 0.0000 271.1184
v  -251.2639 0.0000 252.1299
v  -279.7827 0.0000 263.0294
# 114 vertices

vn 0.0000 1.0000 -0.0000
# 1 vertex normals

vt 0.0286 0.8942 0.0000
vt 0.0771 0.8899 0.0000
vt 0.0944 0.9516 0.0000
vt 0.1570 0.8511 0.0000
vt 0.1512 0.9186 0.0000
vt 0.0646 0.5907 0.0000
vt 0.1326 0.6494 0.0000
vt 0.0478 0.6448 0.0000
vt 0.1501 0.7294 0.0000
vt 0.0661 0.6973 0.0000
vt 0.1052 0.3896 0.0000
vt 0.1016 0.4818 0.0000
vt 0.0540 0.4632 0.0000
vt 0.2351 0.4110 0.0000
vt 0.2288 0.4900 0.0000
vt 0.1877 0.4222 0.0000
vt 0.2277 0.3581 0.0000
vt 0.3460 0.4032 0.0000
vt 0.3634 0.3292 0.0000
vt 0.4352 0.3865 0.0000
vt 0.4957 0.0508 0.0000
vt 0.4858 0.1178 0.0000
vt 0.4239 0.0757 0.0000
vt 0.5619 0.0776 0.0000
vt 0.6891 0.3848 0.0000
vt 0.6849 0.2984 0.0000
vt 0.7465 0.3305 0.0000
vt 0.0208 0.8049 0.0000
vt 0.1081 0.7502 0.0000
vt 0.2587 0.2843 0.0000
vt 0.2156 0.3662 0.0000
vt 0.1570 0.5201 0.0000
vt 0.0572 0.5371 0.0000
vt 0.6227 0.5603 0.0000
vt 0.5637 0.6203 0.0000
vt 0.5275 0.5454 0.0000
vt 0.2115 0.8110 0.0000
vt 0.2265 0.8746 0.0000
vt 0.0022 0.6282 0.0000
vt 0.1566 0.7881 0.0000
vt 0.1082 0.8238 0.0000
vt 0.0005 0.7178 0.0000
vt 0.1406 0.5883 0.0000
vt 0.0028 0.5368 0.0000
vt 0.2125 0.6643 0.0000
vt 0.5961 0.4817 0.0000
vt 0.2772 0.3348 0.0000
vt 0.1941 0.5516 0.0000
vt 0.3198 0.4756 0.0000
vt 0.2846 0.5464 0.0000
vt 0.4083 0.3100 0.0000
vt 0.3563 0.2506 0.0000
vt 0.4264 0.2143 0.0000
vt 0.3064 0.2122 0.0000
vt 0.4050 0.1425 0.0000
vt 0.3744 0.1952 0.0000
vt 0.4953 0.3525 0.0000
vt 0.3079 0.2874 0.0000
vt 0.2944 0.4289 0.0000
vt 0.3625 0.5187 0.0000
vt 0.3227 0.7357 0.0000
vt 0.2875 0.6897 0.0000
vt 0.3844 0.6866 0.0000
vt 0.4635 0.4715 0.0000
vt 0.3803 0.4514 0.0000
vt 0.4889 0.2920 0.0000
vt 0.7661 0.3887 0.0000
vt 0.7419 0.4406 0.0000
vt 0.5931 0.2784 0.0000
vt 0.5828 0.2047 0.0000
vt 0.6574 0.2383 0.0000
vt 0.4480 0.1509 0.0000
vt 0.4967 0.1870 0.0000
vt 0.4663 0.0005 0.0000
vt 0.6347 0.3052 0.0000
vt 0.5354 0.4816 0.0000
vt 0.6388 0.4561 0.0000
vt 0.7885 0.3044 0.0000
vt 0.5667 0.1287 0.0000
vt 0.2094 0.7150 0.0000
vt 0.2459 0.8067 0.0000
vt 0.4147 0.5622 0.0000
vt 0.4832 0.5342 0.0000
vt 0.4663 0.6301 0.0000
vt 0.7479 0.7439 0.0000
vt 0.7025 0.7065 0.0000
vt 0.7280 0.6447 0.0000
vt 0.6680 0.5079 0.0000
vt 0.7427 0.5073 0.0000
vt 0.7120 0.5855 0.0000
vt 0.5270 0.4288 0.0000
vt 0.5618 0.3789 0.0000
vt 0.6299 0.4066 0.0000
vt 0.6441 0.6381 0.0000
vt 0.6655 0.6045 0.0000
vt 0.5163 0.6162 0.0000
vt 0.2872 0.6204 0.0000
vt 0.2812 0.7775 0.0000
vt 0.3982 0.6335 0.0000
vt 0.3439 0.5839 0.0000
vt 0.5228 0.2279 0.0000
vt 0.5618 0.3254 0.0000
vt 0.7044 0.2118 0.0000
vt 0.8155 0.6402 0.0000
vt 0.2304 0.5875 0.0000
vt 0.8224 0.4142 0.0000
vt 0.8207 0.4770 0.0000
vt 0.7567 0.5777 0.0000
vt 0.8109 0.5381 0.0000
vt 0.9009 0.4522 0.0000
vt 0.8804 0.3768 0.0000
vt 0.8552 0.5597 0.0000
vt 0.9995 0.4571 0.0000
vt 0.9369 0.4920 0.0000
# 114 texture coords

o suelo_t_4
g suelo_t_4
usemtl Suelo4
f 1/1/1 2/2/1 3/3/1 
f 2/2/1 4/4/1 5/5/1 
f 6/6/1 7/7/1 8/8/1 
f 7/7/1 9/9/1 10/10/1 
f 11/11/1 12/12/1 13/13/1 
f 14/14/1 15/15/1 16/16/1 
f 17/17/1 14/14/1 16/16/1 
f 18/18/1 19/19/1 20/20/1 
f 21/21/1 22/22/1 23/23/1 
f 21/21/1 24/24/1 22/22/1 
f 25/25/1 26/26/1 27/27/1 
f 28/28/1 10/10/1 29/29/1 
f 30/30/1 17/17/1 31/31/1 
f 32/32/1 33/33/1 12/12/1 
f 34/34/1 35/35/1 36/36/1 
f 4/4/1 37/37/1 38/38/1 
f 6/6/1 8/8/1 39/39/1 
f 40/40/1 29/29/1 9/9/1 
f 2/2/1 1/1/1 28/28/1 
f 5/5/1 3/3/1 2/2/1 
f 2/2/1 28/28/1 41/41/1 
f 13/13/1 12/12/1 33/33/1 
f 42/42/1 39/39/1 8/8/1 
f 28/28/1 29/29/1 41/41/1 
f 43/43/1 33/33/1 32/32/1 
f 6/6/1 39/39/1 44/44/1 
f 45/45/1 9/9/1 7/7/1 
f 6/6/1 43/43/1 7/7/1 
f 13/13/1 33/33/1 44/44/1 
f 32/32/1 12/12/1 16/16/1 
f 7/7/1 43/43/1 45/45/1 
f 46/46/1 34/34/1 36/36/1 
f 11/11/1 31/31/1 16/16/1 
f 16/16/1 12/12/1 11/11/1 
f 47/47/1 19/19/1 18/18/1 
f 30/30/1 47/47/1 17/17/1 
f 15/15/1 48/48/1 32/32/1 
f 49/49/1 50/50/1 15/15/1 
f 51/51/1 52/52/1 53/53/1 
f 54/54/1 55/55/1 56/56/1 
f 57/57/1 20/20/1 51/51/1 
f 54/54/1 52/52/1 58/58/1 
f 47/47/1 18/18/1 59/59/1 
f 59/59/1 15/15/1 14/14/1 
f 49/49/1 60/60/1 50/50/1 
f 61/61/1 62/62/1 63/63/1 
f 64/64/1 65/65/1 20/20/1 
f 66/66/1 51/51/1 53/53/1 
f 25/25/1 67/67/1 68/68/1 
f 25/25/1 27/27/1 67/67/1 
f 69/69/1 70/70/1 71/71/1 
f 23/23/1 22/22/1 72/72/1 
f 55/55/1 23/23/1 72/72/1 
f 54/54/1 56/56/1 52/52/1 
f 73/73/1 72/72/1 22/22/1 
f 21/21/1 23/23/1 74/74/1 
f 25/25/1 75/75/1 26/26/1 
f 46/46/1 36/36/1 76/76/1 
f 25/25/1 68/68/1 77/77/1 
f 78/78/1 67/67/1 27/27/1 
f 22/22/1 79/79/1 73/73/1 
f 59/59/1 14/14/1 47/47/1 
f 58/58/1 52/52/1 19/19/1 
f 15/15/1 50/50/1 48/48/1 
f 32/32/1 16/16/1 15/15/1 
f 40/40/1 9/9/1 80/80/1 
f 40/40/1 37/37/1 4/4/1 
f 37/37/1 80/80/1 81/81/1 
f 81/81/1 38/38/1 37/37/1 
f 82/82/1 83/83/1 84/84/1 
f 85/85/1 86/86/1 87/87/1 
f 88/88/1 89/89/1 90/90/1 
f 91/91/1 92/92/1 93/93/1 
f 91/91/1 93/93/1 46/46/1 
f 91/91/1 57/57/1 92/92/1 
f 64/64/1 60/60/1 65/65/1 
f 60/60/1 49/49/1 65/65/1 
f 34/34/1 94/94/1 35/35/1 
f 88/88/1 90/90/1 95/95/1 
f 46/46/1 88/88/1 34/34/1 
f 46/46/1 93/93/1 77/77/1 
f 91/91/1 46/46/1 76/76/1 
f 64/64/1 91/91/1 76/76/1 
f 83/83/1 76/76/1 36/36/1 
f 96/96/1 83/83/1 36/36/1 
f 45/45/1 80/80/1 9/9/1 
f 7/7/1 10/10/1 8/8/1 
f 42/42/1 8/8/1 10/10/1 
f 10/10/1 28/28/1 42/42/1 
f 40/40/1 41/41/1 29/29/1 
f 10/10/1 9/9/1 29/29/1 
f 40/40/1 4/4/1 41/41/1 
f 40/40/1 80/80/1 37/37/1 
f 6/6/1 44/44/1 33/33/1 
f 43/43/1 6/6/1 33/33/1 
f 97/97/1 62/62/1 45/45/1 
f 80/80/1 98/98/1 81/81/1 
f 96/96/1 36/36/1 35/35/1 
f 83/83/1 96/96/1 84/84/1 
f 82/82/1 99/99/1 100/100/1 
f 22/22/1 24/24/1 79/79/1 
f 73/73/1 79/79/1 70/70/1 
f 70/70/1 101/101/1 73/73/1 
f 69/69/1 102/102/1 101/101/1 
f 103/103/1 26/26/1 71/71/1 
f 80/80/1 62/62/1 98/98/1 
f 85/85/1 87/87/1 104/104/1 
f 94/94/1 87/87/1 86/86/1 
f 34/34/1 95/95/1 94/94/1 
f 62/62/1 80/80/1 45/45/1 
f 97/97/1 45/45/1 105/105/1 
f 49/49/1 59/59/1 18/18/1 
f 18/18/1 20/20/1 65/65/1 
f 17/17/1 16/16/1 31/31/1 
f 47/47/1 14/14/1 17/17/1 
f 72/72/1 73/73/1 53/53/1 
f 72/72/1 56/56/1 55/55/1 
f 20/20/1 19/19/1 51/51/1 
f 91/91/1 20/20/1 57/57/1 
f 54/54/1 58/58/1 30/30/1 
f 51/51/1 19/19/1 52/52/1 
f 53/53/1 52/52/1 56/56/1 
f 72/72/1 53/53/1 56/56/1 
f 102/102/1 57/57/1 66/66/1 
f 101/101/1 66/66/1 53/53/1 
f 47/47/1 30/30/1 58/58/1 
f 58/58/1 19/19/1 47/47/1 
f 49/49/1 18/18/1 65/65/1 
f 49/49/1 15/15/1 59/59/1 
f 99/99/1 63/63/1 97/97/1 
f 82/82/1 60/60/1 64/64/1 
f 82/82/1 84/84/1 99/99/1 
f 46/46/1 77/77/1 88/88/1 
f 68/68/1 106/106/1 107/107/1 
f 68/68/1 67/67/1 106/106/1 
f 106/106/1 67/67/1 78/78/1 
f 75/75/1 93/93/1 92/92/1 
f 71/71/1 26/26/1 75/75/1 
f 87/87/1 90/90/1 108/108/1 
f 43/43/1 32/32/1 48/48/1 
f 105/105/1 45/45/1 43/43/1 
f 2/2/1 41/41/1 4/4/1 
f 4/4/1 38/38/1 5/5/1 
f 50/50/1 60/60/1 100/100/1 
f 97/97/1 105/105/1 50/50/1 
f 99/99/1 97/97/1 100/100/1 
f 84/84/1 63/63/1 99/99/1 
f 89/89/1 109/109/1 108/108/1 
f 94/94/1 95/95/1 87/87/1 
f 68/68/1 107/107/1 89/89/1 
f 88/88/1 77/77/1 68/68/1 
f 87/87/1 95/95/1 90/90/1 
f 87/87/1 108/108/1 104/104/1 
f 25/25/1 77/77/1 93/93/1 
f 75/75/1 25/25/1 93/93/1 
f 64/64/1 76/76/1 83/83/1 
f 64/64/1 20/20/1 91/91/1 
f 48/48/1 50/50/1 105/105/1 
f 105/105/1 43/43/1 48/48/1 
f 98/98/1 62/62/1 61/61/1 
f 101/101/1 53/53/1 73/73/1 
f 102/102/1 66/66/1 101/101/1 
f 97/97/1 63/63/1 62/62/1 
f 97/97/1 50/50/1 100/100/1 
f 102/102/1 92/92/1 57/57/1 
f 57/57/1 51/51/1 66/66/1 
f 75/75/1 92/92/1 102/102/1 
f 102/102/1 69/69/1 75/75/1 
f 82/82/1 64/64/1 83/83/1 
f 82/82/1 100/100/1 60/60/1 
f 88/88/1 95/95/1 34/34/1 
f 88/88/1 68/68/1 89/89/1 
f 110/110/1 107/107/1 106/106/1 
f 106/106/1 78/78/1 111/111/1 
f 110/110/1 106/106/1 111/111/1 
f 110/110/1 112/112/1 107/107/1 
f 113/113/1 114/114/1 110/110/1 
f 104/104/1 109/109/1 112/112/1 
f 90/90/1 89/89/1 108/108/1 
f 104/104/1 108/108/1 109/109/1 
f 69/69/1 71/71/1 75/75/1 
f 69/69/1 101/101/1 70/70/1 
f 112/112/1 110/110/1 114/114/1 
f 107/107/1 112/112/1 109/109/1 
f 89/89/1 107/107/1 109/109/1 
# 185 faces

