# 3ds Max Wavefront OBJ Exporter v0.97b - (c)2007 guruware
# File Created: 13.03.2018 20:31:52

mtllib BaseInterruptor.mtl

#
# object BaseInterruptor
#

v  0.6106 -1.0420 0.3704
v  -0.6106 -1.0420 0.3704
v  -0.6106 -1.0420 -0.3705
v  0.6106 -1.0420 -0.3705
v  -0.6106 -0.6004 0.3704
v  0.6106 -0.6004 0.3704
v  0.6106 -0.6004 -0.3705
v  -0.6106 -0.6004 -0.3705
v  0.6106 -1.0420 2.3579
v  0.6106 -0.6004 2.3579
v  -0.6106 -0.6004 2.3579
v  -0.6106 -1.0420 2.3579
v  1.2484 -1.0420 -0.3705
v  1.2484 -0.6004 -0.3705
v  1.2484 -0.6004 0.3704
v  1.2484 -1.0420 0.3704
v  -0.6106 -1.0420 -2.3579
v  -0.6106 -0.6004 -2.3579
v  0.6106 -0.6004 -2.3579
v  0.6106 -1.0420 -2.3579
v  -1.2484 -1.0420 0.3704
v  -1.2484 -0.6004 0.3704
v  -1.2484 -0.6004 -0.3705
v  -1.2484 -1.0420 -0.3705
v  0.6106 -1.0420 -1.8522
v  -0.6106 -1.0420 -1.8522
v  -0.6106 -1.0420 1.8522
v  0.6106 -1.0420 1.8522
v  -0.6106 -0.6004 -1.8522
v  0.6106 -0.6004 -1.8522
v  0.6106 -0.6004 1.8522
v  -0.6106 -0.6004 1.8522
v  1.2484 -1.0420 -2.3579
v  1.2484 -0.6004 -2.3579
v  1.2484 -0.6004 -1.8522
v  1.2484 -1.0420 -1.8522
v  1.2484 -0.6004 2.3579
v  1.2484 -1.0420 2.3579
v  1.2484 -1.0420 1.8522
v  1.2484 -0.6004 1.8522
v  -1.2484 -1.0420 2.3579
v  -1.2484 -0.6004 2.3579
v  -1.2484 -0.6004 1.8522
v  -1.2484 -1.0420 1.8522
v  -1.2484 -0.6004 -2.3579
v  -1.2484 -1.0420 -2.3579
v  -1.2484 -1.0420 -1.8522
v  -1.2484 -0.6004 -1.8522
v  -1.2484 1.0420 0.3704
v  -0.6106 1.0420 0.3704
v  -0.6106 1.0420 -0.3705
v  -1.2484 1.0420 -0.3705
v  1.2484 1.0420 -0.3705
v  0.6106 1.0420 -0.3705
v  0.6106 1.0420 0.3704
v  1.2484 1.0420 0.3704
v  -0.6106 0.2908 1.8522
v  -1.2484 0.2908 1.8522
v  -1.2484 0.2908 -1.8522
v  -0.6106 0.2908 -1.8522
v  0.6106 0.2908 -1.8522
v  1.2484 0.2908 -1.8522
v  1.2484 0.2908 1.8522
v  0.6106 0.2908 1.8522
v  -0.6106 -1.0420 1.1113
v  0.6106 -1.0420 1.1113
v  0.6106 -1.0420 -1.1113
v  -0.6106 -1.0420 -1.1113
v  0.6106 -0.6004 1.1113
v  -0.6106 -0.6004 1.1113
v  -0.6106 -0.6004 -1.1113
v  0.6106 -0.6004 -1.1113
v  1.2484 -0.6004 -1.1113
v  1.2484 -1.0420 -1.1113
v  1.2484 -1.0420 1.1113
v  1.2484 -0.6004 1.1113
v  -1.2484 -0.6004 1.1113
v  -1.2484 -1.0420 1.1113
v  -1.2484 -1.0420 -1.1113
v  -1.2484 -0.6004 -1.1113
v  -0.6106 0.7886 1.1113
v  -1.2484 0.7886 1.1113
v  -1.2484 0.7886 -1.1113
v  -0.6106 0.7886 -1.1113
v  0.6106 0.7886 -1.1113
v  1.2484 0.7886 -1.1113
v  1.2484 0.7886 1.1113
v  0.6106 0.7886 1.1113
# 88 vertices

vn 0.0000 -1.0000 -0.0000
vn 0.7071 0.7071 -0.0000
vn -0.7071 0.7071 -0.0000
vn 0.0000 -0.7071 0.7071
vn 0.0000 0.7071 0.7071
vn 0.7071 -0.7071 -0.0000
vn 1.0000 0.0000 -0.0000
vn 0.0000 -0.7071 -0.7071
vn 0.0000 0.7071 -0.7071
vn -0.7071 -0.7071 -0.0000
vn -1.0000 0.0000 -0.0000
vn 0.3015 0.9045 -0.3015
vn -0.3015 0.9045 -0.3015
vn -0.3015 0.9045 0.3015
vn 0.3015 0.9045 0.3015
vn 0.5774 -0.5774 -0.5774
vn 0.5774 0.5774 -0.5774
vn 0.9045 0.3015 -0.3015
vn 0.5774 0.5774 0.5774
vn 0.5774 -0.5774 0.5774
vn 0.9045 0.3015 0.3015
vn -0.5774 -0.5774 0.5774
vn -0.5774 0.5774 0.5774
vn -0.9045 0.3015 0.3015
vn -0.5774 0.5774 -0.5774
vn -0.5774 -0.5774 -0.5774
vn -0.9045 0.3015 -0.3015
vn -0.6720 0.7305 0.1215
vn 0.6720 0.7305 0.1215
vn 0.6719 0.7306 -0.1215
vn -0.6720 0.7305 -0.1215
vn 0.6720 0.7305 -0.1215
vn 0.6150 0.3708 0.6959
vn -0.6150 0.3708 0.6959
vn -0.6150 0.3708 -0.6959
vn 0.6150 0.3708 -0.6959
vn 0.6788 0.6578 0.3264
vn -0.6788 0.6578 0.3264
vn -0.6789 0.6577 -0.3264
vn 0.6789 0.6577 -0.3264
# 40 vertex normals

vt 0.7904 0.8022 0.0000
vt 0.7904 0.9307 0.0000
vt 0.7125 0.9307 0.0000
vt 0.7125 0.8022 0.0000
vt 0.2924 0.8022 0.0000
vt 0.2924 0.9307 0.0000
vt 0.2145 0.9307 0.0000
vt 0.2145 0.8022 0.0000
vt 0.4463 0.3736 0.0000
vt 0.3999 0.3736 0.0000
vt 0.3999 0.2451 0.0000
vt 0.4463 0.2451 0.0000
vt 0.0005 0.3526 0.0000
vt 0.0470 0.3526 0.0000
vt 0.0470 0.4305 0.0000
vt 0.0005 0.4305 0.0000
vt 0.6497 0.1188 0.0000
vt 0.6497 0.1653 0.0000
vt 0.5212 0.1653 0.0000
vt 0.5212 0.1188 0.0000
vt 0.2924 0.0005 0.0000
vt 0.2924 0.0470 0.0000
vt 0.2145 0.0470 0.0000
vt 0.2145 0.0005 0.0000
vt 0.5034 0.8022 0.0000
vt 0.5566 0.8022 0.0000
vt 0.5566 0.9307 0.0000
vt 0.5034 0.9307 0.0000
vt 0.9995 0.9307 0.0000
vt 0.9463 0.9307 0.0000
vt 0.9463 0.8022 0.0000
vt 0.9995 0.8022 0.0000
vt 0.0054 0.8022 0.0000
vt 0.0586 0.8022 0.0000
vt 0.0586 0.9307 0.0000
vt 0.0054 0.9307 0.0000
vt 0.5015 0.9307 0.0000
vt 0.4483 0.9307 0.0000
vt 0.4483 0.8022 0.0000
vt 0.5015 0.8022 0.0000
vt 0.0005 0.1435 0.0000
vt 0.0470 0.1435 0.0000
vt 0.0470 0.1967 0.0000
vt 0.0005 0.1967 0.0000
vt 0.0470 0.6396 0.0000
vt 0.0005 0.6396 0.0000
vt 0.0005 0.5864 0.0000
vt 0.0470 0.5864 0.0000
vt 0.5015 0.0005 0.0000
vt 0.5015 0.0470 0.0000
vt 0.4483 0.0470 0.0000
vt 0.4483 0.0005 0.0000
vt 0.0054 0.0470 0.0000
vt 0.0054 0.0005 0.0000
vt 0.0586 0.0005 0.0000
vt 0.0586 0.0470 0.0000
vt 0.7904 0.7351 0.0000
vt 0.7125 0.7351 0.0000
vt 0.7125 0.9978 0.0000
vt 0.7904 0.9978 0.0000
vt 0.9145 0.2918 0.0000
vt 0.8436 0.2918 0.0000
vt 0.8436 0.2095 0.0000
vt 0.9145 0.2095 0.0000
vt 0.9274 0.2095 0.0000
vt 0.9983 0.2095 0.0000
vt 0.9983 0.2918 0.0000
vt 0.9274 0.2918 0.0000
vt 0.4463 0.4406 0.0000
vt 0.3999 0.4406 0.0000
vt 0.3999 0.1780 0.0000
vt 0.4463 0.1780 0.0000
vt 0.7167 0.1188 0.0000
vt 0.7167 0.1653 0.0000
vt 0.4541 0.1653 0.0000
vt 0.4541 0.1188 0.0000
vt 0.5034 0.7351 0.0000
vt 0.5566 0.7351 0.0000
vt 0.5566 0.9978 0.0000
vt 0.5034 0.9978 0.0000
vt 0.9995 0.9978 0.0000
vt 0.9463 0.9978 0.0000
vt 0.9463 0.7351 0.0000
vt 0.9995 0.7351 0.0000
vt 0.0054 0.7351 0.0000
vt 0.0586 0.7351 0.0000
vt 0.0586 0.9978 0.0000
vt 0.0054 0.9978 0.0000
vt 0.5015 0.9978 0.0000
vt 0.4483 0.9978 0.0000
vt 0.4483 0.7351 0.0000
vt 0.5015 0.7351 0.0000
vt 0.2924 0.2197 0.0000
vt 0.2145 0.2197 0.0000
vt 0.3950 0.6790 0.0000
vt 0.3013 0.6790 0.0000
vt 0.3013 0.6119 0.0000
vt 0.3950 0.6119 0.0000
vt 0.3952 0.4513 0.0000
vt 0.2224 0.4513 0.0000
vt 0.2224 0.3733 0.0000
vt 0.3952 0.3733 0.0000
vt 0.1584 0.7776 0.0000
vt 0.0646 0.7776 0.0000
vt 0.0646 0.7105 0.0000
vt 0.1584 0.7105 0.0000
vt 0.2197 0.3526 0.0000
vt 0.2197 0.4305 0.0000
vt 0.2697 0.5724 0.0000
vt 0.2697 0.6662 0.0000
vt 0.2026 0.6662 0.0000
vt 0.2026 0.5724 0.0000
vt 0.7530 0.7008 0.0000
vt 0.7530 0.5281 0.0000
vt 0.8309 0.5281 0.0000
vt 0.8309 0.7008 0.0000
vt 0.6444 0.4541 0.0000
vt 0.6444 0.5479 0.0000
vt 0.5774 0.5479 0.0000
vt 0.5774 0.4541 0.0000
vt 0.8684 0.9307 0.0000
vt 0.8684 0.8022 0.0000
vt 0.6345 0.8022 0.0000
vt 0.6345 0.9307 0.0000
vt 0.3704 0.9307 0.0000
vt 0.3704 0.8022 0.0000
vt 0.1366 0.8022 0.0000
vt 0.1366 0.9307 0.0000
vt 0.0470 0.2746 0.0000
vt 0.0005 0.2746 0.0000
vt 0.0005 0.5084 0.0000
vt 0.0470 0.5084 0.0000
vt 0.3704 0.0470 0.0000
vt 0.3704 0.0005 0.0000
vt 0.1366 0.0005 0.0000
vt 0.1366 0.0470 0.0000
vt 0.8684 0.7351 0.0000
vt 0.6345 0.7351 0.0000
vt 0.6345 0.9978 0.0000
vt 0.8684 0.9978 0.0000
vt 0.9145 0.4565 0.0000
vt 0.8436 0.4565 0.0000
vt 0.8436 0.3742 0.0000
vt 0.9145 0.3742 0.0000
vt 0.8436 0.0449 0.0000
vt 0.9145 0.0449 0.0000
vt 0.9145 0.1272 0.0000
vt 0.8436 0.1272 0.0000
vt 0.9274 0.0449 0.0000
vt 0.9983 0.0449 0.0000
vt 0.9983 0.1272 0.0000
vt 0.9274 0.1272 0.0000
vt 0.9983 0.4565 0.0000
vt 0.9274 0.4565 0.0000
vt 0.9274 0.3742 0.0000
vt 0.9983 0.3742 0.0000
vt 0.4483 0.1407 0.0000
vt 0.3704 0.1931 0.0000
vt 0.0586 0.1407 0.0000
vt 0.1366 0.1931 0.0000
vt 0.3952 0.5292 0.0000
vt 0.3952 0.6071 0.0000
vt 0.3014 0.6071 0.0000
vt 0.2490 0.5292 0.0000
vt 0.3014 0.2174 0.0000
vt 0.3952 0.2174 0.0000
vt 0.3952 0.2954 0.0000
vt 0.2490 0.2954 0.0000
vt 0.1407 0.1967 0.0000
vt 0.1931 0.2746 0.0000
vt 0.1407 0.5864 0.0000
vt 0.1931 0.5084 0.0000
vt 0.6750 0.7008 0.0000
vt 0.5971 0.7008 0.0000
vt 0.5971 0.6071 0.0000
vt 0.6750 0.5547 0.0000
vt 0.9868 0.6071 0.0000
vt 0.9868 0.7008 0.0000
vt 0.9088 0.7008 0.0000
vt 0.9088 0.5547 0.0000
# 180 texture coords

o BaseInterruptor
g BaseInterruptor
usemtl BaseInterruptor
f 1/1/1 2/2/1 3/3/1 
f 3/3/1 4/4/1 1/1/1 
f 5/5/2 6/6/3 7/7/3 
f 7/7/3 8/8/2 5/5/2 
f 9/9/4 10/10/5 11/11/5 
f 11/11/5 12/12/4 9/9/4 
f 13/13/6 14/14/7 15/15/7 
f 15/15/7 16/16/6 13/13/6 
f 17/17/8 18/18/9 19/19/9 
f 19/19/9 20/20/8 17/17/8 
f 21/21/10 22/22/11 23/23/11 
f 23/23/11 24/24/10 21/21/10 
f 20/25/8 25/26/1 26/27/1 
f 26/27/1 17/28/8 20/25/8 
f 12/29/4 27/30/1 28/31/1 
f 28/31/1 9/32/4 12/29/4 
f 18/33/9 29/34/12 30/35/13 
f 30/35/13 19/36/9 18/33/9 
f 10/37/5 31/38/14 32/39/15 
f 32/39/15 11/40/5 10/37/5 
f 33/41/16 34/42/17 35/43/18 
f 35/43/18 36/44/6 33/41/16 
f 37/45/19 38/46/20 39/47/6 
f 39/47/6 40/48/21 37/45/19 
f 41/49/22 42/50/23 43/51/24 
f 43/51/24 44/52/10 41/49/22 
f 45/53/25 46/54/26 47/55/10 
f 47/55/10 48/56/27 45/53/25 
f 16/57/6 1/1/1 4/4/1 
f 4/4/1 13/58/6 16/57/6 
f 24/59/10 3/3/1 2/2/1 
f 2/2/1 21/60/10 24/59/10 
f 49/61/28 50/62/29 51/63/30 
f 51/63/30 52/64/31 49/61/28 
f 53/65/32 54/66/31 55/67/28 
f 55/67/28 56/68/29 53/65/32 
f 38/69/20 37/70/19 10/10/5 
f 10/10/5 9/9/4 38/69/20 
f 42/71/23 41/72/22 12/12/4 
f 12/12/4 11/11/5 42/71/23 
f 46/73/26 45/74/25 18/18/9 
f 18/18/9 17/17/8 46/73/26 
f 34/75/17 33/76/16 20/20/8 
f 20/20/8 19/19/9 34/75/17 
f 33/77/16 36/78/6 25/26/1 
f 25/26/1 20/25/8 33/77/16 
f 47/79/10 46/80/26 17/28/8 
f 17/28/8 26/27/1 47/79/10 
f 41/81/22 44/82/10 27/30/1 
f 27/30/1 12/29/4 41/81/22 
f 39/83/6 38/84/20 9/32/4 
f 9/32/4 28/31/1 39/83/6 
f 45/85/25 48/86/27 29/34/12 
f 29/34/12 18/33/9 45/85/25 
f 35/87/18 34/88/17 19/36/9 
f 19/36/9 30/35/13 35/87/18 
f 37/89/19 40/90/21 31/38/14 
f 31/38/14 10/37/5 37/89/19 
f 43/91/24 42/92/23 11/40/5 
f 11/40/5 32/39/15 43/91/24 
f 22/22/11 49/93/28 52/94/31 
f 52/94/31 23/23/11 22/22/11 
f 32/95/15 57/96/33 58/97/34 
f 58/97/34 43/98/24 32/95/15 
f 8/99/2 51/100/30 50/101/29 
f 50/101/29 5/102/2 8/99/2 
f 48/103/27 59/104/35 60/105/36 
f 60/105/36 29/106/12 48/103/27 
f 14/14/7 53/107/32 56/108/29 
f 56/108/29 15/15/7 14/14/7 
f 30/109/13 61/110/35 62/111/36 
f 62/111/36 35/112/18 30/109/13 
f 6/113/3 55/114/28 54/115/31 
f 54/115/31 7/116/3 6/113/3 
f 40/117/21 63/118/33 64/119/34 
f 64/119/34 31/120/14 40/117/21 
f 28/31/1 27/30/1 65/121/1 
f 65/121/1 66/122/1 28/31/1 
f 66/122/1 65/121/1 2/2/1 
f 2/2/1 1/1/1 66/122/1 
f 26/27/1 25/26/1 67/123/1 
f 67/123/1 68/124/1 26/27/1 
f 68/124/1 67/123/1 4/4/1 
f 4/4/1 3/3/1 68/124/1 
f 32/39/15 31/38/14 69/125/3 
f 69/125/3 70/126/2 32/39/15 
f 70/126/2 69/125/3 6/6/3 
f 6/6/3 5/5/2 70/126/2 
f 30/35/13 29/34/12 71/127/2 
f 71/127/2 72/128/3 30/35/13 
f 72/128/3 71/127/2 8/8/2 
f 8/8/2 7/7/3 72/128/3 
f 36/44/6 35/43/18 73/129/7 
f 73/129/7 74/130/6 36/44/6 
f 74/130/6 73/129/7 14/14/7 
f 14/14/7 13/13/6 74/130/6 
f 40/48/21 39/47/6 75/131/6 
f 75/131/6 76/132/7 40/48/21 
f 76/132/7 75/131/6 16/16/6 
f 16/16/6 15/15/7 76/132/7 
f 44/52/10 43/51/24 77/133/11 
f 77/133/11 78/134/10 44/52/10 
f 78/134/10 77/133/11 22/22/11 
f 22/22/11 21/21/10 78/134/10 
f 48/56/27 47/55/10 79/135/10 
f 79/135/10 80/136/11 48/56/27 
f 80/136/11 79/135/10 24/24/10 
f 24/24/10 23/23/11 80/136/11 
f 39/83/6 28/31/1 66/122/1 
f 66/122/1 75/137/6 39/83/6 
f 75/137/6 66/122/1 1/1/1 
f 1/1/1 16/57/6 75/137/6 
f 25/26/1 36/78/6 74/138/6 
f 74/138/6 67/123/1 25/26/1 
f 67/123/1 74/138/6 13/58/6 
f 13/58/6 4/4/1 67/123/1 
f 47/79/10 26/27/1 68/124/1 
f 68/124/1 79/139/10 47/79/10 
f 79/139/10 68/124/1 3/3/1 
f 3/3/1 24/59/10 79/139/10 
f 27/30/1 44/82/10 78/140/10 
f 78/140/10 65/121/1 27/30/1 
f 65/121/1 78/140/10 21/60/10 
f 21/60/10 2/2/1 65/121/1 
f 58/141/34 57/142/33 81/143/37 
f 81/143/37 82/144/38 58/141/34 
f 82/144/38 81/143/37 50/62/29 
f 50/62/29 49/61/28 82/144/38 
f 60/145/36 59/146/35 83/147/39 
f 83/147/39 84/148/40 60/145/36 
f 84/148/40 83/147/39 52/64/31 
f 52/64/31 51/63/30 84/148/40 
f 62/149/36 61/150/35 85/151/39 
f 85/151/39 86/152/40 62/149/36 
f 86/152/40 85/151/39 54/66/31 
f 54/66/31 53/65/32 86/152/40 
f 64/153/34 63/154/33 87/155/37 
f 87/155/37 88/156/38 64/153/34 
f 88/156/38 87/155/37 56/68/29 
f 56/68/29 55/67/28 88/156/38 
f 77/133/11 43/51/24 58/157/34 
f 58/157/34 82/158/38 77/133/11 
f 22/22/11 77/133/11 82/158/38 
f 82/158/38 49/93/28 22/22/11 
f 59/159/35 48/56/27 80/136/11 
f 80/136/11 83/160/39 59/159/35 
f 83/160/39 80/136/11 23/23/11 
f 23/23/11 52/94/31 83/160/39 
f 71/161/2 29/162/12 60/163/36 
f 60/163/36 84/164/40 71/161/2 
f 8/99/2 71/161/2 84/164/40 
f 84/164/40 51/100/30 8/99/2 
f 57/165/33 32/166/15 70/167/2 
f 70/167/2 81/168/37 57/165/33 
f 81/168/37 70/167/2 5/102/2 
f 5/102/2 50/101/29 81/168/37 
f 73/129/7 35/43/18 62/169/36 
f 62/169/36 86/170/40 73/129/7 
f 14/14/7 73/129/7 86/170/40 
f 86/170/40 53/107/32 14/14/7 
f 63/171/33 40/48/21 76/132/7 
f 76/132/7 87/172/37 63/171/33 
f 87/172/37 76/132/7 15/15/7 
f 15/15/7 56/108/29 87/172/37 
f 69/173/3 31/174/14 64/175/34 
f 64/175/34 88/176/38 69/173/3 
f 6/113/3 69/173/3 88/176/38 
f 88/176/38 55/114/28 6/113/3 
f 61/177/35 30/178/13 72/179/3 
f 72/179/3 85/180/39 61/177/35 
f 85/180/39 72/179/3 7/116/3 
f 7/116/3 54/115/31 85/180/39 
# 172 faces

