# 3ds Max Wavefront OBJ Exporter v0.97b - (c)2007 guruware
# File Created: 10.03.2018 11:17:46

mtllib Patatas_low.mtl

#
# object Bolsa_LowPoly
#

v  -0.7773 -0.8461 0.8643
v  -0.5788 -0.8374 0.8554
v  0.0000 0.6349 -0.1633
v  -0.7296 -0.7344 0.7540
v  -0.4092 -0.8295 0.8476
v  -0.2467 -0.8234 0.8417
v  -0.1122 -0.8201 0.8385
v  0.0000 -0.8190 0.8374
v  0.1122 -0.8201 0.8385
v  0.2467 -0.8234 0.8417
v  0.4092 -0.8295 0.8476
v  0.5788 -0.8374 0.8554
v  0.7773 -0.8461 0.8643
v  0.7296 -0.7344 0.7540
v  -0.6975 -0.5564 0.7047
v  0.6828 -0.5571 0.7040
v  -0.6644 -0.4063 0.6245
v  0.6644 -0.4063 0.6245
v  -0.6254 -0.2712 0.5285
v  0.6254 -0.2712 0.5285
v  -0.5981 -0.1434 0.4268
v  0.5981 -0.1434 0.4268
v  -0.5825 -0.0222 0.3198
v  0.5825 -0.0222 0.3198
v  -0.5659 0.1040 0.2180
v  0.5659 0.1040 0.2180
v  -0.5659 0.2180 0.1040
v  0.5659 0.2180 0.1040
v  -0.5825 0.3198 -0.0222
v  0.5825 0.3198 -0.0222
v  -0.5981 0.4268 -0.1434
v  0.5981 0.4268 -0.1434
v  -0.6254 0.5285 -0.2712
v  0.6254 0.5285 -0.2712
v  -0.6644 0.6245 -0.4063
v  0.6644 0.6245 -0.4063
v  -0.6876 0.7057 -0.5554
v  0.6837 0.7114 -0.5497
v  -0.7296 0.7540 -0.7344
v  0.7296 0.7540 -0.7344
v  -0.5788 0.8554 -0.8374
v  -0.7773 0.8643 -0.8461
v  -0.4092 0.8476 -0.8295
v  -0.2467 0.8417 -0.8234
v  -0.1122 0.8385 -0.8201
v  0.0000 0.8374 -0.8190
v  0.1122 0.8385 -0.8201
v  0.2467 0.8417 -0.8234
v  0.4092 0.8476 -0.8295
v  0.5788 0.8554 -0.8374
v  0.7773 0.8643 -0.8461
v  -0.7773 -0.8493 0.8611
v  -0.7773 -0.8525 0.8579
v  -0.1122 -0.8267 0.8319
v  0.7773 -0.8525 0.8579
v  0.7773 -0.8493 0.8611
v  0.7297 -0.7471 0.7413
v  0.7773 0.8579 -0.8525
v  0.7773 0.8611 -0.8493
v  0.1122 0.8319 -0.8267
v  -0.7773 0.8579 -0.8525
v  -0.7773 0.8611 -0.8493
v  -0.7297 0.7413 -0.7471
v  -0.7773 -0.8589 0.8515
v  -0.7296 -0.7513 0.7371
v  0.1094 0.1633 -0.6349
v  -0.5788 -0.8501 0.8426
v  -0.4092 -0.8424 0.8347
v  -0.2467 -0.8365 0.8287
v  -0.1122 -0.8332 0.8253
v  0.0000 -0.8322 0.8242
v  0.1122 -0.8332 0.8253
v  0.2467 -0.8365 0.8287
v  0.4092 -0.8424 0.8347
v  0.5788 -0.8501 0.8426
v  0.7296 -0.7513 0.7371
v  0.7773 -0.8589 0.8515
v  -0.6961 -0.7085 0.5526
v  0.6814 -0.7078 0.5533
v  -0.6617 -0.6363 0.3945
v  0.6617 -0.6363 0.3945
v  -0.6218 -0.5463 0.2534
v  0.6218 -0.5463 0.2534
v  -0.5939 -0.4481 0.1220
v  0.5939 -0.4481 0.1220
v  -0.5780 -0.3431 -0.0010
v  0.5780 -0.3431 -0.0010
v  -0.5611 -0.2430 -0.1289
v  0.5611 -0.2430 -0.1289
v  -0.5611 -0.1289 -0.2429
v  0.5611 -0.1289 -0.2429
v  -0.5780 -0.0010 -0.3430
v  0.5780 -0.0010 -0.3430
v  -0.5939 0.1220 -0.4481
v  0.5939 0.1220 -0.4481
v  -0.6218 0.2534 -0.5462
v  0.6218 0.2534 -0.5462
v  -0.6617 0.3945 -0.6362
v  0.6617 0.3945 -0.6362
v  -0.6778 0.5459 -0.7152
v  0.6893 0.5459 -0.7152
v  -0.7296 0.7371 -0.7513
v  0.7296 0.7371 -0.7513
v  -0.7773 0.8515 -0.8589
v  -0.5788 0.8426 -0.8501
v  -0.4092 0.8347 -0.8423
v  -0.2467 0.8287 -0.8365
v  -0.1122 0.8253 -0.8332
v  0.0000 0.8242 -0.8322
v  0.1122 0.8253 -0.8332
v  0.2467 0.8287 -0.8365
v  0.4092 0.8347 -0.8423
v  0.5788 0.8426 -0.8501
v  0.7773 0.8515 -0.8589
v  -0.7773 -0.8557 0.8547
v  0.7773 -0.8557 0.8547
v  0.7773 0.8547 -0.8557
v  -0.7773 0.8547 -0.8557
# 118 vertices

vn -0.5850 -0.0547 0.8092
vn 0.0398 0.0355 0.9986
vn -0.0017 0.8061 0.5918
vn -0.4651 0.6889 0.5559
vn 0.0345 0.2122 0.9766
vn 0.0339 0.0295 0.9990
vn 0.0183 -0.0882 0.9959
vn -0.0071 0.0659 0.9978
vn -0.0161 0.2502 0.9681
vn -0.0183 0.3844 0.9230
vn -0.0184 0.4683 0.8834
vn 0.0070 0.4916 0.8708
vn 0.6546 0.0373 0.7551
vn 0.7358 0.5623 0.3774
vn -0.2030 0.3276 0.9228
vn 0.0712 0.2772 0.9582
vn -0.2821 0.5134 0.8105
vn 0.6098 0.5113 0.6056
vn -0.3181 0.6106 0.7253
vn 0.6036 0.5460 0.5810
vn -0.4026 0.6229 0.6708
vn 0.5752 0.5657 0.5908
vn -0.4667 0.6145 0.6360
vn 0.5865 0.5688 0.5767
vn -0.4653 0.5993 0.6514
vn 0.4898 0.5854 0.6461
vn -0.5370 0.6051 0.5878
vn 0.5132 0.6115 0.6022
vn -0.6303 0.5553 0.5425
vn 0.5147 0.6191 0.5931
vn -0.6425 0.5365 0.5472
vn 0.4791 0.6279 0.6133
vn -0.7251 0.4626 0.5102
vn 0.4706 0.6439 0.6033
vn -0.7990 0.4096 0.4402
vn 0.6156 0.6175 0.4897
vn -0.6184 0.6993 0.3586
vn 0.5457 0.7547 0.3642
vn -0.7914 0.3880 0.4725
vn 0.3054 0.6721 0.6746
vn -0.0417 0.9018 0.4301
vn -0.6546 0.7551 0.0373
vn 0.0274 0.9450 0.3258
vn 0.0246 0.9709 0.2383
vn 0.0192 0.9948 0.0998
vn 0.0065 0.9962 -0.0868
vn -0.0207 0.9708 -0.2390
vn -0.0385 0.9915 -0.1241
vn -0.0422 0.9974 0.0584
vn -0.0467 0.9918 -0.1192
vn 0.6109 0.7877 -0.0792
vn -0.6937 -0.5081 0.5106
vn -0.6950 -0.5084 0.5084
vn 0.0234 -0.7069 0.7069
vn 0.7908 -0.4328 0.4328
vn 0.7908 -0.4327 0.4328
vn 0.9703 0.1665 -0.1757
vn 0.6950 0.5084 -0.5084
vn 0.6936 0.5106 -0.5081
vn -0.0234 0.7069 -0.7069
vn -0.7908 0.4328 -0.4328
vn -0.7909 0.4328 -0.4327
vn -0.9706 -0.1784 0.1615
vn -0.6665 -0.7453 0.0175
vn -0.4310 -0.6053 -0.6692
vn 0.0242 -0.5803 -0.8140
vn 0.0366 -0.9873 -0.1545
vn 0.0347 -0.9779 -0.2060
vn 0.0341 -0.9991 -0.0271
vn 0.0184 -0.9957 0.0905
vn -0.0070 -0.9979 -0.0640
vn -0.0161 -0.9684 -0.2491
vn -0.0184 -0.9236 -0.3828
vn -0.0184 -0.8865 -0.4624
vn -0.0010 -0.9671 -0.2544
vn 0.7280 -0.3918 -0.5627
vn 0.6518 -0.7581 -0.0230
vn -0.2350 -0.9268 -0.2930
vn -0.0906 -0.9719 -0.2175
vn -0.2804 -0.8387 -0.4669
vn 0.5063 -0.6922 -0.5142
vn -0.2896 -0.7643 -0.5762
vn 0.4546 -0.7109 -0.5366
vn -0.3796 -0.6975 -0.6078
vn 0.5093 -0.6475 -0.5668
vn -0.4494 -0.6538 -0.6088
vn 0.5632 -0.5983 -0.5699
vn -0.4459 -0.6656 -0.5985
vn 0.4656 -0.6656 -0.5832
vn -0.5177 -0.5921 -0.6175
vn 0.5203 -0.5983 -0.6093
vn -0.6091 -0.5440 -0.5770
vn 0.5402 -0.5749 -0.6145
vn -0.6174 -0.5464 -0.5659
vn 0.5087 -0.5917 -0.6254
vn -0.6969 -0.5043 -0.5098
vn 0.5078 -0.5703 -0.6457
vn -0.7868 -0.4360 -0.4369
vn 0.6008 -0.4749 -0.6431
vn -0.4909 -0.3302 -0.8062
vn 0.5646 -0.3171 -0.7620
vn -0.7857 -0.4816 -0.3881
vn 0.4131 -0.6453 -0.6426
vn -0.6518 -0.0231 -0.7581
vn -0.0357 -0.1917 -0.9808
vn 0.0279 -0.3143 -0.9489
vn 0.0251 -0.2321 -0.9724
vn 0.0196 -0.0948 -0.9953
vn 0.0069 0.0915 -0.9958
vn -0.0206 0.2428 -0.9699
vn -0.0385 0.1273 -0.9911
vn -0.0421 -0.0521 -0.9978
vn -0.0441 -0.0003 -0.9990
vn 0.6917 0.0619 -0.7195
vn -0.7353 -0.5258 0.4277
vn 0.7876 -0.4399 0.4315
vn 0.7352 0.4277 -0.5258
vn -0.7876 0.4315 -0.4399
# 118 vertex normals

vt 0.4885 0.9266 0.0000
vt 0.4322 0.9230 0.0000
vt 0.2680 0.4234 0.0000
vt 0.4828 0.8040 0.0000
vt 0.4763 0.2928 0.0000
vt 0.4856 0.2472 0.0000
vt 0.3841 0.9199 0.0000
vt 0.3380 0.9175 0.0000
vt 0.2998 0.9162 0.0000
vt 0.2680 0.9157 0.0000
vt 0.2362 0.9162 0.0000
vt 0.1980 0.9175 0.0000
vt 0.1519 0.9199 0.0000
vt 0.1038 0.9230 0.0000
vt 0.0475 0.9266 0.0000
vt 0.0610 0.8820 0.0000
vt 0.4469 0.0827 0.0000
vt 0.8599 0.1476 0.0000
vt 0.9055 0.1734 0.0000
vt 0.0461 0.3353 0.0000
vt 0.0546 0.8465 0.0000
vt 0.0357 0.7960 0.0000
vt 0.2680 0.4125 0.0000
vt 0.4564 0.7794 0.0000
vt 0.4658 0.8256 0.0000
vt 0.0743 0.8256 0.0000
vt 0.0795 0.7794 0.0000
vt 0.4454 0.7330 0.0000
vt 0.0906 0.7330 0.0000
vt 0.4376 0.6870 0.0000
vt 0.0983 0.6870 0.0000
vt 0.4332 0.6412 0.0000
vt 0.1028 0.6412 0.0000
vt 0.4285 0.5955 0.0000
vt 0.1075 0.5955 0.0000
vt 0.4285 0.5498 0.0000
vt 0.1075 0.5498 0.0000
vt 0.4332 0.5040 0.0000
vt 0.1028 0.5040 0.0000
vt 0.4376 0.4583 0.0000
vt 0.0983 0.4583 0.0000
vt 0.4454 0.4122 0.0000
vt 0.0906 0.4122 0.0000
vt 0.4564 0.3659 0.0000
vt 0.0795 0.3659 0.0000
vt 0.4630 0.3197 0.0000
vt 0.0740 0.3197 0.0000
vt 0.4749 0.2741 0.0000
vt 0.0610 0.2741 0.0000
vt 0.4322 0.2331 0.0000
vt 0.4885 0.2296 0.0000
vt 0.3841 0.2363 0.0000
vt 0.3380 0.2386 0.0000
vt 0.2998 0.2400 0.0000
vt 0.2680 0.2404 0.0000
vt 0.2362 0.2400 0.0000
vt 0.1980 0.2386 0.0000
vt 0.1519 0.2363 0.0000
vt 0.1038 0.2331 0.0000
vt 0.0475 0.2296 0.0000
vt 0.5833 0.3882 0.0000
vt 0.5846 0.3882 0.0000
vt 0.5846 0.5768 0.0000
vt 0.0148 0.7051 0.0000
vt 0.0135 0.7051 0.0000
vt 0.0149 0.4528 0.0000
vt 0.7008 0.1508 0.0000
vt 0.7008 0.1521 0.0000
vt 0.6563 0.1544 0.0000
vt 0.0207 0.7948 0.0000
vt 0.0194 0.7948 0.0000
vt 0.0229 0.1532 0.0000
vt 0.5716 0.3588 0.0000
vt 0.5728 0.3588 0.0000
vt 0.5729 0.5475 0.0000
vt 0.9694 0.0090 0.0000
vt 0.9694 0.0103 0.0000
vt 0.7171 0.0089 0.0000
vt 0.0064 0.0775 0.0000
vt 0.0064 0.0762 0.0000
vt 0.0509 0.0739 0.0000
vt 0.0027 0.0064 0.0000
vt 0.0040 0.0064 0.0000
vt 0.0005 0.6480 0.0000
vt 0.5467 0.9089 0.0000
vt 0.5603 0.8644 0.0000
vt 0.7983 0.4058 0.0000
vt 0.6030 0.9054 0.0000
vt 0.6512 0.9022 0.0000
vt 0.6972 0.8999 0.0000
vt 0.7354 0.8985 0.0000
vt 0.7672 0.8981 0.0000
vt 0.7991 0.8985 0.0000
vt 0.8372 0.8999 0.0000
vt 0.8833 0.9022 0.0000
vt 0.9314 0.9054 0.0000
vt 0.9742 0.8644 0.0000
vt 0.9877 0.9089 0.0000
vt 0.5484 0.2531 0.0000
vt 0.5720 0.3023 0.0000
vt 0.5467 0.7778 0.0000
vt 0.9539 0.1463 0.0000
vt 0.9995 0.1745 0.0000
vt 0.5409 0.0827 0.0000
vt 0.5698 0.8080 0.0000
vt 0.5795 0.7618 0.0000
vt 0.7983 0.3949 0.0000
vt 0.9549 0.7618 0.0000
vt 0.9605 0.8080 0.0000
vt 0.5909 0.7154 0.0000
vt 0.9436 0.7154 0.0000
vt 0.5988 0.6694 0.0000
vt 0.9357 0.6694 0.0000
vt 0.6033 0.6236 0.0000
vt 0.9312 0.6236 0.0000
vt 0.6081 0.5779 0.0000
vt 0.9264 0.5779 0.0000
vt 0.6081 0.5321 0.0000
vt 0.9264 0.5321 0.0000
vt 0.6033 0.4864 0.0000
vt 0.9312 0.4864 0.0000
vt 0.5988 0.4407 0.0000
vt 0.9357 0.4407 0.0000
vt 0.5909 0.3946 0.0000
vt 0.9436 0.3946 0.0000
vt 0.5795 0.3483 0.0000
vt 0.9549 0.3483 0.0000
vt 0.5750 0.3021 0.0000
vt 0.9627 0.3021 0.0000
vt 0.5603 0.2565 0.0000
vt 0.9742 0.2565 0.0000
vt 0.5467 0.2119 0.0000
vt 0.6030 0.2155 0.0000
vt 0.6512 0.2186 0.0000
vt 0.6972 0.2210 0.0000
vt 0.7354 0.2223 0.0000
vt 0.7672 0.2228 0.0000
vt 0.7991 0.2223 0.0000
vt 0.8372 0.2210 0.0000
vt 0.8833 0.2186 0.0000
vt 0.9314 0.2155 0.0000
vt 0.9877 0.2119 0.0000
vt 0.5859 0.3882 0.0000
vt 0.0161 0.7051 0.0000
vt 0.7008 0.1534 0.0000
vt 0.0220 0.7948 0.0000
vt 0.5741 0.3588 0.0000
vt 0.9694 0.0077 0.0000
vt 0.0064 0.0749 0.0000
vt 0.0015 0.0064 0.0000
vt 0.5821 0.4445 0.0000
vt 0.5820 0.3882 0.0000
vt 0.5820 0.4926 0.0000
vt 0.5820 0.5387 0.0000
vt 0.5820 0.5768 0.0000
vt 0.5820 0.6086 0.0000
vt 0.5820 0.6405 0.0000
vt 0.5820 0.6786 0.0000
vt 0.0122 0.7051 0.0000
vt 0.6563 0.1493 0.0000
vt 0.7008 0.1495 0.0000
vt 0.6107 0.1237 0.0000
vt 0.5645 0.1094 0.0000
vt 0.5182 0.1016 0.0000
vt 0.4721 0.0964 0.0000
vt 0.4264 0.0935 0.0000
vt 0.3806 0.0886 0.0000
vt 0.3349 0.0886 0.0000
vt 0.2892 0.0935 0.0000
vt 0.2434 0.0964 0.0000
vt 0.0610 0.8712 0.0000
vt 0.5111 0.7634 0.0000
vt 0.4998 0.7172 0.0000
vt 0.5447 0.2119 0.0000
vt 0.5396 0.8090 0.0000
vt 0.0181 0.7948 0.0000
vt 0.5703 0.4151 0.0000
vt 0.5703 0.3588 0.0000
vt 0.5703 0.4632 0.0000
vt 0.5703 0.5093 0.0000
vt 0.5702 0.5475 0.0000
vt 0.5702 0.5793 0.0000
vt 0.5702 0.6111 0.0000
vt 0.5703 0.6493 0.0000
vt 0.9694 0.0115 0.0000
vt 0.0509 0.0790 0.0000
vt 0.0064 0.0788 0.0000
vt 0.0965 0.1052 0.0000
vt 0.1427 0.1189 0.0000
vt 0.1890 0.1267 0.0000
vt 0.2351 0.1319 0.0000
vt 0.2808 0.1348 0.0000
vt 0.3266 0.1397 0.0000
vt 0.3723 0.1397 0.0000
vt 0.4180 0.1348 0.0000
vt 0.4638 0.1319 0.0000
vt 0.4750 0.2741 0.0000
vt 0.5189 0.2634 0.0000
vt 0.5329 0.3096 0.0000
vt 0.4880 0.8149 0.0000
vt 0.4931 0.2178 0.0000
vt 0.0375 0.9886 0.0000
vt 0.0240 0.9441 0.0000
vt 0.0240 0.3470 0.0000
vt 0.0053 0.0064 0.0000
vt 0.5872 0.3882 0.0000
vt 0.5872 0.4445 0.0000
vt 0.5872 0.4926 0.0000
vt 0.5872 0.5387 0.0000
vt 0.5873 0.5768 0.0000
vt 0.5873 0.6086 0.0000
vt 0.5873 0.6405 0.0000
vt 0.5872 0.6786 0.0000
vt 0.0174 0.6488 0.0000
vt 0.0174 0.7051 0.0000
vt 0.7008 0.1547 0.0000
vt 0.6563 0.1561 0.0000
vt 0.6107 0.1842 0.0000
vt 0.5645 0.2017 0.0000
vt 0.5182 0.2119 0.0000
vt 0.4721 0.2186 0.0000
vt 0.4264 0.2222 0.0000
vt 0.3806 0.2278 0.0000
vt 0.3349 0.2278 0.0000
vt 0.2892 0.2222 0.0000
vt 0.2434 0.2186 0.0000
vt 0.1974 0.2119 0.0000
vt 0.1510 0.2017 0.0000
vt 0.1048 0.1871 0.0000
vt 0.0592 0.1561 0.0000
vt 0.0090 0.0005 0.0000
vt 0.0077 0.0450 0.0000
vt 0.0064 0.0450 0.0000
vt 0.0199 0.1532 0.0000
vt 0.0064 0.7948 0.0000
vt 0.0064 0.1977 0.0000
vt 0.5754 0.3588 0.0000
vt 0.5754 0.4151 0.0000
vt 0.5755 0.4632 0.0000
vt 0.5755 0.5093 0.0000
vt 0.5755 0.5475 0.0000
vt 0.5755 0.5793 0.0000
vt 0.5755 0.6111 0.0000
vt 0.5755 0.6493 0.0000
vt 0.9131 0.0064 0.0000
vt 0.9694 0.0064 0.0000
vt 0.0064 0.0736 0.0000
vt 0.0509 0.0722 0.0000
vt 0.0965 0.0411 0.0000
vt 0.1427 0.0266 0.0000
vt 0.1890 0.0164 0.0000
vt 0.2351 0.0097 0.0000
vt 0.2808 0.0061 0.0000
vt 0.3266 0.0005 0.0000
vt 0.3723 0.0005 0.0000
vt 0.4180 0.0061 0.0000
vt 0.4638 0.0097 0.0000
vt 0.5098 0.0164 0.0000
vt 0.5562 0.0266 0.0000
vt 0.6024 0.0438 0.0000
vt 0.6480 0.0722 0.0000
vt 0.0122 0.0005 0.0000
vt 0.0568 0.0019 0.0000
vt 0.0568 0.0032 0.0000
vt 0.0493 0.0886 0.0000
vt 0.0358 0.7302 0.0000
vt 0.0357 0.1331 0.0000
# 267 texture coords

o Bolsa_LowPoly
g Bolsa_LowPoly
usemtl Patatas_low
f 1/1/1 2/2/2 3/3/3 
f 3/4/3 4/5/4 1/6/1 
f 2/2/2 5/7/5 3/3/3 
f 5/7/5 6/8/6 3/3/3 
f 6/8/6 7/9/7 3/3/3 
f 7/9/7 8/10/8 3/3/3 
f 8/10/8 9/11/9 3/3/3 
f 9/11/9 10/12/10 3/3/3 
f 10/12/10 11/13/11 3/3/3 
f 11/13/11 12/14/12 3/3/3 
f 12/14/12 13/15/13 14/16/14 
f 14/16/14 3/3/3 12/14/12 
f 3/17/3 15/18/15 4/19/4 
f 3/20/3 14/21/14 16/22/16 
f 3/23/3 17/24/17 15/25/15 
f 3/23/3 16/26/16 18/27/18 
f 3/23/3 19/28/19 17/24/17 
f 3/23/3 18/27/18 20/29/20 
f 3/23/3 21/30/21 19/28/19 
f 3/23/3 20/29/20 22/31/22 
f 3/23/3 23/32/23 21/30/21 
f 3/23/3 22/31/22 24/33/24 
f 3/23/3 25/34/25 23/32/23 
f 3/23/3 24/33/24 26/35/26 
f 3/23/3 27/36/27 25/34/25 
f 3/23/3 26/35/26 28/37/28 
f 3/23/3 29/38/29 27/36/27 
f 3/23/3 28/37/28 30/39/30 
f 3/23/3 31/40/31 29/38/29 
f 3/23/3 30/39/30 32/41/32 
f 3/23/3 33/42/33 31/40/31 
f 3/23/3 32/41/32 34/43/34 
f 3/23/3 35/44/35 33/42/33 
f 3/23/3 34/43/34 36/45/36 
f 3/23/3 37/46/37 35/44/35 
f 3/23/3 36/45/36 38/47/38 
f 3/23/3 39/48/39 37/46/37 
f 3/23/3 38/47/38 40/49/40 
f 39/48/39 3/23/3 41/50/41 
f 41/50/41 42/51/42 39/48/39 
f 43/52/43 41/50/41 3/23/3 
f 44/53/44 43/52/43 3/23/3 
f 45/54/45 44/53/44 3/23/3 
f 46/55/46 45/54/45 3/23/3 
f 47/56/47 46/55/46 3/23/3 
f 48/57/48 47/56/47 3/23/3 
f 49/58/49 48/57/48 3/23/3 
f 50/59/50 49/58/49 3/23/3 
f 3/23/3 40/49/40 51/60/51 
f 51/60/51 50/59/50 3/23/3 
f 52/61/52 53/62/53 54/63/54 
f 55/64/55 56/65/56 54/66/54 
f 56/67/56 55/68/55 57/69/57 
f 58/70/58 59/71/59 57/72/57 
f 59/73/59 58/74/58 60/75/60 
f 61/76/61 62/77/62 60/78/60 
f 62/79/62 61/80/61 63/81/63 
f 53/82/53 52/83/52 63/84/63 
f 64/85/64 65/86/65 66/87/66 
f 66/87/66 67/88/67 64/85/64 
f 66/87/66 68/89/68 67/88/67 
f 66/87/66 69/90/69 68/89/68 
f 66/87/66 70/91/70 69/90/69 
f 66/87/66 71/92/71 70/91/70 
f 66/87/66 72/93/72 71/92/71 
f 66/87/66 73/94/73 72/93/72 
f 66/87/66 74/95/74 73/94/73 
f 66/87/66 75/96/75 74/95/74 
f 75/96/75 66/87/66 76/97/76 
f 76/97/76 77/98/77 75/96/75 
f 65/99/65 78/100/78 66/101/66 
f 79/102/79 76/103/76 66/104/66 
f 78/105/78 80/106/80 66/107/66 
f 81/108/81 79/109/79 66/107/66 
f 80/106/80 82/110/82 66/107/66 
f 83/111/83 81/108/81 66/107/66 
f 82/110/82 84/112/84 66/107/66 
f 85/113/85 83/111/83 66/107/66 
f 84/112/84 86/114/86 66/107/66 
f 87/115/87 85/113/85 66/107/66 
f 86/114/86 88/116/88 66/107/66 
f 89/117/89 87/115/87 66/107/66 
f 88/116/88 90/118/90 66/107/66 
f 91/119/91 89/117/89 66/107/66 
f 90/118/90 92/120/92 66/107/66 
f 93/121/93 91/119/91 66/107/66 
f 92/120/92 94/122/94 66/107/66 
f 95/123/95 93/121/93 66/107/66 
f 94/122/94 96/124/96 66/107/66 
f 97/125/97 95/123/95 66/107/66 
f 96/124/96 98/126/98 66/107/66 
f 99/127/99 97/125/97 66/107/66 
f 98/126/98 100/128/100 66/107/66 
f 101/129/101 99/127/99 66/107/66 
f 100/128/100 102/130/102 66/107/66 
f 103/131/103 101/129/101 66/107/66 
f 102/130/102 104/132/104 105/133/105 
f 105/133/105 66/107/66 102/130/102 
f 66/107/66 105/133/105 106/134/106 
f 66/107/66 106/134/106 107/135/107 
f 66/107/66 107/135/107 108/136/108 
f 66/107/66 108/136/108 109/137/109 
f 66/107/66 109/137/109 110/138/110 
f 66/107/66 110/138/110 111/139/111 
f 66/107/66 111/139/111 112/140/112 
f 66/107/66 112/140/112 113/141/113 
f 66/107/66 113/141/113 114/142/114 
f 114/142/114 103/131/103 66/107/66 
f 54/63/54 53/62/53 115/143/115 
f 54/66/54 116/144/116 55/64/55 
f 57/69/57 55/68/55 116/145/116 
f 57/72/57 117/146/117 58/70/58 
f 60/75/60 58/74/58 117/147/117 
f 60/78/60 118/148/118 61/76/61 
f 63/81/63 61/80/61 118/149/118 
f 63/84/63 115/150/115 53/82/53 
f 2/151/2 1/152/1 52/61/52 
f 52/61/52 54/63/54 2/151/2 
f 5/153/5 2/151/2 54/63/54 
f 6/154/6 5/153/5 54/63/54 
f 7/155/7 6/154/6 54/63/54 
f 8/156/8 7/155/7 54/63/54 
f 9/157/9 8/156/8 54/63/54 
f 10/158/10 9/157/9 54/63/54 
f 11/13/11 10/12/10 54/9/54 
f 12/14/12 11/13/11 54/9/54 
f 13/15/13 12/14/12 54/9/54 
f 54/66/54 56/65/56 13/159/13 
f 14/160/14 13/161/13 56/67/56 
f 56/67/56 57/69/57 14/160/14 
f 57/69/57 16/162/16 14/160/14 
f 57/69/57 18/163/18 16/162/16 
f 57/69/57 20/164/20 18/163/18 
f 57/69/57 22/165/22 20/164/20 
f 57/69/57 24/166/24 22/165/22 
f 57/69/57 26/167/26 24/166/24 
f 28/168/28 26/167/26 57/69/57 
f 30/169/30 28/168/28 57/69/57 
f 32/170/32 30/169/30 57/69/57 
f 34/43/34 32/41/32 57/171/57 
f 36/45/36 34/43/34 57/171/57 
f 38/172/38 36/173/36 57/174/57 
f 40/175/40 38/172/38 57/174/57 
f 51/60/51 40/49/40 57/171/57 
f 57/72/57 59/71/59 51/176/51 
f 50/177/50 51/178/51 59/73/59 
f 59/73/59 60/75/60 50/177/50 
f 49/179/49 50/177/50 60/75/60 
f 48/180/48 49/179/49 60/75/60 
f 47/181/47 48/180/48 60/75/60 
f 46/182/46 47/181/47 60/75/60 
f 45/183/45 46/182/46 60/75/60 
f 44/184/44 45/183/45 60/75/60 
f 43/52/43 44/53/44 60/56/60 
f 41/50/41 43/52/43 60/56/60 
f 42/51/42 41/50/41 60/56/60 
f 60/78/60 62/77/62 42/185/42 
f 39/186/39 42/187/42 62/79/62 
f 62/79/62 63/81/63 39/186/39 
f 63/81/63 37/188/37 39/186/39 
f 63/81/63 35/189/35 37/188/37 
f 63/81/63 33/190/33 35/189/35 
f 63/81/63 31/191/31 33/190/33 
f 63/81/63 29/192/29 31/191/31 
f 63/81/63 27/193/27 29/192/29 
f 25/194/25 27/193/27 63/81/63 
f 23/195/23 25/194/25 63/81/63 
f 21/196/21 23/195/23 63/81/63 
f 19/28/19 21/30/21 63/197/63 
f 17/24/17 19/28/19 63/197/63 
f 15/198/15 17/199/17 63/200/63 
f 4/201/4 15/198/15 63/200/63 
f 1/202/1 4/203/4 63/204/63 
f 63/84/63 52/83/52 1/205/1 
f 64/206/64 67/207/67 54/63/54 
f 54/63/54 115/143/115 64/206/64 
f 67/207/67 68/208/68 54/63/54 
f 68/208/68 69/209/69 54/63/54 
f 69/209/69 70/210/70 54/63/54 
f 70/210/70 71/211/71 54/63/54 
f 71/211/71 72/212/72 54/63/54 
f 72/212/72 73/213/73 54/63/54 
f 73/94/73 74/95/74 54/91/54 
f 74/95/74 75/96/75 54/91/54 
f 75/214/75 77/215/77 116/144/116 
f 116/144/116 54/66/54 75/214/75 
f 77/216/77 76/217/76 57/69/57 
f 57/69/57 116/145/116 77/216/77 
f 76/217/76 79/218/79 57/69/57 
f 79/218/79 81/219/81 57/69/57 
f 81/219/81 83/220/83 57/69/57 
f 83/220/83 85/221/85 57/69/57 
f 85/221/85 87/222/87 57/69/57 
f 87/222/87 89/223/89 57/69/57 
f 89/223/89 91/224/91 57/69/57 
f 57/69/57 91/224/91 93/225/93 
f 57/69/57 93/225/93 95/226/95 
f 57/69/57 95/226/95 97/227/97 
f 57/69/57 97/227/97 99/228/99 
f 57/69/57 99/228/99 101/229/101 
f 57/69/57 101/229/101 103/230/103 
f 103/231/103 114/232/114 117/233/117 
f 117/234/117 57/235/57 103/236/103 
f 114/237/114 113/238/113 60/75/60 
f 60/75/60 117/147/117 114/237/114 
f 113/238/113 112/239/112 60/75/60 
f 112/239/112 111/240/111 60/75/60 
f 111/240/111 110/241/110 60/75/60 
f 110/241/110 109/242/109 60/75/60 
f 109/242/109 108/243/108 60/75/60 
f 108/243/108 107/244/107 60/75/60 
f 107/135/107 106/134/106 60/138/60 
f 106/134/106 105/133/105 60/138/60 
f 105/245/105 104/246/104 118/148/118 
f 118/148/118 60/78/60 105/245/105 
f 104/247/104 102/248/102 63/81/63 
f 63/81/63 118/149/118 104/247/104 
f 102/248/102 100/249/100 63/81/63 
f 100/249/100 98/250/98 63/81/63 
f 98/250/98 96/251/96 63/81/63 
f 96/251/96 94/252/94 63/81/63 
f 94/252/94 92/253/92 63/81/63 
f 92/253/92 90/254/90 63/81/63 
f 90/254/90 88/255/88 63/81/63 
f 63/81/63 88/255/88 86/256/86 
f 63/81/63 86/256/86 84/257/84 
f 63/81/63 84/257/84 82/258/82 
f 63/81/63 82/258/82 80/259/80 
f 63/81/63 80/259/80 78/260/78 
f 63/81/63 78/260/78 65/261/65 
f 65/262/65 64/263/64 115/264/115 
f 115/265/115 63/266/63 65/267/65 
# 0 polygons - 232 triangles

