# 3ds Max Wavefront OBJ Exporter v0.97b - (c)2007 guruware
# File Created: 25.03.2018 13:23:30

mtllib ApoyoEdificio1.mtl

#
# object Box131
#

v  -324.0557 0.0000 491.3611
v  -324.0557 0.0000 448.7712
v  -300.6432 0.0000 448.7712
v  -300.6432 0.0000 491.3611
v  -324.0557 7.7231 491.3611
v  -300.6432 7.7231 491.3611
v  -300.6432 7.7231 448.7712
v  -324.0557 7.7231 448.7712
v  -306.2404 6.4146 479.9018
v  -308.4658 6.4146 481.7691
v  -311.1956 6.4146 482.7627
v  -314.1007 6.4146 482.7627
v  -316.8306 6.4146 481.7691
v  -319.0560 6.4146 479.9018
v  -320.5085 6.4146 477.3859
v  -321.0130 6.4146 474.5250
v  -320.5085 6.4146 471.6640
v  -319.0560 6.4146 469.1482
v  -316.8306 6.4146 467.2808
v  -314.1007 6.4146 466.2872
v  -311.1956 6.4146 466.2872
v  -308.4658 6.4146 467.2808
v  -306.2404 6.4146 469.1482
v  -304.7878 6.4146 471.6640
v  -304.2834 6.4146 474.5250
v  -304.7878 6.4146 477.3859
v  -304.7878 13.2228 471.6640
v  -304.2834 13.2228 474.5250
v  -306.2404 13.2228 469.1482
v  -308.4658 13.2228 467.2808
v  -311.1956 13.2228 466.2872
v  -314.1007 13.2228 466.2872
v  -316.8306 13.2228 467.2808
v  -319.0560 13.2228 469.1482
v  -320.5085 13.2228 471.6640
v  -321.0130 13.2228 474.5250
v  -320.5085 13.2228 477.3859
v  -319.0560 13.2228 479.9018
v  -316.8306 13.2228 481.7691
v  -314.1007 13.2228 482.7627
v  -311.1956 13.2228 482.7627
v  -308.4658 13.2228 481.7691
v  -306.2404 13.2228 479.9018
v  -304.7878 13.2228 477.3859
v  -317.3638 13.2231 470.6436
v  -312.7502 13.2231 470.6436
v  -312.7502 13.2231 478.4395
v  -317.3638 13.2231 478.4395
v  -331.2297 67.8065 447.6729
v  -331.2297 67.8065 441.8770
v  -333.8433 67.8065 441.8770
v  -333.8433 67.8065 447.6729
v  -312.7502 15.9130 478.4395
v  -317.3638 15.9130 478.4395
v  -308.1367 15.9130 470.6436
v  -308.1367 15.9130 478.4395
v  -308.1367 13.2231 478.4395
v  -308.1367 13.2231 470.6436
v  -312.7502 15.9130 470.6436
v  -317.3638 15.9130 470.6436
v  -259.7729 60.2421 487.4579
v  -259.7729 60.2421 481.6619
v  -262.3864 60.2421 481.6619
v  -262.3864 60.2421 487.4579
v  -313.7502 15.9130 477.4395
v  -316.3638 15.9130 477.4395
v  -313.7502 15.9130 471.6436
v  -316.3638 15.9130 471.6436
v  -309.1367 15.9130 477.4395
v  -311.7502 15.9130 477.4395
v  -309.1367 15.9130 471.6436
v  -311.7502 15.9130 471.6436
v  -318.9337 31.3018 468.6124
v  -321.5472 31.3018 468.6124
v  -320.5483 28.3361 470.3135
v  -317.9347 28.3361 470.3135
v  -320.5483 28.3361 464.5176
v  -321.5472 31.3018 462.8164
v  -318.9337 31.3018 462.8164
v  -317.9347 28.3361 464.5176
v  -297.3192 26.5252 479.8379
v  -294.4980 29.0586 480.4104
v  -297.1116 29.0586 480.4104
v  -299.9327 26.5252 479.8379
v  -294.4980 29.0586 474.6145
v  -297.3192 26.5252 474.0419
v  -297.1116 29.0586 474.6145
v  -299.9327 26.5252 474.0419
v  -318.6346 30.4139 464.3921
v  -318.2338 29.2239 465.0746
v  -318.6346 30.4139 468.0553
v  -318.2338 29.2239 468.7379
v  -297.8087 28.4326 479.3215
v  -299.2357 27.1512 479.0319
v  -297.8087 28.4326 475.4205
v  -299.2357 27.1512 475.1309
v  -313.9454 47.9907 500.3934
v  -313.2135 48.5382 499.2378
v  -314.4593 48.1173 498.8992
v  -315.0825 47.6137 500.0710
v  -305.9661 27.8855 471.5683
v  -305.9661 27.8855 475.3850
v  -307.0518 28.0039 474.7967
v  -307.0518 28.0039 470.9936
v  -306.3768 29.2478 470.8832
v  -305.1866 29.1345 471.5135
v  -306.3768 29.2478 474.6864
v  -305.1866 29.1345 475.3302
# 108 vertices

vn 0.0000 -1.0000 -0.0000
vn 0.0000 1.0000 -0.0000
vn 0.0000 0.0000 1.0000
vn 1.0000 0.0000 -0.0000
vn 0.0000 0.0000 -1.0000
vn -1.0000 0.0000 -0.0000
vn 1.0000 0.0000 0.0000
vn 0.9397 0.0000 -0.3420
vn 0.7660 0.0000 -0.6428
vn 0.5000 0.0000 -0.8660
vn 0.1736 0.0000 -0.9848
vn -0.1736 0.0000 -0.9848
vn -0.5000 0.0000 -0.8660
vn -0.7660 0.0000 -0.6428
vn -0.9397 0.0000 -0.3420
vn -0.9397 0.0000 0.3420
vn -0.7660 0.0000 0.6428
vn -0.5000 0.0000 0.8660
vn -0.1736 0.0000 0.9848
vn 0.1736 0.0000 0.9848
vn 0.5000 0.0000 0.8660
vn 0.7660 0.0000 0.6428
vn 0.9397 0.0000 0.3420
vn 0.0000 0.4976 0.8674
vn 0.0000 -0.4976 -0.8674
vn -0.9477 -0.3192 -0.0000
vn 0.0000 -0.2204 0.9754
vn 0.6681 -0.7440 -0.0000
vn 0.0000 0.2204 -0.9754
vn 0.9477 0.3192 -0.0000
vn -0.6681 0.7440 -0.0000
vn 0.9477 0.3192 0.0000
vn -0.6681 0.7440 0.0000
vn -0.3606 0.9108 0.2012
vn -0.3622 0.9100 0.2017
vn -0.3608 0.9107 0.2013
vn -0.3591 0.9115 0.2008
vn -0.1085 -0.9941 0.0000
vn -0.1085 -0.9941 -0.0000
vn 0.4208 -0.3042 -0.8546
vn 0.4221 -0.2995 -0.8556
vn 0.4211 -0.3017 -0.8553
vn 0.4197 -0.3036 -0.8554
vn 0.0947 0.9955 0.0000
vn -0.4333 0.2915 0.8528
vn -0.4338 0.2903 0.8530
vn -0.4285 0.3029 0.8512
vn -0.4279 0.3044 0.8510
vn -0.4269 0.3096 0.8496
vn -0.4223 0.3398 0.8404
vn -0.4225 0.3383 0.8409
vn -0.4272 0.3073 0.8503
vn 0.4278 -0.2824 -0.8586
vn 0.4272 -0.2838 -0.8584
vn 0.4139 -0.3423 -0.8435
vn 0.4136 -0.3442 -0.8429
vn 0.0947 0.9955 -0.0000
vn 0.3468 0.7924 -0.5018
vn -0.0817 0.7603 -0.6445
vn -0.7648 0.3682 -0.5287
vn -0.8981 0.1471 -0.4144
vn -0.3620 -0.7795 0.5112
vn 0.0793 -0.7752 0.6267
vn 0.7058 -0.4152 0.5740
vn 0.8679 -0.2135 0.4486
# 65 vertex normals

vt 0.9004 0.4380 0.0000
vt 0.9004 0.8666 0.0000
vt 0.6648 0.8666 0.0000
vt 0.6648 0.4380 0.0000
vt 0.8126 0.1679 0.0000
vt 0.8126 0.4035 0.0000
vt 0.3840 0.4035 0.0000
vt 0.3840 0.1679 0.0000
vt 0.9964 0.6594 0.0000
vt 0.9964 0.8950 0.0000
vt 0.9187 0.8950 0.0000
vt 0.9187 0.6594 0.0000
vt 0.6507 0.4056 0.0000
vt 0.6507 0.8342 0.0000
vt 0.5730 0.8342 0.0000
vt 0.5730 0.4056 0.0000
vt 0.4617 0.4110 0.0000
vt 0.4617 0.6466 0.0000
vt 0.3840 0.6466 0.0000
vt 0.3840 0.4110 0.0000
vt 0.8938 0.0059 0.0000
vt 0.8938 0.4345 0.0000
vt 0.8161 0.4345 0.0000
vt 0.8161 0.0059 0.0000
vt 0.4048 0.7749 0.0000
vt 0.3948 0.7474 0.0000
vt 0.3948 0.7182 0.0000
vt 0.4048 0.6907 0.0000
vt 0.4236 0.6683 0.0000
vt 0.4489 0.6537 0.0000
vt 0.4777 0.6486 0.0000
vt 0.5065 0.6537 0.0000
vt 0.5318 0.6683 0.0000
vt 0.5506 0.6907 0.0000
vt 0.5606 0.7182 0.0000
vt 0.5606 0.7474 0.0000
vt 0.5506 0.7749 0.0000
vt 0.5318 0.7973 0.0000
vt 0.5065 0.8119 0.0000
vt 0.4777 0.8170 0.0000
vt 0.4489 0.8119 0.0000
vt 0.4236 0.7973 0.0000
vt 0.5149 0.9133 0.0000
vt 0.5444 0.9133 0.0000
vt 0.5444 0.9834 0.0000
vt 0.5149 0.9834 0.0000
vt 0.5703 0.9133 0.0000
vt 0.5703 0.9834 0.0000
vt 0.3092 0.6000 0.0000
vt 0.3092 0.6232 0.0000
vt 0.2382 0.6232 0.0000
vt 0.2382 0.6000 0.0000
vt 0.3092 0.6517 0.0000
vt 0.2382 0.6517 0.0000
vt 0.3092 0.6820 0.0000
vt 0.2382 0.6820 0.0000
vt 0.3092 0.7105 0.0000
vt 0.2382 0.7105 0.0000
vt 0.3092 0.7337 0.0000
vt 0.2382 0.7337 0.0000
vt 0.3462 0.9133 0.0000
vt 0.3721 0.9133 0.0000
vt 0.3721 0.9834 0.0000
vt 0.3462 0.9834 0.0000
vt 0.4015 0.9133 0.0000
vt 0.4015 0.9834 0.0000
vt 0.4310 0.9133 0.0000
vt 0.4310 0.9834 0.0000
vt 0.4569 0.9133 0.0000
vt 0.4569 0.9834 0.0000
vt 0.3948 0.8215 0.0000
vt 0.4180 0.8215 0.0000
vt 0.4180 0.8925 0.0000
vt 0.3948 0.8925 0.0000
vt 0.4465 0.8215 0.0000
vt 0.4465 0.8925 0.0000
vt 0.4768 0.8215 0.0000
vt 0.4768 0.8925 0.0000
vt 0.5052 0.8215 0.0000
vt 0.5052 0.8925 0.0000
vt 0.5285 0.8215 0.0000
vt 0.5285 0.8925 0.0000
vt 0.4596 0.9133 0.0000
vt 0.4855 0.9133 0.0000
vt 0.4855 0.9834 0.0000
vt 0.4596 0.9834 0.0000
vt 0.3823 0.8447 0.0000
vt 0.3723 0.8721 0.0000
vt 0.3536 0.8945 0.0000
vt 0.3282 0.9091 0.0000
vt 0.2994 0.9142 0.0000
vt 0.2707 0.9091 0.0000
vt 0.2453 0.8945 0.0000
vt 0.2265 0.8721 0.0000
vt 0.2165 0.8447 0.0000
vt 0.2165 0.8154 0.0000
vt 0.2265 0.7879 0.0000
vt 0.2453 0.7656 0.0000
vt 0.2707 0.7509 0.0000
vt 0.2994 0.7459 0.0000
vt 0.3282 0.7509 0.0000
vt 0.3536 0.7656 0.0000
vt 0.3723 0.7879 0.0000
vt 0.3823 0.8154 0.0000
vt 0.9971 0.8971 0.0000
vt 0.9971 0.9435 0.0000
vt 0.9187 0.9435 0.0000
vt 0.9187 0.8971 0.0000
vt 0.5561 0.8377 0.0000
vt 0.5561 0.8960 0.0000
vt 0.5298 0.8960 0.0000
vt 0.5298 0.8377 0.0000
vt 0.6194 0.9350 0.0000
vt 0.6194 0.9079 0.0000
vt 0.6659 0.9079 0.0000
vt 0.6659 0.9350 0.0000
vt 0.7487 0.9512 0.0000
vt 0.6702 0.9512 0.0000
vt 0.6702 0.9241 0.0000
vt 0.7487 0.9241 0.0000
vt 0.6194 0.9782 0.0000
vt 0.6194 0.9511 0.0000
vt 0.6659 0.9511 0.0000
vt 0.6659 0.9782 0.0000
vt 0.0383 0.9377 0.0000
vt 0.0383 0.8593 0.0000
vt 0.0654 0.8593 0.0000
vt 0.0654 0.9377 0.0000
vt 0.9971 0.9899 0.0000
vt 0.9187 0.9899 0.0000
vt 0.0790 0.7305 0.0000
vt 0.0113 0.7111 0.0000
vt 0.0201 0.6805 0.0000
vt 0.0877 0.7000 0.0000
vt 0.5730 0.9350 0.0000
vt 0.5730 0.9079 0.0000
vt 0.5730 0.9782 0.0000
vt 0.5730 0.9511 0.0000
vt 0.3500 0.5136 0.0000
vt 0.3372 0.5583 0.0000
vt 0.3303 0.5458 0.0000
vt 0.3375 0.5205 0.0000
vt 0.2617 0.5366 0.0000
vt 0.2742 0.5297 0.0000
vt 0.2745 0.4920 0.0000
vt 0.2814 0.5045 0.0000
vt 0.3244 0.6029 0.0000
vt 0.3175 0.5904 0.0000
vt 0.3247 0.5652 0.0000
vt 0.2490 0.5813 0.0000
vt 0.2614 0.5744 0.0000
vt 0.2686 0.5491 0.0000
vt 0.2102 0.5905 0.0000
vt 0.2397 0.5905 0.0000
vt 0.2284 0.6240 0.0000
vt 0.1989 0.6240 0.0000
vt 0.9375 0.1629 0.0000
vt 0.9379 0.1982 0.0000
vt 0.9099 0.1891 0.0000
vt 0.9095 0.1538 0.0000
vt 0.3288 0.1276 0.0000
vt 0.3721 0.1694 0.0000
vt 0.3380 0.1793 0.0000
vt 0.2946 0.1375 0.0000
vt 0.2016 0.0370 0.0000
vt 0.2401 0.0342 0.0000
vt 0.2216 0.0533 0.0000
vt 0.1832 0.0561 0.0000
vt 0.0972 0.6685 0.0000
vt 0.1699 0.6685 0.0000
vt 0.1627 0.7039 0.0000
vt 0.0900 0.7039 0.0000
vt 0.0189 0.2059 0.0000
vt 0.0011 0.2256 0.0000
vt 0.0012 0.1871 0.0000
vt 0.0190 0.1674 0.0000
vt 0.3489 0.1787 0.0000
vt 0.3784 0.1787 0.0000
vt 0.1812 0.7641 0.0000
vt 0.1517 0.7641 0.0000
vt 0.9990 0.2199 0.0000
vt 0.9978 0.6564 0.0000
vt 0.9457 0.6264 0.0000
vt 0.9469 0.1899 0.0000
vt 0.9470 0.1544 0.0000
vt 0.9474 0.0059 0.0000
vt 0.9995 0.0360 0.0000
vt 0.9991 0.1845 0.0000
vt 0.9426 0.6326 0.0000
vt 0.9145 0.6235 0.0000
vt 0.9079 0.0059 0.0000
vt 0.9359 0.0150 0.0000
vt 0.7487 0.0059 0.0000
vt 0.7920 0.0477 0.0000
vt 0.1950 0.2207 0.0000
vt 0.1517 0.1789 0.0000
vt 0.7133 0.0005 0.0000
vt 0.6948 0.0196 0.0000
vt 0.0221 0.0675 0.0000
vt 0.0406 0.0484 0.0000
vt 0.1856 0.2327 0.0000
vt 0.2583 0.2327 0.0000
vt 0.1326 0.8522 0.0000
vt 0.0599 0.8522 0.0000
vt 0.0183 0.6803 0.0000
vt 0.0005 0.7001 0.0000
vt 0.0014 0.0256 0.0000
vt 0.0192 0.0059 0.0000
vt 0.1217 0.2710 0.0000
vt 0.0540 0.2516 0.0000
vt 0.0568 0.2167 0.0000
vt 0.0683 0.0707 0.0000
vt 0.1360 0.0901 0.0000
vt 0.1244 0.2361 0.0000
vt 0.9894 0.2038 0.0000
vt 0.9895 0.1896 0.0000
vt 0.9565 0.1848 0.0000
vt 0.9566 0.1706 0.0000
vt 0.1113 0.2592 0.0000
vt 0.1127 0.2415 0.0000
vt 0.0658 0.2461 0.0000
vt 0.0672 0.2285 0.0000
vt 0.3364 0.9441 0.0000
vt 0.3202 0.9488 0.0000
vt 0.3205 0.9329 0.0000
vt 0.3365 0.9295 0.0000
vt 0.1650 0.8097 0.0000
vt 0.2034 0.8137 0.0000
vt 0.1963 0.8240 0.0000
vt 0.1581 0.8200 0.0000
vt 0.3484 0.3393 0.0000
vt 0.3497 0.3260 0.0000
vt 0.3636 0.3347 0.0000
vt 0.3623 0.3469 0.0000
vt 0.5361 0.5531 0.0000
vt 0.5391 0.5664 0.0000
vt 0.5021 0.5558 0.0000
vt 0.4993 0.5425 0.0000
vt 0.2001 0.9134 0.0000
vt 0.1841 0.9277 0.0000
vt 0.1850 0.8449 0.0000
vt 0.1998 0.8377 0.0000
vt 0.0275 0.8596 0.0000
vt 0.0297 0.7189 0.0000
vt 0.0417 0.7268 0.0000
vt 0.0412 0.8554 0.0000
vt 0.2079 0.7459 0.0000
vt 0.2471 0.7500 0.0000
vt 0.1237 0.9298 0.0000
vt 0.0869 0.9260 0.0000
vt 0.3575 0.2436 0.0000
vt 0.3718 0.2595 0.0000
vt 0.3487 0.4718 0.0000
vt 0.3354 0.4763 0.0000
vt 0.5573 0.6490 0.0000
vt 0.5194 0.6382 0.0000
vt 0.4704 0.4056 0.0000
vt 0.5059 0.4158 0.0000
vt 0.0095 0.9627 0.0000
vt 0.0059 0.9464 0.0000
vt 0.7920 0.0977 0.0000
vt 0.8005 0.1076 0.0000
vt 0.4704 0.1551 0.0000
vt 0.4751 0.1427 0.0000
vt 0.5838 0.8504 0.0000
vt 0.5926 0.8377 0.0000
vt 0.8929 0.9695 0.0000
vt 0.8874 0.9832 0.0000
vt 0.3407 0.9781 0.0000
vt 0.3332 0.9887 0.0000
vt 0.0119 0.9947 0.0000
vt 0.0059 0.9828 0.0000
# 272 texture coords

o Box131
g Box131
usemtl ApoyoEdificio1
f 1/1/1 2/2/1 3/3/1 
f 3/3/1 4/4/1 1/1/1 
f 5/5/2 6/6/2 7/7/2 
f 7/7/2 8/8/2 5/5/2 
f 1/9/3 4/10/3 6/11/3 
f 6/11/3 5/12/3 1/9/3 
f 4/13/4 3/14/4 7/15/4 
f 7/15/4 6/16/4 4/13/4 
f 3/17/5 2/18/5 8/19/5 
f 8/19/5 7/20/5 3/17/5 
f 2/21/6 1/22/6 5/23/6 
f 5/23/6 8/24/6 2/21/6 
f 9/25/1 10/26/1 11/27/1 
f 11/27/1 12/28/1 13/29/1 
f 13/29/1 14/30/1 15/31/1 
f 11/27/1 13/29/1 15/31/1 
f 15/31/1 16/32/1 17/33/1 
f 17/33/1 18/34/1 19/35/1 
f 15/31/1 17/33/1 19/35/1 
f 19/35/1 20/36/1 21/37/1 
f 21/37/1 22/38/1 23/39/1 
f 19/35/1 21/37/1 23/39/1 
f 15/31/1 19/35/1 23/39/1 
f 11/27/1 15/31/1 23/39/1 
f 23/39/1 24/40/1 25/41/1 
f 11/27/1 23/39/1 25/41/1 
f 9/25/1 11/27/1 25/41/1 
f 26/42/1 9/25/1 25/41/1 
f 25/43/7 24/44/8 27/45/8 
f 27/45/8 28/46/7 25/43/7 
f 24/44/8 23/47/9 29/48/9 
f 29/48/9 27/45/8 24/44/8 
f 23/49/9 22/50/10 30/51/10 
f 30/51/10 29/52/9 23/49/9 
f 22/50/10 21/53/11 31/54/11 
f 31/54/11 30/51/10 22/50/10 
f 21/53/11 20/55/12 32/56/12 
f 32/56/12 31/54/11 21/53/11 
f 20/55/12 19/57/13 33/58/13 
f 33/58/13 32/56/12 20/55/12 
f 19/57/13 18/59/14 34/60/14 
f 34/60/14 33/58/13 19/57/13 
f 18/61/14 17/62/15 35/63/15 
f 35/63/15 34/64/14 18/61/14 
f 17/62/15 16/65/6 36/66/6 
f 36/66/6 35/63/15 17/62/15 
f 16/65/6 15/67/16 37/68/16 
f 37/68/16 36/66/6 16/65/6 
f 15/67/16 14/69/17 38/70/17 
f 38/70/17 37/68/16 15/67/16 
f 14/71/17 13/72/18 39/73/18 
f 39/73/18 38/74/17 14/71/17 
f 13/72/18 12/75/19 40/76/19 
f 40/76/19 39/73/18 13/72/18 
f 12/75/19 11/77/20 41/78/20 
f 41/78/20 40/76/19 12/75/19 
f 11/77/20 10/79/21 42/80/21 
f 42/80/21 41/78/20 11/77/20 
f 10/79/21 9/81/22 43/82/22 
f 43/82/22 42/80/21 10/79/21 
f 9/83/22 26/84/23 44/85/23 
f 44/85/23 43/86/22 9/83/22 
f 26/84/23 25/43/7 28/46/7 
f 28/46/7 44/85/23 26/84/23 
f 28/87/2 27/88/2 29/89/2 
f 29/89/2 30/90/2 31/91/2 
f 31/91/2 32/92/2 33/93/2 
f 29/89/2 31/91/2 33/93/2 
f 33/93/2 34/94/2 35/95/2 
f 35/95/2 36/96/2 37/97/2 
f 33/93/2 35/95/2 37/97/2 
f 37/97/2 38/98/2 39/99/2 
f 39/99/2 40/100/2 41/101/2 
f 37/97/2 39/99/2 41/101/2 
f 33/93/2 37/97/2 41/101/2 
f 29/89/2 33/93/2 41/101/2 
f 41/101/2 42/102/2 43/103/2 
f 29/89/2 41/101/2 43/103/2 
f 28/87/2 29/89/2 43/103/2 
f 44/104/2 28/87/2 43/103/2 
f 45/105/1 46/106/1 47/107/1 
f 47/107/1 48/108/1 45/105/1 
f 49/109/2 50/110/2 51/111/2 
f 51/111/2 52/112/2 49/109/2 
f 47/113/3 53/114/3 54/115/3 
f 54/115/3 48/116/3 47/113/3 
f 55/117/4 56/118/4 57/119/4 
f 57/119/4 58/120/4 55/117/4 
f 46/121/5 59/122/5 55/123/5 
f 55/123/5 58/124/5 46/121/5 
f 54/125/6 60/126/6 45/127/6 
f 45/127/6 48/128/6 54/125/6 
f 58/129/1 57/130/1 47/107/1 
f 47/107/1 46/106/1 58/129/1 
f 61/131/2 62/132/2 63/133/2 
f 63/133/2 64/134/2 61/131/2 
f 57/135/3 56/136/3 53/114/3 
f 53/114/3 47/113/3 57/135/3 
f 45/137/5 60/138/5 59/122/5 
f 59/122/5 46/121/5 45/137/5 
f 54/139/2 53/140/2 65/141/2 
f 65/141/2 66/142/2 54/139/2 
f 53/140/2 59/143/2 67/144/2 
f 67/144/2 65/141/2 53/140/2 
f 59/143/2 60/145/2 68/146/2 
f 68/146/2 67/144/2 59/143/2 
f 60/145/2 54/139/2 66/142/2 
f 66/142/2 68/146/2 60/145/2 
f 53/140/2 56/147/2 69/148/2 
f 69/148/2 70/149/2 53/140/2 
f 56/147/2 55/150/2 71/151/2 
f 71/151/2 69/148/2 56/147/2 
f 55/150/2 59/143/2 72/152/2 
f 72/152/2 71/151/2 55/150/2 
f 59/143/2 53/140/2 70/149/2 
f 70/149/2 72/152/2 59/143/2 
f 73/153/24 74/154/24 75/155/24 
f 75/155/24 76/156/24 73/153/24 
f 77/157/25 78/158/25 79/159/25 
f 79/159/25 80/160/25 77/157/25 
f 74/161/26 78/162/26 77/163/26 
f 77/163/26 75/164/26 74/161/26 
f 81/165/27 82/166/27 83/167/27 
f 83/167/27 84/168/27 81/165/27 
f 85/169/28 82/170/28 81/171/28 
f 81/171/28 86/172/28 85/169/28 
f 87/173/29 85/174/29 86/175/29 
f 86/175/29 88/176/29 87/173/29 
f 49/177/24 52/178/24 74/154/24 
f 74/154/24 73/153/24 49/177/24 
f 66/179/24 65/180/24 76/156/24 
f 76/156/24 75/155/24 66/179/24 
f 79/181/30 50/182/30 49/183/30 
f 49/183/30 73/184/30 79/181/30 
f 76/185/30 65/186/30 67/187/30 
f 67/187/30 80/188/30 76/185/30 
f 78/158/25 51/189/25 50/190/25 
f 50/190/25 79/159/25 78/158/25 
f 80/160/25 67/191/25 68/192/25 
f 68/192/25 77/157/25 80/160/25 
f 52/193/26 51/194/26 78/162/26 
f 78/162/26 74/161/26 52/193/26 
f 68/195/26 66/196/26 75/164/26 
f 75/164/26 77/163/26 68/195/26 
f 82/166/27 61/197/27 64/198/27 
f 64/198/27 83/167/27 82/166/27 
f 84/168/27 70/199/27 69/200/27 
f 69/200/27 81/165/27 84/168/27 
f 62/201/28 61/202/28 82/170/28 
f 82/170/28 85/169/28 62/201/28 
f 69/203/28 71/204/28 86/172/28 
f 86/172/28 81/171/28 69/203/28 
f 63/205/29 62/206/29 85/174/29 
f 85/174/29 87/173/29 63/205/29 
f 71/207/29 72/208/29 88/176/29 
f 88/176/29 86/175/29 71/207/29 
f 83/209/31 64/134/31 63/133/31 
f 63/133/31 87/210/31 83/209/31 
f 88/211/31 72/212/31 70/213/31 
f 70/213/31 84/214/31 88/211/31 
f 80/188/32 79/181/32 89/215/32 
f 89/215/30 90/216/30 80/188/30 
f 79/181/30 73/184/30 91/217/30 
f 91/217/30 89/215/30 79/181/30 
f 73/184/32 76/185/32 92/218/32 
f 92/218/30 91/217/30 73/184/30 
f 76/185/30 80/188/30 90/216/30 
f 90/216/30 92/218/30 76/185/30 
f 84/214/31 83/209/31 93/219/31 
f 93/219/31 94/220/31 84/214/31 
f 83/209/31 87/210/31 95/221/31 
f 95/221/31 93/219/31 83/209/31 
f 87/210/33 88/211/33 96/222/33 
f 96/222/33 95/221/33 87/210/33 
f 88/211/31 84/214/31 94/220/31 
f 94/220/31 96/222/31 88/211/31 
f 97/223/34 98/224/35 99/225/36 
f 99/225/36 100/226/37 97/223/34 
f 101/227/38 102/228/39 103/229/38 
f 103/229/38 104/230/38 101/227/38 
f 105/231/40 106/232/41 101/233/42 
f 101/233/42 104/234/43 105/231/40 
f 107/235/44 108/236/44 106/237/44 
f 106/237/44 105/238/44 107/235/44 
f 94/239/45 93/240/46 108/241/47 
f 108/241/47 102/242/48 94/239/45 
f 107/243/49 91/244/50 92/245/51 
f 92/245/51 103/246/52 107/243/49 
f 96/247/39 94/248/39 102/228/39 
f 102/228/39 101/227/38 96/247/39 
f 92/249/38 90/250/39 104/230/38 
f 104/230/38 103/229/38 92/249/38 
f 106/232/41 95/251/53 96/252/54 
f 96/252/54 101/233/42 106/232/41 
f 90/253/55 89/254/56 105/231/40 
f 105/231/40 104/234/43 90/253/55 
f 108/236/44 93/255/57 95/256/44 
f 95/256/44 106/237/44 108/236/44 
f 105/238/44 89/257/57 91/258/44 
f 91/258/44 107/235/44 105/238/44 
f 108/259/58 107/260/58 99/225/58 
f 99/225/59 98/224/59 108/259/59 
f 107/261/60 103/262/60 100/263/60 
f 100/263/61 99/264/61 107/261/61 
f 103/265/62 102/266/62 97/267/62 
f 97/267/63 100/268/63 103/265/63 
f 102/269/64 108/270/64 98/271/64 
f 98/271/65 97/272/65 102/269/65 
# 208 faces

