# 3ds Max Wavefront OBJ Exporter v0.97b - (c)2007 guruware
# File Created: 13.03.2018 20:05:21

mtllib RuinaEdificio4.mtl

#
# object Object021
#

v  -250.5579 13.7112 481.9042
v  -249.8653 13.0191 481.2760
v  -251.0873 17.3346 475.1875
v  -251.7799 18.0267 475.8158
v  -265.9494 -4.1965 508.3616
v  -266.6419 -3.5044 508.9899
v  -267.7016 -3.5714 501.1461
v  -267.0090 -4.2636 500.5179
v  -238.0486 0.4729 504.5594
v  -245.3193 -3.2364 508.0299
v  -244.6268 -3.9285 507.4017
v  -237.3560 -0.2192 503.9312
v  -271.4074 3.9574 467.6581
v  -272.4353 -4.4534 475.8956
v  -273.1279 -3.7613 476.5238
v  -272.1000 4.6495 468.2864
v  -240.5347 4.9783 497.2121
v  -241.2272 5.6704 497.8404
v  -241.4307 15.8600 487.4521
v  -242.1233 16.5522 488.0804
v  -246.3548 13.0861 485.0721
v  -247.0473 13.7782 485.7003
v  -268.2488 11.0395 471.7232
v  -267.5562 10.3474 471.0950
v  -265.1885 10.2442 475.9703
v  -264.4959 9.5521 475.3420
v  -255.2904 17.9597 472.0197
v  -254.5979 17.2676 471.3914
v  -247.2895 -3.3034 508.5338
v  -246.5969 -3.9955 507.9055
v  -252.5028 -3.3704 508.2650
v  -251.8102 -4.0625 507.6367
v  -260.5132 -3.4374 509.7791
v  -259.8206 -4.1295 509.1509
v  -268.1706 -4.4646 478.8631
v  -268.8632 -3.7725 479.4913
v  -266.6310 -4.3976 481.9623
v  -267.3236 -3.7055 482.5906
v  -266.1392 -4.3306 493.4169
v  -266.8318 -3.6384 494.0452
# 40 vertices

vn 0.6396 0.7645 -0.0830
vn 0.6294 0.7708 -0.1022
vn -0.3783 -0.8122 0.4494
vn -0.4079 -0.8151 0.4169
vn -0.6586 -0.7509 0.0451
vn -0.6885 -0.7238 -0.0208
vn -0.3353 0.8613 0.3864
vn -0.0856 0.8529 0.5168
vn -0.3381 0.8335 0.4418
vn -0.7615 0.6443 0.0708
vn 0.4778 -0.2396 0.8392
vn 0.6767 -0.7334 -0.0658
vn 0.4199 -0.7730 -0.4813
vn 0.2380 -0.8416 -0.4885
vn 0.3506 -0.8643 -0.3654
vn -0.7710 -0.3866 -0.4946
vn 0.7306 0.6663 0.1352
vn 0.7637 0.5801 0.2708
vn 0.7681 0.5595 0.2990
vn 0.5849 0.7923 -0.1794
vn 0.5145 0.8110 -0.2846
vn 0.1970 0.7660 -0.6153
vn 0.2162 0.7729 -0.6000
vn -0.1682 0.5520 -0.8153
vn 0.2459 0.7829 -0.5754
vn 0.1708 0.7557 -0.6352
vn 0.1194 0.7332 -0.6718
vn -0.0388 0.6451 -0.7635
vn -0.1045 0.6002 -0.7924
vn 0.0271 0.6851 -0.7291
vn 0.2060 -0.5212 0.8263
vn 0.0310 -0.6500 0.7597
vn 0.1401 -0.5739 0.8058
vn 0.0914 -0.6095 0.7871
vn 0.0141 -0.6606 0.7512
vn -0.0212 -0.6817 0.7324
vn 0.0754 -0.6206 0.7803
vn -0.3259 -0.8037 0.5026
vn -0.4233 -0.8159 0.3995
vn -0.4191 -0.8157 0.4042
vn -0.5716 -0.7971 0.2008
vn -0.6066 -0.7830 0.1431
vn -0.6785 -0.7338 0.0023
vn -0.6980 -0.7133 -0.0439
vn 0.0805 0.7316 0.6767
vn -0.0856 0.7677 0.6369
vn 0.1788 0.6899 0.6998
vn 0.0378 0.7186 0.6947
vn -0.3977 0.7601 0.5196
vn 0.0040 0.7672 0.6421
vn -0.4408 0.7994 0.4140
vn -0.0322 0.8412 0.5408
vn -0.7733 0.3695 0.5250
vn -0.4050 0.6674 0.6308
vn -0.7585 0.3958 0.5273
vn -0.7777 0.3374 0.5403
vn -0.9454 0.2377 0.2314
vn -0.5894 0.5880 0.5619
vn -0.9101 0.4109 -0.0189
vn -0.4453 0.7905 0.4265
vn 0.6109 -0.4329 -0.6713
vn 0.8658 -0.4050 -0.3031
vn 0.7475 -0.3917 -0.5460
vn 0.6994 -0.3877 -0.6096
vn 0.3415 -0.4298 -0.8413
vn 0.8226 -0.4916 -0.2945
vn 0.4793 -0.7083 -0.5248
vn 0.8328 -0.5495 0.0413
vn 0.0390 -0.7669 -0.6418
vn -0.1909 -0.4136 -0.8885
vn 0.0179 -0.7456 -0.6672
vn -0.0701 -0.7079 -0.7026
vn -0.0760 -0.7025 -0.7074
vn 0.3085 -0.8238 -0.4801
vn 0.0491 -0.8009 -0.5981
vn 0.4364 -0.8470 -0.3092
# 76 vertex normals

vt 0.2344 0.5758 0.0000
vt 0.2362 0.5901 0.0000
vt 0.1162 0.6136 0.0000
vt 0.1145 0.5993 0.0000
vt 0.6392 0.8218 0.0000
vt 0.6564 0.8245 0.0000
vt 0.5645 0.9315 0.0000
vt 0.5473 0.9287 0.0000
vt 0.0945 0.0059 0.0000
vt 0.0919 0.5843 0.0000
vt 0.0124 0.6631 0.0000
vt 0.0005 0.1129 0.0000
vt 0.9586 0.8295 0.0000
vt 0.9000 0.6807 0.0000
vt 0.9189 0.6817 0.0000
vt 0.9776 0.8306 0.0000
vt 0.0059 0.9929 0.0000
vt 0.0722 0.9040 0.0000
vt 0.6689 0.2945 0.0000
vt 0.4689 0.3087 0.0000
vt 0.4697 0.2934 0.0000
vt 0.6697 0.2793 0.0000
vt 0.1868 0.9931 0.0000
vt 0.1850 0.9787 0.0000
vt 0.3246 0.9557 0.0000
vt 0.3263 0.9700 0.0000
vt 0.5622 0.9639 0.0000
vt 0.5640 0.9782 0.0000
vt 0.7018 0.1814 0.0000
vt 0.6952 0.1642 0.0000
vt 0.7961 0.1633 0.0000
vt 0.8028 0.1805 0.0000
vt 0.1863 0.5643 0.0000
vt 0.1915 0.5811 0.0000
vt 0.0971 0.6011 0.0000
vt 0.9371 0.8267 0.0000
vt 0.9187 0.8284 0.0000
vt 0.8851 0.7023 0.0000
vt 0.9036 0.7006 0.0000
vt 0.1284 0.6328 0.0000
vt 0.1253 0.6172 0.0000
vt 0.2106 0.5975 0.0000
vt 0.2137 0.6131 0.0000
vt 0.9603 0.0114 0.0000
vt 0.9647 0.0278 0.0000
vt 0.7485 0.0315 0.0000
vt 0.7440 0.0151 0.0000
vt 0.8689 0.7091 0.0000
vt 0.8843 0.7060 0.0000
vt 0.8933 0.7921 0.0000
vt 0.8778 0.7951 0.0000
vt 0.8729 0.6529 0.0000
vt 0.8918 0.6539 0.0000
vt 0.8017 0.5825 0.0000
vt 0.8206 0.5835 0.0000
vt 0.6898 0.4727 0.0000
vt 0.7087 0.4737 0.0000
vt 0.5724 0.7234 0.0000
vt 0.5896 0.7262 0.0000
vt 0.6786 0.1233 0.0000
vt 0.6735 0.1085 0.0000
vt 0.7443 0.0565 0.0000
vt 0.7494 0.0713 0.0000
vt 0.8002 0.0493 0.0000
vt 0.8053 0.0642 0.0000
vt 0.9745 0.1071 0.0000
vt 0.9796 0.1219 0.0000
vt 0.8691 0.0697 0.0000
vt 0.8580 0.0548 0.0000
vt 0.9695 0.0562 0.0000
vt 0.9807 0.0712 0.0000
vt 0.2943 0.5848 0.0000
vt 0.4224 0.4944 0.0000
vt 0.4951 0.6112 0.0000
vt 0.2664 0.6134 0.0000
vt 0.8576 0.8610 0.0000
vt 0.7209 0.9995 0.0000
vt 0.3181 0.1666 0.0000
vt 0.2899 0.5806 0.0000
vt 0.2022 0.0590 0.0000
vt 0.4267 0.2550 0.0000
vt 0.6947 0.1543 0.0000
vt 0.3862 0.2170 0.0000
vt 0.6280 0.1125 0.0000
vt 0.2409 0.0846 0.0000
vt 0.7548 0.0486 0.0000
vt 0.1525 0.0034 0.0000
vt 0.7032 0.0005 0.0000
vt 0.6789 0.4399 0.0000
vt 0.6791 0.2380 0.0000
vt 0.8029 0.2040 0.0000
vt 0.7205 0.4803 0.0000
vt 0.8495 0.2681 0.0000
vt 0.7615 0.5183 0.0000
vt 0.9048 0.1362 0.0000
vt 0.9048 0.6550 0.0000
vt 0.9567 0.1847 0.0000
vt 0.9925 0.7381 0.0000
vt 0.5071 0.3099 0.0000
vt 0.4983 0.4664 0.0000
vt 0.4889 0.5052 0.0000
vt 0.3696 0.3102 0.0000
vt 0.5466 0.6159 0.0000
vt 0.5215 0.3854 0.0000
vt 0.5978 0.3044 0.0000
vt 0.7037 0.7644 0.0000
vt 0.0486 0.7093 0.0000
vt 0.4508 0.6246 0.0000
vt 0.0788 0.8087 0.0000
# 109 texture coords

o Object021
g Object021
usemtl RuinaEdificio4
f 1/1/1 2/2/2 3/3/1 
f 3/3/1 4/4/2 1/1/1 
f 5/5/3 6/6/4 7/7/5 
f 7/7/5 8/8/6 5/5/3 
f 6/9/7 1/10/8 4/11/9 
f 4/11/9 7/12/10 6/9/7 
f 9/13/11 10/14/11 11/15/11 
f 11/15/11 12/16/11 9/13/11 
f 8/8/12 3/17/13 2/18/14 
f 2/18/14 5/5/15 8/8/12 
f 13/19/16 14/20/16 15/21/16 
f 15/21/16 16/22/16 13/19/16 
f 9/23/17 12/24/17 17/25/18 
f 17/25/18 18/26/19 9/23/17 
f 18/26/19 17/25/18 19/27/20 
f 19/27/20 20/28/21 18/26/19 
f 20/29/21 19/30/20 21/31/22 
f 21/31/22 22/32/23 20/29/21 
f 22/33/23 21/34/22 2/35/2 
f 2/35/2 1/10/1 22/33/23 
f 13/36/24 16/37/24 23/38/25 
f 23/38/25 24/39/26 13/36/24 
f 24/40/26 23/41/25 25/42/27 
f 25/42/27 26/43/28 24/40/26 
f 26/44/28 25/45/27 27/46/29 
f 27/46/29 28/47/30 26/44/28 
f 28/48/30 27/49/29 4/50/2 
f 4/50/2 3/51/1 28/48/30 
f 11/15/31 10/14/31 29/52/32 
f 29/52/32 30/53/33 11/15/31 
f 30/53/33 29/52/32 31/54/34 
f 31/54/34 32/55/35 30/53/33 
f 32/55/35 31/54/34 33/56/36 
f 33/56/36 34/57/37 32/55/35 
f 34/58/37 33/59/36 6/6/4 
f 6/6/4 5/5/3 34/58/37 
f 15/60/38 14/61/38 35/62/39 
f 35/62/39 36/63/40 15/60/38 
f 36/63/40 35/62/39 37/64/41 
f 37/64/41 38/65/42 36/63/40 
f 38/65/42 37/64/41 39/66/43 
f 39/66/43 40/67/44 38/65/42 
f 40/68/44 39/69/43 8/70/6 
f 8/70/6 7/71/5 40/68/44 
f 10/72/45 9/73/46 18/74/47 
f 18/74/47 29/75/48 10/72/45 
f 29/52/48 18/76/47 20/77/49 
f 20/77/49 31/54/50 29/52/48 
f 31/78/50 20/79/49 22/33/51 
f 22/33/51 33/80/52 31/78/50 
f 33/80/52 22/33/51 1/10/8 
f 1/10/8 6/9/7 33/80/52 
f 16/22/53 15/21/54 36/81/55 
f 36/81/55 23/82/56 16/22/53 
f 23/82/56 36/81/55 38/83/57 
f 38/83/57 25/84/58 23/82/56 
f 25/84/58 38/83/57 40/85/59 
f 40/85/59 27/86/60 25/84/58 
f 27/86/60 40/85/59 7/87/10 
f 7/87/10 4/88/9 27/86/60 
f 14/89/61 13/90/62 24/91/63 
f 24/91/63 35/92/64 14/89/61 
f 35/92/64 24/91/63 26/93/65 
f 26/93/65 37/94/66 35/92/64 
f 37/94/66 26/93/65 28/95/67 
f 28/95/67 39/96/68 37/94/66 
f 39/96/68 28/95/67 3/97/13 
f 3/97/13 8/98/12 39/96/68 
f 12/99/69 11/100/70 30/101/71 
f 30/101/71 17/102/72 12/99/69 
f 17/103/72 30/104/71 32/105/73 
f 32/105/73 19/106/74 17/103/72 
f 19/107/74 32/108/73 34/58/75 
f 34/58/75 21/109/76 19/107/74 
f 21/109/76 34/58/75 5/5/15 
f 5/5/15 2/18/14 21/109/76 
# 76 faces

