# 3ds Max Wavefront OBJ Exporter v0.97b - (c)2007 guruware
# File Created: 13.02.2018 20:56:02

mtllib puertabidones.mtl

#
# object soportepuertabidones
#

v  1.3828 8.8717 0.3648
v  1.3828 8.8717 -0.3288
v  3.2548 8.8717 -0.3288
v  3.2548 8.8717 0.3648
v  1.3828 9.1840 0.3648
v  3.2548 9.1840 0.3648
v  3.2548 9.1840 -0.3288
v  1.3828 9.1840 -0.3288
v  5.4086 8.8717 0.3648
v  5.4086 8.8717 -0.3288
v  5.4086 9.1840 -0.3288
v  5.4086 9.1840 0.3648
v  3.2548 -8.5908 -0.3288
v  11.7673 -8.5908 -0.3288
v  11.7673 -8.5908 0.3648
v  3.2548 -8.5908 0.3648
# 16 vertices

vn -0.5774 -0.5774 0.5774
vn -0.5774 -0.5774 -0.5774
vn -0.3015 -0.3015 -0.9045
vn -0.3015 -0.3015 0.9045
vn -0.5774 0.5774 0.5774
vn 0.0000 0.7071 0.7071
vn 0.0000 0.7071 -0.7071
vn -0.5774 0.5774 -0.5774
vn 0.6532 0.1152 0.7484
vn 0.6532 0.1152 -0.7484
vn 0.5774 0.5774 -0.5774
vn 0.5774 0.5774 0.5774
vn 0.6780 -0.4747 -0.5612
vn 0.6780 -0.4747 0.5612
# 14 vertex normals

vt 0.7029 0.9067 0.0000
vt 0.7029 0.8834 0.0000
vt 0.7659 0.8834 0.0000
vt 0.7659 0.9067 0.0000
vt 0.9116 0.6932 0.0000
vt 0.9116 0.7561 0.0000
vt 0.8883 0.7561 0.0000
vt 0.8883 0.6932 0.0000
vt 0.6054 0.5929 0.0000
vt 0.6683 0.5929 0.0000
vt 0.6683 0.6035 0.0000
vt 0.6054 0.6035 0.0000
vt 0.6273 0.0252 0.0000
vt 0.6273 0.0005 0.0000
vt 0.6385 0.0005 0.0000
vt 0.6385 0.0252 0.0000
vt 0.6072 0.1645 0.0000
vt 0.6148 0.0924 0.0000
vt 0.6252 0.0935 0.0000
vt 0.6177 0.1656 0.0000
vt 0.9622 0.5468 0.0000
vt 0.9622 0.5702 0.0000
vt 0.9517 0.5702 0.0000
vt 0.9517 0.5468 0.0000
vt 0.4346 0.8249 0.0000
vt 0.7210 0.8249 0.0000
vt 0.7210 0.8482 0.0000
vt 0.4346 0.8482 0.0000
vt 0.9116 0.8286 0.0000
vt 0.8883 0.8286 0.0000
vt 0.7408 0.5929 0.0000
vt 0.7408 0.6035 0.0000
vt 0.6214 0.0298 0.0000
vt 0.6318 0.0309 0.0000
vt 0.0054 0.0252 0.0000
vt 0.0054 0.0005 0.0000
vt 0.6683 0.0054 0.0000
vt 0.9548 0.0054 0.0000
vt 0.9761 0.0054 0.0000
vt 0.9994 0.0054 0.0000
vt 0.9994 0.5929 0.0000
vt 0.9761 0.5929 0.0000
vt 0.0005 0.3158 0.0000
vt 0.0304 0.0310 0.0000
# 44 texture coords

o soportepuertabidones
g soportepuertabidones
usemtl wire_008008136
f 1/1/1 2/2/2 3/3/3 4/4/4 
f 5/5/5 6/6/6 7/7/7 8/8/8 
f 1/9/1 4/10/4 6/11/6 5/12/5 
f 9/13/9 10/14/10 11/15/11 12/16/12 
f 10/17/10 3/18/3 7/19/7 11/20/11 
f 2/21/2 1/22/1 5/23/5 8/24/8 
f 13/25/2 14/26/13 15/27/14 16/28/1 
f 6/6/6 12/29/12 11/30/11 7/7/7 
f 4/10/4 9/31/9 12/32/12 6/11/6 
f 3/18/3 2/33/2 8/34/8 7/19/7 
f 10/14/10 9/13/9 15/35/14 14/36/13 
f 9/31/9 4/10/4 16/37/1 15/38/14 
f 4/39/4 3/40/3 13/41/2 16/42/1 
f 3/18/3 10/17/10 14/43/13 13/44/2 
# 14 polygons

#
# object puertabidones
#

v  -11.7673 -7.6490 0.4195
v  -11.7673 -7.6490 -0.4195
v  3.0641 -7.6490 -0.4195
v  3.0641 -7.6490 0.4195
v  -11.7673 -7.2431 0.4195
v  3.0641 -7.2431 0.4195
v  3.0641 -7.2431 -0.4195
v  -11.7673 -7.2431 -0.4195
v  2.9302 -9.1758 0.1580
v  2.9302 -9.1758 -0.2010
v  2.9302 8.7703 -0.2010
v  2.9302 8.7703 0.1580
v  2.5443 -9.1758 0.1580
v  2.5443 8.7703 0.1580
v  2.5443 8.7703 -0.2010
v  2.5443 -9.1758 -0.2010
v  1.3882 -9.1718 0.1580
v  1.3882 -9.1718 -0.2010
v  1.9241 8.7663 -0.2010
v  1.9241 8.7663 0.1580
v  1.0025 -9.1602 0.1580
v  1.5384 8.7778 0.1580
v  1.5384 8.7778 -0.2010
v  1.0025 -9.1602 -0.2010
v  0.2753 -9.1758 0.1580
v  0.2753 -9.1758 -0.2010
v  0.2753 8.7703 -0.2010
v  0.2753 8.7703 0.1580
v  -0.1106 -9.1758 0.1580
v  -0.1106 8.7703 0.1580
v  -0.1106 8.7703 -0.2010
v  -0.1106 -9.1758 -0.2010
v  -0.9153 -9.1608 0.0826
v  -0.9155 -9.1578 -0.2764
v  -1.9912 8.7553 -0.1255
v  -1.9910 8.7523 0.2334
v  -1.3005 -9.1840 0.0826
v  -2.3762 8.7292 0.2334
v  -2.3764 8.7322 -0.1255
v  -1.3007 -9.1809 -0.2764
v  -2.8362 -9.1702 0.1580
v  -2.8362 -9.1702 -0.2010
v  -3.4669 8.7647 -0.2010
v  -3.4669 8.7647 0.1580
v  -3.2218 -9.1838 0.1580
v  -3.8526 8.7512 0.1580
v  -3.8526 8.7512 -0.2010
v  -3.2218 -9.1838 -0.2010
v  -4.6619 -9.1758 0.1580
v  -4.6619 -9.1758 -0.2010
v  -4.6619 8.7703 -0.2010
v  -4.6619 8.7703 0.1580
v  -5.0478 -9.1758 0.1580
v  -5.0478 8.7703 0.1580
v  -5.0478 8.7703 -0.2010
v  -5.0478 -9.1758 -0.2010
v  -6.1641 -9.1720 0.1580
v  -6.1641 -9.1720 -0.2010
v  -6.6869 8.7664 -0.2010
v  -6.6869 8.7664 0.1580
v  -6.5498 -9.1832 0.1580
v  -7.0727 8.7552 0.1580
v  -7.0727 8.7552 -0.2010
v  -6.5498 -9.1832 -0.2010
v  -8.0958 -9.1758 0.1580
v  -8.0958 -9.1758 -0.2010
v  -8.0958 8.7703 -0.2010
v  -8.0958 8.7703 0.1580
v  -8.4817 -9.1758 0.1580
v  -8.4817 8.7703 0.1580
v  -8.4817 8.7703 -0.2010
v  -8.4817 -9.1758 -0.2010
v  -9.9470 -9.1725 0.1580
v  -9.9470 -9.1725 -0.2010
v  -9.4615 8.7670 -0.2010
v  -9.4615 8.7670 0.1580
v  -10.3328 -9.1620 0.1580
v  -9.8473 8.7774 0.1580
v  -9.8473 8.7774 -0.2010
v  -10.3328 -9.1620 -0.2010
v  -11.2192 -9.1758 0.1580
v  -11.2192 -9.1758 -0.2010
v  -11.2192 8.7703 -0.2010
v  -11.2192 8.7703 0.1580
v  -11.6051 -9.1758 0.1580
v  -11.6051 8.7703 0.1580
v  -11.6051 8.7703 -0.2010
v  -11.6051 -9.1758 -0.2010
v  -9.8144 -3.1167 0.2903
v  -9.8144 -0.3796 0.2903
v  -11.4264 -0.3796 0.2903
v  -11.4264 -3.1167 0.2903
v  -9.8144 -3.1167 -0.4030
v  -11.4264 -3.1167 -0.4030
v  -11.4264 -0.3796 -0.4030
v  -9.8144 -0.3796 -0.4030
v  -11.7673 8.4659 0.4195
v  -11.7673 8.4659 -0.4195
v  3.0641 8.4659 -0.4195
v  3.0641 8.4659 0.4195
v  -11.7673 8.8719 0.4195
v  3.0641 8.8719 0.4195
v  3.0641 8.8719 -0.4195
v  -11.7673 8.8719 -0.4195
# 104 vertices

vn -0.5774 -0.5774 0.5774
vn -0.5774 -0.5774 -0.5774
vn 0.5774 -0.5774 -0.5774
vn 0.5774 -0.5774 0.5774
vn -0.5774 0.5774 0.5774
vn 0.5774 0.5774 0.5774
vn 0.5774 0.5774 -0.5774
vn -0.5774 0.5774 -0.5774
vn 0.5597 -0.5943 0.5775
vn 0.5597 -0.5943 -0.5775
vn 0.5942 0.5599 -0.5775
vn 0.5942 0.5599 0.5775
vn -0.5943 -0.5599 0.5773
vn -0.5598 0.5944 0.5773
vn -0.5598 0.5944 -0.5773
vn -0.5943 -0.5599 -0.5773
vn 0.6113 -0.5466 0.5723
vn 0.6106 -0.5368 -0.5822
vn 0.5415 0.6156 -0.5726
vn 0.5418 0.6061 0.5823
vn -0.5415 -0.6156 0.5726
vn -0.6106 0.5370 0.5821
vn -0.6114 0.5464 -0.5724
vn -0.5418 -0.6061 -0.5823
vn 0.5973 -0.5566 0.5774
vn 0.5973 -0.5566 -0.5774
vn 0.5567 0.5972 -0.5774
vn 0.5567 0.5972 0.5774
vn -0.5567 -0.5972 0.5774
vn -0.5973 0.5566 0.5774
vn -0.5973 0.5566 -0.5774
vn -0.5567 -0.5972 -0.5774
vn 0.5939 -0.5603 0.5774
vn 0.5939 -0.5603 -0.5774
vn 0.5603 0.5939 -0.5774
vn 0.5603 0.5939 0.5774
vn -0.5603 -0.5939 0.5774
vn -0.5939 0.5603 0.5773
vn -0.5939 0.5603 -0.5773
vn -0.5603 -0.5939 -0.5774
vn 0.5615 -0.5928 0.5774
vn 0.5615 -0.5928 -0.5774
vn 0.5928 0.5615 -0.5774
vn 0.5928 0.5615 0.5774
vn -0.5928 -0.5615 0.5774
vn -0.5615 0.5928 0.5774
vn -0.5615 0.5928 -0.5774
vn -0.5928 -0.5615 -0.5774
vn 0.5774 -0.5774 -0.5773
# 49 vertex normals

vt 0.2005 0.9117 0.0000
vt 0.2005 0.8834 0.0000
vt 0.7003 0.8834 0.0000
vt 0.7003 0.9117 0.0000
vt 0.8775 0.2980 0.0000
vt 0.8775 0.7978 0.0000
vt 0.8492 0.7978 0.0000
vt 0.8492 0.2980 0.0000
vt 0.2883 0.8590 0.0000
vt 0.7881 0.8590 0.0000
vt 0.7881 0.8727 0.0000
vt 0.2883 0.8727 0.0000
vt 0.6541 0.9224 0.0000
vt 0.6824 0.9224 0.0000
vt 0.6824 0.9361 0.0000
vt 0.6541 0.9361 0.0000
vt 0.9410 0.0834 0.0000
vt 0.9410 0.5832 0.0000
vt 0.9273 0.5832 0.0000
vt 0.9273 0.0834 0.0000
vt 0.9019 0.8590 0.0000
vt 0.9019 0.8873 0.0000
vt 0.8883 0.8873 0.0000
vt 0.8883 0.8590 0.0000
vt 0.3761 0.2249 0.0000
vt 0.3882 0.2249 0.0000
vt 0.3882 0.8296 0.0000
vt 0.3761 0.8296 0.0000
vt 0.3589 0.2298 0.0000
vt 0.3589 0.8345 0.0000
vt 0.3468 0.8345 0.0000
vt 0.3468 0.2298 0.0000
vt 0.2428 0.2590 0.0000
vt 0.2428 0.8638 0.0000
vt 0.2298 0.8638 0.0000
vt 0.2298 0.2590 0.0000
vt 0.7842 0.9224 0.0000
vt 0.7842 0.9345 0.0000
vt 0.7712 0.9345 0.0000
vt 0.7712 0.9224 0.0000
vt 0.2590 0.8589 0.0000
vt 0.2590 0.2541 0.0000
vt 0.2720 0.2541 0.0000
vt 0.2720 0.8589 0.0000
vt 0.7696 0.9224 0.0000
vt 0.7696 0.9345 0.0000
vt 0.7566 0.9345 0.0000
vt 0.7566 0.9224 0.0000
vt 0.5371 0.1859 0.0000
vt 0.5492 0.1859 0.0000
vt 0.5492 0.7906 0.0000
vt 0.5371 0.7906 0.0000
vt 0.5345 0.1907 0.0000
vt 0.5345 0.7955 0.0000
vt 0.5224 0.7955 0.0000
vt 0.5224 0.1907 0.0000
vt 0.1663 0.8833 0.0000
vt 0.1694 0.2785 0.0000
vt 0.1824 0.2786 0.0000
vt 0.1794 0.8833 0.0000
vt 0.9647 0.6590 0.0000
vt 0.9647 0.6711 0.0000
vt 0.9517 0.6711 0.0000
vt 0.9517 0.6590 0.0000
vt 0.0298 0.9123 0.0000
vt 0.0478 0.3078 0.0000
vt 0.0608 0.3082 0.0000
vt 0.0428 0.9127 0.0000
vt 0.9647 0.6736 0.0000
vt 0.9647 0.6857 0.0000
vt 0.9517 0.6857 0.0000
vt 0.9517 0.6736 0.0000
vt 0.4639 0.2005 0.0000
vt 0.4760 0.2005 0.0000
vt 0.4760 0.8052 0.0000
vt 0.4639 0.8052 0.0000
vt 0.2126 0.2688 0.0000
vt 0.2126 0.8735 0.0000
vt 0.2005 0.8735 0.0000
vt 0.2005 0.2688 0.0000
vt 0.4037 0.2200 0.0000
vt 0.4037 0.8248 0.0000
vt 0.3907 0.8248 0.0000
vt 0.3907 0.2200 0.0000
vt 0.7403 0.9224 0.0000
vt 0.7403 0.9345 0.0000
vt 0.7273 0.9345 0.0000
vt 0.7273 0.9224 0.0000
vt 0.3322 0.8394 0.0000
vt 0.3322 0.2346 0.0000
vt 0.3452 0.2346 0.0000
vt 0.3452 0.8394 0.0000
vt 0.9647 0.5858 0.0000
vt 0.9647 0.5979 0.0000
vt 0.9517 0.5979 0.0000
vt 0.9517 0.5858 0.0000
vt 0.0103 0.9540 0.0000
vt 0.0104 0.9419 0.0000
vt 0.6151 0.9470 0.0000
vt 0.6150 0.9591 0.0000
vt 0.1590 0.2883 0.0000
vt 0.1640 0.8930 0.0000
vt 0.1519 0.8931 0.0000
vt 0.1468 0.2884 0.0000
vt 0.6302 0.1720 0.0000
vt 0.5939 0.7757 0.0000
vt 0.5810 0.7749 0.0000
vt 0.6172 0.1712 0.0000
vt 0.9647 0.7322 0.0000
vt 0.9647 0.7443 0.0000
vt 0.9517 0.7443 0.0000
vt 0.9517 0.7322 0.0000
vt 0.0590 0.9076 0.0000
vt 0.0650 0.3029 0.0000
vt 0.0780 0.3031 0.0000
vt 0.0720 0.9078 0.0000
vt 0.9647 0.7175 0.0000
vt 0.9647 0.7296 0.0000
vt 0.9517 0.7296 0.0000
vt 0.9517 0.7175 0.0000
vt 0.5663 0.1761 0.0000
vt 0.5784 0.1761 0.0000
vt 0.5784 0.7808 0.0000
vt 0.5663 0.7808 0.0000
vt 0.5638 0.1810 0.0000
vt 0.5638 0.7857 0.0000
vt 0.5517 0.7857 0.0000
vt 0.5517 0.1810 0.0000
vt 0.1079 0.2936 0.0000
vt 0.0867 0.8980 0.0000
vt 0.0737 0.8975 0.0000
vt 0.0949 0.2932 0.0000
vt 0.9647 0.7029 0.0000
vt 0.9647 0.7150 0.0000
vt 0.9517 0.7150 0.0000
vt 0.9517 0.7029 0.0000
vt 0.0054 0.9827 0.0000
vt 0.6098 0.9614 0.0000
vt 0.6102 0.9744 0.0000
vt 0.0058 0.9957 0.0000
vt 0.9647 0.6883 0.0000
vt 0.9647 0.7004 0.0000
vt 0.9517 0.7004 0.0000
vt 0.9517 0.6883 0.0000
vt 0.4054 0.2151 0.0000
vt 0.4175 0.2151 0.0000
vt 0.4175 0.8199 0.0000
vt 0.4054 0.8199 0.0000
vt 0.3004 0.2444 0.0000
vt 0.3004 0.8491 0.0000
vt 0.2883 0.8491 0.0000
vt 0.2883 0.2444 0.0000
vt 0.3159 0.2444 0.0000
vt 0.3159 0.8491 0.0000
vt 0.3029 0.8491 0.0000
vt 0.3029 0.2444 0.0000
vt 0.7110 0.9224 0.0000
vt 0.7110 0.9345 0.0000
vt 0.6980 0.9345 0.0000
vt 0.6980 0.9224 0.0000
vt 0.2151 0.8687 0.0000
vt 0.2151 0.2639 0.0000
vt 0.2281 0.2639 0.0000
vt 0.2281 0.8687 0.0000
vt 0.9013 0.8883 0.0000
vt 0.9013 0.9004 0.0000
vt 0.8883 0.9004 0.0000
vt 0.8883 0.8883 0.0000
vt 0.4932 0.1956 0.0000
vt 0.5053 0.1956 0.0000
vt 0.5053 0.8004 0.0000
vt 0.4932 0.8004 0.0000
vt 0.5199 0.1907 0.0000
vt 0.5199 0.7955 0.0000
vt 0.5078 0.7955 0.0000
vt 0.5078 0.1907 0.0000
vt 0.0458 0.3131 0.0000
vt 0.0281 0.9176 0.0000
vt 0.0151 0.9172 0.0000
vt 0.0328 0.3127 0.0000
vt 0.9647 0.6444 0.0000
vt 0.9647 0.6565 0.0000
vt 0.9517 0.6565 0.0000
vt 0.9517 0.6444 0.0000
vt 0.1273 0.8930 0.0000
vt 0.1308 0.2883 0.0000
vt 0.1438 0.2884 0.0000
vt 0.1403 0.8931 0.0000
vt 0.9647 0.6297 0.0000
vt 0.9647 0.6418 0.0000
vt 0.9517 0.6418 0.0000
vt 0.9517 0.6297 0.0000
vt 0.4467 0.8150 0.0000
vt 0.4346 0.8150 0.0000
vt 0.4346 0.2102 0.0000
vt 0.4467 0.2102 0.0000
vt 0.2565 0.2590 0.0000
vt 0.2565 0.8638 0.0000
vt 0.2444 0.8638 0.0000
vt 0.2444 0.2590 0.0000
vt 0.3745 0.2298 0.0000
vt 0.3745 0.8345 0.0000
vt 0.3615 0.8345 0.0000
vt 0.3615 0.2298 0.0000
vt 0.9647 0.5712 0.0000
vt 0.9647 0.5833 0.0000
vt 0.9517 0.5833 0.0000
vt 0.9517 0.5712 0.0000
vt 0.4200 0.8199 0.0000
vt 0.4200 0.2151 0.0000
vt 0.4330 0.2151 0.0000
vt 0.4330 0.8199 0.0000
vt 0.7549 0.9224 0.0000
vt 0.7549 0.9345 0.0000
vt 0.7419 0.9345 0.0000
vt 0.7419 0.9224 0.0000
vt 0.4785 0.2005 0.0000
vt 0.4906 0.2005 0.0000
vt 0.4906 0.8052 0.0000
vt 0.4785 0.8052 0.0000
vt 0.6491 0.9345 0.0000
vt 0.0444 0.9345 0.0000
vt 0.0444 0.9224 0.0000
vt 0.6491 0.9224 0.0000
vt 0.1256 0.2884 0.0000
vt 0.1208 0.8931 0.0000
vt 0.1078 0.8930 0.0000
vt 0.1126 0.2883 0.0000
vt 0.9647 0.6151 0.0000
vt 0.9647 0.6272 0.0000
vt 0.9517 0.6272 0.0000
vt 0.9517 0.6151 0.0000
vt 0.0005 0.9221 0.0000
vt 0.0169 0.3176 0.0000
vt 0.0299 0.3179 0.0000
vt 0.0135 0.9224 0.0000
vt 0.9647 0.6005 0.0000
vt 0.9647 0.6126 0.0000
vt 0.9517 0.6126 0.0000
vt 0.9517 0.6005 0.0000
vt 0.3176 0.2395 0.0000
vt 0.3297 0.2395 0.0000
vt 0.3297 0.8443 0.0000
vt 0.3176 0.8443 0.0000
vt 0.2858 0.2493 0.0000
vt 0.2858 0.8540 0.0000
vt 0.2737 0.8540 0.0000
vt 0.2737 0.2493 0.0000
vt 0.4623 0.2054 0.0000
vt 0.4623 0.8101 0.0000
vt 0.4493 0.8101 0.0000
vt 0.4493 0.2054 0.0000
vt 0.7257 0.9224 0.0000
vt 0.7257 0.9345 0.0000
vt 0.7127 0.9345 0.0000
vt 0.7127 0.9224 0.0000
vt 0.1859 0.8784 0.0000
vt 0.1859 0.2737 0.0000
vt 0.1989 0.2737 0.0000
vt 0.1989 0.8784 0.0000
vt 0.6964 0.9224 0.0000
vt 0.6964 0.9345 0.0000
vt 0.6834 0.9345 0.0000
vt 0.6834 0.9224 0.0000
vt 0.6597 0.6054 0.0000
vt 0.6597 0.6976 0.0000
vt 0.6054 0.6976 0.0000
vt 0.6054 0.6054 0.0000
vt 0.6736 0.6054 0.0000
vt 0.7280 0.6054 0.0000
vt 0.7280 0.6976 0.0000
vt 0.6736 0.6976 0.0000
vt 0.6597 0.7263 0.0000
vt 0.6054 0.7263 0.0000
vt 0.6054 0.7029 0.0000
vt 0.6597 0.7029 0.0000
vt 0.7122 0.9702 0.0000
vt 0.6200 0.9702 0.0000
vt 0.6200 0.9468 0.0000
vt 0.7122 0.9468 0.0000
vt 0.7175 0.9468 0.0000
vt 0.7719 0.9468 0.0000
vt 0.7719 0.9702 0.0000
vt 0.7175 0.9702 0.0000
vt 0.8492 0.8927 0.0000
vt 0.8492 0.8005 0.0000
vt 0.8726 0.8005 0.0000
vt 0.8726 0.8927 0.0000
vt 0.8102 0.4054 0.0000
vt 0.8385 0.4054 0.0000
vt 0.8385 0.9052 0.0000
vt 0.8102 0.9052 0.0000
vt 0.9165 0.1907 0.0000
vt 0.9165 0.6905 0.0000
vt 0.8883 0.6905 0.0000
vt 0.8883 0.1907 0.0000
vt 0.2883 0.9858 0.0000
vt 0.7881 0.9858 0.0000
vt 0.7881 0.9995 0.0000
vt 0.2883 0.9995 0.0000
vt 0.9019 0.8297 0.0000
vt 0.9019 0.8580 0.0000
vt 0.8883 0.8580 0.0000
vt 0.8883 0.8297 0.0000
vt 0.9654 0.0151 0.0000
vt 0.9654 0.5149 0.0000
vt 0.9517 0.5149 0.0000
vt 0.9517 0.0151 0.0000
vt 0.9654 0.5175 0.0000
vt 0.9654 0.5458 0.0000
vt 0.9517 0.5458 0.0000
vt 0.9517 0.5175 0.0000
# 312 texture coords

o puertabidones
g puertabidones
usemtl wire_177028149
f 17/45/15 18/46/16 19/47/17 20/48/18 
f 21/49/19 22/50/20 23/51/21 24/52/22 
f 17/53/15 20/54/18 22/55/20 21/56/19 
f 20/57/18 19/58/17 23/59/21 22/60/20 
f 19/61/17 18/62/16 24/63/22 23/64/21 
f 18/65/16 17/66/15 21/67/19 24/68/22 
f 25/69/18 26/70/17 27/71/21 28/72/20 
f 29/73/15 30/74/19 31/75/22 32/76/16 
f 25/77/18 28/78/20 30/79/19 29/80/15 
f 28/81/20 27/82/21 31/83/22 30/84/19 
f 27/85/21 26/86/17 32/87/16 31/88/22 
f 26/89/17 25/90/18 29/91/15 32/92/16 
f 33/93/23 34/94/24 35/95/25 36/96/26 
f 37/97/27 38/98/28 39/99/29 40/100/30 
f 33/101/23 36/102/26 38/103/28 37/104/27 
f 36/105/26 35/106/25 39/107/29 38/108/28 
f 35/109/25 34/110/24 40/111/30 39/112/29 
f 34/113/24 33/114/23 37/115/27 40/116/30 
f 41/117/18 42/118/17 43/119/21 44/120/20 
f 45/121/15 46/122/19 47/123/22 48/124/16 
f 41/125/18 44/126/20 46/127/19 45/128/15 
f 44/129/20 43/130/21 47/131/22 46/132/19 
f 43/133/21 42/134/17 48/135/16 47/136/22 
f 42/137/17 41/138/18 45/139/15 48/140/16 
f 49/141/31 50/142/32 51/143/33 52/144/34 
f 53/145/35 54/146/36 55/147/37 56/148/38 
f 49/149/31 52/150/34 54/151/36 53/152/35 
f 52/153/34 51/154/33 55/155/37 54/156/36 
f 51/157/33 50/158/32 56/159/38 55/160/37 
f 50/161/32 49/162/31 53/163/35 56/164/38 
f 57/165/39 58/166/40 59/167/41 60/168/42 
f 61/169/43 62/170/44 63/171/45 64/172/46 
f 57/173/39 60/174/42 62/175/44 61/176/43 
f 60/177/42 59/178/41 63/179/45 62/180/44 
f 59/181/41 58/182/40 64/183/46 63/184/45 
f 58/185/40 57/186/39 61/187/43 64/188/46 
f 65/189/18 66/190/17 67/191/21 68/192/20 
f 69/193/15 70/194/19 71/195/22 72/196/16 
f 65/197/18 68/198/20 70/199/19 69/200/15 
f 68/201/20 67/202/21 71/203/22 70/204/19 
f 67/205/21 66/206/17 72/207/16 71/208/22 
f 66/209/17 65/210/18 69/211/15 72/212/16 
f 73/213/47 74/214/48 75/215/49 76/216/50 
f 77/217/51 78/218/52 79/219/53 80/220/54 
f 73/221/47 76/222/50 78/223/52 77/224/51 
f 76/225/50 75/226/49 79/227/53 78/228/52 
f 75/229/49 74/230/48 80/231/54 79/232/53 
f 74/233/48 73/234/47 77/235/51 80/236/54 
f 81/237/18 82/238/17 83/239/21 84/240/20 
f 85/241/15 86/242/19 87/243/22 88/244/16 
f 81/245/18 84/246/20 86/247/19 85/248/15 
f 84/249/20 83/250/21 87/251/22 86/252/19 
f 83/253/21 82/254/17 88/255/16 87/256/22 
f 82/257/17 81/258/18 85/259/15 88/260/16 
f 89/261/55 90/262/56 91/263/57 92/264/58 
f 93/265/59 94/266/60 95/267/61 96/268/62 
f 89/269/55 92/270/58 94/271/60 93/272/59 
f 92/273/58 91/274/57 95/275/61 94/276/60 
f 91/277/57 90/278/56 96/279/62 95/280/61 
f 90/281/56 89/282/55 93/283/59 96/284/62 
f 97/285/18 98/286/17 99/287/21 100/288/20 
f 101/289/15 102/290/19 103/291/22 104/292/16 
f 97/293/18 100/294/20 102/295/19 101/296/15 
f 100/297/20 99/298/21 103/299/22 102/300/19 
f 99/301/21 98/302/17 104/303/16 103/304/22 
f 98/305/17 97/306/18 101/307/15 104/308/16 
f 105/309/18 106/310/20 107/311/19 108/312/15 
f 109/313/63 110/314/16 111/315/22 112/316/21 
f 105/317/18 108/318/15 110/319/16 109/320/63 
f 108/321/15 107/322/19 111/323/22 110/324/16 
f 107/325/19 106/326/20 112/327/21 111/328/22 
f 106/329/20 105/330/18 109/331/63 112/332/21 
f 113/333/15 114/334/16 115/335/17 116/336/18 
f 117/337/19 118/338/20 119/339/21 120/340/22 
f 113/341/15 116/342/18 118/343/20 117/344/19 
f 116/345/18 115/346/17 119/347/21 118/348/20 
f 115/349/17 114/350/16 120/351/22 119/352/21 
f 114/353/16 113/354/15 117/355/19 120/356/22 
# 78 polygons

