# 3ds Max Wavefront OBJ Exporter v0.97b - (c)2007 guruware
# File Created: 22.12.2017 18:22:10

mtllib Personaje.mtl

#
# object Box001
#

v  -8.3559 0.0000 12.7617
v  -8.3559 0.0000 -6.9233
v  11.3291 0.0000 -6.9233
v  11.3291 0.0000 12.7617
v  -8.3559 39.3701 12.7617
v  11.3291 39.3701 12.7617
v  11.3291 39.3701 -6.9233
v  -8.3559 39.3701 -6.9233
# 8 vertices

vn -0.5774 -0.5774 0.5774
vn -0.5774 -0.5774 -0.5774
vn 0.5774 -0.5774 -0.5774
vn 0.5774 -0.5774 0.5774
vn -0.5774 0.5774 0.5774
vn 0.5774 0.5774 0.5774
vn 0.5774 0.5774 -0.5774
vn -0.5774 0.5774 -0.5774
# 8 vertex normals

vt 0.2283 0.7886 0.0000
vt 0.2283 0.6281 0.0000
vt 0.4113 0.6281 0.0000
vt 0.4113 0.7886 0.0000
vt 0.2228 0.7940 0.0000
vt 0.4058 0.7940 0.0000
vt 0.4058 0.9546 0.0000
vt 0.2228 0.9546 0.0000
vt 0.6515 0.2922 0.0000
vt 0.9007 0.2922 0.0000
vt 0.9007 0.7905 0.0000
vt 0.6515 0.7905 0.0000
vt 0.2144 0.1220 0.0000
vt 0.3957 0.1220 0.0000
vt 0.3957 0.4845 0.0000
vt 0.2144 0.4845 0.0000
vt 0.0309 0.1220 0.0000
vt 0.2122 0.1220 0.0000
vt 0.2122 0.4845 0.0000
vt 0.0309 0.4845 0.0000
vt 0.3980 0.1220 0.0000
vt 0.5792 0.1220 0.0000
vt 0.5792 0.4845 0.0000
vt 0.3980 0.4845 0.0000
# 24 texture coords

o Box001
g Box001
usemtl Material__25
s 2
f -8/-24/-8 -7/-23/-7 -6/-22/-6 -5/-21/-5 
s 4
f -4/-20/-4 -3/-19/-3 -2/-18/-2 -1/-17/-1 
s 8
f -8/-16/-8 -5/-15/-5 -3/-14/-3 -4/-13/-4 
s 16
f -5/-12/-5 -6/-11/-6 -2/-10/-2 -3/-9/-3 
s 32
f -6/-8/-6 -7/-7/-7 -1/-6/-1 -2/-5/-2 
s 64
f -7/-4/-7 -8/-3/-8 -4/-2/-4 -1/-1/-1 
# 6 polygons

