# 3ds Max Wavefront OBJ Exporter v0.97b - (c)2007 guruware
# File Created: 05.05.2018 11:05:34

mtllib RuinaEdificio1.mtl

#
# object RuinaEdificio1
#

v  -395.0422 35.9569 346.7426
v  -396.9976 35.3481 346.6839
v  -396.8301 44.4134 354.0564
v  -394.8747 45.0222 354.1151
v  -398.5067 -11.6956 346.5092
v  -396.5512 -11.0868 346.5679
v  -396.6845 -11.0430 353.7860
v  -398.6399 -11.6519 353.7273
v  -400.1350 8.6382 346.5560
v  -400.1660 11.7492 353.8265
v  -399.9171 -0.9898 317.5219
v  -401.8725 -1.5986 317.4632
v  -397.3914 7.3698 317.3358
v  -395.4360 7.9786 317.3945
v  -402.1214 11.1405 353.7678
v  -402.0904 8.0294 346.4973
v  -397.1634 18.2508 324.7393
v  -395.2080 18.8596 324.7980
v  -396.5453 40.8330 332.3432
v  -394.5899 41.4418 332.4019
v  -396.8643 35.3044 339.4659
v  -394.9089 35.9132 339.5246
v  -398.7904 32.3433 360.0419
v  -396.8350 32.9521 360.1006
v  -397.9736 -11.8704 317.6369
v  -396.0182 -11.2616 317.6956
v  -396.1515 -11.2179 324.9137
v  -398.1069 -11.8267 324.8550
v  -396.2847 -11.1742 332.1318
v  -398.2401 -11.7830 332.0731
v  -396.4180 -11.1305 339.3499
v  -398.3734 -11.7393 339.2911
v  -396.8177 -10.9993 384.5256
v  -398.7731 -11.6081 384.4669
v  -399.9275 2.7386 324.8030
v  -399.8053 10.4454 332.1523
v  -400.0017 8.5945 339.3379
v  -395.9015 2.3619 384.5661
v  -397.8569 1.7531 384.5074
v  -401.8829 2.1298 324.7443
v  -401.7607 9.8366 332.0935
v  -401.9571 7.9857 339.2792
# 42 vertices

vn -0.2578 0.8486 -0.4641
vn -0.2721 0.8840 -0.3823
vn -0.3083 0.9394 0.1482
vn -0.3073 0.9515 0.0068
vn 0.3067 -0.9517 0.0122
vn 0.3069 -0.9517 0.0078
vn 0.3069 -0.9517 0.0079
vn 0.9890 0.1402 -0.0046
vn 0.9860 0.1582 0.0116
vn 0.9988 -0.0154 0.0038
vn 0.9958 -0.0759 -0.0398
vn 0.0413 -0.0206 -1.0004
vn 0.0388 -0.0128 -1.0007
vn 0.0451 -0.0325 -0.9999
vn -0.9890 -0.1402 0.0046
vn -0.9958 0.0759 0.0398
vn -0.9988 0.0154 -0.0038
vn -0.9860 -0.1582 -0.0116
vn -0.1517 0.5577 -0.8183
vn -0.1212 0.4695 -0.8767
vn -0.1036 0.4178 -0.9047
vn -0.2771 0.8959 -0.3493
vn -0.2915 0.9281 -0.2337
vn -0.3036 0.9108 0.2786
vn -0.3007 0.8973 0.3220
vn -0.1774 0.4561 0.8726
vn 0.3070 -0.9517 0.0035
vn 0.9589 0.2793 -0.0198
vn 0.9356 0.3488 0.0093
vn 0.9985 0.0033 0.0191
vn 0.9951 -0.0691 0.0442
vn 0.9816 0.1850 -0.0155
vn 0.9849 -0.1252 0.1009
vn 0.9984 -0.0209 0.0175
vn 0.9821 -0.1793 -0.0515
vn 0.9794 -0.1104 -0.1755
vn 0.9733 -0.1944 0.1050
vn -0.9947 0.0077 0.1046
vn -0.9794 0.1104 0.1755
vn -0.8738 0.3551 -0.3223
vn -0.9985 -0.0033 -0.0191
vn -0.9951 0.0691 -0.0442
vn -0.8939 0.2337 -0.3717
vn -0.9849 0.1252 -0.1009
vn -0.9768 0.2036 -0.0423
vn -0.9760 0.2114 0.0444
vn -0.9984 0.0209 -0.0175
vn -0.9707 0.2066 -0.1057
vn 0.9707 -0.2066 0.1057
vn 0.0356 -0.0030 -1.0009
vn -0.9733 0.1944 -0.1050
vn 0.8738 -0.3551 0.3223
vn 0.8939 -0.2337 0.3717
vn 0.9768 -0.2036 0.0423
vn 0.9760 -0.2114 -0.0444
vn 0.9947 -0.0077 -0.1046
vn -0.9821 0.1793 0.0515
vn -0.9356 -0.3488 -0.0093
vn -0.9589 -0.2793 0.0198
vn -0.9816 -0.1850 0.0155
vn -0.2210 0.6024 0.7671
vn -0.0337 -0.0029 1.0010
# 62 vertex normals

vt 0.5052 0.5670 0.0000
vt 0.4839 0.5842 0.0000
vt 0.4425 0.4810 0.0000
vt 0.4638 0.4638 0.0000
vt 0.9514 0.3827 0.0000
vt 0.9297 0.3802 0.0000
vt 0.9371 0.3091 0.0000
vt 0.9587 0.3116 0.0000
vt 0.3386 0.0057 0.0000
vt 0.4163 0.0046 0.0000
vt 0.4112 0.2144 0.0000
vt 0.3316 0.2450 0.0000
vt 0.8843 0.7401 0.0000
vt 0.8662 0.7547 0.0000
vt 0.8810 0.6447 0.0000
vt 0.8991 0.6302 0.0000
vt 0.6102 0.9890 0.0000
vt 0.6031 0.7497 0.0000
vt 0.6828 0.7804 0.0000
vt 0.6878 0.9901 0.0000
vt 0.8402 0.5388 0.0000
vt 0.8583 0.5243 0.0000
vt 0.7620 0.3133 0.0000
vt 0.7801 0.2987 0.0000
vt 0.0112 0.1762 0.0000
vt 0.0342 0.1801 0.0000
vt 0.0495 0.2602 0.0000
vt 0.0264 0.2564 0.0000
vt 0.0360 0.3358 0.0000
vt 0.0129 0.3320 0.0000
vt 0.1076 0.3871 0.0000
vt 0.0848 0.3775 0.0000
vt 0.0644 0.2348 0.0000
vt 0.0871 0.2444 0.0000
vt 0.9221 0.6672 0.0000
vt 0.9004 0.6648 0.0000
vt 0.9078 0.5936 0.0000
vt 0.9294 0.5961 0.0000
vt 0.9151 0.5225 0.0000
vt 0.9367 0.5250 0.0000
vt 0.9224 0.4513 0.0000
vt 0.9440 0.4538 0.0000
vt 0.9647 0.0058 0.0000
vt 0.9863 0.0083 0.0000
vt 0.6492 0.0015 0.0000
vt 0.7269 0.0005 0.0000
vt 0.7279 0.1190 0.0000
vt 0.6479 0.1556 0.0000
vt 0.5716 0.0026 0.0000
vt 0.5653 0.2306 0.0000
vt 0.4888 0.2133 0.0000
vt 0.4939 0.0036 0.0000
vt 0.2517 0.4376 0.0000
vt 0.0005 0.1335 0.0000
vt 0.3092 0.5469 0.0000
vt 0.2791 0.9880 0.0000
vt 0.2721 0.8612 0.0000
vt 0.2209 0.6005 0.0000
vt 0.2763 0.5117 0.0000
vt 0.3228 0.5782 0.0000
vt 0.2413 0.7313 0.0000
vt 0.3548 0.6805 0.0000
vt 0.2188 0.9674 0.0000
vt 0.7419 0.5369 0.0000
vt 0.8160 0.4842 0.0000
vt 0.8369 0.7642 0.0000
vt 0.7604 0.7814 0.0000
vt 0.6643 0.5359 0.0000
vt 0.3927 0.4588 0.0000
vt 0.9609 0.8271 0.0000
vt 0.9428 0.8416 0.0000
vt 0.5808 0.4478 0.0000
vt 0.2528 0.4969 0.0000
vt 0.2100 0.6223 0.0000
vt 0.1563 0.4573 0.0000
vt 0.2136 0.3999 0.0000
vt 0.1911 0.8586 0.0000
vt 0.1070 0.5525 0.0000
vt 0.5444 0.5105 0.0000
vt 0.4703 0.4578 0.0000
vt 0.0075 0.0067 0.0000
vt 0.5233 0.5571 0.0000
vt 0.9995 0.8757 0.0000
vt 0.9985 0.9942 0.0000
vt 0.9208 0.9932 0.0000
vt 0.9195 0.8391 0.0000
vt 0.8431 0.9921 0.0000
vt 0.7655 0.9911 0.0000
vt 0.0972 0.7451 0.0000
vt 0.0744 0.7355 0.0000
vt 0.0993 0.8980 0.0000
vt 0.0765 0.8885 0.0000
# 92 texture coords

o RuinaEdificio1
g RuinaEdificio1
usemtl RuinaEdificio1
f 1/1/1 2/2/2 3/3/3 
f 3/3/3 4/4/4 1/1/1 
f 5/5/5 6/6/5 7/7/6 
f 7/7/6 8/8/7 5/5/5 
f 7/9/8 6/10/9 9/11/10 
f 9/11/10 10/12/11 7/9/8 
f 11/13/12 12/14/13 13/15/14 
f 13/15/14 14/16/14 11/13/12 
f 8/17/15 15/18/16 16/19/17 
f 16/19/17 5/20/18 8/17/15 
f 14/16/19 13/15/19 17/21/20 
f 17/21/20 18/22/21 14/16/19 
f 18/22/21 17/21/20 19/23/22 
f 19/23/22 20/24/23 18/22/21 
f 20/25/23 19/26/22 21/27/24 
f 21/27/24 22/28/25 20/25/23 
f 22/28/25 21/27/24 2/29/2 
f 2/29/2 1/30/1 22/28/25 
f 23/31/26 24/32/26 4/33/4 
f 4/33/4 3/34/3 23/31/26 
f 25/35/5 26/36/5 27/37/5 
f 27/37/5 28/38/5 25/35/5 
f 28/38/5 27/37/5 29/39/5 
f 29/39/5 30/40/5 28/38/5 
f 30/40/5 29/39/5 31/41/5 
f 31/41/5 32/42/5 30/40/5 
f 32/42/5 31/41/5 6/6/5 
f 6/6/5 5/5/5 32/42/5 
f 33/43/27 34/44/27 8/8/7 
f 8/8/7 7/7/6 33/43/27 
f 27/45/28 26/46/29 11/47/30 
f 11/47/30 35/48/31 27/45/28 
f 29/49/32 27/45/28 35/48/31 
f 35/48/31 36/50/33 29/49/32 
f 29/49/32 36/50/33 37/51/34 
f 37/51/34 31/52/9 29/49/32 
f 31/52/9 37/51/34 9/11/10 
f 9/11/10 6/10/9 31/52/9 
f 24/53/35 38/54/36 10/12/11 
f 10/12/11 4/55/37 24/53/35 
f 34/56/38 39/57/39 15/18/16 
f 15/18/16 8/17/15 34/56/38 
f 13/58/40 12/59/41 40/60/42 
f 40/60/42 17/61/43 13/58/40 
f 17/61/43 40/60/42 41/62/44 
f 41/62/44 19/63/45 17/61/43 
f 21/64/46 19/65/45 41/66/44 
f 41/66/44 42/67/47 21/64/46 
f 21/64/46 42/67/47 16/19/17 
f 16/19/17 2/68/48 21/64/46 
f 1/69/49 4/55/37 10/12/11 
f 10/12/11 9/11/10 1/69/49 
f 26/70/50 25/71/50 12/14/13 
f 12/14/13 11/13/12 26/70/50 
f 15/18/16 3/72/51 2/68/48 
f 2/68/48 16/19/17 15/18/16 
f 14/73/52 18/74/53 35/75/31 
f 35/75/31 11/76/30 14/73/52 
f 18/74/53 20/77/54 36/78/33 
f 36/78/33 35/75/31 18/74/53 
f 36/50/33 20/79/54 22/80/55 
f 22/80/55 37/51/34 36/50/33 
f 22/80/55 1/69/49 9/11/10 
f 9/11/10 37/51/34 22/80/55 
f 33/81/56 7/9/8 10/12/11 
f 10/12/11 38/54/36 33/81/56 
f 23/82/57 3/72/51 15/18/16 
f 15/18/16 39/57/39 23/82/57 
f 12/83/41 25/84/58 28/85/59 
f 28/85/59 40/86/42 12/83/41 
f 40/86/42 28/85/59 30/87/60 
f 30/87/60 41/66/44 40/86/42 
f 30/87/60 32/88/18 42/67/47 
f 42/67/47 41/66/44 30/87/60 
f 32/88/18 5/20/18 16/19/17 
f 16/19/17 42/67/47 32/88/18 
f 23/31/61 39/89/61 38/90/61 
f 38/90/61 24/32/61 23/31/61 
f 38/90/62 39/89/62 34/91/62 
f 34/91/62 33/92/62 38/90/62 
# 80 faces

