# 3ds Max Wavefront OBJ Exporter v0.97b - (c)2007 guruware
# File Created: 11.05.2018 12:31:02

mtllib suelo_exterior_1.mtl

#
# object suelo_exterior_1
#

v  -349.2377 0.0000 -73.0547
v  -312.3090 0.0000 -63.3387
v  -312.3090 62.2743 -97.6565
v  -349.2377 62.2743 -107.3725
v  -570.5368 0.0000 -120.8837
v  -532.3901 0.0000 -119.4977
v  -532.3901 62.2743 -153.8154
v  -570.5368 62.2743 -155.2015
v  -608.7355 0.0000 -120.8800
v  -608.7355 62.2743 -155.1978
v  110.5040 0.0000 74.1374
v  136.5721 0.0000 61.9754
v  132.7482 62.2743 39.5932
v  59.9291 0.0000 76.1109
v  70.5285 62.2743 21.9609
v  16.1009 62.2743 46.4837
v  -99.0139 0.0000 23.9521
v  -97.6068 62.2743 -7.5157
v  -121.4298 62.2743 22.0628
v  -57.2365 0.0000 23.8881
v  -58.1427 62.2743 -8.1030
v  -24.3557 0.0000 22.2687
v  -20.1642 62.2743 -7.0449
v  -166.0453 0.0000 68.0964
v  -133.8948 0.0000 62.8722
v  -133.2340 0.6821 62.3326
v  -145.5285 62.2743 25.2991
v  -167.5929 62.2743 40.2866
v  -192.0727 0.0000 84.1551
v  -213.1102 62.2743 30.3814
v  -247.4443 0.0000 16.1647
v  -233.2649 62.2743 -24.8755
v  -283.4135 0.0000 -42.5749
v  -275.9118 62.2743 -86.0642
v  -419.3815 0.0000 -101.4543
v  -383.5540 0.0000 -89.2590
v  -383.5540 62.2743 -123.5768
v  -419.3815 62.2743 -135.7720
v  -494.4172 0.0000 -115.6703
v  -456.7601 0.0000 -109.2604
v  -456.7601 62.2743 -143.5782
v  -494.4172 62.2743 -149.9881
v  -645.2404 0.0000 -110.2832
v  -645.2404 62.2743 -144.6010
v  106.2131 62.2743 32.1523
v  -257.1696 0.0000 -23.0399
v  -249.2120 62.2743 -59.5489
v  -132.2906 0.0000 62.7241
v  -100.3869 0.0000 61.9895
v  -15.6465 0.0000 57.4380
v  -2.5243 0.0000 92.8842
v  0.6809 62.2743 12.7274
v  150.9362 62.2743 12.8148
v  198.1683 0.0000 -50.6411
v  198.1683 0.0000 -155.6771
v  172.5304 62.2743 -176.8947
v  -645.2404 62.2743 -194.9470
v  171.4240 0.0000 33.5710
v  187.8747 0.0000 1.5727
v  -699.6561 9.9661 -146.1134
v  -708.7567 78.4587 -165.0985
v  -649.8669 61.5345 -81.4711
v  -633.4166 0.0000 -81.4711
v  -612.1414 0.0000 -64.4366
v  -643.2896 61.5345 -64.4366
v  -413.8281 0.0000 213.6459
v  -413.7659 0.0000 191.9987
v  -444.9141 61.5345 191.9987
v  -444.9763 61.5345 213.6459
v  -515.0889 0.0000 24.0527
v  -539.0340 0.0000 -0.1573
v  -570.1822 61.5345 -0.1573
v  -546.2371 61.5345 24.0527
v  -453.9810 0.0000 59.5465
v  -480.0757 0.0000 41.3371
v  -511.2239 61.5345 41.3371
v  -485.1292 61.5345 59.5465
v  -660.5330 0.0000 412.1187
v  -634.1987 0.0000 402.6047
v  -665.3469 61.5345 402.6047
v  -691.6812 61.5345 381.6743
v  -494.6076 0.0000 390.0409
v  -453.7456 0.0000 378.7718
v  -484.8938 61.5345 378.7718
v  -525.7557 61.5345 390.0409
v  -414.2399 0.0000 163.9437
v  -414.0930 0.0000 132.6142
v  -445.2411 61.5345 132.6142
v  -445.3881 61.5345 163.9437
v  -413.9895 0.0000 280.7626
v  -413.7752 0.0000 255.7218
v  -444.9234 61.5345 255.7218
v  -445.1377 61.5345 280.7626
v  -527.5414 0.0000 396.7197
v  -558.6896 61.5345 396.7197
v  -421.5785 0.0000 102.4264
v  -452.7267 61.5345 102.4264
v  -560.7528 0.0000 -33.7818
v  -596.9552 0.0000 -59.8920
v  -628.1034 61.5345 -59.8920
v  -591.9010 61.5345 -33.7818
v  -439.0106 0.0000 83.5282
v  -470.1588 61.5345 83.5282
v  -435.5348 0.0000 366.2655
v  -466.6830 61.5345 366.2655
v  -407.6861 0.0000 318.5719
v  -438.8343 61.5345 318.5719
v  -423.8795 0.0000 349.6586
v  -455.0277 61.5345 349.6586
v  -599.2119 0.0000 390.0963
v  -630.3601 61.5345 390.0963
v  -571.7487 0.0000 402.3593
v  -552.5471 0.0000 398.8082
v  -583.6953 61.5345 398.8082
v  -602.8969 61.5345 402.3593
v  -856.0063 67.6998 346.8337
v  -766.8183 -99.4414 415.9458
# 117 vertices

vn -0.2958 0.4610 0.8366
vn -0.3446 0.5028 0.7927
vn -0.2448 0.4680 0.8492
vn -0.3125 0.4585 0.8320
vn -0.0160 0.4826 0.8757
vn -0.0605 0.4818 0.8742
vn -0.0593 0.4818 0.8743
vn -0.0158 0.4826 0.8757
vn 0.1293 0.4786 0.8685
vn 0.1186 0.4792 0.8696
vn 0.3989 0.3318 0.8549
vn 0.4953 0.3206 0.8074
vn 0.6598 0.3768 0.6502
vn 0.2642 0.5597 0.7855
vn 0.3329 0.5858 0.7389
vn 0.2875 0.5689 0.7705
vn 0.7461 0.2868 0.6009
vn 0.0053 0.4549 0.8905
vn 0.0118 0.4456 0.8952
vn -0.0076 0.4547 0.8906
vn 0.0133 0.4507 0.8926
vn 0.0446 0.4230 0.9050
vn -0.0052 0.4474 0.8943
vn 0.3701 0.4333 0.8217
vn 0.1360 0.5303 0.8368
vn 0.0765 0.5250 0.8477
vn 0.2654 0.4808 0.8357
vn 0.2679 0.4899 0.8296
vn 0.2643 0.4838 0.8343
vn -0.1683 0.6110 0.7735
vn -0.8506 0.3439 0.3978
vn -0.8160 0.3438 0.4646
vn -0.8682 0.3657 0.3354
vn -0.5253 0.5082 0.6825
vn -0.4584 0.5018 0.7335
vn -0.2374 0.4688 0.8508
vn -0.3399 0.4539 0.8237
vn -0.3287 0.4558 0.8272
vn -0.2288 0.4698 0.8526
vn -0.1190 0.4792 0.8696
vn -0.1646 0.4761 0.8639
vn -0.1628 0.4762 0.8641
vn -0.1165 0.4794 0.8699
vn 0.2464 0.4678 0.8488
vn -0.0393 0.5956 0.8023
vn -0.0184 0.5580 0.8296
vn -0.1715 0.5917 0.7877
vn -0.7807 0.4203 0.4624
vn -0.7038 0.4451 0.5536
vn 0.0320 0.5351 0.8442
vn 0.0193 0.5443 0.8387
vn 0.0907 0.5333 0.8410
vn -0.8466 0.4480 0.2875
vn -0.8255 0.4746 0.3056
vn -0.8076 0.4735 0.3515
vn -0.7591 0.4179 0.4990
vn -0.8600 0.3952 0.3227
vn -0.6416 0.3616 0.6764
vn 0.8214 0.4611 0.3356
vn 0.8170 0.5749 0.0440
vn 0.8864 0.4560 0.0799
vn 0.9069 0.4085 0.1032
vn 0.0000 1.0000 -0.0000
vn -0.0000 1.0000 0.0000
vn 0.0000 1.0000 0.0000
vn 0.9400 0.3394 0.0339
vn 0.7388 0.3765 0.5590
vn 0.8487 0.4546 0.2702
vn -0.2284 0.5334 0.8145
vn -0.2059 0.6618 0.7208
vn 0.2183 0.5403 0.8127
vn -0.7460 0.2726 0.6076
vn 0.6613 0.4993 0.5598
vn 0.7322 0.4623 0.5001
vn 0.7500 0.0961 -0.6544
vn 0.7004 0.1872 -0.6888
vn 0.6785 0.2221 -0.7002
vn 0.6165 0.1648 -0.7699
vn 0.8129 0.3750 -0.4457
vn 0.8436 0.4270 -0.3257
vn 0.8922 0.4516 0.0007
vn 0.8922 0.4516 -0.0062
vn 0.8922 0.4516 -0.0063
vn 0.5307 0.2686 -0.8039
vn 0.7152 0.3620 -0.5978
vn 0.7342 0.3717 -0.5681
vn 0.5873 0.2973 -0.7528
vn 0.7016 0.3552 -0.6177
vn 0.5074 0.2568 -0.8226
vn 0.4775 0.2417 -0.8448
vn 0.6553 0.3317 -0.6786
vn -0.0347 0.2376 0.9707
vn 0.3329 0.1685 0.9278
vn -0.1939 0.1345 0.9718
vn -0.3283 0.2801 0.9021
vn 0.2403 0.1216 0.9630
vn 0.4484 0.2270 0.8645
vn 0.3730 0.1888 0.9084
vn 0.2213 0.1120 0.9688
vn 0.8922 0.4516 -0.0055
vn 0.8875 0.4492 -0.1027
vn 0.8868 0.4489 -0.1102
vn 0.8922 0.4516 -0.0054
vn 0.8899 0.4505 -0.0717
vn 0.8922 0.4516 0.0033
vn 0.8901 0.4506 -0.0682
vn 0.1577 0.0798 0.9843
vn 0.1239 0.0627 0.9903
vn 0.8151 0.4126 -0.4067
vn 0.7900 0.3999 -0.4647
vn 0.7002 0.3544 -0.6198
vn 0.5609 0.2839 -0.7777
vn 0.6575 0.3328 -0.6760
vn 0.7293 0.3691 -0.5761
vn 0.7453 0.3772 -0.5498
vn 0.6830 0.3457 0.6434
vn 0.6389 0.3234 0.6980
vn 0.8825 0.4467 -0.1471
vn 0.7882 0.3990 0.4686
vn 0.8091 0.4096 0.4215
vn 0.7802 0.3949 0.4851
vn 0.3319 0.1680 0.9282
vn 0.1811 0.0917 0.9792
vn 0.1179 0.0597 0.9912
vn 0.1468 0.0743 0.9864
vn -0.2079 0.2980 0.9316
vn -0.2194 0.2705 0.9374
vn -0.3525 0.3272 0.8768
vn -0.1577 0.4766 0.8649
vn 0.1586 0.9854 0.0621
vn 0.1794 0.9811 0.0722
vn 0.0532 0.9985 0.0112
vn 0.0368 0.9993 0.0033
# 133 vertex normals

vt 0.8992 0.2678 0.0000
vt 0.8992 0.2207 0.0000
vt 0.9862 0.2315 0.0000
vt 0.9862 0.2785 0.0000
vt 0.8934 0.5465 0.0000
vt 0.8982 0.5006 0.0000
vt 0.9852 0.5113 0.0000
vt 0.9803 0.5572 0.0000
vt 0.8878 0.5920 0.0000
vt 0.9747 0.6027 0.0000
vt 0.5730 0.3264 0.0000
vt 0.5756 0.2904 0.0000
vt 0.6588 0.2887 0.0000
vt 0.5771 0.3854 0.0000
vt 0.6720 0.3512 0.0000
vt 0.6671 0.4260 0.0000
vt 0.1048 0.9963 0.0000
vt 0.0152 0.9882 0.0000
vt 0.0354 0.9558 0.0000
vt 0.6681 0.4654 0.0000
vt 0.6683 0.5164 0.0000
vt 0.5828 0.5156 0.0000
vt 0.5830 0.4674 0.0000
vt 0.6675 0.5565 0.0000
vt 0.5836 0.5619 0.0000
vt 0.7864 0.1349 0.0000
vt 0.8264 0.1326 0.0000
vt 0.8274 0.1336 0.0000
vt 0.8258 0.2242 0.0000
vt 0.7937 0.2193 0.0000
vt 0.7492 0.1301 0.0000
vt 0.7443 0.2322 0.0000
vt 0.5163 0.5779 0.0000
vt 0.5350 0.6601 0.0000
vt 0.4622 0.6601 0.0000
vt 0.8918 0.1798 0.0000
vt 0.9850 0.1845 0.0000
vt 0.9048 0.3603 0.0000
vt 0.9032 0.3138 0.0000
vt 0.9902 0.3245 0.0000
vt 0.9917 0.3710 0.0000
vt 0.9017 0.4541 0.0000
vt 0.9037 0.4073 0.0000
vt 0.9906 0.4180 0.0000
vt 0.9886 0.4649 0.0000
vt 0.8764 0.6322 0.0000
vt 0.9634 0.6429 0.0000
vt 0.6644 0.3154 0.0000
vt 0.8848 0.1424 0.0000
vt 0.9741 0.1444 0.0000
vt 0.4646 0.5779 0.0000
vt 0.4164 0.6601 0.0000
vt 0.8283 0.1325 0.0000
vt 0.8661 0.1277 0.0000
vt 0.8555 0.2221 0.0000
vt 0.0911 0.9538 0.0000
vt 0.0445 0.9546 0.0000
vt 0.0886 0.8667 0.0000
vt 0.1343 0.8675 0.0000
vt 0.1352 0.9506 0.0000
vt 0.1666 0.8743 0.0000
vt 0.8911 0.7101 0.0000
vt 0.9829 0.7916 0.0000
vt 0.9783 0.9197 0.0000
vt 0.8957 0.9433 0.0000
vt 0.4775 0.2384 0.0000
vt 0.4457 0.3027 0.0000
vt 0.3892 0.3087 0.0000
vt 0.5014 0.1984 0.0000
vt 0.3645 0.2876 0.0000
vt 0.5373 0.1698 0.0000
vt 0.3357 0.2805 0.0000
vt 0.3107 0.2415 0.0000
vt 0.2629 0.2356 0.0000
vt 0.1888 0.2531 0.0000
vt 0.1656 0.2920 0.0000
vt 0.1029 0.2551 0.0000
vt 0.2167 0.2319 0.0000
vt 0.0583 0.2628 0.0000
vt 0.0251 0.2683 0.0000
vt 0.0066 0.2334 0.0000
vt 0.0054 0.0005 0.0000
vt 0.9995 0.0864 0.0000
vt 0.9929 0.1475 0.0000
vt 0.9500 0.1298 0.0000
vt 0.9037 0.1248 0.0000
vt 0.8572 0.1214 0.0000
vt 0.8107 0.1211 0.0000
vt 0.7642 0.1239 0.0000
vt 0.7178 0.1284 0.0000
vt 0.6727 0.1385 0.0000
vt 0.5829 0.1605 0.0000
vt 0.6290 0.1536 0.0000
vt 0.1308 0.9547 0.0000
vt 0.6681 0.2543 0.0000
vt 0.5840 0.2361 0.0000
vt 0.9790 0.7271 0.0000
vt 0.5956 0.2011 0.0000
vt 0.5762 0.4655 0.0000
vt 0.6060 0.5779 0.0000
vt 0.3683 0.8824 0.0000
vt 0.3430 0.7981 0.0000
vt 0.4692 0.8185 0.0000
vt 0.4822 0.8954 0.0000
vt 0.5153 0.8958 0.0000
vt 0.4906 0.8181 0.0000
vt 0.4837 0.3868 0.0000
vt 0.4837 0.3601 0.0000
vt 0.5690 0.3602 0.0000
vt 0.5690 0.3870 0.0000
vt 0.4899 0.8113 0.0000
vt 0.5316 0.8113 0.0000
vt 0.5584 0.8914 0.0000
vt 0.5167 0.8914 0.0000
vt 0.5096 0.6611 0.0000
vt 0.4950 0.6911 0.0000
vt 0.4067 0.6924 0.0000
vt 0.4214 0.6624 0.0000
vt 0.3800 0.9018 0.0000
vt 0.4098 0.9043 0.0000
vt 0.3716 0.9797 0.0000
vt 0.3337 0.9822 0.0000
vt 0.4895 0.9819 0.0000
vt 0.4390 0.9819 0.0000
vt 0.4775 0.9058 0.0000
vt 0.5280 0.9058 0.0000
vt 0.4840 0.3253 0.0000
vt 0.4839 0.2865 0.0000
vt 0.5693 0.2867 0.0000
vt 0.5693 0.3254 0.0000
vt 0.4836 0.4699 0.0000
vt 0.4836 0.4389 0.0000
vt 0.5689 0.4390 0.0000
vt 0.5690 0.4700 0.0000
vt 0.5302 0.9819 0.0000
vt 0.5687 0.9058 0.0000
vt 0.4882 0.2492 0.0000
vt 0.5735 0.2493 0.0000
vt 0.5795 0.8079 0.0000
vt 0.6335 0.8110 0.0000
vt 0.6603 0.8911 0.0000
vt 0.6064 0.8880 0.0000
vt 0.4753 0.7314 0.0000
vt 0.3871 0.7327 0.0000
vt 0.4980 0.2259 0.0000
vt 0.5064 0.1962 0.0000
vt 0.5917 0.1964 0.0000
vt 0.5833 0.2260 0.0000
vt 0.4164 0.9819 0.0000
vt 0.4550 0.9058 0.0000
vt 0.4801 0.5167 0.0000
vt 0.5654 0.5168 0.0000
vt 0.4891 0.5552 0.0000
vt 0.5744 0.5554 0.0000
vt 0.4494 0.9076 0.0000
vt 0.4112 0.9830 0.0000
vt 0.5849 0.9819 0.0000
vt 0.5611 0.9819 0.0000
vt 0.5996 0.9058 0.0000
vt 0.6234 0.9058 0.0000
vt 0.4956 0.5758 0.0000
vt 0.5809 0.5760 0.0000
vt 0.1228 0.9898 0.0000
vt 0.2506 0.7737 0.0000
vt 0.2798 0.3108 0.0000
vt 0.3162 0.3056 0.0000
vt 0.3375 0.3163 0.0000
vt 0.3661 0.3271 0.0000
vt 0.4025 0.3460 0.0000
vt 0.4467 0.3730 0.0000
vt 0.4639 0.3938 0.0000
vt 0.4719 0.4172 0.0000
vt 0.4805 0.4591 0.0000
vt 0.2430 0.2843 0.0000
vt 0.4604 0.5014 0.0000
vt 0.4522 0.5308 0.0000
vt 0.4380 0.5802 0.0000
vt 0.4308 0.6056 0.0000
vt 0.4208 0.6384 0.0000
vt 0.4104 0.6752 0.0000
vt 0.3915 0.7081 0.0000
vt 0.3646 0.7244 0.0000
vt 0.3390 0.7475 0.0000
vt 0.3023 0.7601 0.0000
vt 0.2554 0.7686 0.0000
vt 0.2050 0.3000 0.0000
vt 0.2191 0.7889 0.0000
vt 0.1823 0.8211 0.0000
vt 0.1311 0.8395 0.0000
vt 0.1117 0.8398 0.0000
vt 0.0983 0.8575 0.0000
vt 0.9831 0.7250 0.0000
vt 0.8993 0.7082 0.0000
vt 0.0010 0.9358 0.0000
vt 0.0005 0.2856 0.0000
# 195 texture coords

o suelo_exterior_1
g suelo_exterior_1
usemtl SueloExterior2
f 1/1/1 2/2/2 3/3/3 
f 3/3/3 4/4/4 1/1/1 
f 5/5/5 6/6/6 7/7/7 
f 7/7/7 8/8/8 5/5/5 
f 9/9/9 5/5/5 8/8/8 
f 8/8/8 10/10/10 9/9/9 
f 11/11/11 12/12/12 13/13/13 
f 14/14/14 15/15/15 16/16/16 
f 17/17/17 18/18/17 19/19/17 
f 17/20/18 20/21/19 21/22/20 
f 21/22/20 18/23/21 17/20/18 
f 20/21/19 22/24/22 23/25/23 
f 23/25/23 21/22/20 20/21/19 
f 24/26/24 25/27/25 26/28/26 
f 24/26/24 26/28/26 27/29/27 
f 24/26/24 27/29/27 28/30/28 
f 29/31/29 24/26/24 28/30/28 
f 28/30/28 30/32/30 29/31/29 
f 31/33/31 30/34/32 32/35/33 
f 2/2/2 33/36/34 34/37/35 
f 34/37/35 3/3/3 2/2/2 
f 35/38/36 36/39/37 37/40/38 
f 37/40/38 38/41/39 35/38/36 
f 36/39/37 1/1/1 4/4/4 
f 4/4/4 37/40/38 36/39/37 
f 39/42/40 40/43/41 41/44/42 
f 41/44/42 42/45/43 39/42/40 
f 40/43/41 35/38/36 38/41/39 
f 38/41/39 41/44/42 40/43/41 
f 6/6/6 39/42/40 42/45/43 
f 42/45/43 7/7/7 6/6/6 
f 43/46/44 9/9/9 10/10/10 
f 10/10/10 44/47/44 43/46/44 
f 14/14/45 11/11/46 45/48/47 
f 33/36/34 46/49/48 47/50/49 
f 47/50/49 34/37/35 33/36/34 
f 46/51/48 31/33/31 32/35/33 
f 32/35/33 47/52/49 46/51/48 
f 48/53/50 49/54/51 19/55/52 
f 48/53/50 19/55/52 27/29/27 
f 26/28/26 48/53/50 27/29/27 
f 50/56/53 51/57/54 16/58/55 
f 16/58/55 52/59/56 50/56/53 
f 22/60/57 50/56/53 52/59/56 
f 52/59/56 23/61/58 22/60/57 
f 53/62/59 54/63/60 55/64/61 
f 55/64/61 56/65/62 53/62/59 
f 32/66/63 30/67/63 28/68/63 
f 47/69/63 32/66/63 28/68/63 
f 47/69/63 28/68/63 27/70/63 
f 34/71/64 47/69/63 27/70/63 
f 27/70/63 19/72/63 18/73/63 
f 34/71/64 27/70/63 18/73/63 
f 34/71/64 18/73/63 21/74/64 
f 52/75/63 16/76/63 15/77/64 
f 23/78/64 52/75/63 15/77/64 
f 45/79/63 13/80/63 53/81/65 
f 15/77/64 45/79/63 53/81/65 
f 15/77/64 53/81/65 56/82/64 
f 23/78/64 15/77/64 56/82/64 
f 21/74/64 23/78/64 56/82/64 
f 34/71/64 21/74/64 56/82/64 
f 57/83/65 44/84/65 10/85/65 
f 56/82/64 57/83/65 10/85/65 
f 56/82/64 10/85/65 8/86/64 
f 56/82/64 8/86/64 7/87/64 
f 56/82/64 7/87/64 42/88/64 
f 56/82/64 42/88/64 41/89/64 
f 56/82/64 41/89/64 38/90/64 
f 56/82/64 38/90/64 37/91/64 
f 34/71/64 56/82/64 37/91/64 
f 3/92/63 34/71/64 37/91/64 
f 3/92/63 37/91/64 4/93/63 
f 19/19/66 49/94/66 17/17/66 
f 53/95/59 13/13/13 58/96/67 
f 54/63/60 53/62/59 59/97/68 
f 13/13/13 12/12/12 58/96/67 
f 53/95/59 58/96/67 59/98/68 
f 13/13/69 45/48/47 11/11/46 
f 45/48/47 15/15/70 14/14/45 
f 16/16/16 51/99/71 14/14/14 
f 31/33/31 29/100/72 30/34/32 
f 60/101/73 61/102/74 62/103/75 
f 62/103/75 63/104/76 60/101/73 
f 64/105/77 63/104/78 62/103/79 
f 62/103/79 65/106/80 64/105/77 
f 66/107/81 67/108/82 68/109/83 
f 68/109/83 69/110/81 66/107/81 
f 70/111/84 71/112/85 72/113/86 
f 72/113/86 73/114/87 70/111/84 
f 74/115/88 75/116/89 76/117/90 
f 76/117/90 77/118/91 74/115/88 
f 78/119/92 79/120/93 80/121/94 
f 80/121/94 81/122/95 78/119/92 
f 82/123/96 83/124/97 84/125/98 
f 84/125/98 85/126/99 82/123/96 
f 86/127/100 87/128/101 88/129/102 
f 88/129/102 89/130/103 86/127/100 
f 90/131/104 91/132/105 92/133/105 
f 92/133/105 93/134/106 90/131/104 
f 91/132/105 66/107/81 69/110/81 
f 69/110/81 92/133/105 91/132/105 
f 67/108/82 86/127/100 89/130/103 
f 89/130/103 68/109/83 67/108/82 
f 94/135/107 82/123/96 85/126/99 
f 85/126/99 95/136/108 94/135/107 
f 87/128/101 96/137/109 97/138/110 
f 97/138/110 88/129/102 87/128/101 
f 98/139/111 99/140/112 100/141/112 
f 100/141/112 101/142/113 98/139/111 
f 71/112/85 98/139/111 101/142/113 
f 101/142/113 72/113/86 71/112/85 
f 75/116/89 70/143/84 73/144/87 
f 73/144/87 76/117/90 75/116/89 
f 102/145/114 74/146/88 77/147/91 
f 77/147/91 103/148/115 102/145/114 
f 96/137/109 102/145/114 103/148/115 
f 103/148/115 97/138/110 96/137/109 
f 83/124/97 104/149/116 105/150/117 
f 105/150/117 84/125/98 83/124/97 
f 106/151/118 90/131/104 93/134/106 
f 93/134/106 107/152/118 106/151/118 
f 108/153/119 106/151/120 107/152/120 
f 107/152/120 109/154/121 108/153/119 
f 79/120/93 110/155/122 111/156/122 
f 111/156/122 80/121/94 79/120/93 
f 112/157/123 113/158/124 114/159/125 
f 114/159/125 115/160/123 112/157/123 
f 104/161/116 108/153/119 109/154/121 
f 109/154/121 105/162/117 104/161/116 
f 113/158/124 94/135/107 95/136/108 
f 95/136/108 114/159/125 113/158/124 
f 78/119/92 81/122/95 116/163/126 
f 116/163/126 117/164/127 78/119/92 
f 111/165/63 115/166/63 114/167/63 
f 114/167/63 95/168/63 85/169/63 
f 111/165/63 114/167/63 85/169/63 
f 85/169/63 84/170/63 105/171/63 
f 105/171/63 109/172/63 107/173/63 
f 85/169/63 105/171/63 107/173/63 
f 111/165/63 85/169/63 107/173/63 
f 80/174/63 111/165/63 107/173/63 
f 80/174/63 107/173/63 93/175/63 
f 93/175/63 92/176/63 69/177/63 
f 69/177/63 68/178/63 89/179/63 
f 93/175/63 69/177/63 89/179/63 
f 89/179/63 88/180/63 97/181/63 
f 89/179/63 97/181/63 103/182/63 
f 93/175/63 89/179/63 103/182/63 
f 103/182/63 77/183/63 76/184/63 
f 103/182/63 76/184/63 73/185/63 
f 93/175/63 103/182/63 73/185/63 
f 80/174/63 93/175/63 73/185/63 
f 81/186/63 80/174/63 73/185/63 
f 81/186/63 73/185/63 72/187/63 
f 72/187/63 101/188/63 100/189/63 
f 81/186/63 72/187/63 100/189/63 
f 81/186/63 100/189/63 65/190/63 
f 62/191/63 81/186/63 65/190/63 
f 43/46/128 44/47/129 61/192/74 
f 61/192/74 60/193/73 43/46/128 
f 62/191/130 61/194/131 116/195/132 
f 116/195/132 81/186/133 62/191/130 
# 163 faces

